<svg id="Groupe_7410" data-name="Groupe 7410" xmlns="http://www.w3.org/2000/svg" width="50" height="50" viewBox="0 0 50 50">
  <rect id="Rectangle_173_6" data-name="Rectangle 173_6" width="50" height="50" rx="6" fill="#fff" opacity="0"/>
  <g id="csv" transform="translate(10 5.782)">
    <path id="Tracé_484" data-name="Tracé 484" d="M27.769,0H7.521C6.957,0,6.5.438,6.5,1.288V36.769c0,.231.457.669,1.021.669H35.479c.564,0,1.021-.438,1.021-.669V8.676c0-.465-.065-.615-.179-.725L28.2.172A.63.63,0,0,0,27.769,0Z" transform="translate(-6.5 0)" fill="#e9e9e0"/>
    <path id="Tracé_485" data-name="Tracé 485" d="M37.5.151V8.072h8.267Z" transform="translate(-15.872 -0.05)" fill="#d9d7ca"/>
    <path id="Tracé_486" data-name="Tracé 486" d="M35.479,50.365H7.521A1,1,0,0,1,6.5,49.387V39h30V49.387A1,1,0,0,1,35.479,50.365Z" transform="translate(-6.5 -12.928)" fill="#f36fa0"/>
    <g id="Groupe_397" data-name="Groupe 397" transform="translate(5.638 28.586)">
      <path id="Tracé_487" data-name="Tracé 487" d="M19.464,48.92a2.617,2.617,0,0,1-.887.548,3.053,3.053,0,0,1-1.068.183,2.994,2.994,0,0,1-1.159-.219,2.592,2.592,0,0,1-.925-.649A3.029,3.029,0,0,1,14.8,47.7a5.112,5.112,0,0,1,0-2.993,3.014,3.014,0,0,1,.62-1.074,2.634,2.634,0,0,1,.93-.654,2.946,2.946,0,0,1,1.154-.224,3.069,3.069,0,0,1,1.068.183,2.621,2.621,0,0,1,.887.548l-.792.677a1.442,1.442,0,0,0-.53-.384,1.592,1.592,0,0,0-.606-.119,1.787,1.787,0,0,0-.673.128,1.433,1.433,0,0,0-.572.434,2.2,2.2,0,0,0-.4.791,4.48,4.48,0,0,0-.153,1.188,4.536,4.536,0,0,0,.148,1.17,2.25,2.25,0,0,0,.382.791,1.516,1.516,0,0,0,.553.448,1.546,1.546,0,0,0,.654.142,1.74,1.74,0,0,0,.644-.119,1.511,1.511,0,0,0,.548-.384Z" transform="translate(-14.581 -42.76)" fill="#fff"/>
      <path id="Tracé_488" data-name="Tracé 488" d="M27.863,47.759a1.677,1.677,0,0,1-.158.709,1.851,1.851,0,0,1-.444.6,2.151,2.151,0,0,1-.706.416,2.734,2.734,0,0,1-.954.155c-.153,0-.31-.008-.472-.023a3.986,3.986,0,0,1-.491-.078,2.649,2.649,0,0,1-.472-.151,1.525,1.525,0,0,1-.387-.233l.2-.786a2.057,2.057,0,0,0,.338.142c.137.045.278.088.424.128a4.439,4.439,0,0,0,.439.1,2.531,2.531,0,0,0,.41.037,1.349,1.349,0,0,0,.892-.261.952.952,0,0,0,.31-.772.724.724,0,0,0-.219-.53,2.368,2.368,0,0,0-.548-.4q-.329-.178-.711-.356a4.345,4.345,0,0,1-.715-.421,2.233,2.233,0,0,1-.553-.571,1.448,1.448,0,0,1-.219-.822,1.741,1.741,0,0,1,.634-1.385,2.071,2.071,0,0,1,.677-.37,2.57,2.57,0,0,1,.816-.128,5.214,5.214,0,0,1,.887.078,2.008,2.008,0,0,1,.725.251c-.038.079-.083.166-.133.261l-.143.265c-.045.082-.083.151-.114.206a.839.839,0,0,1-.057.092,1.162,1.162,0,0,1-.129-.073,1.008,1.008,0,0,0-.205-.092,1.52,1.52,0,0,0-.353-.064,3.481,3.481,0,0,0-.563.009,1.017,1.017,0,0,0-.363.1,1.254,1.254,0,0,0-.306.215.98.98,0,0,0-.21.288.71.71,0,0,0-.076.306.807.807,0,0,0,.219.59,2.12,2.12,0,0,0,.543.393q.324.169.706.329a3.9,3.9,0,0,1,.711.388,2,2,0,0,1,.548.571A1.59,1.59,0,0,1,27.863,47.759Z" transform="translate(-17.362 -42.76)" fill="#fff"/>
      <path id="Tracé_489" data-name="Tracé 489" d="M33.088,49.7,30.9,42.924h1.307l1.631,5.813,1.727-5.813h1.3L34.577,49.7Z" transform="translate(-19.516 -42.814)" fill="#fff"/>
    </g>
    <path id="Tracé_490" data-name="Tracé 490" d="M19.872,14.674V12H11.5V26.708H34.523V14.674ZM12.9,13.337h5.581v1.337H12.9Zm0,2.674h5.581v1.337H12.9Zm0,2.674h5.581v1.337H12.9Zm0,2.674h5.581V22.7H12.9Zm5.581,4.011H12.9V24.033h5.581Zm14.651,0H19.872V24.033H33.128Zm0-2.674H19.872V21.359H33.128Zm0-2.674H19.872V18.685H33.128ZM19.872,17.348V16.011H33.128v1.337Z" transform="translate(-8.012 -3.978)" fill="#c8bdb8"/>
  </g>
</svg>
