<svg id="Avatar_7" xmlns="http://www.w3.org/2000/svg" width="50" height="50" viewBox="0 0 50 50">
  <rect id="Rectangle_172_13" data-name="Rectangle 172_13" width="50" height="50" rx="6" fill="#fff" opacity="0"/>
  <g id="doc" transform="translate(10 6.282)">
    <path id="Tracé_459" data-name="Tracé 459" d="M27.769,0H7.521C6.957,0,6.5.438,6.5,1.288V36.769c0,.231.457.669,1.021.669H35.479c.564,0,1.021-.438,1.021-.669V8.676c0-.465-.065-.615-.179-.725L28.2.172A.63.63,0,0,0,27.769,0Z" transform="translate(-6.5 0)" fill="#e9e9e0"/>
    <path id="Tracé_460" data-name="Tracé 460" d="M37.5.151V8.072h8.267Z" transform="translate(-15.872 -0.05)" fill="#d9d7ca"/>
    <path id="Tracé_461" data-name="Tracé 461" d="M16.384,12.337H12.2A.669.669,0,1,1,12.2,11h4.186a.669.669,0,1,1,0,1.337Z" transform="translate(-8.012 -3.647)" fill="#8697cb"/>
    <path id="Tracé_462" data-name="Tracé 462" d="M18.477,17.337H12.2A.669.669,0,1,1,12.2,16h6.279a.669.669,0,1,1,0,1.337Z" transform="translate(-8.012 -5.304)" fill="#8697cb"/>
    <path id="Tracé_463" data-name="Tracé 463" d="M25.2,17.341a.751.751,0,0,1-.5-.194.658.658,0,0,1,0-.949.754.754,0,0,1,.991,0,.658.658,0,0,1,0,.949A.751.751,0,0,1,25.2,17.341Z" transform="translate(-11.942 -5.308)" fill="#8697cb"/>
    <path id="Tracé_464" data-name="Tracé 464" d="M34.779,17.337H29.2A.669.669,0,1,1,29.2,16h5.581a.669.669,0,1,1,0,1.337Z" transform="translate(-13.151 -5.304)" fill="#8697cb"/>
    <path id="Tracé_465" data-name="Tracé 465" d="M12.2,32.341a.751.751,0,0,1-.5-.194.658.658,0,0,1,0-.949.754.754,0,0,1,.991,0,.676.676,0,0,1,.2.475.688.688,0,0,1-.2.475A.751.751,0,0,1,12.2,32.341Z" transform="translate(-8.012 -10.28)" fill="#8697cb"/>
    <path id="Tracé_466" data-name="Tracé 466" d="M21.779,32.337H16.2A.669.669,0,1,1,16.2,31h5.581a.669.669,0,1,1,0,1.337Z" transform="translate(-9.221 -10.276)" fill="#8697cb"/>
    <path id="Tracé_467" data-name="Tracé 467" d="M42.593,17.337H41.2A.669.669,0,1,1,41.2,16h1.4a.669.669,0,1,1,0,1.337Z" transform="translate(-16.779 -5.304)" fill="#8697cb"/>
    <path id="Tracé_468" data-name="Tracé 468" d="M27.547,22.337H12.2A.669.669,0,1,1,12.2,21H27.547a.669.669,0,1,1,0,1.337Z" transform="translate(-8.012 -6.961)" fill="#8697cb"/>
    <path id="Tracé_469" data-name="Tracé 469" d="M41.384,22.337H37.2A.669.669,0,1,1,37.2,21h4.186a.669.669,0,1,1,0,1.337Z" transform="translate(-15.57 -6.961)" fill="#8697cb"/>
    <path id="Tracé_470" data-name="Tracé 470" d="M14.988,27.337H12.2A.669.669,0,1,1,12.2,26h2.791a.669.669,0,1,1,0,1.337Z" transform="translate(-8.012 -8.619)" fill="#8697cb"/>
    <path id="Tracé_471" data-name="Tracé 471" d="M27.174,27.337H20.2A.669.669,0,1,1,20.2,26h6.977a.669.669,0,1,1,0,1.337Z" transform="translate(-10.43 -8.619)" fill="#8697cb"/>
    <path id="Tracé_472" data-name="Tracé 472" d="M40.477,27.337H34.2A.669.669,0,1,1,34.2,26h6.279a.669.669,0,1,1,0,1.337Z" transform="translate(-14.663 -8.619)" fill="#8697cb"/>
    <path id="Tracé_473" data-name="Tracé 473" d="M35.479,50.365H7.521A1,1,0,0,1,6.5,49.387V39h30V49.387A1,1,0,0,1,35.479,50.365Z" transform="translate(-6.5 -12.928)" fill="#0096e6"/>
    <g id="Groupe_395" data-name="Groupe 395" transform="translate(6.186 28.586)">
      <path id="Tracé_474" data-name="Tracé 474" d="M21.041,46.1a4.754,4.754,0,0,1-.186,1.421,3.467,3.467,0,0,1-.472.987,2.377,2.377,0,0,1-.644.626,3.283,3.283,0,0,1-.691.343,2.959,2.959,0,0,1-.61.146c-.184.02-.321.031-.41.031H15.366V42.924h2.117a4.178,4.178,0,0,1,1.559.269,3.249,3.249,0,0,1,1.116.717,2.929,2.929,0,0,1,.663,1.019A3.248,3.248,0,0,1,21.041,46.1Zm-3.4,2.751a1.929,1.929,0,0,0,1.679-.713,3.5,3.5,0,0,0,.515-2.066,3.36,3.36,0,0,0-.1-.832,1.755,1.755,0,0,0-.405-.745,2.143,2.143,0,0,0-.816-.539,3.65,3.65,0,0,0-1.335-.206H16.51v5.1h1.135Z" transform="translate(-15.366 -42.814)" fill="#fff"/>
      <path id="Tracé_475" data-name="Tracé 475" d="M30.937,46.206a4.588,4.588,0,0,1-.224,1.5,3.023,3.023,0,0,1-.62,1.078,2.592,2.592,0,0,1-.925.649,3.172,3.172,0,0,1-2.318,0,2.592,2.592,0,0,1-.925-.649A3.029,3.029,0,0,1,25.3,47.7a5.112,5.112,0,0,1,0-2.993,3.014,3.014,0,0,1,.62-1.074,2.648,2.648,0,0,1,.925-.654,3.11,3.11,0,0,1,2.318,0,2.648,2.648,0,0,1,.925.654,3.047,3.047,0,0,1,.62,1.074A4.563,4.563,0,0,1,30.937,46.206Zm-2.957,2.55a1.743,1.743,0,0,0,.673-.132,1.5,1.5,0,0,0,.572-.434,2.16,2.16,0,0,0,.4-.791,4.563,4.563,0,0,0,.153-1.193,4.478,4.478,0,0,0-.148-1.165,2.3,2.3,0,0,0-.382-.791,1.457,1.457,0,0,0-.553-.448,1.594,1.594,0,0,0-.654-.137,1.787,1.787,0,0,0-.673.128,1.433,1.433,0,0,0-.572.434,2.2,2.2,0,0,0-.4.791,4.48,4.48,0,0,0-.153,1.188,4.537,4.537,0,0,0,.148,1.17,2.25,2.25,0,0,0,.382.791,1.516,1.516,0,0,0,.553.448A1.56,1.56,0,0,0,27.98,48.756Z" transform="translate(-18.303 -42.76)" fill="#fff"/>
      <path id="Tracé_476" data-name="Tracé 476" d="M40.491,48.92a2.617,2.617,0,0,1-.887.548,3.053,3.053,0,0,1-1.068.183,2.994,2.994,0,0,1-1.159-.219,2.592,2.592,0,0,1-.925-.649,3.029,3.029,0,0,1-.62-1.078,5.112,5.112,0,0,1,0-2.993,3.014,3.014,0,0,1,.62-1.074,2.634,2.634,0,0,1,.93-.654,2.946,2.946,0,0,1,1.154-.224,3.069,3.069,0,0,1,1.068.183,2.621,2.621,0,0,1,.887.548l-.792.677a1.442,1.442,0,0,0-.53-.384,1.592,1.592,0,0,0-.606-.119,1.787,1.787,0,0,0-.673.128,1.433,1.433,0,0,0-.572.434,2.2,2.2,0,0,0-.4.791,4.481,4.481,0,0,0-.153,1.188,4.536,4.536,0,0,0,.148,1.17,2.25,2.25,0,0,0,.382.791,1.516,1.516,0,0,0,.553.448,1.546,1.546,0,0,0,.654.142,1.739,1.739,0,0,0,.644-.119,1.511,1.511,0,0,0,.548-.384Z" transform="translate(-21.486 -42.76)" fill="#fff"/>
    </g>
  </g>
</svg>
