<svg xmlns="http://www.w3.org/2000/svg" xmlns:xlink="http://www.w3.org/1999/xlink" width="187.217" height="191.654" viewBox="0 0 187.217 191.654">
  <defs>
    <clipPath id="clip-path">
      <path id="Tracé_2423" data-name="Tracé 2423" d="M318.077,377.779c-15.709,1.09-41.81.722-41.81.722-13.472-.982-16.008-5.425-13.905-10.483,3.275-7.788,17.66-17.024,20.282-17.241a23.679,23.679,0,0,1,8.878,1.367l2.812-.593c-.865-2.332,8.025-7.524,12.088-5.283s12.46-.835,14.991.744a5.9,5.9,0,0,1,1.7,1.657,10,10,0,0,1,1.484,3.53h.035a9.141,9.141,0,0,1,1.947-.3,6.547,6.547,0,0,1,4.7,1.406,14.022,14.022,0,0,1,1.06,1.047c2.622,2.864,6,8.276,6.775,11.435C340.02,369.377,333.782,376.684,318.077,377.779Z" transform="translate(-261.707 -345.721)" fill="#999" stroke="#263238" stroke-linecap="round" stroke-linejoin="round" stroke-width="1"/>
    </clipPath>
    <clipPath id="clip-path-2">
      <path id="Tracé_2439" data-name="Tracé 2439" d="M75,356.732s-.247,11.149,18.214,19.369,68.63,12.213,77.771-16.747l-28.429-8.164H104.419L96.026,355Z" transform="translate(-75 -351.19)" fill="#92e3a9" stroke="#263238" stroke-linecap="round" stroke-linejoin="round" stroke-width="1"/>
    </clipPath>
    <clipPath id="clip-path-3">
      <path id="Tracé_2461" data-name="Tracé 2461" d="M180.822,369.829v1.856a1.372,1.372,0,0,1-.035.3,1.263,1.263,0,0,1-1.207.943H135.529a1.263,1.263,0,0,1-1.224-.952,1.373,1.373,0,0,1-.035-.3V369.82Z" transform="translate(-134.27 -369.82)" fill="#757575" stroke="#263238" stroke-linecap="round" stroke-linejoin="round" stroke-width="1"/>
    </clipPath>
    <clipPath id="clip-path-4">
      <path id="Tracé_2471" data-name="Tracé 2471" d="M233.566,416.926c-3,3.128-12.6,3.751-16.613,2.838-1.095-.251-5.079-.394-8.047-1.458-1.6-.567-2.907-1.4-3.305-2.665-1.151-3.6,8.99-10.461,8.99-10.461s6.468,1.246,7.809,1.566a25.586,25.586,0,0,0,4.759.658c3.076.134,5.157-.277,7.411.692C237.123,409.2,237.157,413.18,233.566,416.926Z" transform="translate(-205.51 -405.18)" fill="#757575" stroke="#263238" stroke-linecap="round" stroke-linejoin="round" stroke-width="1"/>
    </clipPath>
    <clipPath id="clip-path-5">
      <path id="Tracé_2483" data-name="Tracé 2483" d="M139.8,368.724c-.965,6.537-11.045,13.641-11.045,13.641s-2.791-2.617-3.712-2.509-4.759-.164-4.759-.164-30.354-11.361-34-11.422c-2.276-.035-8.835-2.029-12.079-7.2-1.93-3.072-2.687-7.268-.692-12.836,3.288-9.185,19.5-2.418,35.394,6.36,5.278,2.92,9.951,5.261,13.745,7.043,6.295,2.964,10.124,4.391,10.124,4.391l2.1-.753Z" transform="translate(-72.345 -343.845)" fill="#92e3a9" stroke="#263238" stroke-linecap="round" stroke-linejoin="round" stroke-width="1"/>
    </clipPath>
    <clipPath id="clip-path-6">
      <path id="Tracé_2536" data-name="Tracé 2536" d="M363.217,136.695a13.93,13.93,0,0,1-9.765-7.32c-3.708-6.65-23.622-4.465-23.622-4.465s.117,2.328,3.2,2.929l-2.163,1.038s.632,2.665,6.273,2.427l-1.506,1.67s2.371,1.934,8.315,1.086l-1.121,1.441s2.778,1.934,7.493.575l-.515,1.32s3.574.26,5.681-.662C355.494,136.734,359.57,139.247,363.217,136.695Z" transform="translate(-329.83 -124.566)" fill="#fff" stroke="#263238" stroke-linecap="round" stroke-linejoin="round" stroke-width="1"/>
    </clipPath>
    <clipPath id="clip-path-7">
      <path id="Tracé_2549" data-name="Tracé 2549" d="M382.95,128.951l-2.094.723-1-2.1a.467.467,0,0,0-.584-.242l-7.134,2.436a.571.571,0,0,0-.372.575l.186,2.375-11.893,4.1a1.185,1.185,0,0,0-.744,1.41l4.8,18.106a1,1,0,0,0,1.3.7l22.882-7.883a1.194,1.194,0,0,0,.748-1.41l-4.794-18.084a1,1,0,0,0-1.3-.705Z" transform="translate(-359.273 -127.304)" fill="#92e3a9" stroke="#263238" stroke-linecap="round" stroke-linejoin="round" stroke-width="1"/>
    </clipPath>
    <clipPath id="clip-path-8">
      <path id="Tracé_2553" data-name="Tracé 2553" d="M383.245,153.023l-22.882,7.883a1.263,1.263,0,0,1-1.506-.636l-.113-.229-5.386-11.175-2.669-5.52a.952.952,0,0,1,.549-1.346l22.887-7.878a1.255,1.255,0,0,1,1.506.632l8.181,16.929a.948.948,0,0,1-.567,1.341Z" transform="translate(-350.58 -134.06)" fill="#92e3a9" stroke="#263238" stroke-linecap="round" stroke-linejoin="round" stroke-width="1"/>
    </clipPath>
    <clipPath id="clip-path-9">
      <path id="Tracé_2557" data-name="Tracé 2557" d="M341.884,161.494s-5.936,1.3-11.6-3.8-23.8,3.349-23.8,3.349.865,2.163,3.963,1.731l-1.7,1.674s1.449,2.319,6.719.286l-.922,2.055s2.864,1.073,8.22-1.64l-.6,1.731s3.253.939,7.281-1.856l-.048,1.428a15.194,15.194,0,0,0,5.17-2.449C334.573,164.017,339.236,165.085,341.884,161.494Z" transform="translate(-306.49 -156.061)" fill="#fff" stroke="#263238" stroke-linecap="round" stroke-linejoin="round" stroke-width="1"/>
    </clipPath>
  </defs>
  <g id="Files_sent-bro" data-name="Files sent-bro" transform="translate(0.5)">
    <g id="freepik--background-simple--inject-15" transform="translate(10.177)">
      <path id="Tracé_2408" data-name="Tracé 2408" d="M62.474,88.809s-12.062,31.15,4.889,62.516,51.865,47.936,79.809,62.105,56.961,7.268,70.75-15.938-5.122-39.773-5.148-72.865,4.954-41.854-12.979-69.811S137.9,20.668,104.656,41.4,62.474,88.809,62.474,88.809Z" transform="translate(-58.313 -29.116)" fill="#fff" opacity="0.7"/>
      <path id="Tracé_2409" data-name="Tracé 2409" d="M82.229,66.834c5.819-6.957,13.689-12.343,23.06-12.226,16.008.2,24.66,14.364,33.841,25.3,4.759,5.668,10.163,11.136,17.232,13.8,10.6,4,22.415,1.666,32.746-2.042,4.629-1.661,10.115-4,15.324-2.8,15.848,3.626,14.2,22.965,11.582,35.208-3.535,16.535-9.28,34.14-20.922,46.842-27.875,30.41-78.04,11.768-103.185-12.5-1.847-1.782-3.617-3.647-5.283-5.6a77.875,77.875,0,0,1-10.885-16.631c-8.09-16.851-9.22-37.337-2.189-54.746a55.3,55.3,0,0,1,8.679-14.593Z" transform="translate(-64.323 -43.578)" fill="#92e3a9"/>
      <path id="Tracé_2410" data-name="Tracé 2410" d="M82.229,66.834c5.819-6.957,13.689-12.343,23.06-12.226,16.008.2,24.66,14.364,33.841,25.3,4.759,5.668,10.163,11.136,17.232,13.8,10.6,4,22.415,1.666,32.746-2.042,4.629-1.661,10.115-4,15.324-2.8,15.848,3.626,14.2,22.965,11.582,35.208-3.535,16.535-9.28,34.14-20.922,46.842-27.875,30.41-78.04,11.768-103.185-12.5-1.847-1.782-3.617-3.647-5.283-5.6a77.875,77.875,0,0,1-10.885-16.631c-8.09-16.851-9.22-37.337-2.189-54.746a55.3,55.3,0,0,1,8.679-14.593Z" transform="translate(-64.323 -43.578)" fill="#fff" opacity="0.7"/>
    </g>
    <g id="freepik--Bricks--inject-15" transform="translate(11.4 19.388)">
      <rect id="Rectangle_794" data-name="Rectangle 794" width="10.794" height="4.335" transform="translate(114.282 108.502) rotate(180)" fill="none" stroke="#92e3a9" stroke-linecap="round" stroke-linejoin="round" stroke-width="1"/>
      <rect id="Rectangle_795" data-name="Rectangle 795" width="10.794" height="4.335" transform="translate(108.887 102.774) rotate(180)" fill="none" stroke="#92e3a9" stroke-linecap="round" stroke-linejoin="round" stroke-width="1"/>
      <rect id="Rectangle_796" data-name="Rectangle 796" width="10.794" height="4.335" transform="translate(84.118 67.777) rotate(180)" fill="none" stroke="#92e3a9" stroke-linecap="round" stroke-linejoin="round" stroke-width="1"/>
      <rect id="Rectangle_797" data-name="Rectangle 797" width="10.794" height="4.335" transform="translate(90.028 62.382) rotate(180)" fill="none" stroke="#92e3a9" stroke-linecap="round" stroke-linejoin="round" stroke-width="1"/>
      <rect id="Rectangle_798" data-name="Rectangle 798" width="10.794" height="4.335" transform="translate(130.203 13.546) rotate(180)" fill="none" stroke="#92e3a9" stroke-linecap="round" stroke-linejoin="round" stroke-width="1"/>
      <rect id="Rectangle_799" data-name="Rectangle 799" width="10.794" height="4.335" transform="translate(124.496 7.77) rotate(180)" fill="none" stroke="#92e3a9" stroke-linecap="round" stroke-linejoin="round" stroke-width="1"/>
      <rect id="Rectangle_800" data-name="Rectangle 800" width="10.794" height="4.335" transform="translate(46.396 10.106) rotate(180)" fill="none" stroke="#92e3a9" stroke-linecap="round" stroke-linejoin="round" stroke-width="1"/>
      <rect id="Rectangle_801" data-name="Rectangle 801" width="10.794" height="4.335" transform="translate(40.69 4.335) rotate(180)" fill="none" stroke="#92e3a9" stroke-linecap="round" stroke-linejoin="round" stroke-width="1"/>
      <rect id="Rectangle_802" data-name="Rectangle 802" width="10.794" height="4.335" transform="translate(78.875 28.805) rotate(180)" fill="none" stroke="#92e3a9" stroke-linecap="round" stroke-linejoin="round" stroke-width="1"/>
      <rect id="Rectangle_803" data-name="Rectangle 803" width="10.794" height="4.335" transform="translate(136.472 55.062) rotate(180)" fill="none" stroke="#92e3a9" stroke-linecap="round" stroke-linejoin="round" stroke-width="1"/>
      <rect id="Rectangle_804" data-name="Rectangle 804" width="10.794" height="4.335" transform="translate(149.295 93.056) rotate(180)" fill="none" stroke="#92e3a9" stroke-linecap="round" stroke-linejoin="round" stroke-width="1"/>
      <rect id="Rectangle_805" data-name="Rectangle 805" width="10.794" height="4.335" transform="translate(96.206 67.777) rotate(180)" fill="none" stroke="#92e3a9" stroke-linecap="round" stroke-linejoin="round" stroke-width="1"/>
      <path id="Tracé_2411" data-name="Tracé 2411" d="M315.879,259.6c-10.492-.117-21.307-.117-31.479,0" transform="translate(-187.809 -179.219)" fill="none" stroke="#92e3a9" stroke-linecap="round" stroke-linejoin="round" stroke-width="1"/>
      <path id="Tracé_2412" data-name="Tracé 2412" d="M363.695,259.71H361.06" transform="translate(-231.303 -179.334)" fill="none" stroke="#92e3a9" stroke-linecap="round" stroke-linejoin="round" stroke-width="1"/>
      <path id="Tracé_2413" data-name="Tracé 2413" d="M76,287.91c10.492.117,21.307.117,31.479,0" transform="translate(-69.571 -195.334)" fill="none" stroke="#92e3a9" stroke-linecap="round" stroke-linejoin="round" stroke-width="1"/>
      <path id="Tracé_2414" data-name="Tracé 2414" d="M66.05,287.91h2.639" transform="translate(-63.926 -195.334)" fill="none" stroke="#92e3a9" stroke-linecap="round" stroke-linejoin="round" stroke-width="1"/>
      <path id="Tracé_2415" data-name="Tracé 2415" d="M242.32,156.27h1.488" transform="translate(-163.934 -120.646)" fill="none" stroke="#92e3a9" stroke-linecap="round" stroke-linejoin="round" stroke-width="1"/>
      <path id="Tracé_2416" data-name="Tracé 2416" d="M206.07,156.27h14" transform="translate(-143.368 -120.646)" fill="none" stroke="#92e3a9" stroke-linecap="round" stroke-linejoin="round" stroke-width="1"/>
      <rect id="Rectangle_806" data-name="Rectangle 806" width="10.794" height="4.335" transform="translate(1.008 63.624)" fill="none" stroke="#92e3a9" stroke-linecap="round" stroke-linejoin="round" stroke-width="1"/>
      <path id="Tracé_2417" data-name="Tracé 2417" d="M62.628,205.23H61.14" transform="translate(-61.14 -148.424)" fill="none" stroke="#92e3a9" stroke-linecap="round" stroke-linejoin="round" stroke-width="1"/>
      <path id="Tracé_2418" data-name="Tracé 2418" d="M82.486,205.23h-14" transform="translate(-65.31 -148.424)" fill="none" stroke="#92e3a9" stroke-linecap="round" stroke-linejoin="round" stroke-width="1"/>
    </g>
    <g id="freepik--Floor--inject-15" transform="translate(0 163.068)">
      <line id="Ligne_52" data-name="Ligne 52" x2="186.217" transform="translate(0)" fill="none" stroke="#263238" stroke-linecap="round" stroke-linejoin="round" stroke-width="1"/>
    </g>
    <g id="freepik--Bag--inject-15" transform="translate(98.173 136.976)">
      <path id="Tracé_2419" data-name="Tracé 2419" d="M297.694,407.606s-2.786,3.941.1,5.265,28.437-1.731,40.4-1.843,18.491-4.629,18.236-6-3.171-3.972-3.171-3.972l-2.033,2.375s2.163.649,2.1,1.653-7.982,4.27-17.946,2.894-31.2,2.89-32.881,2.7-.074-3.954-.074-3.954Z" transform="translate(-281.438 -377.118)" fill="#263238"/>
      <path id="Tracé_2420" data-name="Tracé 2420" d="M318.077,377.779c-15.709,1.09-41.81.722-41.81.722-13.472-.982-16.008-5.425-13.905-10.483,3.275-7.788,17.66-17.024,20.282-17.241a23.679,23.679,0,0,1,8.878,1.367l2.812-.593c-.865-2.332,8.025-7.524,12.088-5.283s12.46-.835,14.991.744a5.9,5.9,0,0,1,1.7,1.657,10,10,0,0,1,1.484,3.53h.035a9.141,9.141,0,0,1,1.947-.3,6.547,6.547,0,0,1,4.7,1.406,14.022,14.022,0,0,1,1.06,1.047c2.622,2.864,6,8.276,6.775,11.435C340.02,369.377,333.782,376.684,318.077,377.779Z" transform="translate(-261.707 -345.721)" fill="#999"/>
      <g id="Groupe_1530" data-name="Groupe 1530" clip-path="url(#clip-path)">
        <path id="Tracé_2421" data-name="Tracé 2421" d="M360.813,351.626c-.766-1.345,8.9-.71,9.929,0s1.03,2.933,2.142,2.332c.887-.476,4.266-2.306,6.429-2.384a10,10,0,0,1,1.484,3.53s-13.3,3.76-14.16,2.76,2.4-1.83,3.422-4.024-3.08-1.592-3.933-1.575S361.579,352.967,360.813,351.626Z" transform="translate(-317.911 -348.624)" opacity="0.2"/>
        <path id="Tracé_2422" data-name="Tracé 2422" d="M318.077,386.16c-15.709,1.09-41.81.723-41.81.723-13.472-.982-16.008-5.425-13.905-10.483a3.531,3.531,0,0,0,2.873.307c4.807-.926,7.541-1.181,10.626,1.731s6.593,4.681,8.22,4.11a15.536,15.536,0,0,1,6.49-11.045c6.265-4.616,7.74-3.305,8.99-4.53s1.99-3.461-1.6-4.724-5.339-1.731-5.339-1.731A17.232,17.232,0,0,1,300,361.746c3.426,1.536,6.416,5.192,4.962,6.018s2.137,2.3,4.621,1.9c2.2-.355,9.492-.394,10.954-.454-1.3.277-7.1,2.09-7.1,3.483a13.522,13.522,0,0,1,1.778,6.269c-.013,3.327,3.894,3.751,5.585,2.505s2.046-2.955,1.406-6.208-2.431-3.5-4.759-2.99c0,0,2.994-1.8,3.937-1.207s3.591.346,4.106,3.167-1.3,5.135-.433,5.906,5.819-.087,6.676-1.731.29-11.063-.536-11.249-4.958,1.069-5.075,1.1a3.34,3.34,0,0,1,2.531-2.163,4.93,4.93,0,0,0,3.7-3.4c2.622,2.864,6,8.276,6.775,11.435C340.02,377.758,333.782,385.065,318.077,386.16Z" transform="translate(-261.707 -354.101)" opacity="0.2"/>
      </g>
      <path id="Tracé_2424" data-name="Tracé 2424" d="M318.077,377.779c-15.709,1.09-41.81.722-41.81.722-13.472-.982-16.008-5.425-13.905-10.483,3.275-7.788,17.66-17.024,20.282-17.241a23.679,23.679,0,0,1,8.878,1.367l2.812-.593c-.865-2.332,8.025-7.524,12.088-5.283s12.46-.835,14.991.744a5.9,5.9,0,0,1,1.7,1.657,10,10,0,0,1,1.484,3.53h.035a9.141,9.141,0,0,1,1.947-.3,6.547,6.547,0,0,1,4.7,1.406,14.022,14.022,0,0,1,1.06,1.047c2.622,2.864,6,8.276,6.775,11.435C340.02,369.377,333.782,376.684,318.077,377.779Z" transform="translate(-261.707 -345.721)" fill="none" stroke="#263238" stroke-linecap="round" stroke-linejoin="round" stroke-width="1"/>
      <path id="Tracé_2425" data-name="Tracé 2425" d="M320.852,360.57s1.969.658,6.922,1.839S330,367.6,326.4,367.817s-12.823,8.25-13,13.706,7.177,4.66,7.177,4.66" transform="translate(-291.037 -354.146)" fill="none" stroke="#263238" stroke-linecap="round" stroke-linejoin="round" stroke-width="1"/>
      <path id="Tracé_2426" data-name="Tracé 2426" d="M337.13,359.188s6.853-.29,11.474,2.431,16.947-1.086,16.947-1.086" transform="translate(-304.499 -353.357)" fill="none" stroke="#263238" stroke-linecap="round" stroke-linejoin="round" stroke-width="1"/>
      <path id="Tracé_2427" data-name="Tracé 2427" d="M382.24,381.2c2.059,2.821,1.194,11.846,1.194,11.846s13.572-1.237,17.306-4.274.489-12.919-1.566-13.286-9.583,3.924-15.575,4.759" transform="translate(-330.093 -362.593)" fill="none" stroke="#263238" stroke-linecap="round" stroke-linejoin="round" stroke-width="1"/>
      <path id="Tracé_2428" data-name="Tracé 2428" d="M387.39,387.772s4.279-1.627,5.135,0,2.553,7.13,1.54,9.038-4.794,1.553-4.794,1.553" transform="translate(-333.014 -369.169)" fill="none" stroke="#263238" stroke-linecap="round" stroke-linejoin="round" stroke-width="1"/>
      <path id="Tracé_2429" data-name="Tracé 2429" d="M350.2,349s5.469,2.306,8.553,2.263,6.68-.273,5.308,1.553a29,29,0,0,0-1.709,2.436" transform="translate(-311.914 -347.581)" fill="none" stroke="#263238" stroke-linecap="round" stroke-linejoin="round" stroke-width="1"/>
      <path id="Tracé_2430" data-name="Tracé 2430" d="M315.84,396.05a29.845,29.845,0,0,0,12.823,1.155c6.676-1.008,7.766.195,7.766.195v4.517s-4.326-.8-7.082,0-11.811,1.41-15.917-.264" transform="translate(-291.053 -374.276)" fill="none" stroke="#263238" stroke-linecap="round" stroke-linejoin="round" stroke-width="1"/>
      <path id="Tracé_2431" data-name="Tracé 2431" d="M314.81,403.21a34.024,34.024,0,0,0,7.93.645c5.668.013,10.976-.467,10.976-.467" transform="translate(-291.835 -378.338)" fill="none" stroke="#263238" stroke-linecap="round" stroke-linejoin="round" stroke-width="1"/>
      <path id="Tracé_2432" data-name="Tracé 2432" d="M311.485,368l-.177-1.969a.454.454,0,0,1,.355-.48l4.595-1a.433.433,0,0,1,.545.394l.186,1.86a.459.459,0,0,1-.342.485l-4.608,1.112a.433.433,0,0,1-.554-.4Z" transform="translate(-289.848 -356.395)" fill="#92e3a9" stroke="#263238" stroke-linecap="round" stroke-linejoin="round" stroke-width="1"/>
      <path id="Tracé_2433" data-name="Tracé 2433" d="M314.627,367.55l2.483.428-.554.329-2.656-.381Z" transform="translate(-291.319 -358.106)" fill="#263238"/>
      <path id="Tracé_2434" data-name="Tracé 2434" d="M327.35,360.394a5.192,5.192,0,0,1,3.028-1.224c1.666,0,2.951.515,2.778.614s-2.821.619-3.314,1.216Z" transform="translate(-298.95 -353.351)" fill="#263238"/>
      <path id="Tracé_2435" data-name="Tracé 2435" d="M265.9,410.26s-5.391,1.761-2.483,3.816,6.849,1.627,10.055-.433l.342-1.925a13.125,13.125,0,0,0-3.634,1.116c-1.67.865-5.564,0-5.309-.476a1.159,1.159,0,0,1,.943-.472Z" transform="translate(-262.191 -382.338)" fill="#263238"/>
      <path id="Tracé_2436" data-name="Tracé 2436" d="M301.745,413.915c.4,2.163,15.437-.952,27.65-3.106s23.016.342,23.916-1.575,3.1-.056,3.1-.056a10.1,10.1,0,0,1-5.045,4.759c-3.582,1.467-20.408,1.125-29.852,3.059s-26.2,4.759-24.994-2.6Z" transform="translate(-281.423 -381.264)" fill="#263238"/>
    </g>
    <g id="freepik--Character--inject-15" transform="translate(16.248 52.161)">
      <path id="Tracé_2437" data-name="Tracé 2437" d="M75,356.732s-.247,11.149,18.214,19.369,68.63,12.213,77.771-16.747l-28.429-8.164H104.419L96.026,355Z" transform="translate(-73.851 -264.009)" fill="#92e3a9"/>
      <g id="Groupe_1531" data-name="Groupe 1531" transform="translate(1.148 87.181)" clip-path="url(#clip-path-2)">
        <path id="Tracé_2438" data-name="Tracé 2438" d="M75,356.732s-.247,11.149,18.214,19.369,68.63,12.213,77.771-16.747l-28.429-8.164H104.419L96.026,355Z" transform="translate(-75 -351.19)" opacity="0.2"/>
      </g>
      <path id="Tracé_2440" data-name="Tracé 2440" d="M75,356.732s-.247,11.149,18.214,19.369,68.63,12.213,77.771-16.747l-28.429-8.164H104.419L96.026,355Z" transform="translate(-73.851 -264.009)" fill="none" stroke="#263238" stroke-linecap="round" stroke-linejoin="round" stroke-width="1"/>
      <path id="Tracé_2441" data-name="Tracé 2441" d="M107.265,250.85c-3.349,2.99-14.961,36.774-13.459,40.46s21.2,7.052,21.2,7.052-1.947-38.146-2.046-38.782S107.265,250.85,107.265,250.85Z" transform="translate(-84.445 -207.08)" fill="#263238"/>
      <path id="Tracé_2442" data-name="Tracé 2442" d="M235.53,250.85c3.349,2.99,14.961,36.774,13.459,40.46s-21.2,7.052-21.2,7.052,1.947-38.146,2.046-38.782S235.53,250.85,235.53,250.85Z" transform="translate(-160.539 -207.08)" fill="#263238"/>
      <path id="Tracé_2443" data-name="Tracé 2443" d="M125.09,238.7s7.727-8.731,26-9.25c14.684-.433,24.734,6.857,26.17,9.25s-6.533,34.282-6.533,34.282l4.461,17.167s-23.921,7.969-45.284,0l2.868-18.128S125.25,243.16,125.09,238.7Z" transform="translate(-102.271 -194.925)" fill="#263238"/>
      <g id="Groupe_1532" data-name="Groupe 1532" transform="translate(16.594 38.029)" opacity="0.5">
        <path id="Tracé_2444" data-name="Tracé 2444" d="M191.258,237.58s-6.619,7.294-13.338,5.261" transform="translate(-148.838 -237.58)" fill="none" stroke="#fff" stroke-linecap="round" stroke-linejoin="round" stroke-width="1"/>
        <path id="Tracé_2445" data-name="Tracé 2445" d="M196,268.7a37.811,37.811,0,0,0,4.685.606" transform="translate(-159.096 -255.236)" fill="none" stroke="#fff" stroke-linecap="round" stroke-linejoin="round" stroke-width="1"/>
        <path id="Tracé_2446" data-name="Tracé 2446" d="M152.07,247.48a40.563,40.563,0,0,0,16.938,8.726" transform="translate(-134.172 -243.197)" fill="none" stroke="#fff" stroke-linecap="round" stroke-linejoin="round" stroke-width="1"/>
        <path id="Tracé_2447" data-name="Tracé 2447" d="M233.1,265a20.814,20.814,0,0,0-2.44,8.441" transform="translate(-178.761 -253.137)" fill="none" stroke="#fff" stroke-linecap="round" stroke-linejoin="round" stroke-width="1"/>
        <path id="Tracé_2448" data-name="Tracé 2448" d="M240.84,254.17a23.146,23.146,0,0,0-1.93,2.682" transform="translate(-183.441 -246.993)" fill="none" stroke="#fff" stroke-linecap="round" stroke-linejoin="round" stroke-width="1"/>
        <path id="Tracé_2449" data-name="Tracé 2449" d="M237.231,275.17c-2.99,1.3-5.741,5.979-5.741,5.979a36.055,36.055,0,0,1,2.868,7.653" transform="translate(-179.231 -258.907)" fill="none" stroke="#fff" stroke-linecap="round" stroke-linejoin="round" stroke-width="1"/>
        <path id="Tracé_2450" data-name="Tracé 2450" d="M234.25,328.022A8.959,8.959,0,0,0,238.8,325.7c1.748-1.869,6.814-1.367,7.532,0" transform="translate(-180.797 -286.883)" fill="none" stroke="#fff" stroke-linecap="round" stroke-linejoin="round" stroke-width="1"/>
        <path id="Tracé_2451" data-name="Tracé 2451" d="M248.9,320.162s1.8-2.734,5.741-.822" transform="translate(-189.109 -283.582)" fill="none" stroke="#fff" stroke-linecap="round" stroke-linejoin="round" stroke-width="1"/>
        <path id="Tracé_2452" data-name="Tracé 2452" d="M128.68,256.11s3.941,2.626,4.326,9.795" transform="translate(-120.901 -248.093)" fill="none" stroke="#fff" stroke-linecap="round" stroke-linejoin="round" stroke-width="1"/>
        <path id="Tracé_2453" data-name="Tracé 2453" d="M131.2,295.39a58.845,58.845,0,0,0-2.808,9.085" transform="translate(-120.737 -270.379)" fill="none" stroke="#fff" stroke-linecap="round" stroke-linejoin="round" stroke-width="1"/>
        <path id="Tracé_2454" data-name="Tracé 2454" d="M130.64,278.75c1.043.264,3.409,1.255,3.608,2.475.1.567-.735,1.925-.93,2.444" transform="translate(-122.013 -260.938)" fill="none" stroke="#fff" stroke-linecap="round" stroke-linejoin="round" stroke-width="1"/>
        <path id="Tracé_2455" data-name="Tracé 2455" d="M120.7,322.914a2.423,2.423,0,0,1,2.284.658" transform="translate(-116.374 -285.958)" fill="none" stroke="#fff" stroke-linecap="round" stroke-linejoin="round" stroke-width="1"/>
        <path id="Tracé_2456" data-name="Tracé 2456" d="M110.7,325.683a15.07,15.07,0,0,1,2.245-1.233" transform="translate(-110.7 -286.867)" fill="none" stroke="#fff" stroke-linecap="round" stroke-linejoin="round" stroke-width="1"/>
        <path id="Tracé_2457" data-name="Tracé 2457" d="M119.82,328.443s.255-2.133,3.833-1.363,12.071,3.4,12.071,3.4" transform="translate(-115.874 -288.264)" fill="none" stroke="#fff" stroke-linecap="round" stroke-linejoin="round" stroke-width="1"/>
      </g>
      <path id="Tracé_2458" data-name="Tracé 2458" d="M182.231,215.347s-4.11,4.045-9.085,4.045-9.726-4.685-9.726-4.685a6.776,6.776,0,0,0,3.253-3.833,4.149,4.149,0,0,0,.1-.472,15.189,15.189,0,0,0-.545-4.91c-.679-2.964-1.687-5.931-1.687-5.931h16.073s-.761,3.708-1.263,7.126c-.091.627-.177,1.242-.242,1.826s-.134,1.211-.164,1.731C178.748,213.863,182.231,215.347,182.231,215.347Z" transform="translate(-124.018 -177.98)" fill="#fff" stroke="#263238" stroke-linecap="round" stroke-linejoin="round" stroke-width="1"/>
      <path id="Tracé_2459" data-name="Tracé 2459" d="M180.822,369.829v1.856a1.372,1.372,0,0,1-.035.3,1.263,1.263,0,0,1-1.207.943H135.529a1.263,1.263,0,0,1-1.224-.952,1.373,1.373,0,0,1-.035-.3V369.82Z" transform="translate(-107.479 -274.579)" fill="#757575"/>
      <g id="Groupe_1533" data-name="Groupe 1533" transform="translate(26.791 95.241)" clip-path="url(#clip-path-3)">
        <path id="Tracé_2460" data-name="Tracé 2460" d="M180.822,369.84V371.7a1.372,1.372,0,0,1-.035.3H134.3a1.372,1.372,0,0,1-.035-.3V369.84Z" transform="translate(-134.27 -369.831)" opacity="0.2"/>
      </g>
      <path id="Tracé_2462" data-name="Tracé 2462" d="M180.822,369.829v1.856a1.372,1.372,0,0,1-.035.3,1.263,1.263,0,0,1-1.207.943H135.529a1.263,1.263,0,0,1-1.224-.952,1.373,1.373,0,0,1-.035-.3V369.82Z" transform="translate(-107.479 -274.579)" fill="none" stroke="#263238" stroke-linecap="round" stroke-linejoin="round" stroke-width="1"/>
      <path id="Tracé_2463" data-name="Tracé 2463" d="M174.525,328.491H128.843a.917.917,0,0,1-.926-.714l-3.967-32.015a.865.865,0,0,1,.865-.982h53.742a.865.865,0,0,1,.865.982l-3.967,32.015a.909.909,0,0,1-.93.714Z" transform="translate(-101.619 -232.004)" fill="#757575" stroke="#263238" stroke-linecap="round" stroke-linejoin="round" stroke-width="1"/>
      <path id="Tracé_2464" data-name="Tracé 2464" d="M130.589,329.984,126.7,299.3a.632.632,0,0,1,.619-.7h51.86a.636.636,0,0,1,.623.7L175.9,329.984" transform="translate(-103.18 -234.171)" fill="#fff" opacity="0.2"/>
      <path id="Tracé_2465" data-name="Tracé 2465" d="M130.589,329.984,126.7,299.3a.632.632,0,0,1,.619-.7h51.86a.636.636,0,0,1,.623.7L175.9,329.984" transform="translate(-103.18 -234.171)" fill="none" stroke="#263238" stroke-linecap="round" stroke-linejoin="round" stroke-width="1"/>
      <path id="Tracé_2466" data-name="Tracé 2466" d="M183.114,332.7H178.42l5.451-5.711-2.531,4.534Z" transform="translate(-132.528 -250.279)" fill="#92e3a9" stroke="#263238" stroke-linecap="round" stroke-linejoin="round" stroke-width="1"/>
      <path id="Tracé_2467" data-name="Tracé 2467" d="M185.02,339.785l5.789-5.585h-4.586l1.644,1.211Z" transform="translate(-136.273 -254.369)" fill="#92e3a9" stroke="#263238" stroke-linecap="round" stroke-linejoin="round" stroke-width="1"/>
      <path id="Tracé_2468" data-name="Tracé 2468" d="M236.32,414.81l1.384,1.575s1.3,2.951-2.289,6.563-12.884,4.326-16.5,3.7l-2.28.307-7.757-1.679s-3.928-1.921-2.323-5.291S236.32,414.81,236.32,414.81Z" transform="translate(-148.272 -300.104)" fill="#92e3a9" stroke="#263238" stroke-linecap="round" stroke-linejoin="round" stroke-width="1"/>
      <path id="Tracé_2469" data-name="Tracé 2469" d="M233.566,416.926c-3,3.128-12.6,3.751-16.613,2.838-1.095-.251-5.079-.394-8.047-1.458-1.6-.567-2.907-1.4-3.305-2.665-1.151-3.6,8.99-10.461,8.99-10.461s6.468,1.246,7.809,1.566a25.586,25.586,0,0,0,4.759.658c3.076.134,5.157-.277,7.411.692C237.123,409.2,237.157,413.18,233.566,416.926Z" transform="translate(-147.898 -294.641)" fill="#757575"/>
      <g id="Groupe_1534" data-name="Groupe 1534" transform="translate(57.612 110.539)" clip-path="url(#clip-path-4)">
        <path id="Tracé_2470" data-name="Tracé 2470" d="M227.142,407.4c-2.31,3.773-8.077,11.015-18.236,10.9-1.6-.567-2.907-1.4-3.305-2.665-1.151-3.6,8.99-10.461,8.99-10.461s6.468,1.246,7.809,1.566a25.585,25.585,0,0,0,4.742.658Z" transform="translate(-205.51 -405.18)" opacity="0.2"/>
      </g>
      <path id="Tracé_2472" data-name="Tracé 2472" d="M233.566,416.926c-3,3.128-12.6,3.751-16.613,2.838-1.095-.251-5.079-.394-8.047-1.458-1.6-.567-2.907-1.4-3.305-2.665-1.151-3.6,8.99-10.461,8.99-10.461s6.468,1.246,7.809,1.566a25.586,25.586,0,0,0,4.759.658c3.076.134,5.157-.277,7.411.692C237.123,409.2,237.157,413.18,233.566,416.926Z" transform="translate(-147.898 -294.641)" fill="none" stroke="#263238" stroke-linecap="round" stroke-linejoin="round" stroke-width="1"/>
      <path id="Tracé_2473" data-name="Tracé 2473" d="M222.25,415.35s9.951,3,11.82,2.808a1.728,1.728,0,0,1,2.1,1.337" transform="translate(-157.395 -300.411)" fill="none" stroke="#263238" stroke-linecap="round" stroke-linejoin="round" stroke-width="1"/>
      <path id="Tracé_2474" data-name="Tracé 2474" d="M225.94,407s10.92,2.336,12.239,2.726a3.8,3.8,0,0,0,2.418-.108" transform="translate(-159.489 -295.673)" fill="none" stroke="#263238" stroke-linecap="round" stroke-linejoin="round" stroke-width="1"/>
      <path id="Tracé_2475" data-name="Tracé 2475" d="M226.081,407.4a6.139,6.139,0,0,1-3.461,5" transform="translate(-157.605 -295.9)" fill="none" stroke="#263238" stroke-linecap="round" stroke-linejoin="round" stroke-width="1"/>
      <path id="Tracé_2476" data-name="Tracé 2476" d="M231.55,408.26a7.632,7.632,0,0,1-2.89,5.283" transform="translate(-161.032 -296.388)" fill="none" stroke="#263238" stroke-linecap="round" stroke-linejoin="round" stroke-width="1"/>
      <path id="Tracé_2477" data-name="Tracé 2477" d="M236.688,410a5.813,5.813,0,0,1-2.808,5.542" transform="translate(-163.994 -297.375)" fill="none" stroke="#263238" stroke-linecap="round" stroke-linejoin="round" stroke-width="1"/>
      <path id="Tracé_2478" data-name="Tracé 2478" d="M242.045,410.58s.515,4.024-2.765,6.087" transform="translate(-167.058 -297.704)" fill="none" stroke="#263238" stroke-linecap="round" stroke-linejoin="round" stroke-width="1"/>
      <path id="Tracé_2479" data-name="Tracé 2479" d="M247.6,411.39s-.087,4.2-2.851,6" transform="translate(-170.161 -298.164)" fill="none" stroke="#263238" stroke-linecap="round" stroke-linejoin="round" stroke-width="1"/>
      <path id="Tracé_2480" data-name="Tracé 2480" d="M252.845,412.63a5.987,5.987,0,0,1-2.245,5.745" transform="translate(-173.48 -298.867)" fill="none" stroke="#263238" stroke-linecap="round" stroke-linejoin="round" stroke-width="1"/>
      <path id="Tracé_2481" data-name="Tracé 2481" d="M139.8,368.724c-.965,6.537-11.045,13.641-11.045,13.641s-2.791-2.617-3.712-2.509-4.759-.164-4.759-.164-30.354-11.361-34-11.422c-2.276-.035-8.835-2.029-12.079-7.2-1.93-3.072-2.687-7.268-.692-12.836,3.288-9.185,19.5-2.418,35.394,6.36,5.278,2.92,9.951,5.261,13.745,7.043,6.295,2.964,10.124,4.391,10.124,4.391l2.1-.753Z" transform="translate(-72.345 -259.842)" fill="#92e3a9"/>
      <g id="Groupe_1535" data-name="Groupe 1535" transform="translate(0 84.004)" clip-path="url(#clip-path-5)">
        <path id="Tracé_2482" data-name="Tracé 2482" d="M142.252,391.308c-.965,6.537-11.045,13.641-11.045,13.641s-2.791-2.617-3.712-2.509-4.759-.164-4.759-.164-30.354-11.361-34-11.422c-2.276-.035-8.835-2.029-12.079-7.2,3.812.281,10.305.917,13.412,2.077,0,0-3.461.865-2.509,1.7s14.848,2.466,19.737,1.233c4.422-1.112,13.247-4.119,17.816-4.439,6.295,2.964,10.124,4.391,10.124,4.391l2.1-.753Z" transform="translate(-74.793 -366.429)" opacity="0.2"/>
      </g>
      <path id="Tracé_2484" data-name="Tracé 2484" d="M139.8,368.724c-.965,6.537-11.045,13.641-11.045,13.641s-2.791-2.617-3.712-2.509-4.759-.164-4.759-.164-30.354-11.361-34-11.422c-2.276-.035-8.835-2.029-12.079-7.2-1.93-3.072-2.687-7.268-.692-12.836,3.288-9.185,19.5-2.418,35.394,6.36,5.278,2.92,9.951,5.261,13.745,7.043,6.295,2.964,10.124,4.391,10.124,4.391l2.1-.753Z" transform="translate(-72.345 -259.842)" fill="none" stroke="#263238" stroke-linecap="round" stroke-linejoin="round" stroke-width="1"/>
      <path id="Tracé_2485" data-name="Tracé 2485" d="M166.14,385.854c1.077-.186,2.163-.407,3.206-.684" transform="translate(-125.561 -283.288)" fill="none" stroke="#263238" stroke-linecap="round" stroke-linejoin="round" stroke-width="1"/>
      <path id="Tracé_2486" data-name="Tracé 2486" d="M99.7,387.751a127.234,127.234,0,0,0,26.612-.251" transform="translate(-87.865 -284.61)" fill="none" stroke="#263238" stroke-linecap="round" stroke-linejoin="round" stroke-width="1"/>
      <path id="Tracé_2487" data-name="Tracé 2487" d="M96.1,416.21l-1.4,1.575s-1.3,2.951,2.284,6.563,12.884,4.326,16.5,3.7l2.284.307,7.753-1.666s3.946-1.917,2.328-5.291S96.1,416.21,96.1,416.21Z" transform="translate(-84.898 -300.899)" fill="#92e3a9" stroke="#263238" stroke-linecap="round" stroke-linejoin="round" stroke-width="1"/>
      <path id="Tracé_2488" data-name="Tracé 2488" d="M119.024,406.58s-6.468,1.246-7.813,1.562c-6.009,1.419-8.908-.039-12.149,1.354-2.57,1.1-2.6,5.083.982,8.83,3,3.128,12.6,3.751,16.613,2.838,1.683-.381,10.21-.532,11.357-4.127S119.024,406.58,119.024,406.58Z" transform="translate(-86.466 -295.435)" fill="#757575" stroke="#263238" stroke-linecap="round" stroke-linejoin="round" stroke-width="1"/>
      <path id="Tracé_2489" data-name="Tracé 2489" d="M133.588,416.75s-9.951,3-11.82,2.808a1.728,1.728,0,0,0-2.1,1.337" transform="translate(-99.196 -301.205)" fill="none" stroke="#263238" stroke-linecap="round" stroke-linejoin="round" stroke-width="1"/>
      <path id="Tracé_2490" data-name="Tracé 2490" d="M128.932,408.37s-10.924,2.341-12.244,2.726a3.786,3.786,0,0,1-2.418-.1" transform="translate(-96.132 -296.45)" fill="none" stroke="#263238" stroke-linecap="round" stroke-linejoin="round" stroke-width="1"/>
      <path id="Tracé_2491" data-name="Tracé 2491" d="M143.48,408.8a6.139,6.139,0,0,0,3.461,5" transform="translate(-112.704 -296.694)" fill="none" stroke="#263238" stroke-linecap="round" stroke-linejoin="round" stroke-width="1"/>
      <path id="Tracé_2492" data-name="Tracé 2492" d="M138.75,409.66a7.623,7.623,0,0,0,2.894,5.283" transform="translate(-110.021 -297.182)" fill="none" stroke="#263238" stroke-linecap="round" stroke-linejoin="round" stroke-width="1"/>
      <path id="Tracé_2493" data-name="Tracé 2493" d="M133.678,411.39a5.8,5.8,0,0,0,2.8,5.542" transform="translate(-107.121 -298.164)" fill="none" stroke="#263238" stroke-linecap="round" stroke-linejoin="round" stroke-width="1"/>
      <path id="Tracé_2494" data-name="Tracé 2494" d="M128.381,412s-.515,4.024,2.765,6.087" transform="translate(-104.121 -298.51)" fill="none" stroke="#263238" stroke-linecap="round" stroke-linejoin="round" stroke-width="1"/>
      <path id="Tracé_2495" data-name="Tracé 2495" d="M122.76,412.79s.082,4.2,2.851,6" transform="translate(-100.949 -298.958)" fill="none" stroke="#263238" stroke-linecap="round" stroke-linejoin="round" stroke-width="1"/>
      <path id="Tracé_2496" data-name="Tracé 2496" d="M118.207,414a5.992,5.992,0,0,0,2.241,5.745" transform="translate(-98.321 -299.645)" fill="none" stroke="#263238" stroke-linecap="round" stroke-linejoin="round" stroke-width="1"/>
      <path id="Tracé_2497" data-name="Tracé 2497" d="M210.7,348.106c-3.31-9.181-19.5-2.384-35.377,6.425a199.337,199.337,0,0,1-23.851,11.478l-2.1-.744-4.915,3.461c.978,6.533,11.076,13.615,11.076,13.615s2.782-2.626,3.708-2.518,4.759-.173,4.759-.173,30.354-11.417,33.975-11.482S216.073,363.054,210.7,348.106Z" transform="translate(-113.255 -259.778)" fill="#92e3a9" stroke="#263238" stroke-linecap="round" stroke-linejoin="round" stroke-width="1"/>
      <path id="Tracé_2498" data-name="Tracé 2498" d="M195.78,408.35c.865.061,1.757.1,2.635.1" transform="translate(-142.377 -296.439)" fill="none" stroke="#263238" stroke-linecap="round" stroke-linejoin="round" stroke-width="1"/>
      <path id="Tracé_2499" data-name="Tracé 2499" d="M160.67,395.22c3.171,3.366,8.363,4.828,12.785,5.434" transform="translate(-122.457 -288.99)" fill="none" stroke="#263238" stroke-linecap="round" stroke-linejoin="round" stroke-width="1"/>
      <path id="Tracé_2500" data-name="Tracé 2500" d="M243.24,381.46c6.208,1.181,13.113,2.263,19.361.8" transform="translate(-169.304 -281.183)" fill="none" stroke="#263238" stroke-linecap="round" stroke-linejoin="round" stroke-width="1"/>
      <path id="Tracé_2501" data-name="Tracé 2501" d="M232.23,379.06c.865.221,1.757.433,2.643.61" transform="translate(-163.058 -279.821)" fill="none" stroke="#263238" stroke-linecap="round" stroke-linejoin="round" stroke-width="1"/>
      <path id="Tracé_2502" data-name="Tracé 2502" d="M183.1,214.434c-.091.627-.177,1.242-.242,1.826-1.618,1.657-4.326,3.937-6.922,4.015a11.307,11.307,0,0,1-5.512-1.653,4.149,4.149,0,0,0,.1-.472,15.189,15.189,0,0,0-.545-4.91Z" transform="translate(-127.739 -185.741)" fill="#263238"/>
      <path id="Tracé_2503" data-name="Tracé 2503" d="M208.814,190.706s1.181-1.112,1.761-.744a2.224,2.224,0,0,1,.952,2.341c-.316.943-1.687,2.6-1.8,3.548s-.813,2.042-1.592,1.406S208.814,190.706,208.814,190.706Z" transform="translate(-149.259 -172.492)" fill="#fff" stroke="#263238" stroke-linecap="round" stroke-linejoin="round" stroke-width="1"/>
      <path id="Tracé_2504" data-name="Tracé 2504" d="M157.722,190.706s-1.181-1.112-1.761-.744a2.215,2.215,0,0,0-.947,2.341c.32.943,1.687,2.6,1.791,3.548s.818,2.042,1.592,1.406S157.722,190.706,157.722,190.706Z" transform="translate(-119.202 -172.492)" fill="#fff" stroke="#263238" stroke-linecap="round" stroke-linejoin="round" stroke-width="1"/>
      <path id="Tracé_2505" data-name="Tracé 2505" d="M171.217,156.7c15.359,0,11.205,18.569,8.376,25.136-.991,2.306-5.888,5.538-8.376,5.538-2.315,0-6.922-3.028-7.874-5.192C160.483,175.563,156.581,156.7,171.217,156.7Z" transform="translate(-122.435 -153.663)" fill="#fff" stroke="#263238" stroke-linecap="round" stroke-linejoin="round" stroke-width="1"/>
      <path id="Tracé_2506" data-name="Tracé 2506" d="M191.12,191.074s4-1.237,5.235,1.237" transform="translate(-139.733 -172.99)" fill="none" stroke="#263238" stroke-linecap="round" stroke-linejoin="round" stroke-width="1"/>
      <path id="Tracé_2507" data-name="Tracé 2507" d="M196.6,198.115c0,.472-.238.865-.536.865s-.532-.385-.532-.865.238-.865.532-.865S196.6,197.644,196.6,198.115Z" transform="translate(-142.236 -176.669)" fill="#263238"/>
      <path id="Tracé_2508" data-name="Tracé 2508" d="M173.409,191.074s-4-1.237-5.239,1.237" transform="translate(-126.713 -172.99)" fill="none" stroke="#263238" stroke-linecap="round" stroke-linejoin="round" stroke-width="1"/>
      <path id="Tracé_2509" data-name="Tracé 2509" d="M173.43,198.115c0,.472.242.865.536.865s.536-.385.536-.865-.242-.865-.536-.865S173.43,197.644,173.43,198.115Z" transform="translate(-129.697 -176.669)" fill="#263238"/>
      <path id="Tracé_2510" data-name="Tracé 2510" d="M181.393,207.36c-.58.619,1.428,1.635,1.8,1.635s1.9-.8,1.9-1.272" transform="translate(-134.156 -182.405)" fill="#fff" stroke="#263238" stroke-linecap="round" stroke-linejoin="round" stroke-width="1"/>
      <path id="Tracé_2511" data-name="Tracé 2511" d="M176.125,159.559a19.468,19.468,0,0,1-11.837,0s-2.072-.121-2.89.922,0,4.257.216,5.568-1.8,2.215-1.527,5.525l-.273,1.25s-2.232-5.685-1.687-10.267,3-6.109,3-6.109,1.32-3.954,9.047-3.928c8.328.035,9.168,4.543,9.168,4.543s5.192,3.894,1,16.185l-.433-1.674a6.887,6.887,0,0,0-1.056-4.655c-.727-1.06.433-4.253.164-5.888S176.125,159.559,176.125,159.559Z" transform="translate(-120.966 -151.291)" fill="#263238"/>
      <path id="Tracé_2512" data-name="Tracé 2512" d="M178,214.62a7.788,7.788,0,0,0,3.336.727,8.653,8.653,0,0,0,3.189-.541" transform="translate(-132.29 -186.524)" fill="#fff" stroke="#263238" stroke-linecap="round" stroke-linejoin="round" stroke-width="1"/>
      <path id="Tracé_2513" data-name="Tracé 2513" d="M174.957,159.41a15.575,15.575,0,0,0,1.8,4.781c1.3,2.072,2.829,2.284,3.266,4.811,0,0,3.985-6.723.614-12.624,0,0-1.06-6.7-11.461-6.7S153.961,156.927,158,168.054a6.027,6.027,0,0,0,3.591-4.9,5.94,5.94,0,0,1-1.069,4.3s5.356-.792,6.745-5.257c0,0-.541,2.968-2.328,4.227,0,0,2.02,2.553,4.326-1.436S172.963,158.61,174.957,159.41Z" transform="translate(-120.136 -149.68)" fill="#263238"/>
      <path id="Tracé_2514" data-name="Tracé 2514" d="M176.311,174.18c-.649.93-1.562,2.367-2.881,2.228" transform="translate(-129.697 -163.58)" fill="none" stroke="#fff" stroke-linecap="round" stroke-linejoin="round" stroke-width="1" opacity="0.2"/>
      <path id="Tracé_2515" data-name="Tracé 2515" d="M189.092,163.465c-1.752-3.565-5.551.8-6.792,2.527" transform="translate(-134.729 -156.729)" fill="none" stroke="#fff" stroke-linecap="round" stroke-linejoin="round" stroke-width="1" opacity="0.2"/>
      <path id="Tracé_2516" data-name="Tracé 2516" d="M162.123,167.08a3.941,3.941,0,0,1-1.493.844" transform="translate(-122.435 -159.552)" fill="none" stroke="#fff" stroke-linecap="round" stroke-linejoin="round" stroke-width="1" opacity="0.2"/>
      <path id="Tracé_2517" data-name="Tracé 2517" d="M178.194,155.669c-3.535-3.7-8.545.6-11.344,3.063" transform="translate(-125.964 -152.26)" fill="none" stroke="#fff" stroke-linecap="round" stroke-linejoin="round" stroke-width="1" opacity="0.2"/>
      <path id="Tracé_2518" data-name="Tracé 2518" d="M209.57,167.29a7.671,7.671,0,0,1,1.134,3.145" transform="translate(-150.201 -159.671)" fill="none" stroke="#fff" stroke-linecap="round" stroke-linejoin="round" stroke-width="1" opacity="0.2"/>
      <path id="Tracé_2519" data-name="Tracé 2519" d="M203.22,163.7a2.881,2.881,0,0,1,1.592.433" transform="translate(-146.599 -157.633)" fill="none" stroke="#fff" stroke-linecap="round" stroke-linejoin="round" stroke-width="1" opacity="0.2"/>
      <path id="Tracé_2520" data-name="Tracé 2520" d="M200.74,157.973s.766-2.029,2.306-.545" transform="translate(-145.191 -153.768)" fill="none" stroke="#fff" stroke-linecap="round" stroke-linejoin="round" stroke-width="1" opacity="0.2"/>
    </g>
    <g id="freepik--Progress--inject-15" transform="translate(46.253 106.708)">
      <rect id="Rectangle_807" data-name="Rectangle 807" width="39.284" height="5.642" rx="2.821" transform="translate(0 0)" fill="none" stroke="#fff" stroke-linecap="round" stroke-linejoin="round" stroke-width="1.359"/>
      <path id="Tracé_2521" data-name="Tracé 2521" d="M177.667,278.763a.528.528,0,0,0,.588-.433h.359v3.409h-.532v-2.6h-.433Z" transform="translate(-162.097 -277.218)" fill="#fff"/>
      <path id="Tracé_2522" data-name="Tracé 2522" d="M181.28,279.163a.813.813,0,1,1,1.627,0v1.774a.813.813,0,0,1-1.627,0Zm.536,1.808c0,.242.1.333.277.333s.277-.091.277-.333v-1.843c0-.242-.108-.333-.277-.333s-.277.091-.277.333Z" transform="translate(-164.156 -277.229)" fill="#fff"/>
      <path id="Tracé_2523" data-name="Tracé 2523" d="M185.74,279.163a.813.813,0,1,1,1.627,0v1.774a.813.813,0,0,1-1.627,0Zm.532,1.808c0,.242.108.333.281.333s.277-.091.277-.333v-1.843c0-.242-.108-.333-.277-.333s-.281.091-.281.333Z" transform="translate(-166.687 -277.229)" fill="#fff"/>
      <path id="Tracé_2524" data-name="Tracé 2524" d="M190.23,278.859a.515.515,0,1,1,1.03,0v1.121a.515.515,0,1,1-1.03,0Zm.342,1.146c0,.151.061.216.173.216s.177-.065.177-.216v-1.168c0-.151-.069-.216-.177-.216s-.173.065-.173.216Zm1.519-1.666h.316l-1.346,3.409h-.316Zm-.173,1.77a.519.519,0,1,1,1.034,0v1.112a.519.519,0,1,1-1.034,0Zm.342,1.142c0,.151.065.216.177.216s.173-.065.173-.216v-1.168c0-.151-.065-.216-.173-.216s-.177.065-.177.216Z" transform="translate(-169.234 -277.224)" fill="#fff"/>
    </g>
    <g id="freepik--Bubble--inject-15" transform="translate(18.586 35.802)">
      <circle id="Ellipse_107" data-name="Ellipse 107" cx="12.111" cy="12.111" r="12.111" transform="translate(0 19.695) rotate(-54.395)" fill="none" stroke="#263238" stroke-linecap="round" stroke-linejoin="round" stroke-width="0.996"/>
      <path id="Tracé_2525" data-name="Tracé 2525" d="M115.431,123.985a13.412,13.412,0,0,0-18.141-.567" transform="translate(-88.836 -116.573)" fill="none" stroke="#263238" stroke-linecap="round" stroke-linejoin="round" stroke-width="1"/>
      <path id="Tracé_2526" data-name="Tracé 2526" d="M143.323,144.53A13.412,13.412,0,0,0,141,130.88" transform="translate(-113.635 -122.655)" fill="none" stroke="#263238" stroke-linecap="round" stroke-linejoin="round" stroke-width="1"/>
      <path id="Tracé_2527" data-name="Tracé 2527" d="M139.75,173.787l2.44,1.454-2.068-5a13.028,13.028,0,0,0,.952-1.19" transform="translate(-112.926 -144.311)" fill="none" stroke="#263238" stroke-linecap="round" stroke-linejoin="round" stroke-width="1"/>
      <path id="Tracé_2528" data-name="Tracé 2528" d="M97.29,174.56a13.412,13.412,0,0,0,16.159,1.03l1.2.714" transform="translate(-88.836 -147.437)" fill="none" stroke="#263238" stroke-linecap="round" stroke-linejoin="round" stroke-width="1"/>
      <path id="Tracé_2529" data-name="Tracé 2529" d="M87.529,139.64a13.412,13.412,0,0,0,2.31,13.736" transform="translate(-82.757 -127.625)" fill="none" stroke="#263238" stroke-linecap="round" stroke-linejoin="round" stroke-width="1"/>
      <path id="Tracé_2530" data-name="Tracé 2530" d="M90.865,133.74a12.546,12.546,0,0,0-.8,1.346" transform="translate(-84.734 -124.278)" fill="none" stroke="#263238" stroke-linecap="round" stroke-linejoin="round" stroke-width="1"/>
      <path id="Tracé_2531" data-name="Tracé 2531" d="M106.586,153.72l-4.2-4.045a.982.982,0,1,1,1.363-1.415" transform="translate(-91.556 -132.36)" fill="none" stroke="#263238" stroke-linecap="round" stroke-linejoin="round" stroke-width="1"/>
      <path id="Tracé_2532" data-name="Tracé 2532" d="M120.655,138.5a.983.983,0,0,1,1.635,1.09l-6.174,9.228a.978.978,0,0,1-.71.433h-.087a.991.991,0,0,1-.7-.277" transform="translate(-98.668 -126.728)" fill="none" stroke="#263238" stroke-linecap="round" stroke-linejoin="round" stroke-width="1"/>
      <path id="Tracé_2533" data-name="Tracé 2533" d="M108.14,145.71l3.318,3.193,4.711-7.043" transform="translate(-94.992 -128.885)" fill="none" stroke="#263238" stroke-linecap="round" stroke-linejoin="round" stroke-width="1"/>
    </g>
    <g id="freepik--Folder--inject-15" transform="translate(106.659 41.296)">
      <path id="Tracé_2534" data-name="Tracé 2534" d="M363.217,136.695a13.93,13.93,0,0,1-9.765-7.32c-3.708-6.65-23.622-4.465-23.622-4.465s.117,2.328,3.2,2.929l-2.163,1.038s.632,2.665,6.273,2.427l-1.506,1.67s2.371,1.934,8.315,1.086l-1.121,1.441s2.778,1.934,7.493.575l-.515,1.32s3.574.26,5.681-.662C355.494,136.734,359.57,139.247,363.217,136.695Z" transform="translate(-308.843 -124.566)" fill="#fff"/>
      <g id="Groupe_1536" data-name="Groupe 1536" transform="translate(20.987)" clip-path="url(#clip-path-6)">
        <path id="Tracé_2535" data-name="Tracé 2535" d="M363.24,137.149c-3.66,2.548-7.736.039-7.736.039a15.227,15.227,0,0,1-5.681.662l.5-1.341c-4.711,1.363-7.489-.575-7.489-.575l1.121-1.441c-5.944.865-8.315-1.09-8.315-1.09l1.532-1.644c-5.624.229-6.269-2.431-6.269-2.431l2.163-1.034c-3.08-.606-3.2-2.933-3.2-2.933s1.129,2.012,4.383,1.947c0,0-.545,1.358,2.786,1.609,0,0,2.817,1.2,4.859.3,0,0,.684,1.393,3.132,1.155l-.826,1.095s.255,1.436,3.288.723l-.433,1.41s1,1.155,4.9.294c0,0-1.22.8-.818,1.2a4.053,4.053,0,0,0,2.7.5A10.705,10.705,0,0,0,363.24,137.149Z" transform="translate(-329.853 -125.016)" fill="#92e3a9" opacity="0.4"/>
      </g>
      <path id="Tracé_2537" data-name="Tracé 2537" d="M363.217,136.695a13.93,13.93,0,0,1-9.765-7.32c-3.708-6.65-23.622-4.465-23.622-4.465s.117,2.328,3.2,2.929l-2.163,1.038s.632,2.665,6.273,2.427l-1.506,1.67s2.371,1.934,8.315,1.086l-1.121,1.441s2.778,1.934,7.493.575l-.515,1.32s3.574.26,5.681-.662C355.494,136.734,359.57,139.247,363.217,136.695Z" transform="translate(-308.843 -124.566)" fill="none" stroke="#263238" stroke-linecap="round" stroke-linejoin="round" stroke-width="1"/>
      <path id="Tracé_2538" data-name="Tracé 2538" d="M341.233,128.28c-2,.506-3.215.346-4.7,1.1,0,0,1.3,1.774,4.716,1.536" transform="translate(-312.644 -126.673)" fill="#fff" stroke="#263238" stroke-linecap="round" stroke-linejoin="round" stroke-width="1"/>
      <path id="Tracé_2539" data-name="Tracé 2539" d="M347.618,136a14.158,14.158,0,0,0-2.518.787s.493,2.306,5.906,1.2" transform="translate(-317.506 -131.053)" fill="none" stroke="#263238" stroke-linecap="round" stroke-linejoin="round" stroke-width="1"/>
      <path id="Tracé_2540" data-name="Tracé 2540" d="M361.566,142.34,360,143.361a9.423,9.423,0,0,0,5.8.433" transform="translate(-325.96 -134.65)" fill="none" stroke="#263238" stroke-linecap="round" stroke-linejoin="round" stroke-width="1"/>
      <path id="Tracé_2541" data-name="Tracé 2541" d="M375.035,145.79s-1.549,1.09-1.5,1.242a6.814,6.814,0,0,0,5.862-.2" transform="translate(-333.64 -136.608)" fill="#fff" stroke="#263238" stroke-linecap="round" stroke-linejoin="round" stroke-width="1"/>
      <path id="Tracé_2542" data-name="Tracé 2542" d="M349.831,129.79c-.948.433-3.755.839-3.941,1.25,0,0,.917,2.57,5.624,1.121" transform="translate(-317.954 -127.53)" fill="#fff" stroke="#263238" stroke-linecap="round" stroke-linejoin="round" stroke-width="1"/>
      <path id="Tracé_2543" data-name="Tracé 2543" d="M359.674,136.72a8.151,8.151,0,0,0-1.994,1.151s1.826,2.535,6.26.346" transform="translate(-324.644 -131.462)" fill="#fff" stroke="#263238" stroke-linecap="round" stroke-linejoin="round" stroke-width="1"/>
      <path id="Tracé_2544" data-name="Tracé 2544" d="M371.243,140.17A3.145,3.145,0,0,0,369.56,142s2.194,1.419,5.953-.056" transform="translate(-331.384 -133.419)" fill="#fff" stroke="#263238" stroke-linecap="round" stroke-linejoin="round" stroke-width="1"/>
      <path id="Tracé_2545" data-name="Tracé 2545" d="M360.4,131.82s-2.674.571-2.747,1.064a6.32,6.32,0,0,0,5.585.917" transform="translate(-324.627 -128.682)" fill="#fff" stroke="#263238" stroke-linecap="round" stroke-linejoin="round" stroke-width="1"/>
      <path id="Tracé_2546" data-name="Tracé 2546" d="M370.106,135.85a3.029,3.029,0,0,0-1.056.887s1.034,1.532,3.7.7" transform="translate(-331.095 -130.968)" fill="#fff" stroke="#263238" stroke-linecap="round" stroke-linejoin="round" stroke-width="1"/>
      <path id="Tracé_2547" data-name="Tracé 2547" d="M382.95,128.951l-2.094.723-1-2.1a.467.467,0,0,0-.584-.242l-7.134,2.436a.571.571,0,0,0-.372.575l.186,2.375-11.893,4.1a1.185,1.185,0,0,0-.744,1.41l4.8,18.106a1,1,0,0,0,1.3.7l22.882-7.883a1.194,1.194,0,0,0,.748-1.41l-4.794-18.084a1,1,0,0,0-1.3-.705Z" transform="translate(-325.547 -126.12)" fill="#92e3a9"/>
      <g id="Groupe_1537" data-name="Groupe 1537" transform="translate(33.725 1.185)" clip-path="url(#clip-path-7)">
        <path id="Tracé_2548" data-name="Tracé 2548" d="M382.95,128.951l-2.094.723-1-2.1a.467.467,0,0,0-.584-.242l-7.134,2.436a.571.571,0,0,0-.372.575l.186,2.375-11.893,4.1a1.185,1.185,0,0,0-.744,1.41l4.8,18.106a1,1,0,0,0,1.3.7l22.882-7.883a1.194,1.194,0,0,0,.748-1.41l-4.794-18.084a1,1,0,0,0-1.3-.705Z" transform="translate(-359.273 -127.304)" opacity="0.2"/>
      </g>
      <path id="Tracé_2550" data-name="Tracé 2550" d="M382.95,128.951l-2.094.723-1-2.1a.467.467,0,0,0-.584-.242l-7.134,2.436a.571.571,0,0,0-.372.575l.186,2.375-11.893,4.1a1.185,1.185,0,0,0-.744,1.41l4.8,18.106a1,1,0,0,0,1.3.7l22.882-7.883a1.194,1.194,0,0,0,.748-1.41l-4.794-18.084a1,1,0,0,0-1.3-.705Z" transform="translate(-325.547 -126.12)" fill="none" stroke="#263238" stroke-linecap="round" stroke-linejoin="round" stroke-width="1"/>
      <path id="Tracé_2551" data-name="Tracé 2551" d="M383.245,153.023l-22.882,7.883a1.263,1.263,0,0,1-1.506-.636l-.113-.229-5.386-11.175-2.669-5.52a.952.952,0,0,1,.549-1.346l22.887-7.878a1.255,1.255,0,0,1,1.506.632l8.181,16.929a.948.948,0,0,1-.567,1.341Z" transform="translate(-320.616 -129.953)" fill="#92e3a9"/>
      <g id="Groupe_1538" data-name="Groupe 1538" transform="translate(29.965 4.108)" clip-path="url(#clip-path-8)">
        <path id="Tracé_2552" data-name="Tracé 2552" d="M370.542,168.431a6.754,6.754,0,0,1-5.624,6.109,12.919,12.919,0,0,1-2.522,4.915L357,168.28C361.556,169.067,366.8,169.509,370.542,168.431Z" transform="translate(-354.223 -153.475)" opacity="0.2"/>
      </g>
      <path id="Tracé_2554" data-name="Tracé 2554" d="M383.245,153.023l-22.882,7.883a1.263,1.263,0,0,1-1.506-.636l-.113-.229-5.386-11.175-2.669-5.52a.952.952,0,0,1,.549-1.346l22.887-7.878a1.255,1.255,0,0,1,1.506.632l8.181,16.929a.948.948,0,0,1-.567,1.341Z" transform="translate(-320.616 -129.953)" fill="none" stroke="#263238" stroke-linecap="round" stroke-linejoin="round" stroke-width="1"/>
      <path id="Tracé_2555" data-name="Tracé 2555" d="M341.884,161.494s-5.936,1.3-11.6-3.8-23.8,3.349-23.8,3.349.865,2.163,3.963,1.731l-1.7,1.674s1.449,2.319,6.719.286l-.922,2.055s2.864,1.073,8.22-1.64l-.6,1.731s3.253.939,7.281-1.856l-.048,1.428a15.194,15.194,0,0,0,5.17-2.449C334.573,164.017,339.236,165.085,341.884,161.494Z" transform="translate(-295.6 -142.435)" fill="#fff"/>
      <g id="Groupe_1539" data-name="Groupe 1539" transform="translate(10.89 13.626)" clip-path="url(#clip-path-9)">
        <path id="Tracé_2556" data-name="Tracé 2556" d="M341.879,167.779c-2.648,3.587-7.312,2.518-7.312,2.518-1.7,1.545-5.17,2.449-5.17,2.449l.048-1.432c-4.028,2.8-7.281,1.86-7.281,1.86l.6-1.731c-5.356,2.717-8.22,1.64-8.22,1.64l.922-2.051c-5.27,2.029-6.719-.29-6.719-.29l1.7-1.674c-3.115.433-3.972-1.731-3.972-1.731s1.731,1.54,4.759.433c0,0-.082,1.462,3.154.632,0,0,3.054.234,4.7-1.272,0,0,1.1,1.1,3.34.091l-.433,1.3s.7,1.276,3.349-.372l.03,1.48s1.3.77,4.737-1.3c0,0-.9,1.146-.394,1.4a4.1,4.1,0,0,0,2.717-.394A10.769,10.769,0,0,0,341.879,167.779Z" transform="translate(-306.484 -162.341)" fill="#92e3a9" opacity="0.4"/>
      </g>
      <path id="Tracé_2558" data-name="Tracé 2558" d="M341.884,161.494s-5.936,1.3-11.6-3.8-23.8,3.349-23.8,3.349.865,2.163,3.963,1.731l-1.7,1.674s1.449,2.319,6.719.286l-.922,2.055s2.864,1.073,8.22-1.64l-.6,1.731s3.253.939,7.281-1.856l-.048,1.428a15.194,15.194,0,0,0,5.17-2.449C334.573,164.017,339.236,165.085,341.884,161.494Z" transform="translate(-295.6 -142.435)" fill="none" stroke="#263238" stroke-linecap="round" stroke-linejoin="round" stroke-width="1"/>
      <path id="Tracé_2559" data-name="Tracé 2559" d="M318.627,164.72c-1.731,1.125-2.933,1.354-4.1,2.553,0,0,1.813,1.259,4.958-.061" transform="translate(-300.162 -147.348)" fill="#fff" stroke="#263238" stroke-linecap="round" stroke-linejoin="round" stroke-width="1"/>
      <path id="Tracé_2560" data-name="Tracé 2560" d="M327.029,170.86a14.061,14.061,0,0,0-2.129,1.553s1.2,2.029,5.975-.757" transform="translate(-306.046 -150.831)" fill="none" stroke="#263238" stroke-linecap="round" stroke-linejoin="round" stroke-width="1"/>
      <path id="Tracé_2561" data-name="Tracé 2561" d="M342.362,172.83l-1.172,1.475a9.423,9.423,0,0,0,5.624-1.471" transform="translate(-315.288 -151.949)" fill="none" stroke="#263238" stroke-linecap="round" stroke-linejoin="round" stroke-width="1"/>
      <path id="Tracé_2562" data-name="Tracé 2562" d="M356.288,171.27s-1.116,1.527-1.017,1.657a6.8,6.8,0,0,0,5.486-2.077" transform="translate(-323.274 -150.826)" fill="#fff" stroke="#263238" stroke-linecap="round" stroke-linejoin="round" stroke-width="1"/>
      <path id="Tracé_2563" data-name="Tracé 2563" d="M327.351,163.7c-.766.692-3.288,2-3.331,2.449,0,0,1.7,2.142,5.7-.744" transform="translate(-305.546 -146.769)" fill="#fff" stroke="#263238" stroke-linecap="round" stroke-linejoin="round" stroke-width="1"/>
      <path id="Tracé_2564" data-name="Tracé 2564" d="M338.839,167.93a8.193,8.193,0,0,0-1.519,1.731s2.544,1.817,6.057-1.679" transform="translate(-313.092 -149.169)" fill="#fff" stroke="#263238" stroke-linecap="round" stroke-linejoin="round" stroke-width="1"/>
      <path id="Tracé_2565" data-name="Tracé 2565" d="M351.194,167.62a3.141,3.141,0,0,0-1,2.28s2.527.64,5.624-1.964" transform="translate(-320.394 -148.993)" fill="#fff" stroke="#263238" stroke-linecap="round" stroke-linejoin="round" stroke-width="1"/>
      <path id="Tracé_2566" data-name="Tracé 2566" d="M337.915,162.74s-2.349,1.4-2.258,1.891a6.3,6.3,0,0,0,5.581-.922" transform="translate(-312.147 -146.224)" fill="#fff" stroke="#263238" stroke-linecap="round" stroke-linejoin="round" stroke-width="1"/>
      <path id="Tracé_2567" data-name="Tracé 2567" d="M348.334,164.16a2.959,2.959,0,0,0-.714,1.177s1.471,1.121,3.725-.523" transform="translate(-318.936 -147.03)" fill="#fff" stroke="#263238" stroke-linecap="round" stroke-linejoin="round" stroke-width="1"/>
      <path id="Tracé_2568" data-name="Tracé 2568" d="M281.32,310.153c.515-.173,1.06-.372,1.627-.593" transform="translate(-281.32 -229.524)" fill="none" stroke="#263238" stroke-linecap="round" stroke-linejoin="round" stroke-width="2"/>
      <path id="Tracé_2569" data-name="Tracé 2569" d="M288.062,250.47c9.76-4.37,24.055-14.84,20.979-31.877-2.535-14.018-14.126-12.767-17.613-9.877-5.914,4.906-6.814,16.44,1.731,18.854,14.191,3.976,24.976-13.741,28.5-20.481" transform="translate(-284.467 -171.261)" fill="none" stroke="#263238" stroke-linecap="round" stroke-linejoin="round" stroke-width="2" stroke-dasharray="7.903 4.939"/>
      <path id="Tracé_2570" data-name="Tracé 2570" d="M368.46,203.132c.489-.978.744-1.562.744-1.562" transform="translate(-330.76 -168.255)" fill="none" stroke="#263238" stroke-linecap="round" stroke-linejoin="round" stroke-width="2"/>
    </g>
  </g>
</svg>
