<svg id="Avatar_9" xmlns="http://www.w3.org/2000/svg" width="50" height="50" viewBox="0 0 50 50">
  <rect id="Rectangle_172_15" data-name="Rectangle 172_15" width="50" height="50" rx="6" fill="#fff" opacity="0"/>
  <g id="jpg" transform="translate(10 6.281)">
    <path id="Tracé_452" data-name="Tracé 452" d="M27.769,0H7.521C6.957,0,6.5.438,6.5,1.288V36.769c0,.231.457.669,1.021.669H35.479c.564,0,1.021-.438,1.021-.669V8.676c0-.465-.065-.615-.179-.725L28.2.172A.63.63,0,0,0,27.769,0Z" transform="translate(-6.5)" fill="#e9e9e0"/>
    <path id="Tracé_453" data-name="Tracé 453" d="M37.5.151V8.072h8.267Z" transform="translate(-15.872 -0.05)" fill="#d9d7ca"/>
    <ellipse id="Ellipse_35" data-name="Ellipse 35" cx="3.188" cy="3.055" rx="3.188" ry="3.055" transform="translate(5.485 6.593)" fill="#f3d55b"/>
    <path id="Tracé_454" data-name="Tracé 454" d="M6.5,32.2h30V24.851L29.523,18.5,22.2,26.188l-3.825-3.666Z" transform="translate(-6.5 -6.132)" fill="#26b99a"/>
    <path id="Tracé_455" data-name="Tracé 455" d="M35.479,50.365H7.521A1,1,0,0,1,6.5,49.387V39h30V49.387A1,1,0,0,1,35.479,50.365Z" transform="translate(-6.5 -12.927)" fill="#14a085"/>
    <g id="Groupe_394" data-name="Groupe 394" transform="translate(6.112 28.513)">
      <path id="Tracé_456" data-name="Tracé 456" d="M19.562,42.65V47.9a1.62,1.62,0,0,1-.181.8,1.455,1.455,0,0,1-.486.521,1.986,1.986,0,0,1-.7.274,4.2,4.2,0,0,1-.816.078,3.449,3.449,0,0,1-.491-.041A4.327,4.327,0,0,1,16.3,49.4q-.3-.087-.577-.2a2.137,2.137,0,0,1-.467-.247l.486-.74a1.448,1.448,0,0,0,.272.132q.176.068.387.128c.14.04.286.074.439.1a2.178,2.178,0,0,0,.429.045,1.516,1.516,0,0,0,.806-.187.73.73,0,0,0,.32-.635V42.65Z" transform="translate(-15.26 -42.65)" fill="#fff"/>
      <path id="Tracé_457" data-name="Tracé 457" d="M25.018,49.592H23.873V42.855h2.022a2.951,2.951,0,0,1,.887.137,2.445,2.445,0,0,1,.787.411,2.168,2.168,0,0,1,.563.663,1.774,1.774,0,0,1,.215.873,2.3,2.3,0,0,1-.181.928,1.94,1.94,0,0,1-.506.7,2.3,2.3,0,0,1-.782.439,3.129,3.129,0,0,1-1.011.155h-.849v2.432Zm0-5.9v2.669h1.049a1.3,1.3,0,0,0,.415-.069,1.054,1.054,0,0,0,.377-.224,1.088,1.088,0,0,0,.276-.434,1.977,1.977,0,0,0,.1-.69,1.792,1.792,0,0,0-.047-.379,1.073,1.073,0,0,0-.2-.411,1.146,1.146,0,0,0-.415-.329,1.592,1.592,0,0,0-.706-.133Z" transform="translate(-17.864 -42.718)" fill="#fff"/>
      <path id="Tracé_458" data-name="Tracé 458" d="M37.227,46.064v2.6a2.023,2.023,0,0,1-.491.434,3.067,3.067,0,0,1-1.192.434,4.252,4.252,0,0,1-.634.047,2.994,2.994,0,0,1-1.159-.219,2.592,2.592,0,0,1-.925-.649,3.029,3.029,0,0,1-.62-1.078,5.112,5.112,0,0,1,0-2.993,3.014,3.014,0,0,1,.62-1.074,2.634,2.634,0,0,1,.93-.654,2.946,2.946,0,0,1,1.154-.224,3.068,3.068,0,0,1,1.068.183,2.621,2.621,0,0,1,.887.548l-.792.677a1.357,1.357,0,0,0-.525-.384,1.63,1.63,0,0,0-.61-.119,1.787,1.787,0,0,0-.673.128,1.433,1.433,0,0,0-.572.434,2.2,2.2,0,0,0-.4.791,4.481,4.481,0,0,0-.153,1.188,4.76,4.76,0,0,0,.148,1.188,2.39,2.39,0,0,0,.382.822,1.6,1.6,0,0,0,.553.475,1.438,1.438,0,0,0,.654.155c.07,0,.163,0,.281-.014s.235-.024.353-.045a2.375,2.375,0,0,0,.338-.087.486.486,0,0,0,.239-.155V46.813H34.9v-.749h2.327Z" transform="translate(-20.315 -42.664)" fill="#fff"/>
    </g>
  </g>
</svg>
