<svg id="undraw_filing_system_re_56h6" xmlns="http://www.w3.org/2000/svg" width="207.8" height="127.91" viewBox="0 0 207.8 127.91">
  <path id="Path_133" data-name="Path 133" d="M170.589,598.19a34.574,34.574,0,0,0,1.615,9.557c.022.072.046.143.07.214H178.3c-.006-.064-.013-.136-.019-.214-.4-4.62,1.894-32.4,4.664-37.213C182.7,570.925,170.121,583.51,170.589,598.19Z" transform="translate(-160.41 -480.27)" fill="#f1f1f1"/>
  <path id="Path_134" data-name="Path 134" d="M155.81,667.976c.05.072.1.144.157.214h4.522l-.12-.214c-.747-1.348-2.958-5.379-5.01-9.557-2.2-4.49-4.229-9.151-4.058-10.838C151.247,647.961,149.72,659.559,155.81,667.976Z" transform="translate(-145.179 -540.499)" fill="#f1f1f1"/>
  <path id="Tracé_5358" data-name="Tracé 5358" d="M774.435,261.924a3.148,3.148,0,0,0,4.593,1.486l8.727,7,.54-5.788-8.37-5.76a3.165,3.165,0,0,0-5.49,3.062Z" transform="translate(-632.273 -235.605)" fill="#9f616a"/>
  <path id="Tracé_5359" data-name="Tracé 5359" d="M688.309,122.2l-3.257-2.3-3.694,4.268,4.3,2.547Z" transform="translate(-532.633 -93.731)" fill="#6c63ff"/>
  <path id="Tracé_5360" data-name="Tracé 5360" d="M813.83,267.5l10.977,4.223,10.567-6.919a5.374,5.374,0,0,1,6.94,8.089l-.095.1-16.252,8.713-17.752-8.11Z" transform="translate(-658.867 -240.584)" fill="#3f3d56"/>
  <path id="Tracé_5361" data-name="Tracé 5361" d="M286.137,292.981H171.76L175.907,212h17.9l16.5,11.569h79.974Z" transform="translate(-134.269 -165.725)" fill="#e5e5e5"/>
  <path id="Tracé_5362" data-name="Tracé 5362" d="M452.641,262.364l-66.108-27.225a.944.944,0,0,1-.513-1.231l29.955-72.737a.944.944,0,0,1,1.231-.513l66.109,27.225a.944.944,0,0,1,.513,1.231l-29.955,72.737A.944.944,0,0,1,452.641,262.364Z" transform="translate(-328.772 -159.804)" fill="#fff"/>
  <path id="Tracé_5363" data-name="Tracé 5363" d="M452.641,262.364l-66.108-27.225a.944.944,0,0,1-.513-1.231l29.955-72.737a.944.944,0,0,1,1.231-.513l66.109,27.225a.944.944,0,0,1,.513,1.231l-29.955,72.737A.944.944,0,0,1,452.641,262.364ZM417.062,161.007a.567.567,0,0,0-.739.308l-29.955,72.737a.567.567,0,0,0,.308.739l66.108,27.225a.567.567,0,0,0,.739-.308l29.955-72.737a.567.567,0,0,0-.308-.739Z" transform="translate(-328.772 -159.804)" fill="#3f3d56"/>
  <path id="Tracé_5364" data-name="Tracé 5364" d="M553.219,236.462l-16.4-6.753a.944.944,0,0,1-.513-1.231l6.752-16.4a.944.944,0,0,1,1.231-.513l16.4,6.752a.944.944,0,0,1,.513,1.231l-6.752,16.4a.944.944,0,0,1-1.231.513Zm-9.069-24.544a.567.567,0,0,0-.739.308l-6.752,16.4a.567.567,0,0,0,.308.739l16.4,6.752a.567.567,0,0,0,.739-.308l6.752-16.4a.567.567,0,0,0-.308-.739Z" transform="translate(-446.257 -199.602)" fill="#f2f2f2"/>
  <path id="Tracé_5365" data-name="Tracé 5365" d="M528.068,237.417l-16.4-6.752a.85.85,0,0,1-.462-1.108l6.752-16.4a.85.85,0,0,1,1.108-.462l16.4,6.752a.85.85,0,0,1,.462,1.108l-6.752,16.4a.85.85,0,0,1-1.108.462Z" transform="translate(-426.641 -200.491)" fill="#6c63ff"/>
  <path id="Tracé_5366" data-name="Tracé 5366" d="M547.814,347.262l-51.282-21.119a.849.849,0,0,1,.646-1.57l51.282,21.119a.849.849,0,1,1-.646,1.57Z" transform="translate(-414.806 -287.946)" fill="#ccc"/>
  <path id="Tracé_5367" data-name="Tracé 5367" d="M525.227,366.934l-38.9-16.019a.849.849,0,0,1,.647-1.57l38.9,16.019a.849.849,0,0,1-.646,1.57Z" transform="translate(-406.831 -307.31)" fill="#ccc"/>
  <path id="Tracé_5368" data-name="Tracé 5368" d="M686.98,298.025,664.3,288.687a.849.849,0,1,1,.647-1.57l22.676,9.338a.849.849,0,1,1-.647,1.57Z" transform="translate(-545.958 -258.665)" fill="#ccc"/>
  <path id="Tracé_5369" data-name="Tracé 5369" d="M671.119,320.467,654.1,313.459a.849.849,0,1,1,.646-1.57l17.017,7.008a.849.849,0,0,1-.647,1.57Z" transform="translate(-537.983 -278.03)" fill="#ccc"/>
  <path id="Tracé_5370" data-name="Tracé 5370" d="M527.41,396.807l-51.282-21.119a.849.849,0,0,1,.646-1.57l51.282,21.119a.849.849,0,0,1-.646,1.57Z" transform="translate(-398.855 -326.676)" fill="#ccc"/>
  <path id="Tracé_5371" data-name="Tracé 5371" d="M504.823,416.48l-38.9-16.019a.849.849,0,1,1,.647-1.57l38.9,16.019a.849.849,0,1,1-.646,1.57Z" transform="translate(-390.88 -346.042)" fill="#ccc"/>
  <path id="Tracé_5372" data-name="Tracé 5372" d="M507.006,446.352l-51.282-21.119a.849.849,0,1,1,.647-1.57l51.282,21.119a.849.849,0,1,1-.647,1.57Z" transform="translate(-382.905 -365.407)" fill="#ccc"/>
  <path id="Tracé_5373" data-name="Tracé 5373" d="M496.8,471.125l-51.282-21.119a.849.849,0,1,1,.647-1.57l51.282,21.119a.849.849,0,1,1-.646,1.57Z" transform="translate(-374.93 -384.772)" fill="#ccc"/>
  <path id="Tracé_5374" data-name="Tracé 5374" d="M566.5,533.765a18.488,18.488,0,0,0,3.076-.094,6.65,6.65,0,0,0,2.683-.739A2.55,2.55,0,0,0,573.535,531a1.8,1.8,0,0,0-1.086-1.82,2.141,2.141,0,0,0-2.172.3,2.829,2.829,0,0,0-.971,2.26,5.205,5.205,0,0,0,2.96,4.2c1.729.819,4.09.123,4.533-1.893.092-.419-.479-.565-.718-.3a1.9,1.9,0,0,0,2.657,2.717l-.643-.265a4.582,4.582,0,0,0,3.151,3.328,4.25,4.25,0,0,0,1.173.179,5.006,5.006,0,0,1,1.44.394l3.328,1.084c.489.159.8-.583.307-.744l-3.014-.982c-.5-.164-1-.332-1.507-.491a8.925,8.925,0,0,0-1.13-.119,3.774,3.774,0,0,1-2.951-2.76.407.407,0,0,0-.643-.265,1.1,1.1,0,0,1-1.533-1.583l-.718-.3a2.316,2.316,0,0,1-3.015,1.412,4.568,4.568,0,0,1-2.759-2.926,2.36,2.36,0,0,1,.172-1.878,1.406,1.406,0,0,1,1.473-.722,1.009,1.009,0,0,1,.862,1.107,1.8,1.8,0,0,1-1.005,1.367,6.523,6.523,0,0,1-2.38.57,17.2,17.2,0,0,1-2.745.078C566.089,532.94,565.985,533.738,566.5,533.765Z" transform="translate(-469.649 -447.813)" fill="#6c63ff"/>
  <path id="Tracé_5375" data-name="Tracé 5375" d="M286.137,248.569v63.955H171.76V237h17.9l16.5,11.569Z" transform="translate(-134.269 -185.268)" fill="#fff"/>
  <rect id="Rectangle_2415" data-name="Rectangle 2415" width="46.711" height="3.711" transform="translate(44.476 115.25)" fill="#6c63ff"/>
  <rect id="Rectangle_2416" data-name="Rectangle 2416" width="23.356" height="3.711" transform="translate(44.476 108.047)" fill="#6c63ff"/>
  <path id="Tracé_5376" data-name="Tracé 5376" d="M409.574,468.96H294.76V393h18.186l16.5,11.569h80.123ZM295.2,468.524H409.137V405.005H329.313l-16.5-11.569H295.2Z" transform="translate(-257.487 -341.487)" fill="#3f3d56"/>
  <path id="Tracé_5377" data-name="Tracé 5377" d="M869.582,495.174l-3.87,1.383-7.177-14.27,5.712-2.041Z" transform="translate(-671.137 -375.419)" fill="#9f616a"/>
  <path id="Tracé_5378" data-name="Tracé 5378" d="M985.359,707.705l-.056-.158a5.164,5.164,0,0,1,3.121-6.593l7.622-2.724,1.792,5.015Z" transform="translate(-797.065 -580.092)" fill="#2f2e41"/>
  <path id="Tracé_5379" data-name="Tracé 5379" d="M772.127,509.4h-4.11l-1.955-15.853h6.066Z" transform="translate(-598.848 -385.816)" fill="#9f616a"/>
  <path id="Tracé_5380" data-name="Tracé 5380" d="M875.19,722.35H861.938v-.168a5.158,5.158,0,0,1,5.158-5.158h8.094Z" transform="translate(-700.863 -594.784)" fill="#2f2e41"/>
  <path id="Tracé_5381" data-name="Tracé 5381" d="M928.343,246.537l-1.787-3.532s-6.659,1.668-7.264,5.527Z" transform="translate(-745.698 -224.233)" fill="#6c63ff"/>
  <path id="Tracé_5382" data-name="Tracé 5382" d="M779,284.8l-4.861,27.125,12.906,22.825-7.71,3.017-13.074-22.125-1.676-6.034-1.006,31.512-6.954-.211-3.188-29.425,5.114-27.354Z" transform="translate(-588.978 -222.109)" fill="#2f2e41"/>
  <path id="Tracé_5383" data-name="Tracé 5383" d="M908.3,279.764l-.168-15.906a18.171,18.171,0,0,0-5.052-12.17,2.9,2.9,0,0,0-1.543-1.9,4.6,4.6,0,0,0-3.364.17L892.752,252l-.025.074c-.058.17-5.533,18.136-6.907,22.645-.2.647-.309,1.017-.309,1.017s.021,1.043.06,2.664c.121,5.575.409,17.994.523,18.515,0,0,10.023,1.519,13.991,1.519a44.722,44.722,0,0,0,11.776-1.39l.164-.034Z" transform="translate(-719.29 -229.33)" fill="#3f3d56"/>
  <circle id="Ellipse_161" data-name="Ellipse 161" cx="7.336" cy="7.336" r="7.336" transform="translate(165.351 7.406) rotate(-28.663)" fill="#9f616a"/>
  <path id="Tracé_5384" data-name="Tracé 5384" d="M895.409,366.613l-9.84,2c-.038-1.621-.06-2.664-.06-2.664s.113-.37.309-1.017Z" transform="translate(-719.29 -319.545)" opacity="0.2"/>
  <path id="Tracé_5385" data-name="Tracé 5385" d="M793.356,343.037a3.148,3.148,0,0,0,4.762-.792l10.968,2.2L806.9,339.06l-10.081-1.266a3.165,3.165,0,0,0-3.467,5.244Z" transform="translate(-646.375 -298.067)" fill="#9f616a"/>
  <path id="Tracé_5386" data-name="Tracé 5386" d="M714.019,184.366l-3.951-.546-1.318,5.489,4.987.286Z" transform="translate(-554.047 -143.696)" fill="#6c63ff"/>
  <path id="Tracé_5387" data-name="Tracé 5387" d="M842.891,284.625l11.689-1.3,6.2-11a5.374,5.374,0,0,1,9.883,3.992l-.036.137L860.2,291.664l-19.493.961Z" transform="translate(-684.27 -245.013)" fill="#3f3d56"/>
  <path id="Tracé_5388" data-name="Tracé 5388" d="M904.326,173.695l-6.089.219c-.371.013-1.378-3.992-1.51-4.823a2.268,2.268,0,0,0-2.366-1.835c-.456.043-1.605-.808-2.791-1.817a4.472,4.472,0,0,1,.339-7.127q.1-.066.2-.121A10.835,10.835,0,0,1,897.282,157a9.675,9.675,0,0,1,4.716.951c2.56,1.375,3.922,4.381,4.042,7.285a21.191,21.191,0,0,1-1.867,8.45" transform="translate(-722.771 -157)" fill="#2f2e41"/>
  <path id="Tracé_5389" data-name="Tracé 5389" d="M331.582,741.437H124.218a.218.218,0,1,1,0-.437H331.582a.218.218,0,0,1,0,.437Z" transform="translate(-124 -613.526)" fill="#cbcbcb"/>
</svg>
