<svg id="Groupe_7409" data-name="Groupe 7409" xmlns="http://www.w3.org/2000/svg" width="50" height="50" viewBox="0 0 50 50">
  <g id="Avatar_8" opacity="0">
    <rect id="Rectangle_172_14" data-name="Rectangle 172_14" width="50" height="50" rx="6" fill="#c9f7f5"/>
  </g>
  <g id="Avatar_9" transform="translate(10 5.465)">
    <g id="pdf" transform="translate(0 0)">
      <path id="Tracé_477" data-name="Tracé 477" d="M27.769,0H7.521C6.957,0,6.5.457,6.5,1.344V38.372a1.051,1.051,0,0,0,1.021.7H35.479a1.051,1.051,0,0,0,1.021-.7V9.054c0-.486-.065-.642-.179-.757L28.2.179A.617.617,0,0,0,27.769,0Z" transform="translate(-6.5)" fill="#e9e9e0"/>
      <path id="Tracé_478" data-name="Tracé 478" d="M37.5.151V8.418h8.267Z" transform="translate(-15.872 -0.046)" fill="#d9d7ca"/>
      <path id="Tracé_479" data-name="Tracé 479" d="M18.88,25.338h0a1.12,1.12,0,0,1-.675-.227,1.672,1.672,0,0,1-.778-1.564c.127-1.136,1.531-2.325,4.176-3.536a46.832,46.832,0,0,0,2.643-7.5c-.7-1.515-1.373-3.481-.88-4.635a1.338,1.338,0,0,1,.791-.848,3.425,3.425,0,0,1,.709-.12c.352,0,.661.453.88.732.206.262.673.818-.26,4.746a22.294,22.294,0,0,0,3.55,5.276,13.573,13.573,0,0,1,2.343-.25c1.093,0,1.755.255,2.025.779a1.412,1.412,0,0,1-.272,1.507,1.854,1.854,0,0,1-1.549.831,4.638,4.638,0,0,1-2.938-1.594A33.429,33.429,0,0,0,22.485,20.9a19.8,19.8,0,0,1-1.663,2.966C20.108,24.87,19.491,25.338,18.88,25.338Zm1.857-3.576c-1.491.838-2.1,1.527-2.143,1.914-.007.064-.026.233.3.483C19,24.126,19.607,23.849,20.738,21.761Zm9.514-3.1c.569.437.707.659,1.079.659a1.052,1.052,0,0,0,.844-.308,1.1,1.1,0,0,0,.16-.29c-.086-.045-.2-.137-.82-.137A10.2,10.2,0,0,0,30.252,18.662ZM25.04,14.07a49.74,49.74,0,0,1-1.866,5.277,34.86,34.86,0,0,1,4.532-1.409A23.882,23.882,0,0,1,25.04,14.07Zm-.423-5.9a1.673,1.673,0,0,0,.067,2.244C25.346,8.935,24.647,8.157,24.617,8.167Z" transform="translate(-9.801 -2.088)" fill="#cc4b4c"/>
      <path id="Tracé_480" data-name="Tracé 480" d="M35.479,50.86H7.521A1.021,1.021,0,0,1,6.5,49.84V39h30V49.84A1.021,1.021,0,0,1,35.479,50.86Z" transform="translate(-6.5 -11.791)" fill="#cc4b4c"/>
      <g id="Groupe_396" data-name="Groupe 396" transform="translate(6.449 29.947)">
        <path id="Tracé_481" data-name="Tracé 481" d="M16.889,49.954H15.744v-7.03h2.022a2.838,2.838,0,0,1,.887.143,2.412,2.412,0,0,1,.787.429,2.241,2.241,0,0,1,.563.691,1.916,1.916,0,0,1,.215.911,2.492,2.492,0,0,1-.181.968,2.024,2.024,0,0,1-.506.73,2.279,2.279,0,0,1-.782.458,3.01,3.01,0,0,1-1.011.162h-.849v2.537Zm0-6.162v2.785h1.049a1.247,1.247,0,0,0,.415-.072,1.046,1.046,0,0,0,.377-.234,1.142,1.142,0,0,0,.276-.453,2.145,2.145,0,0,0,.1-.72,1.948,1.948,0,0,0-.047-.4,1.142,1.142,0,0,0-.2-.429,1.156,1.156,0,0,0-.415-.343,1.542,1.542,0,0,0-.706-.138h-.858Z" transform="translate(-15.744 -42.924)" fill="#fff"/>
        <path id="Tracé_482" data-name="Tracé 482" d="M29.76,46.244a5.164,5.164,0,0,1-.186,1.483,3.687,3.687,0,0,1-.472,1.03,2.426,2.426,0,0,1-.644.654,3.229,3.229,0,0,1-.691.358,2.857,2.857,0,0,1-.61.153,4.065,4.065,0,0,1-.41.032H24.084v-7.03H26.2a4.023,4.023,0,0,1,1.559.281,3.237,3.237,0,0,1,1.116.749,3.073,3.073,0,0,1,.663,1.063A3.521,3.521,0,0,1,29.76,46.244Zm-3.4,2.871a1.9,1.9,0,0,0,1.679-.744,3.776,3.776,0,0,0,.515-2.156,3.651,3.651,0,0,0-.1-.868,1.857,1.857,0,0,0-.405-.777,2.139,2.139,0,0,0-.816-.563,3.512,3.512,0,0,0-1.335-.215h-.668v5.323h1.135Z" transform="translate(-18.265 -42.924)" fill="#fff"/>
        <path id="Tracé_483" data-name="Tracé 483" d="M35.762,43.792V46H38.7v.782H35.762v3.167H34.6v-7.03h4.4v.868Z" transform="translate(-21.444 -42.924)" fill="#fff"/>
      </g>
    </g>
  </g>
</svg>
