<svg xmlns="http://www.w3.org/2000/svg" xmlns:xlink="http://www.w3.org/1999/xlink" width="117.522" height="93.369" viewBox="0 0 117.522 93.369">
  <defs>
    <clipPath id="clip-path">
      <rect id="Rectangle_2419" data-name="Rectangle 2419" width="117.522" height="93.369" fill="none"/>
    </clipPath>
  </defs>
  <g id="Groupe_7424" data-name="Groupe 7424" transform="translate(0 0)">
    <g id="Groupe_7423" data-name="Groupe 7423" transform="translate(0 0)" clip-path="url(#clip-path)">
      <path id="Tracé_5360" data-name="Tracé 5360" d="M85.794,20.269c0-2.607,0-3.133,0-5.536a.984.984,0,0,0-.624-1.011c-1.859-.954-3.641-2.051-5.411-3.162-.584-.366-.782-.255-.78.375.011,2.154,0,6.671,0,6.671s0,7.5,0,8.866a16.708,16.708,0,0,0-2.352-4.977c-.022-4.746-.086-18.8-.076-20.91,0-.63-.2-.741-.781-.375-1.765,1.108-3.535,2.216-5.4,3.155a.988.988,0,0,0-.638,1.018c.007,2.168,0,8.191,0,11.264a17.73,17.73,0,0,0-2.347-.926c-.025-2.356-.08-7.685-.071-9.639,0-.63-.2-.742-.78-.375-1.765,1.108-3.537,2.215-5.4,3.155a.987.987,0,0,0-.636,1.018c.006,2.145,0,3.062,0,5.087a18.011,18.011,0,0,0-2.344.333c-.027-.84-.065-2.312-.057-3.951,0-.63-.2-.741-.78-.375-1.77,1.112-3.554,2.207-5.413,3.163a.984.984,0,0,0-.622,1.01c.007,2.177,0,1.582,0,3.389-.069.054-.139.107-.209.163a16.014,16.014,0,0,0-6.215,11.409c-.233,3.386-.187,11.223-.151,17.52.015,2.63.028,4.9.017,6.33a.928.928,0,0,0,.93.934h.008a.936.936,0,0,0,.937-.929c.011-1.444,0-3.716-.018-6.346-.035-5.936-.081-14.064.146-17.381a14.184,14.184,0,0,1,5.531-10.086,15.03,15.03,0,0,1,10.277-3.361,15.541,15.541,0,0,1,15.06,13.388A77.056,77.056,0,0,1,77.9,40c-.02.916-.04,1.832-.053,2.748a.934.934,0,0,0,.017.186,9.938,9.938,0,0,1-3.227,3.651,10.069,10.069,0,0,1-15.856-6.434c-.455-2.761-.13-5.557-.18-8.335a3.4,3.4,0,1,1,6.779,0c.009,2.132-.014,4.262.007,6.393a3.372,3.372,0,0,0,3.191,3.508,3.3,3.3,0,0,0,3.573-3.208,63.28,63.28,0,0,0-.138-8.43,10.161,10.161,0,0,0-9.822-8.746,9.849,9.849,0,0,0-7.042,2.485,11.886,11.886,0,0,0-3.331,7.252c-.121,2.638-.007,5.293-.027,7.939a11.454,11.454,0,0,0,.279,3.024,17.759,17.759,0,0,0,5.772,9.374,16.725,16.725,0,0,0,19.352,1.648,16.715,16.715,0,0,0,8.563-15c.079-14.873.031-5.035.025-17.8l.016.01" transform="translate(-5.537 0)" fill="#fff"/>
      <path id="Tracé_5361" data-name="Tracé 5361" d="M3.914,99.506a2.293,2.293,0,0,1,0,3.208,2.215,2.215,0,0,1-1.63.654,2.215,2.215,0,0,1-1.63-.654,2.293,2.293,0,0,1,0-3.208,2.212,2.212,0,0,1,1.63-.654,2.212,2.212,0,0,1,1.63.654m14.54-1.168q-1.385,1.231-5.107,1.232a9.414,9.414,0,0,1-3.5-.834q-2.015-.835-3.85-1.668a7.611,7.611,0,0,0-2.913-.834,2.165,2.165,0,0,0-1.206.334,5.406,5.406,0,0,1,.9-1.052A4.273,4.273,0,0,1,5.8,94.129a6.4,6.4,0,0,1,2.683.591,8.308,8.308,0,0,1,2.053,1.257q.757.668,1.758,1.694t1.386,1.335a1.293,1.293,0,0,0,.821.308,1.377,1.377,0,0,0,.988-.41,1.344,1.344,0,0,0,.423-1,3.733,3.733,0,0,0-.359-2,1.709,1.709,0,0,0-1.489-.641H13.5A5.544,5.544,0,0,1,9.574,94.1a3.914,3.914,0,0,1-1.206-3V85.124a3.89,3.89,0,0,1,1.45-3.246,5.647,5.647,0,0,1,3.606-1.142h3.568a3.2,3.2,0,0,1,3.182,3.182V87.28a.923.923,0,0,0,.95.95h1.206v.359H17.2a1.007,1.007,0,0,1-1-1V82.173a1.168,1.168,0,0,0-.347-.86,1.138,1.138,0,0,0-.834-.346H13.526a1.182,1.182,0,0,0-.847.346,1.145,1.145,0,0,0-.359.86V93.307a1.69,1.69,0,0,0,.347,1.245,1.655,1.655,0,0,0,1.142.322h2.849a2.878,2.878,0,0,1,1.784.551,1.779,1.779,0,0,1,.782,1.322,1.933,1.933,0,0,1-.77,1.591M8.906,99.506a2.261,2.261,0,0,1,0,3.208,2.26,2.26,0,0,1-1.643.654,2.259,2.259,0,1,1,0-4.517,2.256,2.256,0,0,1,1.643.654" transform="translate(0 -9.999)" fill="#fff"/>
      <path id="Tracé_5362" data-name="Tracé 5362" d="M36.9,87.228h1.925v.359H24.812V87.2h4.543q1.8,0,1.8-1.669v-4.85a1.129,1.129,0,0,1,.436-.885,2.912,2.912,0,0,1,1.142-.565A10.064,10.064,0,0,1,34,78.964q.564-.076,1.1-.1v6.956a1.187,1.187,0,0,0,.539,1.052,2.213,2.213,0,0,0,1.258.359M29.881,73.3a2.293,2.293,0,0,1,0,3.208,2.372,2.372,0,0,1-3.259.012,2.325,2.325,0,0,1,0-3.234,2.373,2.373,0,0,1,3.259.013m5.018,0a2.261,2.261,0,0,1,0,3.208,2.256,2.256,0,0,1-1.643.654,2.278,2.278,0,0,1-1.6-3.876,2.2,2.2,0,0,1,1.6-.641A2.256,2.256,0,0,1,34.9,73.3" transform="translate(-3.073 -8.998)" fill="#fff"/>
      <path id="Tracé_5363" data-name="Tracé 5363" d="M54.516,87.973h1.873v.359H40.426v-.359h1.848V83.1a4.328,4.328,0,0,1,.513-2.182,3.441,3.441,0,0,1,1.424-1.374,7.273,7.273,0,0,1,1.926-.68,11.2,11.2,0,0,1,2.219-.205,11.365,11.365,0,0,1,2.246.205,7.733,7.733,0,0,1,1.937.668A3.4,3.4,0,0,1,53.99,80.9a4.32,4.32,0,0,1,.526,2.195Zm-8.29-1.951a2.041,2.041,0,0,0,.449,1.579,2.743,2.743,0,0,0,1.68.372,2.867,2.867,0,0,0,1.72-.372,2,2,0,0,0,.462-1.579V80.94a1.962,1.962,0,0,0-.5-1.553,2.608,2.608,0,0,0-1.681-.424,2.451,2.451,0,0,0-1.642.436,2,2,0,0,0-.488,1.54Z" transform="translate(-5.007 -9.742)" fill="#fff"/>
      <path id="Tracé_5364" data-name="Tracé 5364" d="M79.557,83.186a3.9,3.9,0,0,1-1.643,3.35,6.77,6.77,0,0,1-3.927,1.245H58.177v-.359h2.31V79.952H66.6q5.415,0,5.415,3.388V87.4h1.822a1.56,1.56,0,0,0,1.3-.6,2.314,2.314,0,0,0,.475-1.476V82.288q0-1.438-.09-2.49a14.905,14.905,0,0,0-.385-2.259,3.815,3.815,0,0,0-.963-1.861,2.286,2.286,0,0,0-1.668-.654,3.322,3.322,0,0,0-1.694.68,16.558,16.558,0,0,0-1.95,1.514,11.013,11.013,0,0,1-2.195,1.515,5.036,5.036,0,0,1-2.349.68,4.216,4.216,0,0,1-3-1.412,6.124,6.124,0,0,1-.9-1.026,2.382,2.382,0,0,0,1.283.385,8.279,8.279,0,0,0,3.491-1.4,13.24,13.24,0,0,1,3.568-1.631,7.866,7.866,0,0,1,1.515-.128,12.918,12.918,0,0,1,2.259.205,11.858,11.858,0,0,1,2.451.745,8.693,8.693,0,0,1,2.284,1.373,6.463,6.463,0,0,1,1.643,2.22,7.31,7.31,0,0,1,.654,3.157Zm-15.117-2.7v6.9h3.618v-5.39q0-1.693-1.8-1.694a9.579,9.579,0,0,0-1.822.18" transform="translate(-7.205 -9.19)" fill="#fff"/>
      <path id="Tracé_5365" data-name="Tracé 5365" d="M92.448,86.888h.668v.359h-2.9a3.811,3.811,0,0,1-3.8-3.8V71.694a1.176,1.176,0,0,1,.449-.924,2.812,2.812,0,0,1,1.156-.565,9.514,9.514,0,0,1,1.3-.244,10.875,10.875,0,0,1,1.155-.064v15.04a1.86,1.86,0,0,0,.578,1.386,1.925,1.925,0,0,0,1.4.565" transform="translate(-10.703 -8.657)" fill="#fff"/>
      <path id="Tracé_5366" data-name="Tracé 5366" d="M112.326,88.107h3.054v.359H93.358v-.385h1.1q1.823,0,1.822-1.669V83.231a1.152,1.152,0,0,1,.449-.9,2.8,2.8,0,0,1,1.129-.565,12.174,12.174,0,0,1,1.27-.269,7.286,7.286,0,0,1,1.1-.09v3.721a3.519,3.519,0,0,1-1.36,2.953h2.207q1.848,0,1.848-1.669V83.231a1.164,1.164,0,0,1,.436-.9,2.705,2.705,0,0,1,1.129-.565,12.976,12.976,0,0,1,1.284-.269,7.288,7.288,0,0,1,1.1-.09v3.721a3.563,3.563,0,0,1-1.361,2.953h2.336q1.848,0,1.848-1.669v-4.85a1.13,1.13,0,0,1,.436-.886,2.924,2.924,0,0,1,1.142-.565,10.2,10.2,0,0,1,1.271-.269c.376-.052.744-.085,1.1-.1v5.389a3.664,3.664,0,0,1-1.334,2.978" transform="translate(-11.563 -9.876)" fill="#fff"/>
      <path id="Tracé_5367" data-name="Tracé 5367" d="M132.11,83.917q0,4.414-6.159,4.414h-8.162v-.359h2.079V83.1a3.889,3.889,0,0,1,.937-2.707A4.537,4.537,0,0,1,123.025,79a11.237,11.237,0,0,1,2.926-.347,11.428,11.428,0,0,1,2.246.205,7.5,7.5,0,0,1,1.938.681,3.509,3.509,0,0,1,1.45,1.373,4.252,4.252,0,0,1,.526,2.182Zm-8.29,2.13a1.953,1.953,0,0,0,.449,1.54,2.818,2.818,0,0,0,1.681.359,2.943,2.943,0,0,0,1.719-.359,1.917,1.917,0,0,0,.462-1.54V80.965a2,2,0,0,0-.5-1.579,2.614,2.614,0,0,0-1.68-.423,2.452,2.452,0,0,0-1.643.436,2.041,2.041,0,0,0-.488,1.566Z" transform="translate(-14.589 -9.742)" fill="#fff"/>
      <path id="Tracé_5368" data-name="Tracé 5368" d="M33.673,102.624v-6.5l-3.583,8.937-3.951-9v8.867h-.13v-9h1.065a2.283,2.283,0,0,1,1.279.383,2.231,2.231,0,0,1,.851,1.03l1.96,4.617L33.6,95.936h.07a2.311,2.311,0,0,1,2.319,2.309v6.688a2.241,2.241,0,0,1-1.638-.676,2.216,2.216,0,0,1-.682-1.632" transform="translate(-3.221 -11.882)" fill="#fff"/>
      <path id="Tracé_5369" data-name="Tracé 5369" d="M47.368,97.912a4.581,4.581,0,0,1,0,4.826,4.685,4.685,0,0,1-7.956,0,4.552,4.552,0,0,1,0-4.826,4.685,4.685,0,0,1,7.956,0M41.3,100.325a8.854,8.854,0,0,0,.488,3.419,1.736,1.736,0,0,0,3.215,0,12.221,12.221,0,0,0,0-6.832,1.733,1.733,0,0,0-3.215,0,8.857,8.857,0,0,0-.488,3.413" transform="translate(-4.796 -11.853)" fill="#fff"/>
      <path id="Tracé_5370" data-name="Tracé 5370" d="M57.011,102.087a2.6,2.6,0,0,1-.921,2.08,3.557,3.557,0,0,1-2.394.786,3.955,3.955,0,0,1-2.517-.751,2.392,2.392,0,0,1-.956-1.976h.13a2.272,2.272,0,0,0,.891,1.866,3.655,3.655,0,0,0,2.353.711,2.536,2.536,0,0,0,1.443-.364,1.238,1.238,0,0,0,.239-1.826,2.308,2.308,0,0,0-.772-.557q-.473-.218-1.044-.418t-1.145-.443a6.252,6.252,0,0,1-1.044-.562,2.472,2.472,0,0,1-.772-.846,2.443,2.443,0,0,1-.3-1.224,2.649,2.649,0,0,1,.886-2.069,3.321,3.321,0,0,1,2.309-.8,3.247,3.247,0,0,1,2.145.682,2.212,2.212,0,0,1,.821,1.786h-.13a2.083,2.083,0,0,0-.752-1.672,2.916,2.916,0,0,0-1.955-.638,2.379,2.379,0,0,0-1.389.354,1.122,1.122,0,0,0-.5.97,1.108,1.108,0,0,0,.3.761,2.383,2.383,0,0,0,.772.557q.472.225,1.044.433T54.9,99.4a6.32,6.32,0,0,1,1.045.592,2.592,2.592,0,0,1,.771.866,2.463,2.463,0,0,1,.3,1.229" transform="translate(-6.218 -11.853)" fill="#fff"/>
      <path id="Tracé_5371" data-name="Tracé 5371" d="M65.62,102.087a2.6,2.6,0,0,1-.921,2.08,3.557,3.557,0,0,1-2.394.786,3.955,3.955,0,0,1-2.517-.751,2.392,2.392,0,0,1-.956-1.976h.13a2.272,2.272,0,0,0,.891,1.866,3.655,3.655,0,0,0,2.353.711,2.536,2.536,0,0,0,1.443-.364,1.238,1.238,0,0,0,.239-1.826,2.308,2.308,0,0,0-.772-.557q-.473-.218-1.044-.418t-1.145-.443a6.218,6.218,0,0,1-1.044-.562,2.472,2.472,0,0,1-.772-.846,2.443,2.443,0,0,1-.3-1.224,2.649,2.649,0,0,1,.886-2.069,3.321,3.321,0,0,1,2.309-.8,3.247,3.247,0,0,1,2.145.682,2.212,2.212,0,0,1,.821,1.786h-.13a2.083,2.083,0,0,0-.752-1.672,2.916,2.916,0,0,0-1.955-.638,2.379,2.379,0,0,0-1.389.354,1.122,1.122,0,0,0-.5.97,1.108,1.108,0,0,0,.3.761,2.383,2.383,0,0,0,.772.557q.472.225,1.044.433T63.5,99.4a6.32,6.32,0,0,1,1.045.592,2.592,2.592,0,0,1,.771.866,2.463,2.463,0,0,1,.3,1.229" transform="translate(-7.284 -11.853)" fill="#fff"/>
      <path id="Tracé_5372" data-name="Tracé 5372" d="M70.9,100.9a1.444,1.444,0,0,0-.756-.209,1.421,1.421,0,0,0-.761.219,1.369,1.369,0,0,0-.533.617L67.3,104.972h-.149l4.14-9.126,4.309,9.126a3.946,3.946,0,0,1-2.145-.618,3.831,3.831,0,0,1-1.468-1.672l-.548-1.174a1.374,1.374,0,0,0-.537-.607" transform="translate(-8.317 -11.871)" fill="#fff"/>
      <path id="Tracé_5373" data-name="Tracé 5373" d="M83.287,95.993A2.309,2.309,0,0,1,85.6,98.3v6.688a2.309,2.309,0,0,1-2.309-2.309v-2.369h-3.1v4.678a2.309,2.309,0,0,1-2.318-2.309V95.993A2.309,2.309,0,0,1,80.191,98.3v1.881h3.1Z" transform="translate(-9.645 -11.889)" fill="#fff"/>
      <path id="Tracé_5374" data-name="Tracé 5374" d="M91.507,100.9a1.444,1.444,0,0,0-.756-.209,1.421,1.421,0,0,0-.761.219,1.369,1.369,0,0,0-.533.617L87.9,104.972h-.149l4.14-9.126,4.309,9.126a3.946,3.946,0,0,1-2.145-.618,3.831,3.831,0,0,1-1.468-1.672l-.548-1.174a1.374,1.374,0,0,0-.537-.607" transform="translate(-10.869 -11.871)" fill="#fff"/>
      <path id="Tracé_5375" data-name="Tracé 5375" d="M106.14,102.624v-6.5l-3.583,8.937-3.951-9v8.867h-.13v-9h1.065a2.283,2.283,0,0,1,1.279.383,2.231,2.231,0,0,1,.851,1.03l1.96,4.617,2.438-6.031h.07a2.311,2.311,0,0,1,2.319,2.309v6.688a2.241,2.241,0,0,1-1.638-.676,2.216,2.216,0,0,1-.682-1.632" transform="translate(-12.197 -11.882)" fill="#fff"/>
      <path id="Tracé_5376" data-name="Tracé 5376" d="M114.7,100.9a1.444,1.444,0,0,0-.756-.209,1.421,1.421,0,0,0-.761.219,1.369,1.369,0,0,0-.533.617l-1.553,3.444h-.149l4.14-9.126,4.309,9.126a3.946,3.946,0,0,1-2.145-.618,3.831,3.831,0,0,1-1.468-1.672l-.548-1.174a1.374,1.374,0,0,0-.537-.607" transform="translate(-13.742 -11.871)" fill="#fff"/>
      <path id="Tracé_5377" data-name="Tracé 5377" d="M127.046,96.123H124.2v8.867a2.311,2.311,0,0,1-2.318-2.31V96.123h-2.856v-.129h8.021Z" transform="translate(-14.742 -11.889)" fill="#fff"/>
      <path id="Tracé_5378" data-name="Tracé 5378" d="M129.44,95.993a2.311,2.311,0,0,1,2.319,2.309v6.688a2.311,2.311,0,0,1-2.319-2.309Z" transform="translate(-16.032 -11.889)" fill="#fff"/>
    </g>
  </g>
</svg>
