<svg xmlns="http://www.w3.org/2000/svg" xmlns:xlink="http://www.w3.org/1999/xlink" width="134.135" height="106.568" viewBox="0 0 134.135 106.568">
  <defs>
    <clipPath id="clip-path">
      <rect id="Rectangle_2473" data-name="Rectangle 2473" width="134.135" height="106.568" transform="translate(0 0)" fill="none"/>
    </clipPath>
  </defs>
  <g id="Groupe_7709" data-name="Groupe 7709" transform="translate(0 0)">
    <g id="Groupe_7708" data-name="Groupe 7708" clip-path="url(#clip-path)">
      <path id="Tracé_5823" data-name="Tracé 5823" d="M91.6,23.134c0-2.975,0-3.576,0-6.319a1.123,1.123,0,0,0-.712-1.154c-2.122-1.089-4.156-2.341-6.176-3.609-.666-.418-.893-.291-.89.428.012,2.458,0,7.614,0,7.614s0,8.557,0,10.119a19.069,19.069,0,0,0-2.684-5.681c-.025-5.417-.1-21.462-.087-23.866,0-.719-.224-.846-.891-.428-2.014,1.265-4.035,2.529-6.159,3.6A1.128,1.128,0,0,0,73.286,5c.008,2.474,0,9.349,0,12.856A20.235,20.235,0,0,0,70.611,16.8c-.029-2.689-.091-8.771-.081-11,0-.719-.224-.847-.89-.428C67.625,6.635,65.6,7.9,63.479,8.971a1.126,1.126,0,0,0-.726,1.162c.007,2.448,0,3.495,0,5.806a20.557,20.557,0,0,0-2.675.38c-.031-.959-.074-2.639-.065-4.51,0-.719-.224-.846-.89-.428-2.02,1.269-4.056,2.519-6.178,3.61a1.123,1.123,0,0,0-.71,1.153c.008,2.485.005,1.806,0,3.868-.079.062-.159.122-.238.186A18.278,18.278,0,0,0,44.912,33.22c-.266,3.865-.214,12.81-.172,20,.017,3,.032,5.592.019,7.225a1.06,1.06,0,0,0,1.062,1.066h.009a1.068,1.068,0,0,0,1.07-1.06c.012-1.648,0-4.241-.02-7.243-.04-6.775-.093-16.052.167-19.838A16.189,16.189,0,0,1,53.36,21.855a17.155,17.155,0,0,1,11.73-3.836A17.738,17.738,0,0,1,82.279,33.3a87.95,87.95,0,0,1,.308,12.36c-.023,1.046-.046,2.091-.061,3.137a1.065,1.065,0,0,0,.019.212,11.343,11.343,0,0,1-3.683,4.167,11.493,11.493,0,0,1-18.1-7.344c-.519-3.151-.148-6.342-.206-9.513a3.883,3.883,0,1,1,7.737,0c.01,2.433-.016,4.865.008,7.3a3.848,3.848,0,0,0,3.642,4,3.772,3.772,0,0,0,4.078-3.662,72.225,72.225,0,0,0-.157-9.622,11.6,11.6,0,0,0-11.211-9.982,11.241,11.241,0,0,0-8.037,2.836,13.566,13.566,0,0,0-3.8,8.277c-.138,3.011-.008,6.041-.031,9.061a13.074,13.074,0,0,0,.319,3.452,20.27,20.27,0,0,0,6.588,10.7,19.089,19.089,0,0,0,22.088,1.881,19.078,19.078,0,0,0,9.774-17.117c.09-16.975.035-5.747.029-20.315l.018.011"/>
      <path id="Tracé_5824" data-name="Tracé 5824" d="M4.467,102.159a2.618,2.618,0,0,1,0,3.662,2.529,2.529,0,0,1-1.86.747,2.529,2.529,0,0,1-1.86-.747,2.618,2.618,0,0,1,0-3.662,2.525,2.525,0,0,1,1.86-.747,2.525,2.525,0,0,1,1.86.747m16.6-1.333q-1.581,1.406-5.829,1.406a10.744,10.744,0,0,1-4-.952q-2.3-.953-4.394-1.9a8.687,8.687,0,0,0-3.325-.952,2.471,2.471,0,0,0-1.377.381,6.17,6.17,0,0,1,1.026-1.2A4.877,4.877,0,0,1,6.62,96.022a7.3,7.3,0,0,1,3.062.674,9.482,9.482,0,0,1,2.343,1.435q.864.762,2.007,1.933t1.582,1.524a1.476,1.476,0,0,0,.937.351,1.572,1.572,0,0,0,1.128-.468,1.534,1.534,0,0,0,.483-1.143,4.261,4.261,0,0,0-.41-2.285,1.95,1.95,0,0,0-1.7-.732h-.644q-3.107,0-4.482-1.319A4.467,4.467,0,0,1,9.55,92.565V85.744A4.44,4.44,0,0,1,11.2,82.039a6.446,6.446,0,0,1,4.116-1.3h4.072a3.65,3.65,0,0,1,3.632,3.632v3.838a1.053,1.053,0,0,0,1.084,1.084h1.377v.41H19.627a1.149,1.149,0,0,1-1.142-1.142V82.376a1.333,1.333,0,0,0-.4-.982A1.3,1.3,0,0,0,17.137,81h-1.7a1.349,1.349,0,0,0-.967.395,1.307,1.307,0,0,0-.41.982V95.084a1.929,1.929,0,0,0,.4,1.421,1.889,1.889,0,0,0,1.3.367h3.252a3.284,3.284,0,0,1,2.036.629,2.03,2.03,0,0,1,.893,1.509,2.206,2.206,0,0,1-.879,1.816m-10.9,1.333a2.581,2.581,0,0,1,0,3.662,2.579,2.579,0,0,1-1.875.747,2.578,2.578,0,1,1,0-5.156,2.575,2.575,0,0,1,1.875.747"/>
      <path id="Tracé_5825" data-name="Tracé 5825" d="M38.61,89.289h2.2v.41H24.812V89.26H30q2.051,0,2.051-1.9V81.819a1.288,1.288,0,0,1,.5-1.01,3.324,3.324,0,0,1,1.3-.645,11.487,11.487,0,0,1,1.451-.308q.644-.087,1.259-.117v7.939a1.354,1.354,0,0,0,.615,1.2,2.526,2.526,0,0,0,1.436.41M30.6,73.4a2.618,2.618,0,0,1,0,3.662,2.708,2.708,0,0,1-3.72.014,2.653,2.653,0,0,1,0-3.691,2.709,2.709,0,0,1,3.72.015m5.727,0a2.581,2.581,0,0,1,0,3.662,2.575,2.575,0,0,1-1.875.747,2.6,2.6,0,0,1-1.831-4.424,2.516,2.516,0,0,1,1.831-.732,2.575,2.575,0,0,1,1.875.747"/>
      <path id="Tracé_5826" data-name="Tracé 5826" d="M56.508,89.29h2.138v.41H40.426v-.41h2.109V83.724a4.94,4.94,0,0,1,.586-2.49,3.928,3.928,0,0,1,1.625-1.568,8.3,8.3,0,0,1,2.2-.776,12.786,12.786,0,0,1,2.533-.234,12.971,12.971,0,0,1,2.564.234,8.826,8.826,0,0,1,2.211.762,3.885,3.885,0,0,1,1.656,1.567,4.931,4.931,0,0,1,.6,2.5Zm-9.462-2.227a2.33,2.33,0,0,0,.513,1.8,3.131,3.131,0,0,0,1.918.425,3.272,3.272,0,0,0,1.963-.425,2.287,2.287,0,0,0,.527-1.8v-5.8a2.239,2.239,0,0,0-.571-1.772,2.977,2.977,0,0,0-1.919-.484,2.8,2.8,0,0,0-1.874.5,2.28,2.28,0,0,0-.557,1.758Z"/>
      <path id="Tracé_5827" data-name="Tracé 5827" d="M82.579,84.456A4.453,4.453,0,0,1,80.7,88.279,7.727,7.727,0,0,1,76.222,89.7H58.177v-.41h2.636V80.765h6.973q6.18,0,6.181,3.867V89.26h2.08a1.781,1.781,0,0,0,1.479-.688,2.641,2.641,0,0,0,.542-1.685V83.431q0-1.641-.1-2.842a17.011,17.011,0,0,0-.439-2.578,4.354,4.354,0,0,0-1.1-2.124,2.609,2.609,0,0,0-1.9-.746,3.792,3.792,0,0,0-1.933.776,18.9,18.9,0,0,0-2.226,1.728,12.569,12.569,0,0,1-2.5,1.729,5.747,5.747,0,0,1-2.681.776,4.812,4.812,0,0,1-3.427-1.612,6.99,6.99,0,0,1-1.025-1.171,2.719,2.719,0,0,0,1.464.439,9.449,9.449,0,0,0,3.984-1.6,15.112,15.112,0,0,1,4.072-1.861,8.978,8.978,0,0,1,1.729-.146,14.744,14.744,0,0,1,2.578.234,13.534,13.534,0,0,1,2.8.85,9.922,9.922,0,0,1,2.607,1.567,7.376,7.376,0,0,1,1.875,2.534,8.343,8.343,0,0,1,.747,3.6ZM65.325,81.38v7.88h4.13V83.108q0-1.932-2.05-1.933a10.933,10.933,0,0,0-2.08.2"/>
      <path id="Tracé_5828" data-name="Tracé 5828" d="M93.3,89.29h.762v.41H90.752a4.35,4.35,0,0,1-4.335-4.336V71.948a1.343,1.343,0,0,1,.512-1.055,3.209,3.209,0,0,1,1.319-.645,10.857,10.857,0,0,1,1.479-.278,12.411,12.411,0,0,1,1.318-.073V87.063a2.123,2.123,0,0,0,.66,1.582,2.2,2.2,0,0,0,1.6.645"/>
      <path id="Tracé_5829" data-name="Tracé 5829" d="M115.007,89.29h3.486v.41H93.358v-.439h1.26q2.081,0,2.08-1.9V83.724a1.314,1.314,0,0,1,.513-1.025,3.2,3.2,0,0,1,1.289-.645,13.9,13.9,0,0,1,1.45-.307,8.316,8.316,0,0,1,1.259-.1v4.247a4.016,4.016,0,0,1-1.552,3.37h2.519q2.109,0,2.109-1.9V83.724a1.329,1.329,0,0,1,.5-1.025,3.088,3.088,0,0,1,1.289-.645,14.81,14.81,0,0,1,1.465-.307,8.318,8.318,0,0,1,1.26-.1v4.247a4.067,4.067,0,0,1-1.553,3.37h2.666q2.109,0,2.109-1.9V81.82a1.29,1.29,0,0,1,.5-1.011,3.337,3.337,0,0,1,1.3-.645,11.648,11.648,0,0,1,1.451-.307c.429-.059.849-.1,1.259-.117v6.151a4.181,4.181,0,0,1-1.523,3.4"/>
      <path id="Tracé_5830" data-name="Tracé 5830" d="M134.135,84.661q0,5.038-7.03,5.038h-9.316v-.41h2.373V83.723a4.439,4.439,0,0,1,1.069-3.09,5.178,5.178,0,0,1,2.534-1.582,12.826,12.826,0,0,1,3.34-.4,13.044,13.044,0,0,1,2.563.234,8.562,8.562,0,0,1,2.212.777,4.005,4.005,0,0,1,1.655,1.567,4.854,4.854,0,0,1,.6,2.49Zm-9.462,2.431a2.229,2.229,0,0,0,.513,1.758,3.216,3.216,0,0,0,1.919.41,3.359,3.359,0,0,0,1.962-.41,2.188,2.188,0,0,0,.527-1.758v-5.8a2.285,2.285,0,0,0-.571-1.8,2.984,2.984,0,0,0-1.918-.483,2.8,2.8,0,0,0-1.875.5,2.329,2.329,0,0,0-.557,1.787Z"/>
      <path id="Tracé_5831" data-name="Tracé 5831" d="M34.756,103.569V96.152l-4.089,10.2L26.158,96.084V106.2H26.01V95.936h1.215a2.606,2.606,0,0,1,1.46.437,2.546,2.546,0,0,1,.971,1.176l2.237,5.27,2.783-6.883h.08A2.638,2.638,0,0,1,37.4,98.571V106.2a2.558,2.558,0,0,1-1.869-.772,2.529,2.529,0,0,1-.778-1.863"/>
      <path id="Tracé_5832" data-name="Tracé 5832" d="M48.591,98.225a5.229,5.229,0,0,1,0,5.508,5.348,5.348,0,0,1-9.081,0,5.2,5.2,0,0,1,0-5.508,5.348,5.348,0,0,1,9.081,0m-6.929,2.754a10.106,10.106,0,0,0,.557,3.9,1.982,1.982,0,0,0,3.669,0,10.129,10.129,0,0,0,.556-3.9,10.132,10.132,0,0,0-.556-3.9,1.978,1.978,0,0,0-3.669,0,10.109,10.109,0,0,0-.557,3.9"/>
      <path id="Tracé_5833" data-name="Tracé 5833" d="M57.973,102.99a2.965,2.965,0,0,1-1.051,2.374,4.06,4.06,0,0,1-2.732.9,4.514,4.514,0,0,1-2.873-.857,2.731,2.731,0,0,1-1.091-2.255h.148a2.594,2.594,0,0,0,1.017,2.13,4.172,4.172,0,0,0,2.686.812,2.894,2.894,0,0,0,1.647-.415A1.413,1.413,0,0,0,56,103.592a2.634,2.634,0,0,0-.881-.636q-.54-.249-1.192-.477t-1.307-.506a7.136,7.136,0,0,1-1.192-.641,2.822,2.822,0,0,1-.881-.966,2.788,2.788,0,0,1-.34-1.4,3.023,3.023,0,0,1,1.011-2.362A3.791,3.791,0,0,1,53.85,95.7a3.706,3.706,0,0,1,2.448.778,2.524,2.524,0,0,1,.937,2.039h-.148a2.378,2.378,0,0,0-.858-1.908A3.328,3.328,0,0,0,54,95.879a2.715,2.715,0,0,0-1.585.4,1.281,1.281,0,0,0-.574,1.107,1.265,1.265,0,0,0,.341.869,2.719,2.719,0,0,0,.881.636q.538.257,1.192.494t1.306.534a7.213,7.213,0,0,1,1.193.676,2.958,2.958,0,0,1,.88.988,2.811,2.811,0,0,1,.341,1.4"/>
      <path id="Tracé_5834" data-name="Tracé 5834" d="M66.582,102.99a2.965,2.965,0,0,1-1.051,2.374,4.06,4.06,0,0,1-2.732.9,4.514,4.514,0,0,1-2.873-.857,2.731,2.731,0,0,1-1.091-2.255h.148A2.594,2.594,0,0,0,60,105.279a4.172,4.172,0,0,0,2.686.812,2.894,2.894,0,0,0,1.647-.415,1.413,1.413,0,0,0,.273-2.084,2.634,2.634,0,0,0-.881-.636q-.54-.249-1.192-.477t-1.307-.506a7.1,7.1,0,0,1-1.192-.641,2.822,2.822,0,0,1-.881-.966,2.788,2.788,0,0,1-.34-1.4,3.023,3.023,0,0,1,1.011-2.362,3.791,3.791,0,0,1,2.635-.909,3.706,3.706,0,0,1,2.448.778,2.524,2.524,0,0,1,.937,2.039H65.7a2.378,2.378,0,0,0-.858-1.908,3.328,3.328,0,0,0-2.231-.728,2.715,2.715,0,0,0-1.585.4,1.281,1.281,0,0,0-.574,1.107,1.265,1.265,0,0,0,.341.869,2.719,2.719,0,0,0,.881.636q.539.257,1.192.494t1.306.534a7.213,7.213,0,0,1,1.193.676,2.958,2.958,0,0,1,.88.988,2.811,2.811,0,0,1,.341,1.4"/>
      <path id="Tracé_5835" data-name="Tracé 5835" d="M71.433,101.616a1.649,1.649,0,0,0-.863-.239,1.622,1.622,0,0,0-.869.25,1.562,1.562,0,0,0-.608.7l-1.772,3.931h-.17l4.725-10.416,4.918,10.416a4.5,4.5,0,0,1-2.448-.705,4.373,4.373,0,0,1-1.675-1.908l-.625-1.34a1.568,1.568,0,0,0-.613-.693"/>
      <path id="Tracé_5836" data-name="Tracé 5836" d="M84.052,95.993a2.636,2.636,0,0,1,2.635,2.635v7.633a2.636,2.636,0,0,1-2.635-2.635v-2.7H80.519v5.339a2.636,2.636,0,0,1-2.646-2.635V95.993a2.636,2.636,0,0,1,2.646,2.635v2.147h3.533Z"/>
      <path id="Tracé_5837" data-name="Tracé 5837" d="M92.037,101.616a1.649,1.649,0,0,0-.863-.239,1.622,1.622,0,0,0-.869.25,1.562,1.562,0,0,0-.608.7l-1.772,3.931h-.17L92.48,95.846,97.4,106.262a4.5,4.5,0,0,1-2.448-.705,4.373,4.373,0,0,1-1.675-1.908l-.625-1.34a1.568,1.568,0,0,0-.613-.693"/>
      <path id="Tracé_5838" data-name="Tracé 5838" d="M107.223,103.569V96.152l-4.089,10.2L98.625,96.084V106.2h-.148V95.936h1.215a2.606,2.606,0,0,1,1.46.437,2.546,2.546,0,0,1,.971,1.176l2.237,5.27,2.783-6.883h.08a2.638,2.638,0,0,1,2.647,2.635V106.2a2.558,2.558,0,0,1-1.869-.772,2.529,2.529,0,0,1-.778-1.863"/>
      <path id="Tracé_5839" data-name="Tracé 5839" d="M115.231,101.616a1.649,1.649,0,0,0-.863-.239,1.622,1.622,0,0,0-.869.25,1.562,1.562,0,0,0-.608.7l-1.772,3.931h-.17l4.725-10.416,4.918,10.416a4.5,4.5,0,0,1-2.448-.705,4.373,4.373,0,0,1-1.675-1.908l-.625-1.34a1.568,1.568,0,0,0-.613-.693"/>
      <path id="Tracé_5840" data-name="Tracé 5840" d="M128.18,96.141h-3.249v10.121a2.638,2.638,0,0,1-2.646-2.636V96.141h-3.26v-.147h9.155Z"/>
      <path id="Tracé_5841" data-name="Tracé 5841" d="M129.44,95.993a2.638,2.638,0,0,1,2.647,2.635v7.633a2.638,2.638,0,0,1-2.647-2.635Z"/>
    </g>
  </g>
</svg>
