<svg xmlns="http://www.w3.org/2000/svg" width="231.916" height="249.64" viewBox="0 0 231.916 249.64">
  <g id="Documents-pana" transform="translate(-64.67 -37.85)">
    <g id="freepik--background-complete--inject-113" transform="translate(76.528 37.85)">
      <rect id="Rectangle_2319" data-name="Rectangle 2319" width="36.14" height="27.953" transform="translate(117.089 61.535)" fill="#ebebeb"/>
      <path id="Tracé_5056" data-name="Tracé 5056" d="M281.43,171.007l10-15.317,8.175,9.792,4.972-5.2,7.391,10.728Z" transform="translate(-161.539 -84.066)" fill="#f5f5f5"/>
      <path id="Tracé_5057" data-name="Tracé 5057" d="M310.975,155.792a2.212,2.212,0,1,1-2.212-2.212,2.212,2.212,0,0,1,2.212,2.212Z" transform="translate(-171.391 -83.238)" fill="#f5f5f5"/>
      <path id="Tracé_5058" data-name="Tracé 5058" d="M219.118,185l-20.769,8.157a97.249,97.249,0,0,0-9.549-28.938l18.994-8.169C215.057,164.967,217.732,174.728,219.118,185Z" transform="translate(-125.211 -84.207)" fill="#ebebeb"/>
      <path id="Tracé_5059" data-name="Tracé 5059" d="M131.911,96.69l-47.731.985,1.282,62.24,47.756.219Z" transform="translate(-84.18 -60.926)" fill="#ebebeb"/>
      <path id="Tracé_5060" data-name="Tracé 5060" d="M130.669,100.44,88.9,101.3l1.167,56.447,41.793.547Z" transform="translate(-86.031 -62.397)" fill="#fafafa"/>
      <path id="Tracé_5061" data-name="Tracé 5061" d="M128.04,117.25l-27.74-.48.814,39.453,27.716-.571Z" transform="translate(-90.502 -68.802)" fill="#ebebeb"/>
      <path id="Tracé_5062" data-name="Tracé 5062" d="M101.114,156.223l27.3-20.842L100.3,116.77Z" transform="translate(-90.502 -68.802)" fill="#f5f5f5"/>
      <path id="Tracé_5063" data-name="Tracé 5063" d="M350.6,37.85l-34.335.711.924,44.771,34.347.152Z" transform="translate(-175.199 -37.85)" fill="#ebebeb"/>
      <path id="Tracé_5064" data-name="Tracé 5064" d="M349.7,40.55l-30.038.62.833,40.608,30.068.4Z" transform="translate(-176.533 -38.909)" fill="#fafafa"/>
      <path id="Tracé_5065" data-name="Tracé 5065" d="M347.8,52.646,327.85,52.3l.583,28.379,19.942-.407Z" transform="translate(-179.745 -43.517)" fill="#ebebeb"/>
      <path id="Tracé_5066" data-name="Tracé 5066" d="M328.434,80.679,348.072,65.69,327.85,52.3Z" transform="translate(-179.745 -43.517)" fill="#f5f5f5"/>
      <path id="Tracé_5067" data-name="Tracé 5067" d="M174.505,221.96l-34.335.705.924,44.771,34.347.152Z" transform="translate(-106.139 -110.056)" fill="#ebebeb"/>
      <path id="Tracé_5068" data-name="Tracé 5068" d="M173.6,224.65l-30.044.62.839,40.608,30.062.4Z" transform="translate(-107.468 -111.111)" fill="#fafafa"/>
      <path id="Tracé_5069" data-name="Tracé 5069" d="M171.714,236.746,151.76,236.4l.584,28.379,19.936-.407Z" transform="translate(-110.684 -115.719)" fill="#ebebeb"/>
      <path id="Tracé_5070" data-name="Tracé 5070" d="M152.343,264.779l19.638-14.989L151.76,236.4Z" transform="translate(-110.684 -115.719)" fill="#f5f5f5"/>
      <path id="Tracé_5071" data-name="Tracé 5071" d="M397.62,194.26l-20.55.425.553,26.8,20.562.091Z" transform="translate(-199.049 -99.192)" fill="#ebebeb"/>
      <path id="Tracé_5072" data-name="Tracé 5072" d="M397.085,195.88l-17.985.371.5,24.306,17.991.231Z" transform="translate(-199.845 -99.828)" fill="#fafafa"/>
      <path id="Tracé_5073" data-name="Tracé 5073" d="M395.953,203.117l-11.943-.207.346,16.988,11.937-.249Z" transform="translate(-201.77 -102.585)" fill="#ebebeb"/>
      <path id="Tracé_5074" data-name="Tracé 5074" d="M384.356,219.9l11.755-8.977-12.1-8.011Z" transform="translate(-201.77 -102.585)" fill="#f5f5f5"/>
      <path id="Tracé_5075" data-name="Tracé 5075" d="M210.234,58.11a4.633,4.633,0,0,1-.608-.529c-.444-.4-1-.893-1.665-1.5s-1.55-1.374-2.51-2.17c-.48-.4-.991-.808-1.532-1.216-.273-.2-.553-.4-.845-.608a2.431,2.431,0,0,0-.9-.389,2.024,2.024,0,0,0-.869.4c-.286.188-.559.4-.821.608-.529.425-1.015.857-1.477,1.276-.924.839-1.732,1.623-2.431,2.279l-1.6,1.586a4.531,4.531,0,0,1-.608.559,3.531,3.531,0,0,1,.523-.644c.346-.4.869-.954,1.526-1.641s1.453-1.483,2.364-2.334c.462-.432.948-.869,1.483-1.307a8.434,8.434,0,0,1,.839-.608,2.243,2.243,0,0,1,1.058-.45,2.62,2.62,0,0,1,1.051.438,7.764,7.764,0,0,1,.863.608c.553.407,1.058.827,1.538,1.216.954.814,1.781,1.58,2.468,2.231s1.216,1.216,1.6,1.568a4.291,4.291,0,0,1,.547.62Z" transform="translate(-127.395 -43.176)" fill="#e0e0e0"/>
      <path id="Tracé_5076" data-name="Tracé 5076" d="M180.43,62.106l.492,24.258,31.636-.644.115-24.27Z" transform="translate(-121.928 -47.106)" fill="#ebebeb"/>
      <path id="Tracé_5077" data-name="Tracé 5077" d="M182.33,64.732l.432,21.225,28.695-.583.286-21.243Z" transform="translate(-122.673 -48.157)" fill="#fafafa"/>
      <path id="Tracé_5078" data-name="Tracé 5078" d="M190.869,70.805l-.249,14.1,20.058-.407-.286-14.083Z" transform="translate(-125.925 -50.62)" fill="#ebebeb"/>
      <path id="Tracé_5079" data-name="Tracé 5079" d="M209.362,76.9c0,.091-3.1.158-6.929.158s-6.923-.067-6.923-.158,3.1-.158,6.923-.158S209.362,76.831,209.362,76.9Z" transform="translate(-127.843 -53.102)" fill="#e0e0e0"/>
      <path id="Tracé_5080" data-name="Tracé 5080" d="M209.362,80.538c0,.085-3.1.158-6.929.158s-6.923-.073-6.923-.158,3.1-.158,6.923-.158S209.362,80.447,209.362,80.538Z" transform="translate(-127.843 -54.53)" fill="#e0e0e0"/>
      <path id="Tracé_5081" data-name="Tracé 5081" d="M209.362,84.138c0,.085-3.1.158-6.929.158s-6.923-.073-6.923-.158,3.1-.158,6.923-.158S209.362,84.053,209.362,84.138Z" transform="translate(-127.843 -55.942)" fill="#e0e0e0"/>
      <path id="Tracé_5082" data-name="Tracé 5082" d="M200.433,87.738a19.251,19.251,0,0,1-4.923,0,19.249,19.249,0,0,1,4.923,0Z" transform="translate(-127.843 -57.354)" fill="#e0e0e0"/>
      <path id="Tracé_5083" data-name="Tracé 5083" d="M196.873,73.83a1.653,1.653,0,0,0-.134-.541,2.285,2.285,0,0,0-.839-1.216,2.206,2.206,0,0,0-2.054-.28,2.152,2.152,0,0,0,0,4.03,2.206,2.206,0,0,0,2.054-.286,2.255,2.255,0,0,0,.839-1.185c.1-.34.1-.547.134-.547a1.216,1.216,0,0,1,0,.608,2.279,2.279,0,0,1-.827,1.337,2.421,2.421,0,1,1-2.285-4.2,2.389,2.389,0,0,1,2.285.377,2.261,2.261,0,0,1,.827,1.337,1.179,1.179,0,0,1,0,.565Z" transform="translate(-126.525 -51.012)" fill="#e0e0e0"/>
      <path id="Tracé_5084" data-name="Tracé 5084" d="M217.253,87.111a2.121,2.121,0,0,1-.219.462,2.018,2.018,0,0,1-1.052.924,1.137,1.137,0,0,1-1.009-.146.851.851,0,0,1-.219-1.155.729.729,0,0,1,.286-.237.444.444,0,0,1,.432.055.821.821,0,0,1,.255.681,1.994,1.994,0,0,1-.5,1.27,1.562,1.562,0,0,1-.608.419.96.96,0,0,1-.735,0,1.216,1.216,0,0,1-.711-1.082,2.079,2.079,0,0,1,.267-1.131.383.383,0,0,1,.3-.194.359.359,0,0,1,.3.176,1.118,1.118,0,0,1,.158.48,1.574,1.574,0,0,1-.486,1.313c-.255.231-.45.261-.45.243a2.408,2.408,0,0,0,.359-.328,1.483,1.483,0,0,0,.353-1.216.966.966,0,0,0-.134-.371c-.079-.085-.1-.085-.188,0a1.945,1.945,0,0,0-.188.96.948.948,0,0,0,.535.821.9.9,0,0,0,.966-.353,1.665,1.665,0,0,0,.432-1.064.571.571,0,0,0-.128-.438c-.067-.061-.207,0-.3.115a.608.608,0,0,0,.14.772.912.912,0,0,0,.79.146,2.061,2.061,0,0,0,1.015-.784A4.718,4.718,0,0,1,217.253,87.111Z" transform="translate(-134.767 -57.097)" fill="#e0e0e0"/>
      <path id="Tracé_5085" data-name="Tracé 5085" d="M232.616,134.146l-21.924,9.743-.523-16.709,21.9-10.351Z" transform="translate(-133.592 -68.825)" fill="#ebebeb"/>
      <path id="Tracé_5086" data-name="Tracé 5086" d="M410.568,112.713a6.685,6.685,0,0,1-.973-.808l-2.553-2.3c-1.088-.96-2.377-2.109-3.847-3.331-.742-.608-1.52-1.216-2.352-1.823-.419-.3-.851-.608-1.3-.887a3.842,3.842,0,0,0-1.374-.608,3.094,3.094,0,0,0-1.337.608c-.438.292-.857.608-1.264.936-.8.65-1.556,1.319-2.267,1.957-1.416,1.289-2.656,2.492-3.689,3.5l-2.431,2.431a6.179,6.179,0,0,1-.93.851,5.717,5.717,0,0,1,.8-.979c.541-.608,1.337-1.471,2.34-2.516s2.231-2.279,3.647-3.592c.705-.656,1.459-1.331,2.273-2,.407-.328.839-.656,1.289-.966a3.392,3.392,0,0,1,1.623-.7,3.938,3.938,0,0,1,1.617.675c.462.292.9.608,1.325.912.845.608,1.623,1.27,2.358,1.9,1.465,1.216,2.735,2.431,3.793,3.422s1.89,1.823,2.431,2.431A5.97,5.97,0,0,1,410.568,112.713Z" transform="translate(-202.649 -63.201)" fill="#e0e0e0"/>
      <path id="Tracé_5087" data-name="Tracé 5087" d="M364.8,118.833l.76,37.241,48.558-.985.176-37.259Z" transform="translate(-194.236 -69.217)" fill="#ebebeb"/>
      <path id="Tracé_5088" data-name="Tracé 5088" d="M367.73,122.868l.656,32.579,44.042-.893.438-32.6Z" transform="translate(-195.385 -70.833)" fill="#fafafa"/>
      <path id="Tracé_5089" data-name="Tracé 5089" d="M380.833,132.188l-.383,21.638,30.786-.626-.444-21.62Z" transform="translate(-200.374 -74.61)" fill="#ebebeb"/>
      <path id="Tracé_5090" data-name="Tracé 5090" d="M409.231,141.593c0,.134-4.759.243-10.631.243s-10.6-.091-10.6-.243,4.759-.243,10.631-.243S409.231,141.459,409.231,141.593Z" transform="translate(-203.335 -78.442)" fill="#e0e0e0"/>
      <path id="Tracé_5091" data-name="Tracé 5091" d="M409.211,147.123c0,.134-4.759.243-10.631.243s-10.631-.109-10.631-.243,4.759-.243,10.631-.243S409.211,146.989,409.211,147.123Z" transform="translate(-203.316 -80.61)" fill="#e0e0e0"/>
      <path id="Tracé_5092" data-name="Tracé 5092" d="M409.231,152.653c0,.134-4.759.243-10.631.243s-10.6-.128-10.6-.243,4.759-.243,10.631-.243S409.231,152.519,409.231,152.653Z" transform="translate(-203.335 -82.779)" fill="#e0e0e0"/>
      <path id="Tracé_5093" data-name="Tracé 5093" d="M395.511,158.183a29.516,29.516,0,0,1-7.561,0,29.516,29.516,0,0,1,7.561,0Z" transform="translate(-203.316 -84.948)" fill="#e0e0e0"/>
      <path id="Tracé_5094" data-name="Tracé 5094" d="M390.034,136.83c-.049,0-.049-.31-.2-.833a3.526,3.526,0,0,0-1.295-1.823,3.306,3.306,0,1,0,0,5.318,3.543,3.543,0,0,0,1.295-1.823c.152-.523.152-.839.2-.839a1.824,1.824,0,0,1,0,.881,3.5,3.5,0,0,1-1.27,2.054,3.647,3.647,0,0,1-3.507.577,3.726,3.726,0,0,1,0-7.026,3.647,3.647,0,0,1,3.507.608,3.507,3.507,0,0,1,1.27,2.048A1.823,1.823,0,0,1,390.034,136.83Z" transform="translate(-201.285 -75.21)" fill="#e0e0e0"/>
      <path id="Tracé_5095" data-name="Tracé 5095" d="M421.354,157.218a2.1,2.1,0,0,1-.334.705,3.082,3.082,0,0,1-1.617,1.422,1.781,1.781,0,0,1-1.556-.225,1.313,1.313,0,0,1-.328-1.775,1.021,1.021,0,0,1,.438-.359.675.675,0,0,1,.656.079,1.246,1.246,0,0,1,.4,1.045,3.039,3.039,0,0,1-.772,1.951,2.382,2.382,0,0,1-.9.644,1.446,1.446,0,0,1-1.124,0,1.9,1.9,0,0,1-1.094-1.659,3.282,3.282,0,0,1,.407-1.738.608.608,0,0,1,.462-.292.559.559,0,0,1,.468.267,1.762,1.762,0,0,1,.237.735,2.431,2.431,0,0,1-.742,2.018c-.389.353-.693.4-.693.377a3.369,3.369,0,0,0,.553-.511,2.3,2.3,0,0,0,.541-1.823,1.6,1.6,0,0,0-.2-.571c-.122-.134-.164-.128-.292.036a3.106,3.106,0,0,0-.3,1.477,1.465,1.465,0,0,0,.827,1.258,1.38,1.38,0,0,0,1.483-.535,2.6,2.6,0,0,0,.662-1.641.845.845,0,0,0-.2-.662c-.1-.1-.316,0-.45.17a.887.887,0,0,0,.207,1.216,1.422,1.422,0,0,0,1.216.219,3.143,3.143,0,0,0,1.556-1.216C421.159,157.425,421.324,157.2,421.354,157.218Z" transform="translate(-213.969 -84.554)" fill="#e0e0e0"/>
    </g>
    <g id="freepik--Floor--inject-113" transform="translate(64.67 287.174)">
      <path id="Tracé_5096" data-name="Tracé 5096" d="M273.957,448.208c0,.091-46.856.158-104.641.158S64.67,448.3,64.67,448.208s46.844-.158,104.647-.158S273.957,448.123,273.957,448.208Z" transform="translate(-64.67 -448.05)" fill="#263238"/>
    </g>
    <g id="freepik--Plant--inject-113" transform="translate(213.243 185.084)">
      <path id="Tracé_5097" data-name="Tracé 5097" d="M321.9,349.677c-10.266-6.716-12.873-19.578-12.764-31.2,0-1.939-.243-3.981.644-5.7s3.039-2.936,4.826-2.164c1.471.644,2.152,2.3,3,3.647a11.475,11.475,0,0,0,4.711,4.255,4.426,4.426,0,0,0,4.042.261c1.672-.96,1.823-3.276,1.75-5.2l-.328-10.776a17.79,17.79,0,0,1,.444-5.738,6.008,6.008,0,0,1,3.714-4.133c1.848-.559,4.164.444,4.607,2.322a17.42,17.42,0,0,1,.109,2.395,2.031,2.031,0,0,0,1.252,1.884,2.385,2.385,0,0,0,2.121-.936,25.532,25.532,0,0,0,4.492-7.057,35.977,35.977,0,0,1,4.176-7.294,10.5,10.5,0,0,1,7.057-4.133c2.8-.225,5.817,1.41,6.589,4.1s-.766,5.47-2.431,7.737a43.562,43.562,0,0,1-8.886,8.752,3.525,3.525,0,0,0-1.483,1.647c-.389,1.295.875,2.541,2.17,2.936a23.289,23.289,0,0,0,4.571.4c1.532.14,3.2.76,3.8,2.17.851,1.951-.772,4.054-2.383,5.47a37.324,37.324,0,0,1-10.9,6.564,12.542,12.542,0,0,0-4.054,2.067c-1.131,1.027-1.823,2.772-1.058,4.115a3.724,3.724,0,0,0,4.036,1.422,26.311,26.311,0,0,0,4.255-1.72c2.656-1.064,6.127-.96,7.9,1.282a6.035,6.035,0,0,1,.79,5.379,13.979,13.979,0,0,1-2.845,4.863,37.508,37.508,0,0,1-15.76,11.5c-6.175,2.279-11.925,3-18.167.912" transform="translate(-309.11 -280.086)" fill="#e9e9e9"/>
      <path id="Tracé_5098" data-name="Tracé 5098" d="M367.691,282.66l-.188.188-.571.523c-.5.456-1.216,1.13-2.164,2.024a72.2,72.2,0,0,0-7.294,8.12c-1.41,1.823-2.875,3.878-4.407,6.115s-3.136,4.65-4.735,7.239a87.286,87.286,0,0,0-4.619,8.357c-.717,1.489-1.355,3.039-2,4.638l-1.981,4.832a175.485,175.485,0,0,0-6.5,18.714,84.872,84.872,0,0,0-2.857,15.9,62.266,62.266,0,0,0,.091,10.9c.14,1.276.261,2.273.371,2.942.049.328.085.577.116.766a1.935,1.935,0,0,1,.03.261,38.482,38.482,0,0,1-.608-3.957,59.671,59.671,0,0,1-.188-10.941,83.461,83.461,0,0,1,2.808-15.955,170.548,170.548,0,0,1,6.491-18.757l1.957-4.832c.644-1.586,1.282-3.155,2.006-4.65a86.273,86.273,0,0,1,4.65-8.376c1.611-2.6,3.234-5,4.771-7.233s3.039-4.291,4.437-6.108a68.682,68.682,0,0,1,7.348-8.072c.942-.887,1.69-1.55,2.206-1.994l.608-.5Z" transform="translate(-317.309 -281.096)" fill="#263238"/>
      <path id="Tracé_5099" data-name="Tracé 5099" d="M350.057,322.36a5.521,5.521,0,0,1-.195-.821c-.115-.535-.249-1.307-.407-2.261-.322-1.915-.669-4.571-1.052-7.5s-.778-5.574-1.131-7.476c-.176-.954-.328-1.72-.444-2.249a4.127,4.127,0,0,1-.14-.833,5.163,5.163,0,0,1,.249.8c.146.523.328,1.289.535,2.237.407,1.9.839,4.546,1.216,7.482s.705,5.531.96,7.506c.128.918.237,1.678.316,2.273a4.254,4.254,0,0,1,.091.839Z" transform="translate(-323.848 -288.375)" fill="#263238"/>
      <path id="Tracé_5100" data-name="Tracé 5100" d="M377.229,327.369a.955.955,0,0,1-.261.049l-.742.079c-.644.067-1.574.164-2.723.322-2.291.292-5.47.814-8.9,1.538s-6.552,1.538-8.771,2.182c-1.112.316-2.006.608-2.626.79l-.717.213a1.077,1.077,0,0,1-.255.061.906.906,0,0,1,.237-.115l.7-.267c.608-.225,1.5-.535,2.6-.875,2.212-.7,5.312-1.532,8.771-2.267s6.637-1.216,8.941-1.465c1.155-.128,2.091-.194,2.741-.225l.748-.03a.876.876,0,0,1,.261.012Z" transform="translate(-326.021 -298.623)" fill="#263238"/>
      <path id="Tracé_5101" data-name="Tracé 5101" d="M326.69,361.495a1.408,1.408,0,0,1-.176-.3l-.444-.893c-.383-.772-.912-1.9-1.55-3.306-1.276-2.814-2.917-6.753-4.674-11.123s-3.367-8.315-4.6-11.141c-.608-1.386-1.106-2.522-1.465-3.349-.164-.371-.292-.675-.4-.912a2.43,2.43,0,0,1-.122-.322,1.406,1.406,0,0,1,.176.3l.444.887c.383.778.912,1.909,1.55,3.313,1.276,2.814,2.917,6.753,4.674,11.123s3.367,8.309,4.6,11.141c.608,1.386,1.1,2.522,1.465,3.349.164.371.292.675.4.912A2.112,2.112,0,0,1,326.69,361.495Z" transform="translate(-310.741 -299.721)" fill="#263238"/>
      <path id="Tracé_5102" data-name="Tracé 5102" d="M368.457,363a2.434,2.434,0,0,1-.334.134l-.96.34-3.55,1.216c-3,1.033-7.111,2.51-11.664,4.151s-8.68,3.088-11.694,4.072c-1.507.492-2.729.881-3.58,1.13l-.979.286a1.506,1.506,0,0,1-.346.079,1.821,1.821,0,0,1,.328-.134l.966-.34,3.544-1.216c3-1.033,7.117-2.51,11.664-4.151s8.68-3.088,11.694-4.072c1.507-.492,2.729-.875,3.58-1.131l.979-.286a1.45,1.45,0,0,1,.353-.079Z" transform="translate(-319.401 -312.604)" fill="#263238"/>
    </g>
    <g id="freepik--filing-cabinet--inject-113" transform="translate(145.484 141.135)">
      <path id="Tracé_5103" data-name="Tracé 5103" d="M239.791,207.78l-1.3,146.2H296.4v-144.2Z" transform="translate(-213.655 -207.78)" fill="#242424"/>
      <path id="Tracé_5104" data-name="Tracé 5104" d="M243.62,247.75v20.5h27.43V248.723Z" transform="translate(-215.667 -223.456)"/>
      <path id="Tracé_5105" data-name="Tracé 5105" d="M291.627,209.59l-.517,145.1h25.929v-144.2Z" transform="translate(-234.292 -208.49)" fill="#131313"/>
      <path id="Tracé_5106" data-name="Tracé 5106" d="M243.62,210.75v20.5h27.43V211.716Z" transform="translate(-215.667 -208.945)"/>
      <path id="Tracé_5107" data-name="Tracé 5107" d="M259.18,219.844v3.027h8.394v-3.3Z" transform="translate(-221.769 -212.404)" fill="#263238"/>
      <rect id="Rectangle_2320" data-name="Rectangle 2320" width="8.667" height="1.24" transform="translate(37.411 13.013)" fill="#263238"/>
      <g id="Groupe_7210" data-name="Groupe 7210" transform="translate(37.411 7.166)" opacity="0.4">
        <path id="Tracé_5108" data-name="Tracé 5108" d="M259.18,219.844v3.027h8.394v-3.3Z" transform="translate(-259.18 -219.57)"/>
        <rect id="Rectangle_2321" data-name="Rectangle 2321" width="8.667" height="1.24" transform="translate(0 5.847)"/>
      </g>
      <path id="Tracé_5109" data-name="Tracé 5109" d="M243.62,328.9v20.489h27.43V329.866Z" transform="translate(-215.667 -255.282)"/>
      <path id="Tracé_5110" data-name="Tracé 5110" d="M259.18,337.994v3.027h8.394v-3.3Z" transform="translate(-221.769 -258.741)" fill="#263238"/>
      <rect id="Rectangle_2322" data-name="Rectangle 2322" width="8.667" height="1.24" transform="translate(37.411 84.826)" fill="#263238"/>
      <g id="Groupe_7211" data-name="Groupe 7211" transform="translate(37.411 78.979)" opacity="0.4">
        <path id="Tracé_5111" data-name="Tracé 5111" d="M259.18,337.994v3.027h8.394v-3.3Z" transform="translate(-259.18 -337.72)"/>
        <rect id="Rectangle_2323" data-name="Rectangle 2323" width="8.667" height="1.24" transform="translate(0 5.847)"/>
      </g>
      <path id="Tracé_5112" data-name="Tracé 5112" d="M243.62,366.9v20.489h27.43V367.866Z" transform="translate(-215.667 -270.185)"/>
      <path id="Tracé_5113" data-name="Tracé 5113" d="M259.18,375.994v3.027h8.394v-3.3Z" transform="translate(-221.769 -273.644)" fill="#263238"/>
      <rect id="Rectangle_2324" data-name="Rectangle 2324" width="8.667" height="1.24" transform="translate(37.411 107.923)" fill="#263238"/>
      <g id="Groupe_7212" data-name="Groupe 7212" transform="translate(37.411 102.076)" opacity="0.4">
        <path id="Tracé_5114" data-name="Tracé 5114" d="M259.18,375.994v3.027h8.394v-3.3Z" transform="translate(-259.18 -375.72)"/>
        <rect id="Rectangle_2325" data-name="Rectangle 2325" width="8.667" height="1.24" transform="translate(0 5.847)"/>
      </g>
      <path id="Tracé_5115" data-name="Tracé 5115" d="M243.14,404.9v20.489h27.43V405.866Z" transform="translate(-215.479 -285.088)"/>
      <path id="Tracé_5116" data-name="Tracé 5116" d="M258.69,413.994v3.027h8.394v-3.3Z" transform="translate(-221.577 -288.548)" fill="#263238"/>
      <rect id="Rectangle_2326" data-name="Rectangle 2326" width="8.667" height="1.24" transform="translate(37.113 131.02)" fill="#263238"/>
      <g id="Groupe_7213" data-name="Groupe 7213" transform="translate(37.113 125.172)" opacity="0.4">
        <path id="Tracé_5117" data-name="Tracé 5117" d="M258.69,413.994v3.027h8.394v-3.3Z" transform="translate(-258.69 -413.72)"/>
        <rect id="Rectangle_2327" data-name="Rectangle 2327" width="8.667" height="1.24" transform="translate(0 5.847)"/>
      </g>
      <rect id="Rectangle_2328" data-name="Rectangle 2328" width="27.43" height="20.495" transform="translate(0 48.455)"/>
      <path id="Tracé_5118" data-name="Tracé 5118" d="M213.49,302.525v2.845h7.889v-3.1Z" transform="translate(-203.85 -244.838)" fill="#263238"/>
      <rect id="Rectangle_2329" data-name="Rectangle 2329" width="8.145" height="1.161" transform="translate(9.64 62.927)" fill="#263238"/>
      <g id="Groupe_7214" data-name="Groupe 7214" transform="translate(9.64 57.432)" opacity="0.4">
        <path id="Tracé_5119" data-name="Tracé 5119" d="M213.49,302.525v2.845h7.889v-3.1Z" transform="translate(-213.49 -302.27)"/>
        <rect id="Rectangle_2330" data-name="Rectangle 2330" width="8.145" height="1.161" transform="translate(0 5.495)"/>
      </g>
      <path id="Tracé_5120" data-name="Tracé 5120" d="M242.76,287.371l27.041-.2-.492,20.69H242.76Z" transform="translate(-215.33 -238.916)"/>
      <path id="Tracé_5121" data-name="Tracé 5121" d="M242.76,287.371l27.041-.2-.492,20.69H242.76Z" transform="translate(-215.33 -238.916)" fill="#242424" opacity="0.4"/>
      <rect id="Rectangle_2331" data-name="Rectangle 2331" width="27.035" height="18.404" transform="translate(26.476 29.843)" fill="#fafafa"/>
      <path id="Tracé_5122" data-name="Tracé 5122" d="M230.4,260.367l1.361,15.639,32.214-.164-1.909-15.3a1.823,1.823,0,0,0-2.042-1.556l-13,1.13-2.212-1.641a1.064,1.064,0,0,0-.693-.188l-12.837,1.13a.93.93,0,0,0-.881.948Z" transform="translate(-210.482 -227.587)" fill="#263238"/>
      <path id="Tracé_5123" data-name="Tracé 5123" d="M230.4,260.367l1.361,15.639,32.214-.164-1.909-15.3a1.823,1.823,0,0,0-2.042-1.556l-13,1.13-2.212-1.641a1.064,1.064,0,0,0-.693-.188l-12.837,1.13a.93.93,0,0,0-.881.948Z" transform="translate(-210.482 -227.587)"/>
      <path id="Tracé_5124" data-name="Tracé 5124" d="M214.751,276.842l-.681-4.072,29.8-1.969,2.62,10.108-31.15-.158Z" transform="translate(-204.078 -232.496)" fill="#fafafa"/>
      <path id="Tracé_5125" data-name="Tracé 5125" d="M208.929,276.128l.529,6.078h31.874l-.754-5.914a1.823,1.823,0,0,0-2.036-1.556l-13,1.131-2.218-1.641a1.034,1.034,0,0,0-.687-.188L209.8,275.174a.918.918,0,0,0-.869.954Z" transform="translate(-202.061 -233.764)"/>
      <path id="Tracé_5126" data-name="Tracé 5126" d="M208.929,276.128l.529,6.078h31.874l-.754-5.914a1.823,1.823,0,0,0-2.036-1.556l-13,1.131-2.218-1.641a1.034,1.034,0,0,0-.687-.188L209.8,275.174a.918.918,0,0,0-.869.954Z" transform="translate(-202.061 -233.764)" fill="#fafafa" opacity="0.7"/>
      <path id="Tracé_5127" data-name="Tracé 5127" d="M264.27,275.29h4.255a1.07,1.07,0,0,1,1.039,1.313l-1.374,5.9H266.2Z" transform="translate(-223.766 -234.257)" fill="#242424"/>
    </g>
    <g id="freepik--Documents--inject-113" transform="translate(135.996 55.616)">
      <path id="Tracé_5130" data-name="Tracé 5130" d="M281.212,105.524l.188-.249c.134-.158.322-.4.565-.717a17.572,17.572,0,0,0,1.823-3,16.6,16.6,0,0,0,.912-2.364c.261-.887.468-1.878.729-2.93.511-2.115,1.094-4.516,1.732-7.172s1.355-5.568,2.109-8.686a19.933,19.933,0,0,1,.669-2.377,13.3,13.3,0,0,1,1.118-2.291,12.828,12.828,0,0,1,1.617-2.079,11.723,11.723,0,0,1,.979-.918h.03c.128.5,0,.134.049.243h-.079l-.164-.043-.328-.079L292.5,72.7l-11.014-2.687-5.829-1.428-2.978-.729-1.507-.365H271.1l-.176.067-.359.14c-.225.115-.468.207-.687.334a9.555,9.555,0,0,0-4.151,4.3,11.547,11.547,0,0,0-.9,2.845c-.225.972-.45,1.939-.669,2.9-.887,3.829-1.738,7.525-2.553,11.05L261,91.733a19.535,19.535,0,0,1-3.264,6.856c-.243.322-.492.608-.748.936l-.1.115-.049.061c-.128-.419,0-.115-.049-.207h.055l.286.073.565.14,2.212.547,4.17,1.033,12.557,3.124,3.416.869.881.231.3.091-.31-.061-.893-.2-3.422-.808-12.588-3.039-4.17-1.009-2.218-.541-.565-.134-.286-.073h-.055c-.036-.091.049.207-.085-.213l.049-.055.091-.115c.255-.3.5-.608.735-.93a19.339,19.339,0,0,0,2.4-4.309,31.093,31.093,0,0,0,1.4-5.063c.808-3.525,1.659-7.221,2.535-11.056.225-.96.444-1.927.669-2.9a11.775,11.775,0,0,1,.918-2.905,9.865,9.865,0,0,1,4.255-4.553c.231-.134.48-.231.717-.34l.371-.146.182-.073h.255l1.5.371,2.978.8,5.829,1.428,11.007,2.7.656.164.328.079.164.043h.079c.03.115-.036-.249.073.255h-.03c-.334.286-.656.608-.96.9a12.405,12.405,0,0,0-2.687,4.255,20.058,20.058,0,0,0-.663,2.34l-2.146,8.68-1.775,7.16c-.274,1.052-.492,2.036-.766,2.93a16.712,16.712,0,0,1-.936,2.377,16.332,16.332,0,0,1-1.872,2.984A10.737,10.737,0,0,1,281.212,105.524Z" transform="translate(-211.289 -67.08)" fill="#263238"/>
      <path id="Tracé_5131" data-name="Tracé 5131" d="M292.8,84.612a2.431,2.431,0,0,1-.681-.1c-.432-.085-1.058-.219-1.823-.389-1.538-.346-3.647-.845-5.993-1.441s-4.437-1.216-5.95-1.641c-.76-.225-1.368-.419-1.787-.559a2.565,2.565,0,0,1-.638-.249,3.33,3.33,0,0,1,.675.134l1.823.462,5.963,1.544,5.975,1.532,1.823.492A3.226,3.226,0,0,1,292.8,84.612Z" transform="translate(-218.851 -72.237)" fill="#263238"/>
      <path id="Tracé_5132" data-name="Tracé 5132" d="M292.132,88.8a3.2,3.2,0,0,1-.681-.1c-.438-.085-1.058-.219-1.823-.4-1.538-.346-3.647-.845-6-1.441s-4.431-1.216-5.944-1.635c-.76-.231-1.368-.419-1.787-.559a2.906,2.906,0,0,1-.608-.249,3,3,0,0,1,.675.128l1.823.462,5.963,1.55,5.95,1.532,1.823.486A2.954,2.954,0,0,1,292.132,88.8Z" transform="translate(-218.6 -73.881)" fill="#263238"/>
      <path id="Tracé_5133" data-name="Tracé 5133" d="M291.113,92.986a2.546,2.546,0,0,1-.681-.1c-.438-.085-1.058-.225-1.823-.4-1.538-.346-3.647-.845-6-1.441s-4.431-1.185-5.944-1.641c-.76-.225-1.368-.413-1.787-.553a3.348,3.348,0,0,1-.638-.249,2.613,2.613,0,0,1,.675.128l1.823.462,5.963,1.544,5.981,1.532,1.823.492A3.4,3.4,0,0,1,291.113,92.986Z" transform="translate(-218.188 -75.524)" fill="#263238"/>
      <path id="Tracé_5134" data-name="Tracé 5134" d="M290.243,97.172a2.771,2.771,0,0,1-.681-.1c-.432-.085-1.058-.219-1.823-.389-1.538-.346-3.647-.845-5.993-1.447s-4.437-1.179-5.95-1.635c-.754-.225-1.362-.419-1.781-.559a2.7,2.7,0,0,1-.644-.249,3.251,3.251,0,0,1,.675.134l1.823.456,5.969,1.55,5.969,1.532,1.823.492A3.039,3.039,0,0,1,290.243,97.172Z" transform="translate(-217.847 -77.163)" fill="#263238"/>
      <path id="Tracé_5135" data-name="Tracé 5135" d="M288.885,101.37a3.2,3.2,0,0,1-.681-.1c-.438-.085-1.058-.219-1.823-.4-1.538-.346-3.647-.845-6-1.441s-4.431-1.216-5.944-1.641c-.76-.225-1.368-.413-1.787-.553A2.906,2.906,0,0,1,272,97a2.614,2.614,0,0,1,.675.128l1.823.462,5.963,1.55,5.975,1.526,1.823.492A2.741,2.741,0,0,1,288.885,101.37Z" transform="translate(-217.309 -78.814)" fill="#263238"/>
      <path id="Tracé_5136" data-name="Tracé 5136" d="M287.913,105.542a2.432,2.432,0,0,1-.681-.1c-.432-.085-1.058-.219-1.823-.389-1.538-.346-3.647-.845-5.993-1.441s-4.437-1.216-5.95-1.641c-.754-.225-1.368-.419-1.787-.559a2.565,2.565,0,0,1-.638-.249,3.33,3.33,0,0,1,.675.134l1.823.462,5.969,1.544,5.969,1.532,1.823.492a3.226,3.226,0,0,1,.614.219Z" transform="translate(-216.933 -80.446)" fill="#263238"/>
      <path id="Tracé_5137" data-name="Tracé 5137" d="M286.692,109.886a2.547,2.547,0,0,1-.681-.1c-.432-.085-1.058-.219-1.823-.4-1.538-.346-3.647-.845-6-1.441s-4.431-1.216-5.944-1.641c-.754-.225-1.368-.413-1.787-.553a2.905,2.905,0,0,1-.608-.249,2.613,2.613,0,0,1,.675.128l1.823.462,5.963,1.55,5.975,1.526,1.823.492A3.227,3.227,0,0,1,286.692,109.886Z" transform="translate(-216.466 -82.152)" fill="#263238"/>
      <path id="Tracé_5138" data-name="Tracé 5138" d="M290.349,115.245a7.208,7.208,0,0,1-1.459-.237c-.893-.188-2.121-.462-3.471-.808s-2.553-.723-3.428-.985a6.514,6.514,0,0,1-1.392-.5,7.64,7.64,0,0,1,1.453.286c.887.213,2.1.547,3.446.9s2.565.65,3.446.893A6.9,6.9,0,0,1,290.349,115.245Z" transform="translate(-220.682 -84.976)" fill="#263238"/>
      <path id="Tracé_5139" data-name="Tracé 5139" d="M212.661,198.47l-20.769,8.157A97.364,97.364,0,0,0,182.35,177.7l12.764-5.47a9.281,9.281,0,0,1,12.4,5.41,101.5,101.5,0,0,1,5.148,20.836Z" transform="translate(-182.149 -108.022)" fill="#fafafa"/>
      <path id="Tracé_5140" data-name="Tracé 5140" d="M212.532,198.366a1.069,1.069,0,0,0-.049-.261c-.049-.17-.073-.432-.122-.748-.109-.656-.267-1.635-.5-2.887a106.428,106.428,0,0,0-2.5-10.5c-.328-1.094-.675-2.243-1.07-3.422s-.79-2.431-1.313-3.647a9.117,9.117,0,0,0-2.431-3.252,9.5,9.5,0,0,0-3.866-1.927,9.117,9.117,0,0,0-4.522.128c-.383.1-.742.261-1.112.389l-1.106.48-2.255.966-9.391,4.042.079-.213c.164.328.34.687.523,1.045a101.734,101.734,0,0,1,5.878,14.587,93.859,93.859,0,0,1,3.13,13.372l-.17-.1,15.086-5.853,4.218-1.623,1.118-.419c.249-.1.389-.14.389-.14s-.115.061-.359.158l-1.082.444-4.176,1.653-15.1,6-.146.061v-.164a95.987,95.987,0,0,0-3.161-13.323,102.661,102.661,0,0,0-5.9-14.514l-.517-1.045-.079-.152.158-.061,9.391-4.036,2.255-.973,1.106-.474c.389-.134.76-.3,1.149-.4a9.458,9.458,0,0,1,4.674-.115,9.725,9.725,0,0,1,3.975,1.994,9.287,9.287,0,0,1,2.5,3.361c.535,1.252.906,2.492,1.307,3.677s.729,2.334,1.052,3.428a99.575,99.575,0,0,1,2.431,10.539c.207,1.264.353,2.237.438,2.911.036.322.067.571.091.76a1.311,1.311,0,0,1-.018.249Z" transform="translate(-182.02 -107.918)" fill="#131313"/>
      <path id="Tracé_5141" data-name="Tracé 5141" d="M204.49,171.966s3.1,6.358,2.826,6.583,7.695-2.972,7.792-3.039C215.133,175.528,210.987,170,204.49,171.966Z" transform="translate(-190.833 -108.049)" fill="#131313"/>
      <path id="Tracé_5142" data-name="Tracé 5142" d="M198.874,186.34a15.2,15.2,0,0,1-2.814,1.361,16,16,0,0,1-2.93,1.07,14.778,14.778,0,0,1,2.808-1.361,15.8,15.8,0,0,1,2.936-1.07Z" transform="translate(-186.377 -113.853)" fill="#263238"/>
      <path id="Tracé_5143" data-name="Tracé 5143" d="M209.751,184.838c.036.079-3.331,1.714-7.519,3.647s-7.616,3.434-7.652,3.355,3.331-1.708,7.519-3.647S209.714,184.759,209.751,184.838Z" transform="translate(-186.946 -113.262)" fill="#263238"/>
      <path id="Tracé_5144" data-name="Tracé 5144" d="M212.051,191c.036.079-3.331,1.708-7.519,3.647s-7.616,3.44-7.652,3.361,3.331-1.708,7.519-3.647S212.014,190.913,212.051,191Z" transform="translate(-187.848 -115.678)" fill="#263238"/>
      <path id="Tracé_5145" data-name="Tracé 5145" d="M214.4,197.109c.036.079-3.331,1.708-7.519,3.647s-7.616,3.434-7.652,3.355,3.331-1.708,7.519-3.647S214.364,197.042,214.4,197.109Z" transform="translate(-188.769 -118.075)" fill="#263238"/>
      <path id="Tracé_5146" data-name="Tracé 5146" d="M211.321,208.46a8.306,8.306,0,0,1-1.41.742c-.887.419-2.121.985-3.495,1.586-2.152.948-4,1.72-4.7,1.957l-.1.036v-.091c.049-.225.085-.328.1-.328a1.651,1.651,0,0,1,0,.346l-.073-.061c.644-.353,2.431-1.216,4.613-2.146,1.374-.608,2.626-1.137,3.537-1.507a7.511,7.511,0,0,1,1.52-.535Z" transform="translate(-189.707 -122.528)" fill="#263238"/>
      <path id="Tracé_5147" data-name="Tracé 5147" d="M360.984,189.657l-23.054-9.968h0a19.281,19.281,0,0,0,5.531-7.47l6.728-16.156a9.664,9.664,0,0,1,7.233-5.683h0l21.383,9.263h0a12.5,12.5,0,0,0-5.2,5.847L365.932,183.2A16.921,16.921,0,0,1,360.984,189.657Z" transform="translate(-243.166 -99.749)" fill="#e9e9e9"/>
      <path id="Tracé_5149" data-name="Tracé 5149" d="M378.725,171.894c-.036.079-3.811-1.5-8.436-3.525s-8.345-3.732-8.309-3.811,3.811,1.5,8.436,3.525S378.761,171.815,378.725,171.894Z" transform="translate(-252.598 -105.309)" fill="#242424"/>
      <path id="Tracé_5150" data-name="Tracé 5150" d="M376.83,176.964c-.036.079-3.939-1.556-8.722-3.647s-8.625-3.86-8.588-3.939,3.939,1.55,8.716,3.647S376.83,176.885,376.83,176.964Z" transform="translate(-251.634 -107.199)" fill="#242424"/>
      <path id="Tracé_5151" data-name="Tracé 5151" d="M374.83,181.588c-.03.079-3.939-1.556-8.716-3.647s-8.625-3.854-8.594-3.933,3.939,1.55,8.722,3.647S374.83,181.5,374.83,181.588Z" transform="translate(-250.849 -109.015)" fill="#242424"/>
      <path id="Tracé_5152" data-name="Tracé 5152" d="M372.76,186.2c-.036.079-3.939-1.556-8.722-3.647s-8.625-3.854-8.588-3.939,3.939,1.556,8.716,3.647S372.8,186.143,372.76,186.2Z" transform="translate(-250.037 -110.823)" fill="#242424"/>
      <path id="Tracé_5153" data-name="Tracé 5153" d="M370.734,190.813c0,.085-3.939-1.55-8.716-3.647s-8.625-3.854-8.588-3.939,3.933,1.556,8.716,3.647S370.795,190.734,370.734,190.813Z" transform="translate(-249.245 -112.631)" fill="#242424"/>
      <path id="Tracé_5154" data-name="Tracé 5154" d="M360.389,191.789a6.078,6.078,0,0,1-1.361-.474c-.827-.328-1.957-.8-3.2-1.349s-2.358-1.051-3.161-1.434a6.26,6.26,0,0,1-1.27-.681,6.979,6.979,0,0,1,1.361.474c.827.334,1.957.808,3.2,1.349s2.358,1.058,3.161,1.44a6.685,6.685,0,0,1,1.27.675Z" transform="translate(-248.449 -114.445)" fill="#242424"/>
      <path id="Tracé_5155" data-name="Tracé 5155" d="M372.446,202.6c-.03,0,.067-.219.122-.608a2.626,2.626,0,0,0-.328-1.617,2.431,2.431,0,1,0-1.58,3.6,2.577,2.577,0,0,0,1.41-.857c.255-.31.353-.523.377-.511a1.313,1.313,0,0,1-.28.608,2.535,2.535,0,0,1-1.453,1,2.686,2.686,0,0,1-2.516-.638,2.723,2.723,0,0,1,2.06-4.7,2.68,2.68,0,0,1,2.176,1.416,2.571,2.571,0,0,1,.249,1.744A1.343,1.343,0,0,1,372.446,202.6Z" transform="translate(-254.701 -118.766)" fill="#242424"/>
      <rect id="Rectangle_2332" data-name="Rectangle 2332" width="7.294" height="1.052" transform="translate(110.771 56.09) rotate(23.66)" fill="#242424"/>
      <path id="Tracé_5156" data-name="Tracé 5156" d="M337.85,253.673l-24.89-.583,9.263-12.4h24.282Z" transform="translate(-233.373 -135.168)" fill="#ebebeb"/>
      <path id="Tracé_5157" data-name="Tracé 5157" d="M319.04,253.477l19.687.6-2.735-4.024-3.872,1.659-3.063-5.294Z" transform="translate(-235.758 -137.415)"/>
      <path id="Tracé_5158" data-name="Tracé 5158" d="M344.423,245.536a1.276,1.276,0,1,1-1.276-1.276A1.276,1.276,0,0,1,344.423,245.536Z" transform="translate(-244.712 -136.568)"/>
      <g id="Groupe_7215" data-name="Groupe 7215" transform="translate(83.282 107.692)" opacity="0.7">
        <path id="Tracé_5159" data-name="Tracé 5159" d="M319.04,253.477l19.687.6-2.735-4.024-3.872,1.659-3.063-5.294Z" transform="translate(-319.04 -245.107)" fill="#fafafa"/>
        <path id="Tracé_5160" data-name="Tracé 5160" d="M344.423,245.536a1.276,1.276,0,1,1-1.276-1.276A1.276,1.276,0,0,1,344.423,245.536Z" transform="translate(-327.994 -244.26)" fill="#fafafa"/>
      </g>
      <path id="Tracé_5161" data-name="Tracé 5161" d="M228.366,130.967,206.443,140.7,205.92,124l21.9-10.351Z" transform="translate(-191.393 -85.344)"/>
      <path id="Tracé_5162" data-name="Tracé 5162" d="M228.366,130.967,206.443,140.7,205.92,124l21.9-10.351Z" transform="translate(-191.393 -85.344)" fill="#fafafa" opacity="0.7"/>
      <path id="Tracé_5163" data-name="Tracé 5163" d="M208.38,144.921l19.894-9.275-6.467-3.756-2.486,4.376-7.3-3.507Z" transform="translate(-192.358 -92.498)"/>
      <path id="Tracé_5164" data-name="Tracé 5164" d="M225.532,131.2a1.07,1.07,0,1,1-.311-.76A1.076,1.076,0,0,1,225.532,131.2Z" transform="translate(-198.241 -91.804)"/>
      <path id="Tracé_5165" data-name="Tracé 5165" d="M209.9,125.074a15.022,15.022,0,0,0-.3-1.823,7.6,7.6,0,0,0-2.772-4.115,7.488,7.488,0,0,0-7.069-1.045,7,7,0,0,0-1.884,1.015,7.093,7.093,0,0,0-1.574,1.586,7.434,7.434,0,0,0,0,8.8,7.093,7.093,0,0,0,1.574,1.586,7,7,0,0,0,1.884,1.015,7.531,7.531,0,0,0,3.914.334,7.446,7.446,0,0,0,3.155-1.386,7.585,7.585,0,0,0,2.772-4.109,14.8,14.8,0,0,0,.3-1.823,3.736,3.736,0,0,1,0,.486,3.647,3.647,0,0,1-.043.608,5.082,5.082,0,0,1-.146.8,7.5,7.5,0,0,1-10.017,5.33,7.732,7.732,0,0,1-3.61-11.858,7.4,7.4,0,0,1,1.647-1.641,7.294,7.294,0,0,1,1.963-1.045,7.652,7.652,0,0,1,7.294,1.173,7.543,7.543,0,0,1,2.753,4.255,4.961,4.961,0,0,1,.146.8,6.284,6.284,0,0,1,.036,1.07Z" transform="translate(-186.942 -86.788)" fill="#263238"/>
      <path id="Tracé_5166" data-name="Tracé 5166" d="M192.391,139.309c.061.067-2.188,2.152-5.014,4.656s-5.172,4.486-5.227,4.425,2.188-2.152,5.014-4.662S192.342,139.242,192.391,139.309Z" transform="translate(-182.07 -95.407)" fill="#263238"/>
    </g>
    <g id="freepik--Character--inject-113" transform="translate(81.962 116.919)">
      <path id="Tracé_5167" data-name="Tracé 5167" d="M112.176,187.09a5.2,5.2,0,0,0-6.5,1.568,7.433,7.433,0,0,0-.808,4.711c.164,1.617.571,3.2.608,4.826a6.2,6.2,0,0,1-.346,2.583,3.264,3.264,0,0,1-1.738,1.866c-1.246.5-2.8,0-3.914.772a2.34,2.34,0,0,0-.353,3.319,2.9,2.9,0,0,0,3.446.608,3.01,3.01,0,0,0,.231,4.255,4.4,4.4,0,0,0,4.51.608,8.509,8.509,0,0,0,3.6-3.069,19.17,19.17,0,0,0,3.4-11.238,25.686,25.686,0,0,0-2.395-10.849" transform="translate(-95.267 -175.237)" fill="#131313"/>
      <path id="Tracé_5168" data-name="Tracé 5168" d="M203.165,241.318c-.7-1.131-5.549,1.574-5.981,1.769s-.723-.413-.328-.571c.565-.225,6.479-2.766,5.8-3.878-.377-.608-1.428.158-1.428.158s-5.355,2.784-5.659,2.243,2.784-2.285,3.866-2.8,1.264-1.216.644-1.507c-.419-.2-3.775,1.295-4.832,1.823s-3.939,2.048-3.124.146.723-3.647.365-4.127a.644.644,0,0,0-1.112.511,7.574,7.574,0,0,1-.444,2.036,4.863,4.863,0,0,1-.772,1.477c-.4.523-.76.942-1.076,1.295-3.088,1.082-11.907,3.817-20.149,3.039-.3-.03-.729-.608-1.216-1.526l-11.178,3.6c.419.863.875,1.823,1.368,2.778,6.236,12.46,35.144-.468,35.144-.468v-.03a61.035,61.035,0,0,0,6.418-1.592c2.893-1.039,2.8-1.3,2.626-1.617-.48-.851-5.16,1.641-4.467.523S203.706,242.187,203.165,241.318Z" transform="translate(-117.993 -193.993)" fill="#eb996e"/>
      <path id="Tracé_5169" data-name="Tracé 5169" d="M168.55,249.639l20.24-7.889,12.49,7.367-22.13,7.9Z" transform="translate(-122.703 -196.887)" fill="#131313"/>
      <path id="Tracé_5170" data-name="Tracé 5170" d="M202.79,241.977l1.927-.517A48.85,48.85,0,0,1,214.709,249l-.565-.334Z" transform="translate(-136.131 -196.773)" fill="#fafafa"/>
      <path id="Tracé_5171" data-name="Tracé 5171" d="M215.831,249a12.052,12.052,0,0,1-1.459-1.137c-.893-.723-2.139-1.708-3.544-2.753s-2.7-1.957-3.647-2.6a13.71,13.71,0,0,1-1.532-1.07,8.388,8.388,0,0,1,1.647.881,44.6,44.6,0,0,1,3.726,2.529c1.41,1.052,2.638,2.073,3.5,2.839A9.335,9.335,0,0,1,215.831,249Z" transform="translate(-137.253 -196.765)" fill="#131313"/>
      <path id="Tracé_5172" data-name="Tracé 5172" d="M142.49,254.312l-.881-18.234-.067-.766,9.658-4.467-3.076-7.531a16.9,16.9,0,0,0-15.5-12.9l-9.233-.906-4.163.906s-7.713,1.331-8,12.326a43.009,43.009,0,0,0,4.17,19.389l2.826-1.477a8.965,8.965,0,0,1-1.562,5.014,16.259,16.259,0,0,0-2.486,5.707Z" transform="translate(-100.217 -184.243)"/>
      <path id="Tracé_5173" data-name="Tracé 5173" d="M128.039,227.42c.049,0,.122.9.334,2.346a36.219,36.219,0,0,0,3.4,10.837c.65,1.307,1.106,2.091,1.064,2.115a2.372,2.372,0,0,1-.377-.517c-.231-.34-.535-.851-.887-1.5a30.141,30.141,0,0,1-3.416-10.91c-.085-.729-.128-1.325-.134-1.738a2.2,2.2,0,0,1,.018-.638Z" transform="translate(-106.802 -191.267)" fill="#263238"/>
      <path id="Tracé_5174" data-name="Tracé 5174" d="M157.926,238.683a4.911,4.911,0,0,0,1.7-1.216,3.167,3.167,0,0,0,.742-2.054,2.723,2.723,0,0,0-1.216-2.3,2.571,2.571,0,0,0-1.963-.383l-.152.036-.03-.152c-.3-1.465-.541-2.729-.705-3.647a9.243,9.243,0,0,1-.207-1.44,8.147,8.147,0,0,1,.4,1.4c.213.887.492,2.146.814,3.6l-.188-.115a2.838,2.838,0,0,1,2.206.407,3,3,0,0,1,1.313,2.565,3.319,3.319,0,0,1-.863,2.206,3.714,3.714,0,0,1-1.307.918A1.319,1.319,0,0,1,157.926,238.683Z" transform="translate(-117.816 -191.31)" fill="#263238"/>
      <path id="Tracé_5175" data-name="Tracé 5175" d="M161.108,253.323a20.361,20.361,0,0,1-.492-3.854c-.164-2.133-.432-3.841-.346-3.86a14.4,14.4,0,0,1,.663,3.829A29.87,29.87,0,0,1,161.108,253.323Z" transform="translate(-119.449 -198.401)" fill="#263238"/>
      <path id="Tracé_5176" data-name="Tracé 5176" d="M170.81,244.73a7.141,7.141,0,0,1-1.343.79c-.851.444-2.042,1.033-3.385,1.635s-2.565,1.106-3.465,1.447a6.892,6.892,0,0,1-1.477.486,7.7,7.7,0,0,1,1.392-.693l3.422-1.532,3.416-1.544A8.509,8.509,0,0,1,170.81,244.73Z" transform="translate(-119.797 -198.056)" fill="#263238"/>
      <path id="Tracé_5177" data-name="Tracé 5177" d="M117.779,228.3a4.552,4.552,0,0,1,0-1.7,4.692,4.692,0,0,1,.292-1.678,4.583,4.583,0,0,1,0,1.7,4.674,4.674,0,0,1-.292,1.671Z" transform="translate(-102.76 -190.29)" fill="#fafafa"/>
      <path id="Tracé_5178" data-name="Tracé 5178" d="M117.665,236.009a3.191,3.191,0,0,1-1.349-.377,3.3,3.3,0,0,1-1.216-.663,3.142,3.142,0,0,1,1.355.371C117.148,235.626,117.7,235.924,117.665,236.009Z" transform="translate(-101.74 -194.228)" fill="#fafafa"/>
      <path id="Tracé_5179" data-name="Tracé 5179" d="M124.765,232.128a1.945,1.945,0,0,1-.128-1.252,2.159,2.159,0,0,1,.389-1.216,3.768,3.768,0,0,1-.073,1.216A4.139,4.139,0,0,1,124.765,232.128Z" transform="translate(-105.461 -192.145)" fill="#fafafa"/>
      <path id="Tracé_5180" data-name="Tracé 5180" d="M123.975,242.415a2.024,2.024,0,0,1,.243-1.422c.334-.742.863-1.167.918-1.106s-.322.553-.608,1.216A8.487,8.487,0,0,1,123.975,242.415Z" transform="translate(-105.206 -196.154)" fill="#fafafa"/>
      <path id="Tracé_5181" data-name="Tracé 5181" d="M120.285,248.716a6.736,6.736,0,0,1-1.343-.76c-.729-.438-1.349-.742-1.313-.827a2.924,2.924,0,0,1,1.471.553C119.866,248.127,120.358,248.656,120.285,248.716Z" transform="translate(-102.732 -198.997)" fill="#fafafa"/>
      <path id="Tracé_5182" data-name="Tracé 5182" d="M129.728,248.57a7.22,7.22,0,0,1-.5,1.538,7.019,7.019,0,0,1-.565,1.513,3.039,3.039,0,0,1,.267-1.617,3.124,3.124,0,0,1,.8-1.434Z" transform="translate(-107.051 -199.562)" fill="#fafafa"/>
      <path id="Tracé_5183" data-name="Tracé 5183" d="M120.43,255.629a2.644,2.644,0,0,1-1.258-.2c-.675-.194-1.216-.419-1.173-.5a2.644,2.644,0,0,1,1.258.2A2.88,2.88,0,0,1,120.43,255.629Z" transform="translate(-102.876 -202.05)" fill="#fafafa"/>
      <path id="Tracé_5184" data-name="Tracé 5184" d="M127.448,220.18a3.987,3.987,0,0,1-1.355.8,4.06,4.06,0,0,1-1.483.511A7.756,7.756,0,0,1,127.448,220.18Z" transform="translate(-105.47 -188.427)" fill="#fafafa"/>
      <path id="Tracé_5185" data-name="Tracé 5185" d="M121.79,213.2c.067.067-.432.608-.979,1.337a7.592,7.592,0,0,1-1.021,1.3,3.173,3.173,0,0,1,.772-1.5C121.133,213.591,121.741,213.129,121.79,213.2Z" transform="translate(-103.58 -185.686)" fill="#fafafa"/>
      <path id="Tracé_5186" data-name="Tracé 5186" d="M137.447,227.558a3.562,3.562,0,0,1-1.471-.948,3.458,3.458,0,0,1-1.076-1.38,8.778,8.778,0,0,1,1.289,1.143C136.881,227.011,137.5,227.479,137.447,227.558Z" transform="translate(-109.506 -190.408)" fill="#fafafa"/>
      <path id="Tracé_5187" data-name="Tracé 5187" d="M147.307,219.507a7.518,7.518,0,0,1-1,1.513,7.158,7.158,0,0,1-1.07,1.416,3.994,3.994,0,0,1,.814-1.6C146.644,219.993,147.246,219.446,147.307,219.507Z" transform="translate(-113.561 -188.162)" fill="#fafafa"/>
      <path id="Tracé_5188" data-name="Tracé 5188" d="M140.644,237.358a7.124,7.124,0,0,1-2.984,0,7.124,7.124,0,0,1,2.984,0Z" transform="translate(-110.588 -195.102)" fill="#fafafa"/>
      <path id="Tracé_5189" data-name="Tracé 5189" d="M151.291,231.87a3.088,3.088,0,0,1-.438-1.629,3.039,3.039,0,0,1,.195-1.672,8.547,8.547,0,0,1,.122,1.647A8.243,8.243,0,0,1,151.291,231.87Z" transform="translate(-115.746 -191.718)" fill="#fafafa"/>
      <path id="Tracé_5190" data-name="Tracé 5190" d="M152.022,244.7a4.771,4.771,0,0,1-1.562-.656,4.687,4.687,0,0,1-1.41-.93,4.619,4.619,0,0,1,1.562.65,4.51,4.51,0,0,1,1.41.936Z" transform="translate(-115.055 -197.42)" fill="#fafafa"/>
      <path id="Tracé_5191" data-name="Tracé 5191" d="M159.264,239.756c.043.079-.31.346-.784.608s-.9.407-.942.328.31-.346.79-.608S159.227,239.677,159.264,239.756Z" transform="translate(-118.383 -196.097)" fill="#fafafa"/>
      <path id="Tracé_5192" data-name="Tracé 5192" d="M140.1,248.579a3.756,3.756,0,0,1,.413-1.823,3.58,3.58,0,0,1,1.015-1.556,11.663,11.663,0,0,1-.723,1.678A10.667,10.667,0,0,1,140.1,248.579Z" transform="translate(-111.544 -198.24)" fill="#fafafa"/>
      <path id="Tracé_5193" data-name="Tracé 5193" d="M149.837,253.223a4.5,4.5,0,0,1-1-1.884,4.455,4.455,0,0,1-.322-2.109,19.2,19.2,0,0,1,.608,2.012A19.563,19.563,0,0,1,149.837,253.223Z" transform="translate(-114.84 -199.821)" fill="#fafafa"/>
      <path id="Tracé_5194" data-name="Tracé 5194" d="M157.578,252.2c.073.055-.158.438-.34.936s-.261.936-.353.936-.152-.486.055-1.045S157.53,252.135,157.578,252.2Z" transform="translate(-118.095 -200.981)" fill="#fafafa"/>
      <path id="Tracé_5195" data-name="Tracé 5195" d="M167.232,243.43a7.215,7.215,0,0,1-2.832,1.015,3.738,3.738,0,0,1,1.361-.656,3.805,3.805,0,0,1,1.471-.359Z" transform="translate(-121.075 -197.546)" fill="#fafafa"/>
      <path id="Tracé_5196" data-name="Tracé 5196" d="M168.516,235.039a2.838,2.838,0,0,1,.146-1.592A2.808,2.808,0,0,1,169.4,232a8.079,8.079,0,0,1-.45,1.5A7.7,7.7,0,0,1,168.516,235.039Z" transform="translate(-122.668 -193.063)" fill="#fafafa"/>
      <path id="Tracé_5197" data-name="Tracé 5197" d="M163.361,231.257a4.182,4.182,0,0,1-3.221-.407,9.814,9.814,0,0,1,1.611.213,9.224,9.224,0,0,1,1.611.194Z" transform="translate(-119.405 -192.612)" fill="#fafafa"/>
      <path id="Tracé_5198" data-name="Tracé 5198" d="M161.82,223.679a2.547,2.547,0,0,1,.8-1.276c.571-.608,1.179-.942,1.216-.869a7.308,7.308,0,0,1-.991,1.088C162.294,223.211,161.929,223.728,161.82,223.679Z" transform="translate(-120.063 -188.954)" fill="#fafafa"/>
      <path id="Tracé_5199" data-name="Tracé 5199" d="M154.64,218.47a6.686,6.686,0,0,1-.65-2.82A6.686,6.686,0,0,1,154.64,218.47Z" transform="translate(-116.993 -186.651)" fill="#fafafa"/>
      <path id="Tracé_5200" data-name="Tracé 5200" d="M121.229,270.509c.049.067-.17.334-.492.608s-.608.413-.687.346.164-.334.486-.608S121.193,270.442,121.229,270.509Z" transform="translate(-103.676 -208.16)" fill="#fafafa"/>
      <path id="Tracé_5201" data-name="Tracé 5201" d="M158.037,276.34a5.409,5.409,0,0,1-1.823.079,5.469,5.469,0,0,1-1.823-.243,11.063,11.063,0,0,1,3.689.164Z" transform="translate(-117.149 -210.356)" fill="#fafafa"/>
      <path id="Tracé_5202" data-name="Tracé 5202" d="M128.923,252.3a63.2,63.2,0,0,1-5.568,3.452c-3.136,1.829-5.683,3.246-5.726,3.173s2.431-1.617,5.568-3.446S128.874,252.225,128.923,252.3Z" transform="translate(-102.732 -201.023)" fill="#263238"/>
      <path id="Tracé_5203" data-name="Tracé 5203" d="M115.537,276.28c-.292,0-3.513,9.506-.432,15.8.31.608,1.386,2.054,2.729,4.115,6.382,9.792,22.562,31.722,23.048,35.095.608,4.084,11.032,46.8,11.032,46.8h8.509l-7.154-48.74-10.661-46.236Z" transform="translate(-101.223 -210.429)" fill="#ffbe9d"/>
      <path id="Tracé_5204" data-name="Tracé 5204" d="M160.007,373.186a5.525,5.525,0,0,0,1.781-4.376c-.073-2.93-1.787-9.919-1.787-9.919l-2.741,1.678s2.158,5.738,2.261,7.537a5.394,5.394,0,0,1-.255,2.668Z" transform="translate(-118.275 -242.828)" fill="#eb996e"/>
      <path id="Tracé_5205" data-name="Tracé 5205" d="M112.912,315.083l9,33.43L93.79,377.754,99.7,384.78s34.548-28.324,35.174-32.4c.717-4.65-7.707-37.684-7.707-37.684Z" transform="translate(-93.383 -225.497)" fill="#ffbe9d"/>
      <path id="Tracé_5206" data-name="Tracé 5206" d="M101.1,423.76h0l-6.315-7.47-1.665,1.574,2.133,2.9c1.471,1.933,6.534,8.345,7.962,9.263C104.808,431.048,101.1,423.76,101.1,423.76Z" transform="translate(-93.12 -265.34)"/>
      <path id="Tracé_5207" data-name="Tracé 5207" d="M103.736,430.857c.061-.055-2.231-2.814-5.118-6.169s-5.288-6.023-5.349-5.969,2.231,2.814,5.118,6.169S103.675,430.912,103.736,430.857Z" transform="translate(-93.178 -266.292)" fill="#263238"/>
      <path id="Tracé_5208" data-name="Tracé 5208" d="M95.544,420.052c.036,0,.115-.152.207-.425a3.215,3.215,0,0,0,.14-1.143,1.769,1.769,0,0,0-.456-1.082c-.219-.219-.413-.267-.425-.237s.115.152.261.371a2.152,2.152,0,0,1,.322.973,5.756,5.756,0,0,1-.055,1.076C95.508,419.863,95.5,420.046,95.544,420.052Z" transform="translate(-93.861 -265.68)" fill="#263238"/>
      <path id="Tracé_5209" data-name="Tracé 5209" d="M105.821,429.391c0,.091-.322.1-.687.091s-.663-.03-.675-.115.286-.213.681-.207S105.84,429.306,105.821,429.391Z" transform="translate(-97.567 -270.387)" fill="#263238"/>
      <path id="Tracé_5210" data-name="Tracé 5210" d="M106.449,430.575c0,.091-.3.152-.656.146s-.608-.091-.644-.182.286-.152.656-.14S106.455,430.49,106.449,430.575Z" transform="translate(-97.836 -270.873)" fill="#263238"/>
      <path id="Tracé_5211" data-name="Tracé 5211" d="M107.082,431.634c0,.091-.225.164-.5.207s-.511.036-.535-.049.188-.219.486-.261S107.082,431.549,107.082,431.634Z" transform="translate(-98.19 -271.312)" fill="#263238"/>
      <path id="Tracé_5212" data-name="Tracé 5212" d="M106.547,428.295a2.164,2.164,0,0,1,.444-.912,3.039,3.039,0,0,1,.79-.8,2.37,2.37,0,0,1,.608-.3,1.434,1.434,0,0,1,.383-.067.537.537,0,0,1,.286,1.009,3.482,3.482,0,0,1-.565.359,6.11,6.11,0,0,1-1.021.432,2.383,2.383,0,0,1-.991.194,4.789,4.789,0,0,1,.912-.407,8.632,8.632,0,0,0,.954-.474,4.863,4.863,0,0,0,.5-.34c.146-.115.188-.3.115-.383a.5.5,0,0,0-.486,0,2.311,2.311,0,0,0-.541.249,3.452,3.452,0,0,0-.766.7C106.8,427.991,106.589,428.319,106.547,428.295Z" transform="translate(-98.36 -269.23)" fill="#263238"/>
      <path id="Tracé_5213" data-name="Tracé 5213" d="M106.7,429.183a2.3,2.3,0,0,1,1-.237,4.254,4.254,0,0,1,1.131.036,2.83,2.83,0,0,1,.656.188,1.137,1.137,0,0,1,.334.182.45.45,0,0,1,.158.188.334.334,0,0,1,0,.3.936.936,0,0,1-.711.413,1.914,1.914,0,0,1-.7,0,4.377,4.377,0,0,1-1.07-.371c-.608-.28-.827-.638-.79-.663a8.062,8.062,0,0,0,.881.456,6.161,6.161,0,0,0,1.027.292,2.171,2.171,0,0,0,.608,0,.748.748,0,0,0,.474-.237c.061,0-.134-.194-.328-.261a3.159,3.159,0,0,0-.608-.188,4.937,4.937,0,0,0-1.064-.1A5.717,5.717,0,0,1,106.7,429.183Z" transform="translate(-98.446 -270.295)" fill="#263238"/>
      <path id="Tracé_5214" data-name="Tracé 5214" d="M102.055,423.607a23.046,23.046,0,0,1-3.325-3.489,25.592,25.592,0,0,1-2.863-3.829,37.4,37.4,0,0,1,3.173,3.6A41.911,41.911,0,0,1,102.055,423.607Z" transform="translate(-94.196 -265.339)" fill="#263238"/>
      <path id="Tracé_5215" data-name="Tracé 5215" d="M185.279,443.737h0l-8.959-.1.1,2.814h.608c2.6.043,13.226.036,14.94-.517C193.861,445.33,185.279,443.737,185.279,443.737Z" transform="translate(-125.75 -276.066)"/>
      <path id="Tracé_5216" data-name="Tracé 5216" d="M192.232,446.7c0-.085-3.525,0-7.865.176s-7.847.4-7.847.48,3.525,0,7.865-.176S192.232,446.778,192.232,446.7Z" transform="translate(-125.829 -277.253)" fill="#263238"/>
      <path id="Tracé_5217" data-name="Tracé 5217" d="M179.383,446.553c.036-.03-.049-.188-.225-.432a3.131,3.131,0,0,0-.863-.815,2.006,2.006,0,0,0-1.216-.31c-.328.03-.5.158-.48.188a2.155,2.155,0,0,0,.486,0,2.353,2.353,0,0,1,1.033.346,5.331,5.331,0,0,1,.863.705C179.2,446.462,179.346,446.577,179.383,446.553Z" transform="translate(-125.859 -276.597)" fill="#263238"/>
      <path id="Tracé_5218" data-name="Tracé 5218" d="M191.544,443.995c.061.073-.134.31-.377.608s-.462.5-.547.462,0-.359.286-.669S191.489,443.952,191.544,443.995Z" transform="translate(-131.346 -276.202)" fill="#263238"/>
      <path id="Tracé_5219" data-name="Tracé 5219" d="M192.933,444.282c.067.061-.073.328-.31.608s-.5.444-.577.4.061-.316.316-.608S192.866,444.221,192.933,444.282Z" transform="translate(-131.909 -276.313)" fill="#263238"/>
      <path id="Tracé_5220" data-name="Tracé 5220" d="M194.3,444.553c.079.049,0,.273-.152.517s-.31.425-.4.389-.061-.286.1-.547S194.223,444.5,194.3,444.553Z" transform="translate(-132.567 -276.42)" fill="#263238"/>
      <path id="Tracé_5221" data-name="Tracé 5221" d="M191.764,442.08a2.273,2.273,0,0,1-.468-.912,3.088,3.088,0,0,1-.158-1.118,2.3,2.3,0,0,1,.152-.669,1.314,1.314,0,0,1,.194-.34.582.582,0,0,1,1.045.377,3.648,3.648,0,0,1-.073.669,6.142,6.142,0,0,1-.31,1.07,2.382,2.382,0,0,1-.492.9,3.914,3.914,0,0,1,.261-.972,8.156,8.156,0,0,0,.231-1.039,4.167,4.167,0,0,0,.049-.608c0-.182-.134-.334-.249-.322s-.255.164-.334.365a2.03,2.03,0,0,0-.152.577,3.094,3.094,0,0,0,.079,1.033,4.655,4.655,0,0,1,.225.991Z" transform="translate(-131.561 -274.172)" fill="#263238"/>
      <path id="Tracé_5222" data-name="Tracé 5222" d="M192,442.417a2.255,2.255,0,0,1,.462-.936,4.462,4.462,0,0,1,.754-.845,3.553,3.553,0,0,1,.608-.4,1.573,1.573,0,0,1,.383-.152.529.529,0,0,1,.261,0,.377.377,0,0,1,.261.182.906.906,0,0,1-.122.821,2.268,2.268,0,0,1-.48.535,5.219,5.219,0,0,1-1.021.608,1.6,1.6,0,0,1-1.082.213,7.127,7.127,0,0,0,.973-.413,5.613,5.613,0,0,0,.918-.608,1.946,1.946,0,0,0,.4-.468.681.681,0,0,0,.115-.517c0-.061-.255,0-.438.1a3.1,3.1,0,0,0-.547.346,5.325,5.325,0,0,0-.79.772,6.027,6.027,0,0,1-.65.76Z" transform="translate(-131.9 -274.667)" fill="#263238"/>
      <path id="Tracé_5223" data-name="Tracé 5223" d="M185.157,443.718a22.562,22.562,0,0,1-4.3.225,24.772,24.772,0,0,1-4.3-.243,34.357,34.357,0,0,1,4.3-.073,41.554,41.554,0,0,1,4.3.091Z" transform="translate(-125.84 -276.047)" fill="#263238"/>
      <path id="Tracé_5224" data-name="Tracé 5224" d="M140.274,195.392c-.043-1.915-.067-3.647-.067-3.647s3.75-.4,3.975-4.109,0-12.29,0-12.29l-6.826-3.337L129.85,177.7l.438,17.9a5,5,0,0,0,4.99,4.863h0a5,5,0,0,0,5-5.069Z" transform="translate(-107.525 -169.536)" fill="#ffbe9d"/>
      <path id="Tracé_5225" data-name="Tracé 5225" d="M126.815,178.99s6.133-.608,7.215-6.139l6.686,6.139a7.172,7.172,0,0,0-1.665-7.944c-3.689-3.829-6.218-3.039-7.664-3.039a11.9,11.9,0,0,0-10.187,9.2c-.146.565-.267,1.957-.359,2.589Z" transform="translate(-103.992 -167.939)" fill="#131313"/>
      <path id="Tracé_5226" data-name="Tracé 5226" d="M151.478,187.514a.474.474,0,1,1-.474-.474A.474.474,0,0,1,151.478,187.514Z" transform="translate(-115.636 -175.43)" fill="#263238"/>
      <path id="Tracé_5227" data-name="Tracé 5227" d="M151.633,186.626c-.061.061-.413-.237-.924-.267s-.9.219-.948.152.036-.146.2-.261a1.27,1.27,0,0,1,1.5.091C151.615,186.456,151.664,186.577,151.633,186.626Z" transform="translate(-115.329 -175.041)" fill="#263238"/>
      <path id="Tracé_5228" data-name="Tracé 5228" d="M142.388,187.514a.474.474,0,1,1-.474-.474A.474.474,0,0,1,142.388,187.514Z" transform="translate(-112.071 -175.43)" fill="#263238"/>
      <path id="Tracé_5229" data-name="Tracé 5229" d="M142.288,186.626c-.061.061-.413-.237-.924-.267s-.9.219-.954.152.043-.146.207-.261a1.27,1.27,0,0,1,1.5.091C142.27,186.456,142.319,186.577,142.288,186.626Z" transform="translate(-111.661 -175.041)" fill="#263238"/>
      <path id="Tracé_5230" data-name="Tracé 5230" d="M146.487,191.2a3.647,3.647,0,0,1,.839-.1c.128,0,.255,0,.286-.122a.748.748,0,0,0-.073-.413l-.353-1.064c-.243-.754-.45-1.441-.608-1.939a3.762,3.762,0,0,1-.188-.827,3.332,3.332,0,0,1,.371.772c.176.492.407,1.173.65,1.927.122.371.231.729.34,1.064a.833.833,0,0,1,.049.535.3.3,0,0,1-.219.188.99.99,0,0,1-.219,0A3.331,3.331,0,0,1,146.487,191.2Z" transform="translate(-114.012 -175.309)" fill="#263238"/>
      <path id="Tracé_5231" data-name="Tracé 5231" d="M143.743,194.88a20.249,20.249,0,0,0,2.474.851,1.416,1.416,0,0,1-1.7.486C143.427,195.755,143.743,194.88,143.743,194.88Z" transform="translate(-112.957 -178.505)" fill="#fafafa"/>
      <path id="Tracé_5232" data-name="Tracé 5232" d="M143.7,203.449a9.263,9.263,0,0,1-4.923-1.659,5,5,0,0,0,4.923,2.583Z" transform="translate(-111.027 -181.215)" fill="#eb996e"/>
      <path id="Tracé_5233" data-name="Tracé 5233" d="M142.24,175.179s1.362,2.632.778,4.613l5.963,1.538S150.336,173.788,142.24,175.179Z" transform="translate(-112.384 -170.711)" fill="#131313"/>
      <path id="Tracé_5234" data-name="Tracé 5234" d="M120.756,186.918s-1.052,7.981,6.181,9.524l-.176-10.333Z" transform="translate(-103.937 -175.065)" fill="#131313"/>
      <path id="Tracé_5235" data-name="Tracé 5235" d="M143.11,171.277a4.255,4.255,0,0,1,1.823.219,8.23,8.23,0,0,1,5.859,6.291,4.255,4.255,0,0,1,.085,1.823c-.073,0-.079-.705-.371-1.781a8.7,8.7,0,0,0-5.653-6.078C143.8,171.4,143.1,171.344,143.11,171.277Z" transform="translate(-112.726 -169.24)" fill="#263238"/>
      <path id="Tracé_5236" data-name="Tracé 5236" d="M142.169,185.5a2.722,2.722,0,0,0-.134-.705,2.905,2.905,0,0,0-1.064-1.556,2.814,2.814,0,1,0,0,4.516,2.905,2.905,0,0,0,1.064-1.556c.122-.444.109-.705.134-.7a.826.826,0,0,1,0,.182,2.219,2.219,0,0,1-.061.535,2.936,2.936,0,0,1-2.31,2.225,3,3,0,1,1,0-5.89,2.966,2.966,0,0,1,1.258.571,2.905,2.905,0,0,1,1.052,1.653,2.25,2.25,0,0,1,.061.535.912.912,0,0,1,0,.188Z" transform="translate(-110.028 -173.651)" fill="#263238"/>
      <path id="Tracé_5237" data-name="Tracé 5237" d="M153.251,185.51a2.839,2.839,0,0,0-.128-.705,2.905,2.905,0,0,0-1.064-1.556,2.812,2.812,0,1,0,.018,4.528,2.905,2.905,0,0,0,1.064-1.556c.115-.444.1-.705.128-.7a.609.609,0,0,1,0,.182,2.219,2.219,0,0,1-.061.535,2.984,2.984,0,1,1-5.288-2.5,2.9,2.9,0,0,1,1.4-1.039,2.936,2.936,0,0,1,1.574-.122,2.972,2.972,0,0,1,1.252.571,2.918,2.918,0,0,1,1.058,1.653,2.249,2.249,0,0,1,.061.535A.663.663,0,0,1,153.251,185.51Z" transform="translate(-114.381 -173.657)" fill="#263238"/>
      <path id="Tracé_5238" data-name="Tracé 5238" d="M146.8,187.523c0,.055-.243.1-.535.1s-.535-.049-.535-.1.243-.1.535-.1S146.8,187.463,146.8,187.523Z" transform="translate(-113.753 -175.579)" fill="#263238"/>
      <path id="Tracé_5239" data-name="Tracé 5239" d="M133.28,188.44a16.97,16.97,0,0,1-2.565.608,16.356,16.356,0,0,1-2.6.407,16.766,16.766,0,0,1,2.559-.608,17.141,17.141,0,0,1,2.6-.407Z" transform="translate(-106.847 -175.979)" fill="#263238"/>
      <path id="Tracé_5240" data-name="Tracé 5240" d="M128.39,193.371a1.55,1.55,0,0,1-1.939-.261,2.279,2.279,0,0,1-.5-2,1.708,1.708,0,0,1,.608-1.094,1.763,1.763,0,0,1,1.665.1Z" transform="translate(-105.974 -176.534)" fill="#ffbe9d"/>
      <path id="Tracé_5241" data-name="Tracé 5241" d="M127.9,193.258c0-.049-.188-.079-.407-.237a.985.985,0,0,1-.407-.881.954.954,0,0,1,.565-.79c.243-.122.438-.115.438-.164s-.188-.134-.517-.049a1.124,1.124,0,0,0-.194,2.079C127.686,193.355,127.9,193.3,127.9,193.258Z" transform="translate(-106.315 -177.023)" fill="#eb996e"/>
      <path id="Tracé_5242" data-name="Tracé 5242" d="M114.361,273.19s-6.522,6.771-5.179,21.273,3.106,33.922,3.106,33.922,8.388-7.567,12.649-4.334,8.509,5.878,14.071,2.37c7.585-4.8,15.9-1.629,15.9-1.629l-13.372-47.95Z" transform="translate(-99.348 -209.217)" fill="#131313"/>
      <path id="Tracé_5243" data-name="Tracé 5243" d="M127.148,276a3.264,3.264,0,0,1-.274,1.434,6.109,6.109,0,0,1-2.109,2.814,6.042,6.042,0,0,1-3.319,1.143,3.2,3.2,0,0,1-1.447-.182c0-.055.553.049,1.428-.036a6.279,6.279,0,0,0,5.239-3.823C127.014,276.559,127.093,276,127.148,276Z" transform="translate(-103.662 -210.319)" fill="#545454"/>
      <path id="Tracé_5244" data-name="Tracé 5244" d="M122.152,275.4c-.085-.03-.043-.371.1-.772s.31-.693.4-.669.036.377-.1.772S122.231,275.424,122.152,275.4Z" transform="translate(-104.489 -209.518)" fill="#545454"/>
      <path id="Tracé_5245" data-name="Tracé 5245" d="M119.8,283.881a3.525,3.525,0,0,1,.158-1.477,3.562,3.562,0,0,1,.468-1.4,3.611,3.611,0,0,1-.158,1.471A3.549,3.549,0,0,1,119.8,283.881Z" transform="translate(-103.575 -212.28)" fill="#545454"/>
      <path id="Tracé_5246" data-name="Tracé 5246" d="M118.55,293.476a6.935,6.935,0,0,1,.292-2.936,3.647,3.647,0,0,1,0,1.483,3.5,3.5,0,0,1-.292,1.453Z" transform="translate(-103.075 -216.022)" fill="#545454"/>
      <path id="Tracé_5247" data-name="Tracé 5247" d="M118.229,303.174a3.556,3.556,0,0,1-.152-1.477,3.5,3.5,0,0,1,.158-1.477,3.647,3.647,0,0,1,.158,1.477A3.458,3.458,0,0,1,118.229,303.174Z" transform="translate(-102.9 -219.818)" fill="#545454"/>
      <path id="Tracé_5248" data-name="Tracé 5248" d="M118.723,312.882a3.646,3.646,0,0,1-.274-1.459,3.476,3.476,0,0,1,.036-1.483,3.537,3.537,0,0,1,.273,1.453A3.647,3.647,0,0,1,118.723,312.882Z" transform="translate(-103.029 -223.63)" fill="#545454"/>
      <path id="Tracé_5249" data-name="Tracé 5249" d="M119.867,322.53a3.519,3.519,0,0,1-.365-1.447,3.562,3.562,0,0,1-.049-1.483,3.647,3.647,0,0,1,.365,1.441A3.726,3.726,0,0,1,119.867,322.53Z" transform="translate(-103.426 -227.419)" fill="#545454"/>
      <path id="Tracé_5250" data-name="Tracé 5250" d="M121.548,332.133a3.483,3.483,0,0,1-.45-1.416,3.647,3.647,0,0,1-.134-1.477,7.1,7.1,0,0,1,.608,2.893Z" transform="translate(-104.031 -231.2)" fill="#545454"/>
      <path id="Tracé_5251" data-name="Tracé 5251" d="M123.686,341.569a3.58,3.58,0,0,1-.5-1.4,3.537,3.537,0,0,1-.194-1.471,3.58,3.58,0,0,1,.5,1.4,3.526,3.526,0,0,1,.194,1.471Z" transform="translate(-104.831 -234.91)" fill="#545454"/>
      <path id="Tracé_5252" data-name="Tracé 5252" d="M125.662,349.6c-.085,0-.237-.292-.34-.7s-.122-.754-.036-.772.237.292.34.7S125.747,349.582,125.662,349.6Z" transform="translate(-105.714 -238.608)" fill="#545454"/>
      <path id="Tracé_5253" data-name="Tracé 5253" d="M150.278,289.944a11.377,11.377,0,0,1-.243-1.823c-.115-1.131-.267-2.687-.389-4.413s-.182-3.288-.182-4.425a9.958,9.958,0,0,1,.085-1.823,11.061,11.061,0,0,1,.14,1.823c.055,1.131.146,2.687.273,4.413s.237,3.282.292,4.413a10.022,10.022,0,0,1,.024,1.836Z" transform="translate(-115.213 -210.892)" fill="#545454"/>
      <path id="Tracé_5254" data-name="Tracé 5254" d="M151.819,277.93a11.452,11.452,0,0,1,.213,1.884c.1,1.161.2,2.766.3,4.546.043.881.085,1.726.122,2.5a4.863,4.863,0,0,1-.225,2.073,2.054,2.054,0,0,1-.918,1.076c-.3.152-.5.146-.5.128s.176-.061.438-.231a2.133,2.133,0,0,0,.772-1.052,5.069,5.069,0,0,0,.14-1.975c-.043-.784-.1-1.623-.146-2.5-.1-1.781-.17-3.392-.2-4.552A11.457,11.457,0,0,1,151.819,277.93Z" transform="translate(-115.745 -211.076)" fill="#545454"/>
      <path id="Tracé_5255" data-name="Tracé 5255" d="M162.121,284.2a2.158,2.158,0,0,1-1.045-.255,5.4,5.4,0,0,1-2.067-1.574,5.47,5.47,0,0,1-1.1-2.358,2.31,2.31,0,0,1,0-1.076,8.8,8.8,0,0,1,.249,1.027,6.078,6.078,0,0,0,3.039,3.781q.473.2.924.456Z" transform="translate(-118.505 -211.473)" fill="#545454"/>
      <path id="Tracé_5256" data-name="Tracé 5256" d="M156.462,351.659a2.83,2.83,0,0,1-.456-.055l-1.307-.2a39.7,39.7,0,0,0-4.862-.419,23.261,23.261,0,0,0-7.087.9c-1.295.371-2.571.991-3.957,1.538a10.746,10.746,0,0,1-2.194.608,5.567,5.567,0,0,1-2.364-.122,18.926,18.926,0,0,1-4.1-2.085,13.141,13.141,0,0,0-3.945-1.4,14.587,14.587,0,0,0-3.8-.195,16.158,16.158,0,0,0-3.258.663,14.241,14.241,0,0,0-4.255,2.243,10.18,10.18,0,0,0-1,.851,3.035,3.035,0,0,1-.353.3,2.188,2.188,0,0,1,.31-.346,8.334,8.334,0,0,1,.966-.906,13.731,13.731,0,0,1,4.255-2.358,16.017,16.017,0,0,1,3.3-.711,15.068,15.068,0,0,1,3.878.164,13.293,13.293,0,0,1,4.048,1.428,19.33,19.33,0,0,0,4.03,2.048,7,7,0,0,0,4.364-.492c1.325-.523,2.662-1.155,3.987-1.526a22.926,22.926,0,0,1,7.172-.845,35.209,35.209,0,0,1,4.862.523c.565.1,1,.188,1.3.261A1.91,1.91,0,0,1,156.462,351.659Z" transform="translate(-101.121 -239.305)" fill="#545454"/>
      <path id="Tracé_5257" data-name="Tracé 5257" d="M162.26,257.538c1.453-.316,4.218-1.453,4.255-1.823.115-.693-2.431.122-3.142.261a30.21,30.21,0,0,1-4.5-.547h0c-.93-.517-1.823-1.058-2.565-1.5a2.468,2.468,0,0,1-.608-2.565,3.563,3.563,0,0,0,.2-2.316.65.65,0,0,0-1.179.328,7.524,7.524,0,0,1-.76,1.945,5.143,5.143,0,0,1-1.027,1.368c-.462.432-.875.784-1.216,1.076-3.221.577-12.363,1.884-20.386-.164a6.321,6.321,0,0,1-2.522-2.03l-9.026,5.434c4.188,13.287,34.645,4.7,34.645,4.7l8.345-2.826s4.644-1.137,4.644-1.532C167.438,256.73,164,257.514,162.26,257.538Z" transform="translate(-103.576 -199.644)" fill="#ffbe9d"/>
      <path id="Tracé_5258" data-name="Tracé 5258" d="M140.522,210.589a1.823,1.823,0,0,1,0,.608,5.6,5.6,0,0,1-.511,1.671,5.349,5.349,0,0,1-1.641,2,4.6,4.6,0,0,1-3.039.887,4.686,4.686,0,0,1-2.911-1.216,5.507,5.507,0,0,1-1.428-2.164,5.689,5.689,0,0,1-.346-1.708,1.945,1.945,0,0,1,.043-.608,9.117,9.117,0,0,0,.517,2.261,5.525,5.525,0,0,0,1.41,2.03,4.5,4.5,0,0,0,2.741,1.143,4.443,4.443,0,0,0,2.851-.8,5.428,5.428,0,0,0,1.611-1.872,8.4,8.4,0,0,0,.705-2.231Z" transform="translate(-107.834 -184.458)" fill="#263238"/>
    </g>
  </g>
</svg>
