<svg xmlns="http://www.w3.org/2000/svg" xmlns:xlink="http://www.w3.org/1999/xlink" width="292.813" height="209.313" viewBox="0 0 292.813 209.313">
  <defs>
    <linearGradient id="linear-gradient" x1="0.5" y1="1" x2="0.5" gradientUnits="objectBoundingBox">
      <stop offset="0" stop-color="gray" stop-opacity="0.251"/>
      <stop offset="0.54" stop-color="gray" stop-opacity="0.122"/>
      <stop offset="1" stop-color="gray" stop-opacity="0.102"/>
    </linearGradient>
    <linearGradient id="linear-gradient-2" x1="0.5" y1="1" x2="0.5" xlink:href="#linear-gradient"/>
  </defs>
  <g id="undraw_security_o890_1_" data-name="undraw_security_o890 (1)" transform="translate(0.033 -0.003)">
    <path id="Tracé_553" data-name="Tracé 553" d="M369.317,180.762c-6.783,13.992-20.556,23.349-34.829,29.519a132.4,132.4,0,0,1-61.246,10.212q-5.486-.365-10.939-1.167a137.97,137.97,0,0,1-36.575-10.651q-5.039-2.27-9.875-4.955a126.324,126.324,0,0,1-15.435-10.094q-1.846-1.409-3.64-2.89c-.83-.684-1.652-1.384-2.486-2.063a31.38,31.38,0,0,0-5.6-3.811,19.991,19.991,0,0,0-1.874-.827c-6.4-2.435-13.786-1.516-20.451.383-5.07,1.445-10.012,3.423-15.077,4.835a50.036,50.036,0,0,1-6.87,1.46,36.56,36.56,0,0,1-15.435-1.356l-.426-.133q-1.072-.337-2.127-.738l-.426-.163q-1.021-.393-2-.845l-.426-.194q-1.021-.475-2-1c-.235-.123-.467-.255-.7-.38a41.784,41.784,0,0,1-10-7.784c-.084-.084-.163-.171-.255-.255-.406-.439-.8-.886-1.19-1.343-.143-.168-.286-.337-.426-.511q-.687-.837-1.325-1.713c-.064-.084-.125-.171-.186-.255a36.914,36.914,0,0,1-4.3-7.784c-.036-.084-.069-.171-.1-.255q-.511-1.315-.932-2.673c-.115-.378-.225-.766-.322-1.144-.033-.112-.064-.227-.092-.34-1.409-5.547-1.57-11.314-1.57-17.048v-2c.041-9.275.184-18.708,1.552-27.855a1.163,1.163,0,0,1,.028-.189,86.992,86.992,0,0,1,1.866-9.144,67.459,67.459,0,0,1,3.143-9.267,86.092,86.092,0,0,1,12.808-20.385c12.8-15.713,29.593-28.9,49.245-33.841A72.47,72.47,0,0,1,230.624,55.49c5.208,4.146,9.887,9.055,15.736,12.233,5.106,2.767,11.082,3.914,16.55,1.736,4.519-1.8,7.46-2.693,12.535-2.42a105.066,105.066,0,0,1,30.726,6.436c.4.146.8.3,1.192.447,25.71,9.836,47.81,29.379,59.3,54.491q.457,1,.886,2.007C374.4,146.418,376.874,165.169,369.317,180.762Z" transform="translate(-81.17 -40.04)" fill="#9550ef" opacity="0.1"/>
    <ellipse id="Ellipse_47" data-name="Ellipse 47" cx="22.537" cy="3.62" rx="22.537" ry="3.62" transform="translate(8.502 182.439)" fill="#9550ef" opacity="0.1"/>
    <ellipse id="Ellipse_48" data-name="Ellipse 48" cx="39.96" cy="3.88" rx="39.96" ry="3.88" transform="translate(193.257 201.555)" fill="#9550ef" opacity="0.1"/>
    <rect id="Rectangle_283" data-name="Rectangle 283" width="242.608" height="137.429" rx="12.49" transform="translate(29.977 27.51)" fill="url(#linear-gradient)"/>
    <rect id="Rectangle_284" data-name="Rectangle 284" width="241.865" height="135.04" rx="12.49" transform="translate(30.362 29.442)" fill="#fff"/>
    <rect id="Rectangle_285" data-name="Rectangle 285" width="241.865" height="135.04" rx="12.49" transform="translate(30.362 29.442)" fill="#fff"/>
    <rect id="Rectangle_286" data-name="Rectangle 286" width="241.865" height="135.04" rx="12.49" transform="translate(30.362 29.442)" fill="#fff" opacity="0.04"/>
    <path id="Tracé_554" data-name="Tracé 554" d="M385.257,149.29H145.848a1.228,1.228,0,0,0-1.228,1.228v5.19H386.475v-5.19A1.228,1.228,0,0,0,385.257,149.29Z" transform="translate(-114.258 -121.397)" fill="#5a5773"/>
    <g id="buttons" transform="translate(33.533 29.442)">
      <circle id="Ellipse_49" data-name="Ellipse 49" cx="1.659" cy="1.659" r="1.659" fill="#fff"/>
      <circle id="Ellipse_50" data-name="Ellipse 50" cx="1.659" cy="1.659" r="1.659" transform="translate(4.468)" fill="#fff"/>
      <circle id="Ellipse_51" data-name="Ellipse 51" cx="1.659" cy="1.659" r="1.659" transform="translate(8.935)" fill="#fff"/>
    </g>
    <rect id="Rectangle_287" data-name="Rectangle 287" width="64.907" height="5.509" transform="translate(50.282 46.38)" fill="#9550ef" opacity="0.2"/>
    <rect id="Rectangle_288" data-name="Rectangle 288" width="202.025" height="84.745" transform="translate(50.282 68.471)" fill="#5a5773" opacity="0.1"/>
    <path id="Tracé_555" data-name="Tracé 555" d="M568.447,269.447h-3.459v-6.719a13.815,13.815,0,1,0-27.63-.186v6.906h-3.452a5.775,5.775,0,0,0-5.757,5.757v27.627a5.775,5.775,0,0,0,5.757,5.757h34.54a5.772,5.772,0,0,0,5.754-5.757V275.2A5.772,5.772,0,0,0,568.447,269.447Zm-15.253,17.96V297.3a2.065,2.065,0,0,1-1.915,2.073,2.019,2.019,0,0,1-2.114-2.017V287.4a4.6,4.6,0,1,1,4.028,0Zm7.771-17.96H541.387v-6.906a9.785,9.785,0,1,1,19.57,0Z" transform="translate(-399.877 -195.449)" opacity="0.1"/>
    <path id="Tracé_556" data-name="Tracé 556" d="M568.447,267.447h-3.459v-6.719a13.815,13.815,0,1,0-27.63-.186v6.906h-3.452a5.775,5.775,0,0,0-5.757,5.757v27.627a5.775,5.775,0,0,0,5.757,5.757h34.54a5.772,5.772,0,0,0,5.754-5.757V273.2A5.772,5.772,0,0,0,568.447,267.447Zm-15.253,17.96V295.3a2.065,2.065,0,0,1-1.915,2.073,2.019,2.019,0,0,1-2.114-2.017V285.4a4.6,4.6,0,1,1,4.028,0Zm7.771-17.96H541.387v-6.906a9.785,9.785,0,1,1,19.57,0Z" transform="translate(-399.877 -193.96)" fill="#2d2d2d"/>
    <rect id="Rectangle_289" data-name="Rectangle 289" width="20.449" height="4.828" transform="translate(231.859 60.314)" fill="#5a5773" opacity="0.1"/>
    <path id="Tracé_557" data-name="Tracé 557" d="M896.844,432.254a7.268,7.268,0,0,0-.684-1.943l-3.063-4.575h.018a7.715,7.715,0,0,1,0-3.426c.482-1.128-1.721-3.9-1.721-3.9a1.646,1.646,0,0,1,.432-1.555c.7-.858-.432-3.37-.432-3.37s-.536-5.246-.59-6.048-.485-5.244-.485-5.244l-1.021-9.418-1.818-24.96-.033-.467c.225-.11.345-.179.345-.179l-.362-13.8.314-.283c2.742-2.481,9.065-8.225,9-8.35s-.766-9.591-.848-11.96a14.254,14.254,0,0,0-1.088-4.9c-.158-.314-.615-2.384-.8-3.26-.051-.24-.084-.391-.084-.391s-1.853-3.533-1.693-5.139.483-2.808-3.469-3.37a15.314,15.314,0,0,1-5.295-1.846,15.06,15.06,0,0,0-3.794-1.9s-1.108-2.042-1.879-1.35a10.718,10.718,0,0,1-.728-2.275l-.023-.143a7.523,7.523,0,0,0,2.972-4.253c.026-.1.046-.2.069-.294a.828.828,0,0,0,.237.043c.671,0,1.085-.748,1.713-.985.255-.1.569-.115.766-.317a.748.748,0,0,0,.168-.564,1.142,1.142,0,0,0,0-.209q0-.037,0-.074v.026c-.171-.929-.891-1.754-.812-2.7.077-.888.858-1.67.794-2.535a1.38,1.38,0,0,0-.018-.2v.031a2.184,2.184,0,0,0-.511-.9,2.9,2.9,0,0,0-1.052-.883c-.355-.156-.766-.192-1.1-.378-.975-.531-.973-1.915-1.552-2.859a2.53,2.53,0,0,0-2.367-1.172c-.725.071-1.381.457-2.1.582a5.487,5.487,0,0,1-2.908-.511,8,8,0,0,0-2.869-.766,2.437,2.437,0,0,0-2.379,1.453c-.161.511-.082,1.059-.2,1.578a3.435,3.435,0,0,1-1.851,2.022c-.511.283-1.118.608-1.276,1.144v-.041a.985.985,0,0,0-.025.13.953.953,0,0,0,0,.171,3.217,3.217,0,0,0,.324,1.067,2.943,2.943,0,0,1-.015,2.058c-.189.485-.511.911-.694,1.394a2.744,2.744,0,0,0-.168.7v-.041a2.806,2.806,0,0,0,0,.327,2.3,2.3,0,0,0,.255,1.072,1.925,1.925,0,0,0,1.146.962c.511.117.83-.383,1.368-.255a2.164,2.164,0,0,1,.283.089c.018.115.036.23.056.342a7.5,7.5,0,0,0,2.589,4.383,1.639,1.639,0,0,0,.028.186h0a17.137,17.137,0,0,1,.212,3.079s-.8-1.177-1.907,1.1a23.175,23.175,0,0,1-3.87,1.848c-.993.189-4.519,1.417-4.519,1.417a3.11,3.11,0,0,1-1.828.59c-1.1,0-2.014,2.407-1.881,3.717s-.079,2.275-1.1,2.328-.465,2.129-.457,2.165l-.094.447c-.2.914-.633,2.875-.786,3.181a14.3,14.3,0,0,0-1.09,4.9c-.079,2.369-.766,11.8-.845,11.96-.054.1,4.279,4.064,7.324,6.831l.442.4-1.4,13.091a3.5,3.5,0,0,0,1.44,2.553c0,.153,0,.309-.015.47a16.368,16.368,0,0,1-.429,3.87c-.429.858-.322,5.458-.322,5.458s-.432,9.364-.968,10.383a7.085,7.085,0,0,0-.485,3.574c.161.419-.539,11.664-.539,11.664l-.536,5.032s.161,4.815-.324,4.922-.753,3.426-.753,3.426-1.718,2.354-.968,3.209-.11,1.233-.189,1.445-1.639,1.021-.511,4.013a.889.889,0,0,0,.036.087c-1.057,1.468-4.406,6.2-4.2,6.923a1.9,1.9,0,0,0,.893,1.072c.789.472,2.142.692,4.294,0,3.574-1.151,3.319-1.981,3.319-1.981a1.516,1.516,0,0,1,1.506-1.445,4.231,4.231,0,0,0,2.581-1.47l-.174-.646-.237-.893c.028-.255.209-.7,1.021-.95,1.238-.375.914-2.729.914-2.729s-.107-2.461.429-2.783.324-4.388.324-4.388a30.157,30.157,0,0,1,1.45-4.925c.858-1.981,1.884-13.75,1.884-13.75a54.281,54.281,0,0,1,1.343-7.439,42.1,42.1,0,0,0,1.238-6.313s3.98-7.707,4.031-9.42c0,0,.511-1.606,1.021.161s1.945,5.994,1.945,5.994l1.4,5.19,1.667,7.758,1.077,6.53a10.154,10.154,0,0,0,.255,3.319c.419.858,1.021,2.834.7,3.209s.643,2.142.914,2.515,0,8.294,0,8.294,1.236,6.742,3.01,7.914a2.17,2.17,0,0,0,.393.2c-.026.73-.051,1.708-.018,2.218a.849.849,0,0,0,.056.334,9.333,9.333,0,0,0,2.367,1.659c.378,0,1.718.937,1.774,1.391s3.929,2.379,4.478,2.435,3.209.534,3.574-.214a1.238,1.238,0,0,0,.074-.692Zm-9.515-96.428.276.237s.283,2.208.485,2.869a5.545,5.545,0,0,1-.041,1.948,4.479,4.479,0,0,0,.283,1.4c.24.483-.485,1.532-.485,1.532H887.2l-.2-8.266Zm-19.205-24.681V311.1a.16.16,0,0,0-.008.049Zm-9.918,31.822a.932.932,0,0,1-.041-.682,2.045,2.045,0,0,0,.135-.378,5.854,5.854,0,0,0,.148-1.021.068.068,0,0,0,0-.013,5.4,5.4,0,0,1-.038-1.935c.191-.628.482-2.869.482-2.869l.184-.156.426-.37a3.038,3.038,0,0,1,.031-.365,28.444,28.444,0,0,1,.046,4.192,6.211,6.211,0,0,0-.807,2.379,9.776,9.776,0,0,1-.166,1.986A4.074,4.074,0,0,1,858.206,342.967Z" transform="translate(-637.578 -225.65)" fill="url(#linear-gradient-2)"/>
    <path id="Tracé_558" data-name="Tracé 558" d="M936.56,359.022V362.2l-6.515,3.275s-6.469-3.914-4.874-5.471c1.021-.985.825-3.691.549-5.553h0c-.161-1.082-.347-1.876-.347-1.876s11.621-3.319,9.864-.8a3.963,3.963,0,0,0-.437,3.012A13.681,13.681,0,0,0,936.56,359.022Z" transform="translate(-695.355 -271.487)" fill="#e1c895"/>
    <path id="Tracé_559" data-name="Tracé 559" d="M868.564,446.058l-.84,10.344s-1.259-1.141-2.887-2.627c-3.02-2.755-7.309-6.694-7.258-6.8.079-.161.766-9.545.84-11.9A14.243,14.243,0,0,1,859.5,430.2a30.27,30.27,0,0,0,.766-3.168c.061-.283.1-.467.1-.467l1.409-.567s5.872,6.551,5.872,6.671-.4,5.152-.4,5.152l-.416.362-.181.156s-.281,2.2-.48,2.857a5.13,5.13,0,0,0,.038,1.925h0a5.942,5.942,0,0,1-.146,1.021,2.145,2.145,0,0,1-.135.375.936.936,0,0,0,.041.679,4.1,4.1,0,0,0,.439.84Z" transform="translate(-645.206 -327.467)" fill="#2d2d2d"/>
    <path id="Tracé_560" data-name="Tracé 560" d="M1007.977,447c.061.125-6.2,5.841-8.915,8.31l-1.23,1.116L997,446.08h2.157s.72-1.039.48-1.519a4.439,4.439,0,0,1-.278-1.4,5.565,5.565,0,0,0,.038-1.938c-.2-.661-.48-2.857-.48-2.857l-.273-.235-.324-.283s-.4-5.032-.4-5.152,5.872-6.671,5.872-6.671l1.4.559s.031.151.082.391c.189.871.641,2.931.8,3.245a14.241,14.241,0,0,1,1.077,4.871C1007.211,437.454,1007.9,446.839,1007.977,447Z" transform="translate(-749.035 -327.489)" fill="#2d2d2d"/>
    <path id="Tracé_561" data-name="Tracé 561" d="M1004.627,826.708c-.375.745-3.01.255-3.554.214s-4.383-1.973-4.437-2.425-1.384-1.384-1.756-1.384a9.335,9.335,0,0,1-2.344-1.652.814.814,0,0,1-.054-.332c-.056-.876.054-3.13.054-3.13l7.722.426,3.753,5.644a7.274,7.274,0,0,1,.679,1.932A1.277,1.277,0,0,1,1004.627,826.708Z" transform="translate(-745.659 -619.394)" fill="#373737"/>
    <path id="Tracé_563" data-name="Tracé 563" d="M1004.671,835.838c-.375.745-3.01.255-3.554.214s-4.383-1.973-4.437-2.425-1.384-1.384-1.756-1.384a9.335,9.335,0,0,1-2.344-1.652.815.815,0,0,1-.054-.332l2.5,1.583a10.559,10.559,0,0,1,2.024,1.626c.426.605,3.786,1.864,4.064,1.889a19.124,19.124,0,0,1,3.617-.225,1.277,1.277,0,0,1-.064.7Z" transform="translate(-745.703 -628.524)" opacity="0.1"/>
    <path id="Tracé_564" data-name="Tracé 564" d="M860.732,822.86a4.178,4.178,0,0,1-2.553,1.463,1.5,1.5,0,0,0-1.491,1.437s.255.827-3.275,1.973c-2.132.687-3.472.47-4.253,0a1.9,1.9,0,0,1-.886-1.067c-.24-.85,4.473-7.322,4.473-7.322l4.289-.255,3.063,1.384.47,1.754Z" transform="translate(-638.271 -620.205)" fill="#373737"/>
    <path id="Tracé_566" data-name="Tracé 566" d="M863.342,831.983a4.179,4.179,0,0,1-2.553,1.463,1.5,1.5,0,0,0-1.491,1.437s.255.827-3.275,1.973c-2.132.687-3.472.47-4.253,0,2.009-.209,6.449-1.478,6.893-1.917.534-.534,1.2-2,1.652-2.024a17.78,17.78,0,0,0,2.867-1.575Z" transform="translate(-640.88 -629.328)" fill="none"/>
    <path id="Tracé_567" data-name="Tracé 567" d="M863.342,831.983a4.179,4.179,0,0,1-2.553,1.463,1.5,1.5,0,0,0-1.491,1.437s.255.827-3.275,1.973c-2.132.687-3.472.47-4.253,0,2.009-.209,6.449-1.478,6.893-1.917.534-.534,1.2-2,1.652-2.024a17.78,17.78,0,0,0,2.867-1.575Z" transform="translate(-640.88 -629.328)" opacity="0.1"/>
    <path id="Tracé_568" data-name="Tracé 568" d="M904.429,633.321a7.677,7.677,0,0,0,0,3.408s-7.148.373-8.894-.8-2.982-7.883-2.982-7.883.255-7.881,0-8.254-1.225-2.129-.906-2.5-.255-2.344-.692-3.2a9.567,9.567,0,0,1-.255-3.3l-1.067-6.5-1.649-7.72-1.4-5.167s-1.437-4.207-1.925-5.964-1-.161-1-.161c-.051,1.705-3.993,9.374-3.993,9.374a42.2,42.2,0,0,1-1.225,6.283,54.512,54.512,0,0,0-1.333,7.4s-1.021,11.715-1.864,13.686a30.193,30.193,0,0,0-1.422,4.9s.214,4.049-.319,4.368-.447,2.77-.447,2.77.319,2.341-.906,2.716-1.021,1.172-1.021,1.172-6.816,1.118-7.934-1.866.426-3.778.511-3.993.934-.585.189-1.44.957-3.194.957-3.194.268-3.3.745-3.408.322-4.9.322-4.9l.531-5.006s.694-11.184.534-11.61a7.094,7.094,0,0,1,.48-3.574c.534-1.021.957-10.334.957-10.334s-.107-4.577.319-5.43a15.828,15.828,0,0,0,.424-3.852c.046-1.156.056-2.114.056-2.114L875.178,575l7.659-2.448,6.443,3.089,9.428,1.81.117,1.626,1.8,24.842,1.021,9.372s.426,4.419.48,5.218.585,6.02.585,6.02,1.118,2.5.426,3.354a1.617,1.617,0,0,0-.426,1.532S904.909,632.2,904.429,633.321Z" transform="translate(-649.083 -436.604)" fill="#2d2d2d"/>
    <path id="Tracé_569" data-name="Tracé 569" d="M936.584,351.776a3.963,3.963,0,0,0-.437,3.012,7.49,7.49,0,0,1-9.081-.34h0c-.161-1.082-.347-1.876-.347-1.876S938.341,349.259,936.584,351.776Z" transform="translate(-696.697 -271.488)" opacity="0.1"/>
    <path id="Tracé_570" data-name="Tracé 570" d="M932.36,319.95a7.444,7.444,0,1,1-2.18-5.3A7.48,7.48,0,0,1,932.36,319.95Z" transform="translate(-689.756 -242.919)" fill="#e1c895"/>
    <path id="Tracé_571" data-name="Tracé 571" d="M901.451,350.025,899,393.667l-13.313-2.8-2.637-17.495,2.612-23.487,1.966.253,3.467.442,3.434.212,3.722-.414Z" transform="translate(-657.29 -260.565)" opacity="0.1"/>
    <path id="Tracé_572" data-name="Tracé 572" d="M901.451,351.283,899,394.924l-13.313-2.8-2.637-17.495,2.612-23.484,1.966.25,3.467.442,3.434.212,3.722-.414Z" transform="translate(-657.29 -261.503)" fill="#f3f3f3"/>
    <path id="Tracé_573" data-name="Tracé 573" d="M939.23,396.3l4.794.161-1.348,1.887s.094,3.811.735,4.9.452,17.972.452,17.972l-1.276,2.423L940.4,420.93l.028-22.287Z" transform="translate(-706.013 -305.349)" fill="#3f3d56"/>
    <path id="Tracé_575" data-name="Tracé 575" d="M928.623,336.86l-4.473,4.953,2.555,2.663,4.235-4.128Z" transform="translate(-687.898 -250.861)" opacity="0.1"/>
    <path id="Tracé_576" data-name="Tracé 576" d="M928.623,335.61l-4.473,4.953,2.555,2.663,4.235-4.128Z" transform="translate(-687.898 -249.93)" fill="#c2c2c2"/>
    <path id="Tracé_577" data-name="Tracé 577" d="M902.3,342.116l-4.529-4.526-.426,2.369,2.078,5.193Z" transform="translate(-667.932 -251.405)" opacity="0.1"/>
    <path id="Tracé_578" data-name="Tracé 578" d="M902.923,340.866,898.4,336.34l-.426,2.369,2.078,5.193Z" transform="translate(-668.401 -250.474)" fill="#c2c2c2"/>
    <path id="Tracé_579" data-name="Tracé 579" d="M917.447,579.105a22.1,22.1,0,0,1-6.893,1.994c-4.394.559-7.268-5.032-7.268-5.032l-1.677,2.183c-.533,2.318-8.654,2.9-11.955,2.024a5.28,5.28,0,0,1-1.894-.9c.046-1.156.056-2.114.056-2.114l5.964-2.236,7.659-2.448,6.443,3.089,9.428,1.81Z" transform="translate(-667.683 -436.626)" opacity="0.1"/>
    <path id="Tracé_580" data-name="Tracé 580" d="M928.406,391.325l-2.448,43.639-13.316-2.8L910,414.676l2.609-23.486,1.966.255a23.867,23.867,0,0,1-.289,2.553c-.319,1.493,1.652,12.09,1.652,12.09s3.745,11.884,5.43,10.171,4.085-10.758,4.085-10.758c1.626-3.354.028-12.764-.092-12.953a3.791,3.791,0,0,1-.153-.855Z" transform="translate(-684.245 -301.543)" opacity="0.1"/>
    <path id="Tracé_581" data-name="Tracé 581" d="M998.948,509.53l.112,4.276-1.231,1.116L997,504.57h1.838Z" transform="translate(-749.035 -385.979)" opacity="0.1"/>
    <path id="Tracé_582" data-name="Tracé 582" d="M890.805,493.1h0a5.942,5.942,0,0,1-.146,1.021c0-.094,0-.148-.02-.156C890.563,493.945,890.655,493.554,890.805,493.1Z" transform="translate(-669.807 -377.437)" opacity="0.1"/>
    <path id="Tracé_583" data-name="Tracé 583" d="M889.737,502.12l-.84,10.344s-1.259-1.141-2.887-2.627L886.2,508s.687-4.5.937-6.724a4.112,4.112,0,0,0,.439.84Z" transform="translate(-666.379 -383.529)" opacity="0.1"/>
    <path id="Tracé_584" data-name="Tracé 584" d="M883.511,375.249s-.8-1.172-1.889,1.09a22.846,22.846,0,0,1-3.829,1.838c-.98.186-4.468,1.412-4.468,1.412a3.084,3.084,0,0,1-1.81.585c-1.093,0-2,2.4-1.866,3.7s-.079,2.264-1.09,2.318-.454,2.155-.454,2.155l6.737,7.723s.426,7.11.214,7.324a6.3,6.3,0,0,0-.8,2.369c.186.072-1.021,7.934-1.021,7.934l-1.624,15.259s0,2.553,3.3,3.434,11.429.3,11.953-2.019l1.677-2.185s2.875,5.593,7.268,5.034A21.129,21.129,0,0,0,903,431.062l-.48-18.286-.319-13.181,6.86-11.271s-1.838-3.515-1.677-5.106.477-2.8-3.436-3.354a15.027,15.027,0,0,1-5.246-1.838,15,15,0,0,0-3.753-1.889s-1.1-2.042-1.861-1.343a25.1,25.1,0,0,1,.7,3.319,10.988,10.988,0,0,0,.24,2.583c.12.2,1.718,9.6.092,12.953,0,0-2.387,9.045-4.085,10.758s-5.43-10.171-5.43-10.171-1.971-10.6-1.652-12.09S883.511,375.249,883.511,375.249Z" transform="translate(-652.931 -289.224)" fill="#2d2d2d"/>
    <circle id="Ellipse_52" data-name="Ellipse 52" cx="1.172" cy="1.172" r="1.172" transform="translate(235.106 118.591)" fill="#3f3d56"/>
    <circle id="Ellipse_53" data-name="Ellipse 53" cx="1.172" cy="1.172" r="1.172" transform="translate(235.106 124.116)" fill="#3f3d56"/>
    <circle id="Ellipse_54" data-name="Ellipse 54" cx="1.172" cy="1.172" r="1.172" transform="translate(235.106 118.591)" fill="#c2c2c2" opacity="0.1"/>
    <circle id="Ellipse_55" data-name="Ellipse 55" cx="1.172" cy="1.172" r="1.172" transform="translate(235.106 124.116)" fill="#c2c2c2" opacity="0.1"/>
    <path id="Tracé_585" data-name="Tracé 585" d="M992.47,804.34s4.81.373,5.287.745S992.47,804.34,992.47,804.34Z" transform="translate(-745.661 -609.221)" fill="#646464" stroke="#959494" stroke-miterlimit="10" stroke-width="1" opacity="0.1"/>
    <path id="Tracé_586" data-name="Tracé 586" d="M880.3,789.53s1.021,1.276.587,1.864S880.3,789.53,880.3,789.53Z" transform="translate(-662.127 -598.192)" fill="#646464" stroke="#959494" stroke-miterlimit="10" stroke-width="1" opacity="0.1"/>
    <path id="Tracé_587" data-name="Tracé 587" d="M885.1,805.546s1.864-1.225,2.609-.411S885.1,805.546,885.1,805.546Z" transform="translate(-665.702 -609.605)" fill="#646464" stroke="#959494" stroke-miterlimit="10" stroke-width="1" opacity="0.1"/>
    <path id="Tracé_588" data-name="Tracé 588" d="M932.374,319.957a7.443,7.443,0,0,1-.24,1.892.85.85,0,0,1-.5-.832c.033-.3.235-.582.191-.883-.064-.465-.625-.654-.922-1.021a2.375,2.375,0,0,1-.255-1.664c.031-.574-.115-1.276-.654-1.473-.161-.059-.337-.064-.493-.13-.424-.179-.554-.7-.837-1.067a2.206,2.206,0,0,0-2.553-.368,12.139,12.139,0,0,1-1.149.48,1.5,1.5,0,0,1-1.2-.089c-.169-.107-.3-.255-.477-.362a1.648,1.648,0,0,0-1.833.447,6.336,6.336,0,0,1-1.532,1.32c-.283.128-.633.2-.766.48a1.007,1.007,0,0,0-.082.477,14.278,14.278,0,0,1-.089,2.974c-.133.625-.572,1.335-1.208,1.259a1.191,1.191,0,0,1-.232-.059,7.48,7.48,0,1,1,14.832-1.384Z" transform="translate(-689.77 -242.927)" opacity="0.1"/>
    <path id="Tracé_589" data-name="Tracé 589" d="M908.512,305.675c.191.043.373.143.569.168.636.077,1.075-.633,1.207-1.259a13.759,13.759,0,0,0,.092-2.974.974.974,0,0,1,.079-.477c.145-.276.5-.352.766-.48a6.61,6.61,0,0,0,1.532-1.32,1.631,1.631,0,0,1,1.83-.447c.171.1.309.255.477.363a1.532,1.532,0,0,0,1.205.089c.4-.117.766-.324,1.146-.48a2.217,2.217,0,0,1,2.553.365c.283.365.414.888.837,1.067.156.066.332.074.493.133.539.2.677.9.654,1.473a2.476,2.476,0,0,0,.255,1.664c.3.363.858.551.922,1.021.041.3-.158.582-.191.883a.848.848,0,0,0,.8.9c.664,0,1.075-.743,1.7-.98.255-.1.564-.115.766-.316a.845.845,0,0,0,.158-.692c-.125-.978-.909-1.828-.825-2.808.079-.939.95-1.759.766-2.683a2.175,2.175,0,0,0-.511-.911,2.95,2.95,0,0,0-1.042-.881,10.718,10.718,0,0,1-1.09-.375c-.965-.528-.962-1.907-1.532-2.846a2.5,2.5,0,0,0-2.328-1.159c-.717.071-1.368.452-2.078.58a5.387,5.387,0,0,1-2.88-.511A7.876,7.876,0,0,0,912,292.02a2.423,2.423,0,0,0-2.359,1.445c-.158.511-.079,1.057-.2,1.57a3.427,3.427,0,0,1-1.833,2.012c-.559.311-1.231.669-1.3,1.3a2.69,2.69,0,0,0,.319,1.156,2.944,2.944,0,0,1-.015,2.042c-.186.482-.5.906-.687,1.386a2.489,2.489,0,0,0,.066,2.042,1.9,1.9,0,0,0,1.167.957C907.659,306.056,907.976,305.558,908.512,305.675Z" transform="translate(-681.07 -227.69)" fill="#413a26"/>
    <g id="Groupe_457" data-name="Groupe 457" transform="translate(224.666 70.382)" opacity="0.1">
      <path id="Tracé_590" data-name="Tracé 590" d="M910.286,335.567c-.133.625-.574,1.335-1.21,1.259-.2-.026-.375-.125-.569-.168-.534-.117-.85.383-1.353.255a1.91,1.91,0,0,1-1.169-.957,2.211,2.211,0,0,1-.237-.835,2.331,2.331,0,0,0,.237,1.315,1.91,1.91,0,0,0,1.169.957c.511.117.819-.383,1.353-.255a5.766,5.766,0,0,0,.569.166c.636.079,1.077-.631,1.21-1.256a7.373,7.373,0,0,0,.122-1.677A6.28,6.28,0,0,1,910.286,335.567Z" transform="translate(-905.733 -329.611)"/>
      <path id="Tracé_591" data-name="Tracé 591" d="M908.432,318.05a2.938,2.938,0,0,0-.168-1.233,6.518,6.518,0,0,1-.294-.807,1.2,1.2,0,0,0-.026.13,2.734,2.734,0,0,0,.319,1.156A2.928,2.928,0,0,1,908.432,318.05Z" transform="translate(-907.375 -315.938)"/>
      <path id="Tracé_592" data-name="Tracé 592" d="M984,318.73c-.12.725-.707,1.407-.766,2.17a1.824,1.824,0,0,0,0,.393C983.367,320.4,984.155,319.613,984,318.73Z" transform="translate(-963.445 -317.963)"/>
      <path id="Tracé_593" data-name="Tracé 593" d="M976.493,339.83a.6.6,0,0,1-.146.286c-.189.2-.511.217-.766.317-.62.237-1.021.988-1.7.98a.855.855,0,0,1-.766-.592,1.324,1.324,0,0,0-.036.169.848.848,0,0,0,.8.9c.666,0,1.075-.743,1.7-.978.255-.1.567-.115.766-.317a.845.845,0,0,0,.158-.692C976.5,339.873,976.5,339.853,976.493,339.83Z" transform="translate(-955.889 -333.677)"/>
      <path id="Tracé_594" data-name="Tracé 594" d="M970.372,333.578c-.064-.465-.625-.654-.922-1.021a1.4,1.4,0,0,1-.281-.837,1.884,1.884,0,0,0,.281,1.317c.294.357.74.511.883.878A.819.819,0,0,0,970.372,333.578Z" transform="translate(-952.97 -327.637)"/>
      <path id="Tracé_595" data-name="Tracé 595" d="M935.438,319c.021-.574-.117-1.276-.656-1.473-.158-.059-.334-.066-.49-.13-.424-.179-.557-.7-.837-1.067a2.212,2.212,0,0,0-2.553-.368c-.383.156-.748.363-1.146.48a1.5,1.5,0,0,1-1.2-.089c-.168-.107-.306-.255-.477-.362a1.646,1.646,0,0,0-1.833.447,6.341,6.341,0,0,1-1.532,1.32c-.286.128-.633.2-.781.48a1,1,0,0,0-.079.477v.3a.727.727,0,0,1,.074-.3c.148-.276.5-.352.781-.48a6.612,6.612,0,0,0,1.532-1.32,1.634,1.634,0,0,1,1.833-.447c.171.1.309.255.477.36a1.491,1.491,0,0,0,1.2.089,11.8,11.8,0,0,0,1.146-.477,2.213,2.213,0,0,1,2.553.365c.281.363.414.888.837,1.067.156.066.332.074.49.133a1.225,1.225,0,0,1,.648,1.139Z" transform="translate(-919.223 -315.727)"/>
    </g>
    <g id="Groupe_458" data-name="Groupe 458" transform="translate(228.307 74.318)" opacity="0.1">
      <path id="Tracé_596" data-name="Tracé 596" d="M920,333.149a1.958,1.958,0,0,1,1.476-1.83,6.127,6.127,0,0,1,3.441.156c2.423.8-.306,3.686-.306,3.686s-1.815,1.787-3.508.539a2.653,2.653,0,0,1-.988-1.532A3.907,3.907,0,0,1,920,333.149Z" transform="translate(-919.997 -331.144)"/>
      <path id="Tracé_597" data-name="Tracé 597" d="M954.9,333.15a1.958,1.958,0,0,0-1.478-1.83,6.127,6.127,0,0,0-3.439.156c-2.423.8.306,3.686.306,3.686s1.813,1.787,3.508.539a2.653,2.653,0,0,0,.988-1.532A3.912,3.912,0,0,0,954.9,333.15Z" transform="translate(-941.583 -331.145)"/>
      <path id="Tracé_598" data-name="Tracé 598" d="M910.5,291.413v.12h4.424v-.143Z" transform="translate(-906.039 -291.317)"/>
      <path id="Tracé_599" data-name="Tracé 599" d="M942.642,334.479h.14v-.406a1.162,1.162,0,0,1,1.195,0v.363h.255V334.2h-.125s.051-.493-.781-.414c0,0-.669-.064-.654.36h-.153Z" transform="translate(-936.77 -333.104)"/>
    </g>
    <path id="Tracé_600" data-name="Tracé 600" d="M920,332.5a1.958,1.958,0,0,1,1.476-1.83,6.161,6.161,0,0,1,3.441.156c2.423.8-.306,3.686-.306,3.686s-1.815,1.787-3.508.539a2.637,2.637,0,0,1-.988-1.532A3.883,3.883,0,0,1,920,332.5Z" transform="translate(-691.69 -256.346)" fill="#2d2d2d"/>
    <path id="Tracé_601" data-name="Tracé 601" d="M954.9,332.5a1.958,1.958,0,0,0-1.478-1.83,6.15,6.15,0,0,0-3.439.156c-2.423.8.306,3.686.306,3.686s1.813,1.787,3.508.539a2.637,2.637,0,0,0,.988-1.532A3.886,3.886,0,0,0,954.9,332.5Z" transform="translate(-713.276 -256.346)" fill="#2d2d2d"/>
    <path id="Tracé_602" data-name="Tracé 602" d="M910.5,290.783v.123h4.424v-.146Z" transform="translate(-677.732 -216.53)" fill="#2d2d2d"/>
    <path id="Tracé_603" data-name="Tracé 603" d="M942.642,333.851h.14v-.406a1.169,1.169,0,0,1,1.195,0v.365h.255v-.24h-.125s.051-.49-.781-.414c0,0-.669-.061-.654.36h-.153Z" transform="translate(-708.463 -258.319)" fill="#2d2d2d"/>
    <rect id="Rectangle_290" data-name="Rectangle 290" width="1.45" height="32.651" transform="translate(30.314 116.717)" fill="#8f6d4a"/>
    <path id="Tracé_604" data-name="Tracé 604" d="M128.4,618.313l-.092,1.471-.128,2.075-.054.865L128,624.8l-.056.865-.128,2.076-1.463,23.607a4,4,0,0,1-3.99,3.753h-7.6a4,4,0,0,1-3.988-3.753l-1.47-23.607-.128-2.076-.054-.865-.125-2.083-.054-.865-.128-2.075-.092-1.47a2.07,2.07,0,0,1,2.068-2.2h15.544a2.068,2.068,0,0,1,2.065,2.2Z" transform="translate(-87.518 -469.044)" fill="#644f34"/>
    <path id="Tracé_605" data-name="Tracé 605" d="M101.606,590.46l-.128,2.076H82.238l-.128-2.076Z" transform="translate(-60.821 -439.72)" fill="#886e4d"/>
    <path id="Tracé_606" data-name="Tracé 606" d="M101.954,601.98l-.128,2.078H82.95l-.13-2.078Z" transform="translate(-61.349 -448.299)" fill="#886e4d"/>
    <path id="Tracé_607" data-name="Tracé 607" d="M102.306,613.51l-.128,2.075H83.67l-.13-2.075Z" transform="translate(-61.886 -456.886)" fill="#886e4d"/>
    <path id="Tracé_608" data-name="Tracé 608" d="M46.046,526.329C54.491,532.438,58.009,542,58.009,542s-10.178-.35-18.636-6.459S27.41,519.87,27.41,519.87,37.6,520.22,46.046,526.329Z" transform="translate(-26.97 -397.373)" fill="#8bef84"/>
    <path id="Tracé_609" data-name="Tracé 609" d="M27.46,519.87s10.564,5.872,13.951,10.722S58.046,542,58.046,542" transform="translate(-27.007 -397.373)" fill="none" stroke="#389531" stroke-miterlimit="10" stroke-width="2"/>
    <path id="Tracé_610" data-name="Tracé 610" d="M92.195,486.745a20.47,20.47,0,0,1,6.512,8.527A18.606,18.606,0,0,1,82.06,483.23,20.314,20.314,0,0,1,92.195,486.745Z" transform="translate(-67.668 -370.087)" fill="#8bef84"/>
    <path id="Tracé_611" data-name="Tracé 611" d="M82.06,483.18s5.749,3.191,7.592,5.833,9.055,6.209,9.055,6.209" transform="translate(-67.668 -370.049)" fill="none" stroke="#389531" stroke-miterlimit="10" stroke-width="2"/>
    <path id="Tracé_612" data-name="Tracé 612" d="M154.778,507.061a28.3,28.3,0,0,0-6.4,13.385A25.729,25.729,0,0,0,167.5,499.43,28.307,28.307,0,0,0,154.778,507.061Z" transform="translate(-117.058 -382.151)" fill="#8bef84"/>
    <path id="Tracé_613" data-name="Tracé 613" d="M167.5,499.43s-6.877,5.948-8.626,10.048-10.495,10.977-10.495,10.977" transform="translate(-117.058 -382.151)" fill="none" stroke="#389531" stroke-miterlimit="10" stroke-width="2"/>
  </g>
</svg>
