<svg xmlns="http://www.w3.org/2000/svg" xmlns:xlink="http://www.w3.org/1999/xlink" width="503.41" height="661.982" viewBox="0 0 503.41 661.982">
  <defs>
    <linearGradient id="linear-gradient" y1="0.5" x2="1" y2="0.5" gradientUnits="objectBoundingBox">
      <stop offset="0" stop-color="#ff9f55"/>
      <stop offset="1" stop-color="#ffd255"/>
    </linearGradient>
  </defs>
  <g id="Groupe_1034" data-name="Groupe 1034" transform="translate(-862.59 -105.555)">
    <g id="Groupe_1028" data-name="Groupe 1028" transform="translate(3918.625 44.535)">
      <g id="Groupe_1029" data-name="Groupe 1029" transform="translate(-2671.035 102.312)">
        <g id="Groupe_988" data-name="Groupe 988" transform="translate(11.582 89.299)">
          <g id="Groupe_980" data-name="Groupe 980" transform="translate(8.851 8.835)">
            <path id="Tracé_1859" data-name="Tracé 1859" d="M-3056.231,814.848a80.541,80.541,0,0,0,14.253-1.507c7.631-1.441,18.884-4.593,29.155-11.422,10.17-6.762,23.359-9.128,32.631-9.923a108.414,108.414,0,0,1,17.875-.1l.064-.639a109.11,109.11,0,0,0-17.993.1c-9.348.8-22.649,3.191-32.932,10.028-10.177,6.766-21.334,9.892-28.9,11.323a79.931,79.931,0,0,1-14.142,1.5Z" transform="translate(3056.231 -790.939)" fill="#9ee1ff"/>
          </g>
          <g id="Groupe_984" data-name="Groupe 984" transform="translate(0 0)">
            <g id="Groupe_983" data-name="Groupe 983">
              <g id="Groupe_982" data-name="Groupe 982">
                <g id="Groupe_981" data-name="Groupe 981">
                  <path id="Tracé_1860" data-name="Tracé 1860" d="M-3059.23,780.208c6.778,7.657,35.572,12.386,52.662,3.457,9.445-4.935,16.935-10.7,23.544-15.794,8.614-6.634,16.053-12.363,25.179-14.422l.8-.18-.708-.411a82.3,82.3,0,0,0-32.592-9.007,78.606,78.606,0,0,0-32.587,4.639c-13.01,4.784-25.186,13.141-36.191,24.838l.234.22-.234-.22c-1.938,2.06-2.105,4.28-.483,6.42C-3059.491,779.9-3059.365,780.056-3059.23,780.208Zm100.422-27.19c-8.889,2.238-16.192,7.862-24.608,14.344-6.588,5.074-14.056,10.825-23.45,15.734-7.718,4.033-18.808,5.619-30.427,4.352-9.835-1.073-18.321-4.124-21.461-7.669-.122-.139-.236-.278-.342-.417-1.428-1.883-1.28-3.764.439-5.591,24.75-26.306,50.77-30.441,68.24-29.278A83.237,83.237,0,0,1-2958.808,753.017Z" transform="translate(3060.713 -743.667)" fill="#9ee1ff"/>
                </g>
              </g>
            </g>
          </g>
          <g id="Groupe_985" data-name="Groupe 985" transform="translate(72.264 1.396)">
            <rect id="Rectangle_506" data-name="Rectangle 506" width="0.643" height="11.874" transform="matrix(-0.827, -0.562, 0.562, -0.827, 0.531, 10.18)" fill="#9ee1ff"/>
          </g>
          <g id="Groupe_986" data-name="Groupe 986" transform="translate(64.26 13.371)">
            <rect id="Rectangle_507" data-name="Rectangle 507" width="16.368" height="0.643" transform="translate(12.027 11.574) rotate(-137.291)" fill="#9ee1ff"/>
          </g>
          <g id="Groupe_987" data-name="Groupe 987" transform="translate(51.757 1.134)">
            <rect id="Rectangle_508" data-name="Rectangle 508" width="0.643" height="18.441" transform="translate(0.641 18.438) rotate(-175.7)" fill="#9ee1ff"/>
          </g>
        </g>
        <g id="Groupe_997" data-name="Groupe 997">
          <g id="Groupe_989" data-name="Groupe 989" transform="translate(23.358 1.388)">
            <path id="Tracé_1861" data-name="Tracé 1861" d="M-3076.152,367.508a84.913,84.913,0,0,0,17.639-9.533,101.239,101.239,0,0,0,31.263-34.316c10.893-19.793,22.741-32.274,30.762-39.259,8.69-7.568,14.884-10.493,14.946-10.522l-.261-.56c-.062.029-6.316,2.979-15.067,10.6-8.065,7.02-19.977,19.561-30.921,39.447a100.618,100.618,0,0,1-31.073,34.1,84.262,84.262,0,0,1-17.494,9.46Z" transform="translate(3076.357 -273.318)" fill="#9ee1ff"/>
          </g>
          <g id="Groupe_993" data-name="Groupe 993">
            <g id="Groupe_992" data-name="Groupe 992">
              <g id="Groupe_991" data-name="Groupe 991">
                <g id="Groupe_990" data-name="Groupe 990">
                  <path id="Tracé_1862" data-name="Tracé 1862" d="M-3077.625,359.915l1.741.318a82.087,82.087,0,0,0,14.548.878,105.05,105.05,0,0,0,33.933-6.261,95.035,95.035,0,0,0,38.859-26.736c13.441-15.257,23.287-35.608,29.262-60.484l.067-.28-.275-.087a48.185,48.185,0,0,0-23.376.057,55.467,55.467,0,0,0-21.648,10.748c-8.27,6.581-15.527,15.775-21.571,27.326-13.617,26.025-26.457,39.393-34.83,46.024-9.036,7.157-14.905,8.2-14.964,8.206Zm117.673-92.141c-13.506,55.866-44.225,77.868-67.638,86.487a104.416,104.416,0,0,1-33.73,6.233,89.82,89.82,0,0,1-12.969-.648c2.311-.73,7.178-2.732,13.757-7.943,8.42-6.669,21.326-20.1,34.994-46.222,13.589-25.97,30.784-34.868,42.817-37.76A48.218,48.218,0,0,1-2959.951,267.774Z" transform="translate(3077.625 -265.89)" fill="#9ee1ff"/>
                </g>
              </g>
            </g>
          </g>
          <g id="Groupe_994" data-name="Groupe 994" transform="translate(68.115 56.927)">
            <rect id="Rectangle_509" data-name="Rectangle 509" width="0.617" height="24.712" transform="translate(0.027 1.694) rotate(-92.498)" fill="#9ee1ff"/>
          </g>
          <g id="Groupe_995" data-name="Groupe 995" transform="translate(75.655 10.391)">
            <rect id="Rectangle_510" data-name="Rectangle 510" width="0.617" height="34.676" transform="translate(0.617 34.676) rotate(-179.938)" fill="#9ee1ff"/>
          </g>
          <g id="Groupe_996" data-name="Groupe 996" transform="translate(91.785 22.073)">
            <rect id="Rectangle_511" data-name="Rectangle 511" width="0.617" height="20.021" transform="translate(0.032 1.662) rotate(-92.993)" fill="#9ee1ff"/>
          </g>
        </g>
      </g>
      <g id="Groupe_1033" data-name="Groupe 1033" transform="translate(-3056.035 152.312)">
        <g id="Groupe_988-2" data-name="Groupe 988" transform="translate(3.161 89.299)">
          <g id="Groupe_980-2" data-name="Groupe 980" transform="translate(0.838 8.835)">
            <path id="Tracé_1859-2" data-name="Tracé 1859" d="M-2962.253,814.848a80.541,80.541,0,0,1-14.253-1.507c-7.631-1.441-18.884-4.593-29.155-11.422-10.17-6.762-23.359-9.128-32.631-9.923a108.414,108.414,0,0,0-17.875-.1l-.064-.639a109.11,109.11,0,0,1,17.993.1c9.348.8,22.649,3.191,32.932,10.028,10.177,6.766,21.334,9.892,28.9,11.323a79.931,79.931,0,0,0,14.142,1.5Z" transform="translate(3056.231 -790.939)" fill="#9ee1ff"/>
          </g>
          <g id="Groupe_984-2" data-name="Groupe 984" transform="translate(0 0)">
            <g id="Groupe_983-2" data-name="Groupe 983">
              <g id="Groupe_982-2" data-name="Groupe 982">
                <g id="Groupe_981-2" data-name="Groupe 981">
                  <path id="Tracé_1860-2" data-name="Tracé 1860" d="M-2958.53,780.207c-6.778,7.657-35.572,12.386-52.662,3.457-9.445-4.935-16.935-10.7-23.544-15.794-8.614-6.634-16.053-12.363-25.179-14.422l-.8-.18.708-.411a82.3,82.3,0,0,1,32.592-9.007,78.606,78.606,0,0,1,32.587,4.639c13.01,4.784,25.186,13.141,36.191,24.838l-.234.22.234-.22c1.938,2.06,2.105,4.28.483,6.42C-2958.269,779.9-2958.4,780.056-2958.53,780.207Zm-100.422-27.19c8.889,2.238,16.192,7.862,24.608,14.344,6.588,5.074,14.056,10.825,23.45,15.734,7.718,4.033,18.808,5.619,30.427,4.352,9.835-1.073,18.321-4.124,21.461-7.669.122-.139.236-.278.342-.417,1.428-1.883,1.28-3.764-.439-5.591-24.75-26.306-50.77-30.441-68.24-29.278A83.237,83.237,0,0,0-3058.952,753.017Z" transform="translate(3060.713 -743.667)" fill="#9ee1ff"/>
                </g>
              </g>
            </g>
          </g>
          <g id="Groupe_985-2" data-name="Groupe 985" transform="translate(24.193 1.396)">
            <rect id="Rectangle_506-2" data-name="Rectangle 506" width="0.643" height="11.874" transform="matrix(0.827, -0.562, 0.562, 0.827, 0, 0.361)" fill="#9ee1ff"/>
          </g>
          <g id="Groupe_986-2" data-name="Groupe 986" transform="translate(26.943 13.371)">
            <rect id="Rectangle_507-2" data-name="Rectangle 507" width="16.368" height="0.643" transform="translate(0 11.102) rotate(-42.709)" fill="#9ee1ff"/>
          </g>
          <g id="Groupe_987-2" data-name="Groupe 987" transform="translate(49.886 1.134)">
            <rect id="Rectangle_508-2" data-name="Rectangle 508" width="0.643" height="18.441" transform="translate(0 0.048) rotate(-4.3)" fill="#9ee1ff"/>
          </g>
        </g>
        <g id="Groupe_997-2" data-name="Groupe 997" transform="translate(0 0)">
          <g id="Groupe_989-2" data-name="Groupe 989" transform="translate(0.237 1.388)">
            <path id="Tracé_1861-2" data-name="Tracé 1861" d="M-2981.747,367.507a84.911,84.911,0,0,1-17.639-9.533,101.239,101.239,0,0,1-31.263-34.316c-10.893-19.793-22.741-32.274-30.762-39.259-8.69-7.568-14.884-10.493-14.946-10.522l.261-.56c.062.029,6.316,2.979,15.067,10.6,8.065,7.02,19.977,19.561,30.921,39.447a100.618,100.618,0,0,0,31.073,34.1,84.262,84.262,0,0,0,17.494,9.46Z" transform="translate(3076.356 -273.318)" fill="#9ee1ff"/>
          </g>
          <g id="Groupe_993-2" data-name="Groupe 993">
            <g id="Groupe_992-2" data-name="Groupe 992">
              <g id="Groupe_991-2" data-name="Groupe 991">
                <g id="Groupe_990-2" data-name="Groupe 990">
                  <path id="Tracé_1862-2" data-name="Tracé 1862" d="M-2959.214,359.915l-1.741.318a82.087,82.087,0,0,1-14.548.878,105.05,105.05,0,0,1-33.933-6.261,95.035,95.035,0,0,1-38.859-26.736c-13.441-15.257-23.287-35.607-29.262-60.484l-.067-.28.275-.087a48.185,48.185,0,0,1,23.376.057,55.467,55.467,0,0,1,21.648,10.748c8.27,6.581,15.527,15.775,21.571,27.326,13.617,26.025,26.457,39.393,34.83,46.024,9.036,7.157,14.905,8.2,14.964,8.206Zm-117.673-92.141c13.506,55.866,44.225,77.868,67.638,86.487a104.416,104.416,0,0,0,33.73,6.233,89.82,89.82,0,0,0,12.969-.648c-2.311-.73-7.178-2.732-13.757-7.943-8.42-6.669-21.326-20.1-34.994-46.222-13.589-25.97-30.784-34.868-42.817-37.76A48.218,48.218,0,0,0-3076.887,267.774Z" transform="translate(3077.624 -265.89)" fill="#9ee1ff"/>
                </g>
              </g>
            </g>
          </g>
          <g id="Groupe_994-2" data-name="Groupe 994" transform="translate(25.58 56.927)">
            <rect id="Rectangle_509-2" data-name="Rectangle 509" width="0.617" height="24.712" transform="translate(0 0.617) rotate(-87.502)" fill="#9ee1ff"/>
          </g>
          <g id="Groupe_995-2" data-name="Groupe 995" transform="translate(42.101 10.391)">
            <rect id="Rectangle_510-2" data-name="Rectangle 510" width="0.617" height="34.676" transform="translate(0 0.001) rotate(-0.062)" fill="#9ee1ff"/>
          </g>
          <g id="Groupe_996-2" data-name="Groupe 996" transform="translate(6.599 22.073)">
            <rect id="Rectangle_511-2" data-name="Rectangle 511" width="0.617" height="20.021" transform="translate(0 0.616) rotate(-87.007)" fill="#9ee1ff"/>
          </g>
        </g>
      </g>
      <g id="Groupe_998" data-name="Groupe 998" transform="translate(-3002.552 90.746)">
        <rect id="Rectangle_512" data-name="Rectangle 512" width="395.908" height="279.293" rx="16" transform="translate(395.908 279.293) rotate(180)" fill="#c9e4ff"/>
      </g>
      <g id="Groupe_999" data-name="Groupe 999" transform="translate(-2987.046 61.021)">
        <rect id="Rectangle_513" data-name="Rectangle 513" width="364.898" height="265.251" transform="translate(364.898 265.251) rotate(180)" fill="#fff"/>
      </g>
      <g id="Groupe_1000" data-name="Groupe 1000" transform="translate(-2987.046 61.021)">
        <rect id="Rectangle_514" data-name="Rectangle 514" width="364.898" height="32.038" transform="translate(364.898 32.038) rotate(180)" fill="url(#linear-gradient)"/>
      </g>
      <g id="Groupe_1001" data-name="Groupe 1001" transform="translate(-2666.554 333.529)">
        <path id="Tracé_1863" data-name="Tracé 1863" d="M-943.684,1531.792c0,7.053,6.723,12.771,15.016,12.771s15.016-5.718,15.016-12.771-6.723-12.771-15.016-12.771S-943.684,1524.739-943.684,1531.792Z" transform="translate(943.684 -1519.021)" fill="#70ceff"/>
      </g>
      <rect id="Rectangle_515" data-name="Rectangle 515" width="52.045" height="12.106" rx="6.053" transform="translate(-2971.806 70.986)" fill="#f5f7ff"/>
      <g id="Groupe_1002" data-name="Groupe 1002" transform="translate(-2960.312 133.495)">
        <rect id="Rectangle_516" data-name="Rectangle 516" width="151.975" height="6.567" transform="translate(0 0)" fill="#e6e6e6"/>
        <rect id="Rectangle_517" data-name="Rectangle 517" width="173.731" height="6.567" transform="translate(0 11.827)" fill="#e6e6e6"/>
      </g>
      <rect id="Rectangle_518" data-name="Rectangle 518" width="191.046" height="6.567" transform="translate(-2960.312 168.921)" fill="#e6e6e6"/>
      <rect id="Rectangle_519" data-name="Rectangle 519" width="161.13" height="6.567" transform="translate(-2960.312 120.278)" fill="#78c2ff"/>
      <rect id="Rectangle_520" data-name="Rectangle 520" width="141.698" height="6.567" transform="translate(-2960.312 180.749)" fill="#e6e6e6"/>
      <rect id="Rectangle_521" data-name="Rectangle 521" width="89.848" height="6.567" transform="translate(-2960.312 206.449)" fill="#e6e6e6"/>
      <rect id="Rectangle_522" data-name="Rectangle 522" width="161.418" height="6.567" transform="translate(-2960.312 218.276)" fill="#e6e6e6"/>
      <rect id="Rectangle_523" data-name="Rectangle 523" width="114.859" height="6.567" transform="translate(-2960.312 246.537)" fill="#e6e6e6"/>
      <rect id="Rectangle_524" data-name="Rectangle 524" width="140.255" height="6.567" transform="translate(-2960.312 258.364)" fill="#e6e6e6"/>
      <rect id="Rectangle_525" data-name="Rectangle 525" width="153.53" height="6.567" transform="translate(-2960.312 286.624)" fill="#e6e6e6"/>
      <rect id="Rectangle_526" data-name="Rectangle 526" width="80.709" height="6.567" transform="translate(-2960.312 298.452)" fill="#e6e6e6"/>
      <rect id="Rectangle_527" data-name="Rectangle 527" width="4.801" height="18.394" transform="translate(-2969.635 133.495)" fill="#78c2ff"/>
      <rect id="Rectangle_528" data-name="Rectangle 528" width="4.801" height="18.394" transform="translate(-2969.635 168.921)" fill="#78c2ff"/>
      <rect id="Rectangle_529" data-name="Rectangle 529" width="4.801" height="18.394" transform="translate(-2969.635 206.449)" fill="#78c2ff"/>
      <rect id="Rectangle_530" data-name="Rectangle 530" width="4.801" height="18.394" transform="translate(-2969.635 246.537)" fill="#78c2ff"/>
      <rect id="Rectangle_531" data-name="Rectangle 531" width="4.801" height="18.394" transform="translate(-2969.635 286.624)" fill="#78c2ff"/>
      <g id="Groupe_1007" data-name="Groupe 1007" transform="translate(-2726.624 282.665)">
        <g id="Groupe_1003" data-name="Groupe 1003" transform="translate(0)">
          <rect id="Rectangle_532" data-name="Rectangle 532" width="26.313" height="26.314" rx="13.157" fill="#78c2ff"/>
        </g>
        <g id="Groupe_1006" data-name="Groupe 1006" transform="translate(5.222 7.361)">
          <g id="Groupe_1005" data-name="Groupe 1005">
            <g id="Groupe_1004" data-name="Groupe 1004">
              <path id="Tracé_1864" data-name="Tracé 1864" d="M-1230.035,1297.86l-6.652-5.8a1.31,1.31,0,0,1-.127-1.849,1.311,1.311,0,0,1,1.849-.127l4.7,4.1,6.708-7.482a1.311,1.311,0,0,1,1.85-.1,1.31,1.31,0,0,1,.1,1.85Z" transform="translate(1237.137 -1286.268)" fill="#f3f3f3"/>
            </g>
          </g>
        </g>
      </g>
      <g id="Groupe_1010" data-name="Groupe 1010" transform="translate(-2726.636 242.564)">
        <g id="Groupe_1009" data-name="Groupe 1009" transform="translate(0)">
          <g id="Groupe_1008" data-name="Groupe 1008">
            <path id="Tracé_1865" data-name="Tracé 1865" d="M-1244.8,1058.672h-14.346a6,6,0,0,1-6-6V1038.33a6,6,0,0,1,6-6h14.346a6,6,0,0,1,6,6v14.346A6,6,0,0,1-1244.8,1058.672ZM-1259.146,1034a4.331,4.331,0,0,0-4.326,4.327v14.346a4.331,4.331,0,0,0,4.326,4.327h14.346a4.333,4.333,0,0,0,4.328-4.327V1038.33A4.333,4.333,0,0,0-1244.8,1034Z" transform="translate(1265.142 -1032.333)" fill="#78c2ff"/>
          </g>
        </g>
      </g>
      <g id="Groupe_1013" data-name="Groupe 1013" transform="translate(-2687.019 202.477)">
        <g id="Groupe_1012" data-name="Groupe 1012" transform="translate(0 0)">
          <g id="Groupe_1011" data-name="Groupe 1011">
            <path id="Tracé_1866" data-name="Tracé 1866" d="M-1032.834,844.192h-14.346a6,6,0,0,1-6-6V823.85a6,6,0,0,1,6-6h14.346a6,6,0,0,1,6,6v14.345A6,6,0,0,1-1032.834,844.192Zm-14.346-24.67a4.333,4.333,0,0,0-4.328,4.327v14.345a4.333,4.333,0,0,0,4.328,4.328h14.346a4.331,4.331,0,0,0,4.326-4.328V823.85a4.331,4.331,0,0,0-4.326-4.327Z" transform="translate(1053.178 -817.853)" fill="#78c2ff"/>
          </g>
        </g>
      </g>
      <g id="Groupe_1016" data-name="Groupe 1016" transform="translate(-2687.019 282.652)">
        <g id="Groupe_1015" data-name="Groupe 1015" transform="translate(0)">
          <g id="Groupe_1014" data-name="Groupe 1014">
            <path id="Tracé_1867" data-name="Tracé 1867" d="M-1032.834,1273.153h-14.346a6,6,0,0,1-6-6v-14.345a6,6,0,0,1,6-6h14.346a6,6,0,0,1,6,6v14.345A6,6,0,0,1-1032.834,1273.153Zm-14.346-24.669a4.333,4.333,0,0,0-4.328,4.328v14.345a4.333,4.333,0,0,0,4.328,4.327h14.346a4.331,4.331,0,0,0,4.326-4.327v-14.345a4.331,4.331,0,0,0-4.326-4.328Z" transform="translate(1053.178 -1246.814)" fill="#78c2ff"/>
          </g>
        </g>
      </g>
      <g id="Groupe_1021" data-name="Groupe 1021" transform="translate(-2687.005 242.577)">
        <g id="Groupe_1017" data-name="Groupe 1017" transform="translate(0)">
          <path id="Rectangle_533" data-name="Rectangle 533" d="M13.156,0h0A13.156,13.156,0,0,1,26.314,13.156v0A13.156,13.156,0,0,1,13.157,26.313h0A13.157,13.157,0,0,1,0,13.156v0A13.156,13.156,0,0,1,13.156,0Z" fill="#78c2ff"/>
        </g>
        <g id="Groupe_1020" data-name="Groupe 1020" transform="translate(5.222 7.361)">
          <g id="Groupe_1019" data-name="Groupe 1019">
            <g id="Groupe_1018" data-name="Groupe 1018">
              <path id="Tracé_1868" data-name="Tracé 1868" d="M-1018.064,1083.378l-6.652-5.8a1.31,1.31,0,0,1-.127-1.849,1.311,1.311,0,0,1,1.849-.127l4.7,4.1,6.708-7.482a1.31,1.31,0,0,1,1.85-.1,1.31,1.31,0,0,1,.1,1.85Z" transform="translate(1025.166 -1071.786)" fill="#f3f3f3"/>
            </g>
          </g>
        </g>
      </g>
      <g id="Groupe_1026" data-name="Groupe 1026" transform="translate(-2726.624 202.489)">
        <g id="Groupe_1022" data-name="Groupe 1022" transform="translate(0)">
          <path id="Rectangle_534" data-name="Rectangle 534" d="M13.157,0h0A13.156,13.156,0,0,1,26.313,13.156v0A13.156,13.156,0,0,1,13.157,26.314h0A13.156,13.156,0,0,1,0,13.157v0A13.157,13.157,0,0,1,13.157,0Z" fill="#78c2ff"/>
        </g>
        <g id="Groupe_1025" data-name="Groupe 1025" transform="translate(5.222 7.361)">
          <g id="Groupe_1024" data-name="Groupe 1024">
            <g id="Groupe_1023" data-name="Groupe 1023">
              <path id="Tracé_1869" data-name="Tracé 1869" d="M-1230.035,868.9l-6.652-5.8a1.311,1.311,0,0,1-.127-1.849,1.311,1.311,0,0,1,1.849-.127l4.7,4.1,6.708-7.483a1.31,1.31,0,0,1,1.85-.1,1.31,1.31,0,0,1,.1,1.85Z" transform="translate(1237.137 -857.304)" fill="#f3f3f3"/>
            </g>
          </g>
        </g>
      </g>
      <g id="Groupe_1027" data-name="Groupe 1027" transform="translate(-2732.427 109.837)">
        <path id="Tracé_1870" data-name="Tracé 1870" d="M-1218.587,360.971a38.616,38.616,0,0,1-9.085,24.94,38.687,38.687,0,0,1-29.683,13.828,38.707,38.707,0,0,1-30.68-15.065,38.591,38.591,0,0,1-8.091-23.7,38.771,38.771,0,0,1,38.77-38.77A38.77,38.77,0,0,1-1218.587,360.971Z" transform="translate(1296.126 -322.201)" fill="#eef0f7"/>
        <path id="Tracé_1871" data-name="Tracé 1871" d="M-1194.431,455.75a4.776,4.776,0,0,0-.651-.382.312.312,0,0,0-.036-.024l0,0c-1.7-.941-6.69-3.418-16.528-6.242l-.008,0c-1.784-.544-3.133-.9-3.6-1.017l-.834-1.327a41.3,41.3,0,0,1-.067-4.667c1.385-1.607,2.635-4.12,3.338-8.039.224.169.4-.2.4-.2-.124-.221,1.871-5.091,1.511-6.19-.2-.624-.618-.545-.942-.363.048-.284.1-.579.148-.893,0,0,.791-7.468-2.99-11.629a4.178,4.178,0,0,0-1.782-.468c-6.07-1.858-9.713-1.029-11.993-.052-3.38,2.769-3.637,7.482-3.483,10.078.068.614.138,1.233.207,1.835,0,.012,0,.018,0,.018.029.24.057.474.085.706-.316-.2-.729-.295-.959.322-.4,1.083,1.072,5.947,1.256,6.247,0,0,.318.5.568.273,0,0,0-.009,0-.011.7,4.273,1.954,6.912,3.274,8.534-.1,1.735-.346,3.774-.522,5.076l-1.5,1.568h0c-.078.026-.158.052-.239.08v-.01c-16.97,4.528-21.766,7.681-21.766,7.681a4.481,4.481,0,0,0-1.3,2.011,38.706,38.706,0,0,0,30.68,15.065,38.686,38.686,0,0,0,29.683-13.828C-1193.208,458.121-1193.734,456.446-1194.431,455.75Z" transform="translate(1260.93 -396.194)" fill="#78c2ff"/>
      </g>
    </g>
    <g id="Groupe_979" data-name="Groupe 979" transform="translate(418.191 176.133)">
      <g id="Groupe_504" data-name="Groupe 504" transform="translate(536.442 126.859)">
        <g id="Groupe_492" data-name="Groupe 492" transform="translate(181.439 404.634)">
          <path id="Tracé_627" data-name="Tracé 627" d="M578.99,453.412H537.362l.267-5.1h41.628Z" transform="translate(-537.362 -393.502)" fill="#2d2d2d"/>
          <path id="Tracé_628" data-name="Tracé 628" d="M572.9,413.905l1,34.964-1.976,15.823L543.32,447.426l-1.8-37.544" transform="translate(-535.591 -409.882)" fill="#ffb9a9"/>
          <path id="Tracé_629" data-name="Tracé 629" d="M545.032,436.206s-4.17,10.035-5.989,12.835a9.143,9.143,0,0,0-1.528,5.481h41.61c.727-4.243-3.437-18.316-3.437-18.316S552.824,437.685,545.032,436.206Z" transform="translate(-537.304 -398.662)" fill="#bae892"/>
          <line id="Ligne_8" data-name="Ligne 8" x2="9.911" transform="translate(17.955 40.942)" fill="none" stroke="#2d2d2d" stroke-linejoin="round" stroke-width="1"/>
          <line id="Ligne_9" data-name="Ligne 9" x2="10.602" transform="translate(17.54 44.306)" fill="none" stroke="#2d2d2d" stroke-linejoin="round" stroke-width="1"/>
          <line id="Ligne_10" data-name="Ligne 10" x2="11.346" transform="translate(17.162 47.67)" fill="none" stroke="#2d2d2d" stroke-linejoin="round" stroke-width="1"/>
        </g>
        <path id="Tracé_630" data-name="Tracé 630" d="M506.376,157.773c.976,5.639,1.837,11.187,7.12,14.706a20.359,20.359,0,0,0,9.514,3.045,22.551,22.551,0,0,0,8.262-.66A35.467,35.467,0,0,0,538.7,171.4c1.7-.963,3.544-2.082,4.164-3.939.3-.9.272-1.885.486-2.814a11.381,11.381,0,0,1,2.3-4.106c1.891-2.514,3.775-5.291,3.881-8.438a10.831,10.831,0,0,0-.632-3.791,21.262,21.262,0,0,0-6.9-9.386,57.891,57.891,0,0,0-10.012-6.213,17.712,17.712,0,0,0-5.033-2,15.773,15.773,0,0,0-5.274.183c-4.528.734-9.088,2.032-12.763,4.776a12.563,12.563,0,0,0-4.547,5.842c-1.1,3.256-.344,6.832.665,10.119A50.125,50.125,0,0,1,506.376,157.773Z" transform="translate(-370.217 -124.301)" fill="#031628"/>
        <g id="Groupe_493" data-name="Groupe 493" transform="translate(92.456 398.724)">
          <path id="Tracé_631" data-name="Tracé 631" d="M535.34,452.844v-2.995H479.923a5.38,5.38,0,0,1-4.618-2.621l-.334-.06v4.818a.706.706,0,0,0,.19.483l.115.123A4.144,4.144,0,0,0,478.3,453.9h55.989A1.055,1.055,0,0,0,535.34,452.844Z" transform="translate(-474.971 -388.08)" fill="#2d2d2d"/>
          <path id="Tracé_632" data-name="Tracé 632" d="M536.684,409.761l-3.56,40.733-.926,15.965H478.269a2.26,2.26,0,0,1-2.259-2.26h0a2.261,2.261,0,0,1,1.448-2.109l24.749-11.6-2.269-44.756" transform="translate(-474.528 -405.738)" fill="#ffb9a9"/>
          <path id="Tracé_633" data-name="Tracé 633" d="M502.708,435.236,476.57,449.454a2.85,2.85,0,0,0-1.6,2.646h0a3.106,3.106,0,0,0,2.991,2.835H535.34l-1.72-17.386S513.229,441.155,502.708,435.236Z" transform="translate(-474.971 -393.165)" fill="#bae892"/>
          <line id="Ligne_11" data-name="Ligne 11" x2="3.023" y2="5.102" transform="translate(12.71 50.245)" fill="none" stroke="#2d2d2d" stroke-linejoin="round" stroke-width="1"/>
          <line id="Ligne_12" data-name="Ligne 12" x2="3.236" y2="5.369" transform="translate(15.733 48.6)" fill="none" stroke="#2d2d2d" stroke-linejoin="round" stroke-width="1"/>
          <line id="Ligne_13" data-name="Ligne 13" x2="3.236" y2="5.257" transform="translate(18.97 46.852)" fill="none" stroke="#2d2d2d" stroke-linejoin="round" stroke-width="1"/>
        </g>
        <path id="Tracé_635" data-name="Tracé 635" d="M524.351,236.307c3.784,1.827,10.945,4.809,14.73,6.636,2.232,1.078,6.05,3.209,5.863,4.3-.482,2.8-6.305-1.844-6.549-.428-.148.861,4.734,3.032,7.234,4.157,2.231,1,5.124,2.667,4.942,4.2-.234,1.97-12.712-3.758-12.712-3.758s12.9,6.573,12.618,8.214c-.408,2.365-13.4-4.22-13.4-4.22s10.912,5.8,10.611,7.549-8.239-3.247-11.726-4.517c2.295,1.493,8.937,5.993,8.048,6.914-.793.822-5.549-1.652-6.759-2.141a126.324,126.324,0,0,1-19.24-9.641" transform="translate(-364.17 -79.228)" fill="#ffb9a9"/>
        <path id="Tracé_636" data-name="Tracé 636" d="M522.274,240.743s4.808,4.528,9.784,3.651" transform="translate(-362.354 -77.337)" fill="none" stroke="#ea8f86" stroke-linejoin="round" stroke-width="0.75"/>
        <g id="Groupe_494" data-name="Groupe 494" transform="translate(0 95.241)">
          <path id="Tracé_637" data-name="Tracé 637" d="M500.29,192.949s-23.158,28.69-30.9,36.886c-6.257,6.626-42.249,14.207-42.249,14.207l-1.227,18.23c9.62-.05,52.8-.579,71.5-19.277,15.4-15.4,34.255-39.108,34.255-39.108" transform="translate(-403.423 -192.949)" fill="#ffb9a9"/>
          <path id="Tracé_638" data-name="Tracé 638" d="M443.29,228.039c-4.644.154-11.03.69-15.676.762-2.259.036-6.914.054-7.392.994-.911,1.8,5.812,1.519,5.353,2.814-.28.786-5.291.563-7.777.288-2.218-.245-4.985-.551-5.651.763-.578,1.138,12.425,2.8,12.425,2.8s-13.867-.555-14.4.944c-.766,2.161,14.266,2.7,14.266,2.7s-13.036-.183-13.6,1.416,9.673,1.753,13.7,2.162c-2.493.13-11.605-.021-12.019,1.144s4.293,2.1,5.481,2.195c7.178.561,21.549.19,21.549.19" transform="translate(-410.145 -177.993)" fill="#ffb9a9"/>
          <path id="Tracé_639" data-name="Tracé 639" d="M422.241,240.379s5.109-6.518,11.655-6.2" transform="translate(-404.99 -175.381)" fill="none" stroke="#ea8f86" stroke-linejoin="round" stroke-width="0.75"/>
          <line id="Ligne_14" data-name="Ligne 14" y1="24.562" x2="20.52" transform="translate(69.692 8.188)" fill="none" stroke="#ea8f86" stroke-linejoin="round" stroke-width="0.75"/>
          <line id="Ligne_15" data-name="Ligne 15" y1="22.409" x2="21.102" transform="translate(94.278 27.637)" fill="none" stroke="#ea8f86" stroke-linejoin="round" stroke-width="0.75"/>
        </g>
        <g id="Groupe_495" data-name="Groupe 495" transform="translate(112.532 173.428)">
          <path id="Tracé_640" data-name="Tracé 640" d="M489.771,261.335c-1.723,2.345.17,248.478.17,248.478h42.787l13.966-185.333s4.5-40.964-6.512-76.711" transform="translate(-489.047 -247.77)" fill="#1e2e59"/>
          <path id="Tracé_641" data-name="Tracé 641" d="M574.946,261.335c3.694,5.027,14.576,248.478,14.576,248.478H546.735L523.3,324.481s-4.5-40.964,6.514-76.711" transform="translate(-474.834 -247.77)" fill="#1e2e59"/>
          <path id="Tracé_642" data-name="Tracé 642" d="M529.026,360.8s-6.752-72.438-6.752-93" transform="translate(-474.885 -239.235)" fill="none" stroke="#2f5fa5" stroke-linejoin="round" stroke-width="0.75"/>
          <path id="Tracé_643" data-name="Tracé 643" d="M516.54,267.795s1.138,27.958,2.616,34.668c.65,2.949,7.13,2.345,7.13,2.345" transform="translate(-477.329 -239.235)" fill="none" stroke="#2f5fa5" stroke-linejoin="round" stroke-width="0.75"/>
          <path id="Tracé_644" data-name="Tracé 644" d="M571.678,501.981S560.406,287.55,553.5,266.147" transform="translate(-461.578 -239.937)" fill="none" stroke="#2f5fa5" stroke-linejoin="round" stroke-width="0.75"/>
          <path id="Tracé_645" data-name="Tracé 645" d="M540.939,270.344s4.092,10.874,7.235,14.017,13.656,2.168,13.656,2.168" transform="translate(-466.93 -238.149)" fill="none" stroke="#2f5fa5" stroke-linejoin="round" stroke-width="0.75"/>
          <line id="Ligne_16" data-name="Ligne 16" y1="159.019" x2="12.184" transform="translate(40.294 103.023)" fill="none" stroke="#2f5fa5" stroke-linejoin="round" stroke-width="0.75"/>
          <path id="Tracé_646" data-name="Tracé 646" d="M489.12,282.685s8.794.79,11.123-1.155c3.185-2.66,8.837-9.633,8.837-9.633" transform="translate(-489.016 -237.487)" fill="none" stroke="#2f5fa5" stroke-linejoin="round" stroke-width="0.75"/>
        </g>
        <g id="Groupe_496" data-name="Groupe 496" transform="translate(85.047 59.391)">
          <path id="Tracé_647" data-name="Tracé 647" d="M539.087,169.91s-13.439-7.2-34.656,5.07c-10.642,6.154-24.589,21.82-34.656,39.3,4.092,6.856,29.752,26.6,39.436,25.625,7.68-9.808,15.969-39.516,15.969-39.516" transform="translate(-469.776 -167.813)" fill="#bae892"/>
        </g>
        <g id="Groupe_497" data-name="Groupe 497" transform="translate(109.609 56.365)">
          <path id="Tracé_648" data-name="Tracé 648" d="M492.188,196.446,487,317.164l110.8-2.215c-.921-26.5-10-92.356-15.954-122.05-21.345-26.988-47.587-27.208-47.587-27.208l-20.446,12.6Z" transform="translate(-486.998 -165.691)" fill="#bae892"/>
          <path id="Tracé_649" data-name="Tracé 649" d="M489.657,226.137s1.4-25.638,1.4-38.882" transform="translate(-485.865 -156.5)" fill="none" stroke="#58a845" stroke-linejoin="round" stroke-width="0.75"/>
        </g>
        <g id="Groupe_498" data-name="Groupe 498" transform="translate(196.012 16.835)">
          <path id="Tracé_650" data-name="Tracé 650" d="M563.149,183.642s26.97,18,44.057,11.745c12.565-4.6,38.126-43.025,38.126-43.025l19.867,8.456c-5.2,10.11-30.2,67.674-61.376,69.849-26.033,1.816-56.243-13.408-56.243-13.408" transform="translate(-547.58 -131.842)" fill="#ffb9a9"/>
          <path id="Tracé_651" data-name="Tracé 651" d="M611.813,167.869c2.644-4.813,6.623-11.256,9.183-16.112,1.245-2.362,3.754-7.258,5-7.258,2.385,0-1.506,6.936.1,7.144.977.127,3.423-5.274,4.461-8.041.927-2.467,2.085-5.548,3.825-5.548,1.509,0-3.691,14.593-3.691,14.593s6.829-14.91,8.693-14.67c2.687.348-4.785,16.477-4.785,16.477s6.777-13.836,8.766-13.579-3.324,11.132-5.049,15.6c1.471-2.557,6.181-12.241,7.632-12.054s-.081,5.648-.618,6.95c-3.247,7.864-11.323,22.809-11.323,22.809" transform="translate(-520.203 -137.974)" fill="#ffb9a9"/>
          <path id="Tracé_652" data-name="Tracé 652" d="M632.633,152.8s-9.6,1.9-12.765,8.967" transform="translate(-516.77 -131.656)" fill="none" stroke="#ea8f86" stroke-linejoin="round" stroke-width="0.75"/>
        </g>
        <path id="Tracé_653" data-name="Tracé 653" d="M524.447,167.527A92.128,92.128,0,0,1,573.12,175.9c18.472,8.984,21.517,11.079,21.517,11.079L580.366,222.02l-39.973-17.485" transform="translate(-361.428 -108.753)" fill="#bae892"/>
        <g id="Groupe_503" data-name="Groupe 503" transform="translate(131.322)">
          <path id="Tracé_654" data-name="Tracé 654" d="M511,147.055a2.774,2.774,0,0,0-3.7.021c-1.132,1.008-1.338,3.072-1.058,4.483.451,2.285,2.527,4.744,5.1,3.979a3.179,3.179,0,0,0,2.062-1.981" transform="translate(-500.556 -117.565)" fill="#ffb9a9"/>
          <path id="Tracé_655" data-name="Tracé 655" d="M530.631,147.543a3.412,3.412,0,0,1,.3-.291,2.312,2.312,0,0,1,3.088.475,4.236,4.236,0,0,1,.757,3.279,5.58,5.58,0,0,1-1.6,3.379,3.727,3.727,0,0,1-3.516.946,3.174,3.174,0,0,1-2.061-1.981" transform="translate(-491.403 -117.357)" fill="#ffb9a9"/>
          <path id="Tracé_656" data-name="Tracé 656" d="M512.44,162.831l13.083-17.778,6.9,16.131,1.158,16.906c-4.513,9.675-18.656,7.482-20.971,1.8l-.17-17.063" transform="translate(-497.867 -118.122)" fill="#ffb9a9"/>
          <path id="Tracé_657" data-name="Tracé 657" d="M510.084,140.19c-2.549,6.562-1.6,29.959,3.554,32.988s16.493,2.295,20.152-1.453c3.175-3.25,8.169-22.9,3.7-28.112S513.658,130.991,510.084,140.19Z" transform="translate(-499.452 -122.055)" fill="#ffb9a9"/>
          <path id="Tracé_658" data-name="Tracé 658" d="M539.215,132.284a10.889,10.889,0,0,0-7.908-5.934,13,13,0,0,0-9.8,2.409c-1.654,1.209-3.082,2.8-4.986,3.554-2.189.871-4.641.513-7,.483s-5,.455-6.348,2.392a7.361,7.361,0,0,0-.924,4.628,14.5,14.5,0,0,0,1.857,6.823,7.864,7.864,0,0,0,5.7,3.868c3.058.3,5.825-1.6,8.612-2.9,2.717-1.261,5.629-2.042,8.34-3.316a7.544,7.544,0,0,1,7.629.252c2.3,1.392,4.015,3.558,5.882,5.5a9.349,9.349,0,0,0,4.294,2.9c1.7.414,3.785-.262,4.426-1.893a5.679,5.679,0,0,0-.16-3.474l-1.271-4.865a15.761,15.761,0,0,0-1.68-4.5,8.655,8.655,0,0,0-2.688-2.607c-.934-.616-2.268-.826-3.042-1.623a5.4,5.4,0,0,1-.9-1.612Z" transform="translate(-502.222 -126.17)" fill="#031628"/>
          <path id="Tracé_659" data-name="Tracé 659" d="M514.49,163.822s10.523,1.516,15.295-2.168" transform="translate(-496.993 -111.046)" fill="none" stroke="#ea8f86" stroke-linejoin="round" stroke-width="0.75"/>
          <path id="Tracé_660" data-name="Tracé 660" d="M518.488,147.907s-2.82,6.842-1.716,8.523,4.048.685,4.048.685" transform="translate(-496.13 -116.906)" fill="none" stroke="#ea8f86" stroke-linejoin="round" stroke-width="0.75"/>
          <g id="Groupe_499" data-name="Groupe 499" transform="translate(28.285 30.44)">
            <path id="Tracé_661" data-name="Tracé 661" d="M522.319,148.006a5.417,5.417,0,0,0-.255,1.349.865.865,0,0,0,1.13.88c1.085-.248,1.11-2.761-.21-2.721A.726.726,0,0,0,522.319,148.006Z" transform="translate(-522.054 -147.514)" fill="#3f111d"/>
          </g>
          <g id="Groupe_500" data-name="Groupe 500" transform="translate(13.456 29.819)">
            <path id="Tracé_662" data-name="Tracé 662" d="M511.921,147.57a5.412,5.412,0,0,0-.254,1.349.864.864,0,0,0,1.13.88c1.085-.25,1.11-2.761-.21-2.721A.728.728,0,0,0,511.921,147.57Z" transform="translate(-511.657 -147.078)" fill="#3f111d"/>
          </g>
          <path id="Tracé_663" data-name="Tracé 663" d="M514.728,156.563l9.3-.237s.9,5.438-4.681,5.306C514.3,161.512,514.728,156.563,514.728,156.563Z" transform="translate(-496.896 -113.317)" fill="#fff"/>
          <g id="Groupe_501" data-name="Groupe 501" transform="translate(27.288 25.97)">
            <path id="Tracé_664" data-name="Tracé 664" d="M521.455,145.965a13.92,13.92,0,0,1,5.033,1.526,1.425,1.425,0,0,0,.485-1.371c-.171-.4-2.807-1.583-5.271-1.741C521.7,144.379,521.132,145.714,521.455,145.965Z" transform="translate(-521.356 -144.379)" fill="#3f111d"/>
          </g>
          <g id="Groupe_502" data-name="Groupe 502" transform="translate(12.339 25.712)">
            <path id="Tracé_665" data-name="Tracé 665" d="M514.746,145.674a6.811,6.811,0,0,0-3.585.715,1.678,1.678,0,0,1-.248-1.266c.106-.361,1.965-1.1,3.749-.884C514.662,144.238,514.969,145.481,514.746,145.674Z" transform="translate(-510.874 -144.198)" fill="#3f111d"/>
          </g>
        </g>
        <line id="Ligne_17" data-name="Ligne 17" x1="22.497" y1="10.536" transform="translate(186.541 99.095)" fill="none" stroke="#58a845" stroke-linejoin="round" stroke-width="0.75"/>
      </g>
    </g>
  </g>
</svg>
