<svg xmlns="http://www.w3.org/2000/svg" width="162.033" height="126.112" viewBox="0 0 162.033 126.112">
  <g id="undraw_secure_login_pdn4" transform="translate(-76.967 -3.125)">
    <path id="Tracé_1962" data-name="Tracé 1962" d="M555.441,624.488H403.592A5.092,5.092,0,0,1,398.5,619.4h0a686.335,686.335,0,0,1,162.033,0h0a5.092,5.092,0,0,1-5.091,5.092Z" transform="translate(-321.533 -495.251)" fill="#2f2e41"/>
    <path id="Tracé_1963" data-name="Tracé 1963" d="M560.533,342.5,398.5,342.2l18.779-31.6.09-.15V240.813a6.436,6.436,0,0,1,6.437-6.436H534.329a6.436,6.436,0,0,1,6.436,6.437V310.93Z" transform="translate(-321.533 -218.054)" fill="#3f3d56"/>
    <path id="Tracé_1964" data-name="Tracé 1964" d="M485.709,250.957a2.1,2.1,0,0,0-2.1,2.1v63.5a2.1,2.1,0,0,0,2.1,2.1H597.425a2.1,2.1,0,0,0,2.1-2.1v-63.5a2.1,2.1,0,0,0-2.1-2.1Z" transform="translate(-383.583 -230.141)" fill="#fff"/>
    <path id="Tracé_1965" data-name="Tracé 1965" d="M475.091,531.718a.9.9,0,0,0-.816.523l-5.786,12.579a.9.9,0,0,0,.816,1.274H590.99a.9.9,0,0,0,.8-1.3l-6.29-12.579a.894.894,0,0,0-.8-.5Z" transform="translate(-372.497 -434.828)" fill="#2f2e41"/>
    <circle id="Ellipse_88" data-name="Ellipse 88" cx="1.348" cy="1.348" r="1.348" transform="translate(156.187 17.072)" fill="#fff"/>
    <path id="Tracé_1966" data-name="Tracé 1966" d="M645.377,593.619a.9.9,0,0,0-.867.665l-1.451,5.391a.9.9,0,0,0,.868,1.132h27.6a.9.9,0,0,0,.849-1.193l-1.866-5.391a.9.9,0,0,0-.849-.6Z" transform="translate(-499.803 -479.956)" fill="#2f2e41"/>
    <path id="Tracé_1967" data-name="Tracé 1967" d="M387.792,337.135v1.2H264.306l.093-.15v-1.048Z" transform="translate(-168.56 -245.786)" fill="#2f2e41"/>
    <path id="Tracé_1970" data-name="Tracé 1970" d="M620.216,355.056H533.878a1.6,1.6,0,0,1-1.6-1.6V332.04a1.6,1.6,0,0,1,1.6-1.6h86.338a1.6,1.6,0,0,1,1.6,1.6v21.417A1.6,1.6,0,0,1,620.216,355.056Zm-86.338-23.975a.96.96,0,0,0-.959.959v21.417a.96.96,0,0,0,.959.959h86.338a.96.96,0,0,0,.959-.959V332.04a.96.96,0,0,0-.959-.959Z" transform="translate(-419.064 -288.089)" fill="#e6e6e6"/>
    <path id="Tracé_1997" data-name="Tracé 1997" d="M6.513,0A6.513,6.513,0,1,1,0,6.513,6.513,6.513,0,0,1,6.513,0Z" transform="translate(121.967 47.528)" fill="#d1ffbb"/>
    <path id="Tracé_1971" data-name="Tracé 1971" d="M640.282,356.8a1.085,1.085,0,0,0,0,2.171h51.173a1.085,1.085,0,0,0,0-2.171Z" transform="translate(-497.011 -307.309)" fill="#e6e6e6"/>
    <path id="Tracé_1972" data-name="Tracé 1972" d="M640.282,380.842a1.086,1.086,0,0,0,0,2.171H662.3a1.086,1.086,0,0,0,0-2.171Z" transform="translate(-497.011 -324.833)" fill="#e6e6e6"/>
    <g id="Groupe_1147" data-name="Groupe 1147" transform="translate(3.598 3.598)">
      <circle id="Ellipse_89" data-name="Ellipse 89" cx="17.368" cy="17.368" r="17.368" transform="translate(194.967 -0.472)" fill="#6c63ff"/>
      <path id="search" d="M15.127,14.181l-2.472-2.452a6,6,0,1,0-.926.926l2.452,2.452a.662.662,0,1,0,.946-.926ZM7.99,12.655A4.665,4.665,0,1,1,12.655,7.99,4.665,4.665,0,0,1,7.99,12.655Z" transform="translate(203.722 8.281)" fill="#fff"/>
    </g>
    <path id="Path_395" data-name="Path 395" d="M474.607,413.506a.552.552,0,0,1-.332-.11l-.006,0-1.251-.957a.556.556,0,1,1,.677-.882l.81.621,1.915-2.5a.556.556,0,0,1,.779-.1h0l-.012.016.012-.016a.556.556,0,0,1,.1.779l-2.252,2.937a.556.556,0,0,1-.442.217Z" transform="translate(-346.833 -357.93)" fill="#2dcb32"/>
  </g>
</svg>
