<svg xmlns="http://www.w3.org/2000/svg" xmlns:xlink="http://www.w3.org/1999/xlink" width="693.584" height="549.632" viewBox="0 0 693.584 549.632">
  <defs>
    <clipPath id="clip-path">
      <path id="Tracé_4879" data-name="Tracé 4879" d="M990.783,775.4a12.552,12.552,0,0,0,12.551,12.551h139.4a12.551,12.551,0,0,0,12.55-12.551V690.579h-164.5Z" transform="translate(-990.783 -690.579)" fill="none"/>
    </clipPath>
  </defs>
  <g id="Groupe_7165" data-name="Groupe 7165" transform="translate(119.292 -218.369)">
    <g id="Groupe_7164" data-name="Groupe 7164">
      <path id="Tracé_1" data-name="Tracé 1" d="M131.762,680.17c-23.362,0-60.453-12.773-84.386-43.848-27.461-35.841-29.559-91.89-6.77-133.736,19.929-36.6,53.4-52.236,60.072-55.286,76.568-34.125,133.683,31.837,173.54,1.906,8.975-6.75,14.145-16.164,17.388-27.632,11.819-41.79-3.622-109.681,47.546-163.012A114.306,114.306,0,0,1,354.6,244.646c60.262-44.039,143.123-23.163,157.521-19.541,20.215,5.052,66.365,17.443,102.885,60.625,8.677,10.294,41,48.518,41.668,101.041.668,53.761-35.089,78.735-20.023,104,12.777,21.257,40.81,8.865,63.981,34.888,25.936,29.073,16.4,73.493,15.542,77.5-8.391,36.6-38.427,65.867-77.521,76.829Q385.207,680.266,131.762,680.17Z" transform="translate(-144.292 87.409)" fill="#1e1e1e"/>
      <g id="Groupe_5473" data-name="Groupe 5473" transform="translate(41.689 280.163)">
        <g id="Groupe_5477" data-name="Groupe 5477" transform="translate(301.896 98.194)">
          <rect id="Rectangle_1395" data-name="Rectangle 1395" width="69" height="70" rx="6" transform="translate(0.415 -0.356)" fill="#f3f6f9" opacity="0.2"/>
          <rect id="bound" width="37" height="38" transform="translate(16.415 15.644)" fill="none"/>
          <g id="Stockholm-icons-_-Home-_-Chair2" data-name="Stockholm-icons-/-Home-/-Chair2" transform="translate(16.713 19.848)">
            <rect id="bound-2" data-name="bound" width="37" height="37" transform="translate(-0.3 -0.205)" fill="none"/>
            <path id="Combined-Shape" d="M6.561,25.141l2.466-9.2a1.543,1.543,0,1,1,2.98.8l-2.466,9.2a1.543,1.543,0,0,1-2.98-.8Zm16.827-.047a1.543,1.543,0,1,1-2.98.8l-2.01-7.5a1.543,1.543,0,0,1,2.98-.8Z" transform="translate(3.52 7.449)" fill="#a2a2a5" opacity="0.3"/>
            <path id="Combined-Shape-2" data-name="Combined-Shape" d="M9.185,1H23.5a3.086,3.086,0,0,1,3.044,3.593L24.163,18.868a.771.771,0,0,1-.761.645H9.282a.771.771,0,0,1-.761-.645L6.142,4.593A3.085,3.085,0,0,1,9.185,1ZM6.314,21.056H26.37a2.314,2.314,0,1,1,0,4.628H6.314a2.314,2.314,0,0,1,0-4.628Z" transform="translate(2.159 -0.039)" fill="#a2a2a5"/>
          </g>
        </g>
        <g id="Groupe_5474" data-name="Groupe 5474" transform="translate(19.849 25.071)">
          <rect id="Rectangle_1395-2" data-name="Rectangle 1395" width="86" height="88" rx="6" transform="translate(0.462 -0.234)" fill="#f3f6f9" opacity="0.2"/>
          <g id="Stockholm-icons-_-Files-_-User-folder" data-name="Stockholm-icons-/-Files-/-User-folder" transform="translate(21.936 19.848)">
            <rect id="bound-3" data-name="bound" width="46" height="47" transform="translate(-0.476 -0.082)" fill="none"/>
            <path id="Combined-Shape-3" data-name="Combined-Shape" d="M4.91,36.982H37.892a2.91,2.91,0,0,0,2.91-2.91V12.731a2.91,2.91,0,0,0-2.91-2.91H17.521L12.553,4.852A2.91,2.91,0,0,0,10.5,4H4.91A2.91,2.91,0,0,0,2,6.91V34.072A2.91,2.91,0,0,0,4.91,36.982Z" transform="translate(1.421 3.202)" fill="#a2a2a5" opacity="0.3"/>
            <path id="Mask" d="M13.88,16.76a3.88,3.88,0,1,1,3.88-3.88A3.88,3.88,0,0,1,13.88,16.76Z" transform="translate(8.942 7.902)" fill="#a2a2a5"/>
            <path id="Mask-Copy" d="M7,22.73C7.418,16.942,11.594,14,16.683,14c5.161,0,9.4,2.781,9.716,8.731a.808.808,0,0,1-.81.97H7.784C7.514,23.7,6.978,23.045,7,22.73Z" transform="translate(6.122 12.603)" fill="#a2a2a5"/>
          </g>
          <rect id="bound-4" data-name="bound" width="46" height="47" transform="translate(21.462 19.766)" fill="none"/>
        </g>
        <g id="Groupe_5475" data-name="Groupe 5475" transform="translate(253.843 159.826)">
          <rect id="Rectangle_1392" data-name="Rectangle 1392" width="95" height="94" rx="6" transform="translate(0.468 0.011)" fill="#f3f6f9" opacity="0.2"/>
          <g id="Stockholm-icons-_-Home-_-Building" data-name="Stockholm-icons-/-Home-/-Building" transform="translate(22.981 22.982)">
            <rect id="bound-5" data-name="bound" width="49" height="49" transform="translate(0.487 0.028)" fill="none"/>
            <path id="Combined-Shape-4" data-name="Combined-Shape" d="M22.867,41.937V35.631a2.1,2.1,0,0,0-2.1-2.1h-2.1a2.1,2.1,0,0,0-2.1,2.1v6.306H5V6.2A4.2,4.2,0,0,1,9.2,2h21.02a4.2,4.2,0,0,1,4.2,4.2V41.937ZM13.408,6.2a2.1,2.1,0,0,0-2.1,2.1v2.1a2.1,2.1,0,0,0,2.1,2.1h2.1a2.1,2.1,0,0,0,2.1-2.1v-2.1a2.1,2.1,0,0,0-2.1-2.1Zm10.51,0a2.1,2.1,0,0,0-2.1,2.1v2.1a2.1,2.1,0,0,0,2.1,2.1h2.1a2.1,2.1,0,0,0,2.1-2.1v-2.1a2.1,2.1,0,0,0-2.1-2.1Zm-10.51,8.408a2.1,2.1,0,0,0-2.1,2.1v2.1a2.1,2.1,0,0,0,2.1,2.1h2.1a2.1,2.1,0,0,0,2.1-2.1v-2.1a2.1,2.1,0,0,0-2.1-2.1Zm0,8.408a2.1,2.1,0,0,0-2.1,2.1v2.1a2.1,2.1,0,0,0,2.1,2.1h2.1a2.1,2.1,0,0,0,2.1-2.1v-2.1a2.1,2.1,0,0,0-2.1-2.1Zm10.51,0a2.1,2.1,0,0,0-2.1,2.1v2.1a2.1,2.1,0,0,0,2.1,2.1h2.1a2.1,2.1,0,0,0,2.1-2.1v-2.1a2.1,2.1,0,0,0-2.1-2.1Z" transform="translate(5.411 1.907)" fill="#a2a2a5"/>
            <path id="Rectangle-2" d="M5.1,21H38.733a2.1,2.1,0,0,1,2.1,2.1v.841A1.261,1.261,0,0,1,39.574,25.2H4.261A1.261,1.261,0,0,1,3,23.943V23.1A2.1,2.1,0,0,1,5.1,21Z" transform="translate(3.207 22.844)" fill="#a2a2a5" opacity="0.3"/>
          </g>
        </g>
        <g id="Groupe_5480" data-name="Groupe 5480" transform="translate(0 98.194)">
          <rect id="Rectangle_1394" data-name="Rectangle 1394" width="62" height="62" rx="6" transform="translate(0.31 -0.356)" fill="#f3f6f9" opacity="0.76"/>
          <g id="Stockholm-icons-_-Shopping-_-Dollar" data-name="Stockholm-icons-/-Shopping-/-Dollar" transform="translate(15.67 13.58)">
            <rect id="bound-6" data-name="bound" width="33" height="34" transform="translate(-0.359 0.062)" fill="none"/>
            <rect id="Rectangle" width="2.758" height="5.516" rx="1" transform="translate(15.754 3.736)" fill="#131313" opacity="0.3"/>
            <rect id="Rectangle-Copy-3" width="2.758" height="6.896" rx="1" transform="translate(15.754 23.044)" fill="#131313" opacity="0.3"/>
            <path id="Combined-Shape-5" data-name="Combined-Shape" d="M18.6,9.5A4.045,4.045,0,0,0,17.1,8.333,4.251,4.251,0,0,0,15.3,7.9a5.344,5.344,0,0,0-.9.079,2.333,2.333,0,0,0-.825.3,2.041,2.041,0,0,0-.616.576,1.535,1.535,0,0,0-.249.9,1.458,1.458,0,0,0,.2.786,1.749,1.749,0,0,0,.576.55,5.141,5.141,0,0,0,.9.432q.524.2,1.179.406.943.314,1.965.694a7.35,7.35,0,0,1,1.86,1.009A5.3,5.3,0,0,1,20.78,15.2a4.49,4.49,0,0,1,.55,2.319,6.058,6.058,0,0,1-.59,2.764,5.512,5.512,0,0,1-1.585,1.926,6.792,6.792,0,0,1-2.28,1.127,9.588,9.588,0,0,1-2.647.367,10.927,10.927,0,0,1-3.852-.694,8.161,8.161,0,0,1-3.092-1.978l2.935-2.987a5.423,5.423,0,0,0,1.795,1.4,4.872,4.872,0,0,0,2.214.563,4.453,4.453,0,0,0,.97-.1,2.419,2.419,0,0,0,.825-.341,1.705,1.705,0,0,0,.563-.629,1.98,1.98,0,0,0,.21-.943,1.492,1.492,0,0,0-.262-.891,2.562,2.562,0,0,0-.747-.668,6.01,6.01,0,0,0-1.205-.55q-.721-.249-1.638-.537a15.642,15.642,0,0,1-1.743-.681,5.831,5.831,0,0,1-1.52-1.009,4.673,4.673,0,0,1-1.074-1.494A5.063,5.063,0,0,1,8.2,10.023a5.251,5.251,0,0,1,.629-2.647,5.467,5.467,0,0,1,1.651-1.808,7.091,7.091,0,0,1,2.306-1.035,10.456,10.456,0,0,1,2.594-.328,9.631,9.631,0,0,1,3.21.576,8.264,8.264,0,0,1,2.869,1.7Z" transform="translate(1.382 2.573)" fill="#131313"/>
          </g>
        </g>
        <g id="Groupe_5481" data-name="Groupe 5481" transform="translate(96.106 -0.001)">
          <rect id="Rectangle_1395-3" data-name="Rectangle 1395" width="69" height="69" rx="6" transform="translate(0.204 -0.163)" fill="#f3f6f9" opacity="0.2"/>
          <rect id="bound-7" data-name="bound" width="36" height="36" transform="translate(17.204 15.837)" fill="none"/>
          <g id="Stockholm-icons-_-Home-_-Library" data-name="Stockholm-icons-/-Home-/-Library" transform="translate(16.713 16.714)">
            <rect id="bound-8" data-name="bound" width="36" height="37" transform="translate(0.491 0.123)" fill="none"/>
            <path id="Combined-Shape-6" data-name="Combined-Shape" d="M5.543,3H7.085A1.543,1.543,0,0,1,8.628,4.543V29.227a1.543,1.543,0,0,1-1.543,1.543H5.543A1.543,1.543,0,0,1,4,29.227V4.543A1.543,1.543,0,0,1,5.543,3Zm7.714,0H14.8a1.543,1.543,0,0,1,1.543,1.543V29.227A1.543,1.543,0,0,1,14.8,30.769H13.256a1.543,1.543,0,0,1-1.543-1.543V4.543A1.543,1.543,0,0,1,13.256,3Z" transform="translate(2.348 1.781)" fill="#a2a2a5"/>
            <rect id="Rectangle-Copy-2" width="4.628" height="27.769" rx="1" transform="translate(20.969 6.207) rotate(-19)" fill="#a2a2a5" opacity="0.3"/>
          </g>
        </g>
      </g>
    </g>
    <g id="Groupe_5571" data-name="Groupe 5571" transform="translate(-21.289 193.954)">
      <g id="Groupe_5533" data-name="Groupe 5533" transform="translate(0 20.415)">
        <path id="Tracé_4868" data-name="Tracé 4868" d="M589.8,916.691l-.607-.636,3.817-3.642.607.636Zm7.623-7.3-.618-.627c1.24-1.221,2.484-2.481,3.7-3.745l.634.61C599.914,906.893,598.664,908.159,597.419,909.386Zm7.327-7.626-.65-.592c1.166-1.28,2.341-2.605,3.492-3.939l.666.576C607.1,899.143,605.917,900.474,604.745,901.76Zm6.913-8-.679-.558c1.1-1.337,2.2-2.721,3.29-4.11l.693.541C613.873,891.027,612.761,892.416,611.658,893.759Zm6.508-8.332-.7-.526c1.032-1.387,2.074-2.82,3.1-4.259l.717.508C620.248,882.6,619.2,884.034,618.166,885.427Zm6.12-8.619-.728-.493q1.478-2.181,2.91-4.391l.738.477Q625.769,874.62,624.286,876.808Zm48.178-6.1a12.875,12.875,0,0,1-4.738-.9l.326-.816a12.01,12.01,0,0,0,4.412.839c.219-.021.38,0,.569-.013l.043.878C672.873,870.706,672.63,870.693,672.465,870.711Zm5.839-1.5-.44-.762a9.549,9.549,0,0,0,3.507-3.541l.763.436A10.427,10.427,0,0,1,678.3,869.208Zm-48.268-1.269-.747-.464q1.387-2.237,2.734-4.5l.756.449Q631.428,865.694,630.036,867.938Zm33.235-1.225a15.414,15.414,0,0,1-2.895-4.561l.81-.341a14.563,14.563,0,0,0,2.728,4.3Zm20.32-6.612-.879-.019,0-.235a9.131,9.131,0,0,0-.777-3.734q-.2-.44-.437-.858l.766-.434q.256.452.473.929a10.011,10.011,0,0,1,.855,4.1Zm-47.805-.922-.674-.565a33.471,33.471,0,0,1,3.747-3.806l.576.664A32.628,32.628,0,0,0,635.785,859.179Zm23.231-2.234a21.4,21.4,0,0,1-.151-2.545,22.585,22.585,0,0,1,.179-2.826l.873.11a21.709,21.709,0,0,0-.172,2.716,20.421,20.421,0,0,0,.145,2.439Zm-15.39-4.55-.463-.748a36.211,36.211,0,0,1,4.735-2.463l.348.808A35.314,35.314,0,0,0,643.626,852.4Zm34.493-.908a19.343,19.343,0,0,0-4.494-2.5l.329-.816a20.214,20.214,0,0,1,4.7,2.618Zm-24.953-3.211-.231-.848a37.8,37.8,0,0,1,5.233-1.033l.109.873A36.927,36.927,0,0,0,653.166,848.277Zm15.481-.729a31.919,31.919,0,0,0-5.17-.543l.021-.879a32.828,32.828,0,0,1,5.313.558Zm-7.517-.889-.828-.3a26.3,26.3,0,0,1,2.322-4.829l.75.459A25.414,25.414,0,0,0,661.13,846.659Zm5.375-8.793-.644-.6q.384-.412.787-.812a28.566,28.566,0,0,1,3.218-2.738l.52.709a27.622,27.622,0,0,0-3.119,2.654Q666.877,837.466,666.505,837.866Zm8.323-6.132-.39-.788a32.753,32.753,0,0,1,4.965-1.973l.257.841A31.984,31.984,0,0,0,674.829,831.734Zm9.921-3.23-.218-.852c1.719-.441,3.43-.9,5.084-1.371l.24.846C688.193,827.6,686.476,828.061,684.75,828.5Zm10.172-2.891-.264-.839c1.7-.534,3.377-1.091,4.995-1.656l.29.83C698.316,824.516,696.626,825.076,694.922,825.613Zm9.986-3.493-.318-.82c1.646-.638,3.284-1.309,4.867-1.992l.349.807C708.212,820.8,706.564,821.477,704.908,822.12Zm9.716-4.2-.381-.792,4.744-2.3.385.791Zm9.494-4.613-.385-.791,4.746-2.307.385.791Zm9.491-4.613-.385-.791,4.745-2.307.385.791Zm9.491-4.614-.385-.791,4.746-2.306.385.791Zm9.49-4.614-.385-.791,4.746-2.307.384.791Z" transform="translate(-430.618 -553.449)" fill="#fff"/>
        <path id="Tracé_4869" data-name="Tracé 4869" d="M1007.627,274.952a4.51,4.51,0,0,0,.021.537h115.646c-.3-9.533-8.6-17.177-18.777-17.177a19.624,19.624,0,0,0-9,2.158,20.512,20.512,0,0,0-9.995-18.337c-9.855-5.711-22.749-1.836-28.782,8.664a23.1,23.1,0,0,0-3.038,9.952,41.813,41.813,0,0,0-17.23-3.511C1020.542,257.238,1007.627,265.172,1007.627,274.952Z" transform="translate(-814.579 -235.497)" fill="#1e1e1e"/>
        <path id="Tracé_4870" data-name="Tracé 4870" d="M284.919,1052.995h-95.36l.011-.34c.254-8.069,7.155-14.389,15.71-14.389a16.557,16.557,0,0,1,7.038,1.566,17.172,17.172,0,0,1,8.354-14.774,16.586,16.586,0,0,1,12.705-1.609,18.591,18.591,0,0,1,11.322,8.827,19.15,19.15,0,0,1,2.495,7.824,34.727,34.727,0,0,1,13.822-2.714c13.211,0,23.958,6.657,23.958,14.839a4.033,4.033,0,0,1-.02.479Zm-94.675-.66h94.07v-.11c0-7.819-10.452-14.18-23.3-14.18a33.822,33.822,0,0,0-13.977,2.846l-.434.2-.032-.477a18.47,18.47,0,0,0-2.446-8.01,17.935,17.935,0,0,0-10.92-8.517,15.939,15.939,0,0,0-12.2,1.542,16.55,16.55,0,0,0-8.023,14.729l.01.551-.491-.251a15.857,15.857,0,0,0-7.219-1.731C197.2,1038.925,190.668,1044.788,190.244,1052.335Z" transform="translate(165.441 -719.77)" fill="#fff"/>
      </g>
      <g id="Groupe_5547" data-name="Groupe 5547" transform="translate(175.146 119.636)">
        <g id="Groupe_5537" data-name="Groupe 5537" transform="translate(0.271 64.36)">
          <g id="Groupe_5536" data-name="Groupe 5536" clip-path="url(#clip-path)">
            <path id="Tracé_4871" data-name="Tracé 4871" d="M990.783,775.4a12.552,12.552,0,0,0,12.551,12.551h139.4a12.551,12.551,0,0,0,12.55-12.551V690.579h-164.5Z" transform="translate(-990.783 -690.579)" fill="#fcfcfc"/>
            <path id="Tracé_4872" data-name="Tracé 4872" d="M865.324,748.966a16.967,16.967,0,0,1,14.654-11.4,17.261,17.261,0,0,1,16.34,9.063,10.17,10.17,0,0,1,8.741,4.918,9.458,9.458,0,0,1-.3,9.761,13.8,13.8,0,0,1,9.857,7.225,12.951,12.951,0,0,1-.264,11.941,15.852,15.852,0,0,1,15.011.543,14.762,14.762,0,0,1,7.094,12.8,15.792,15.792,0,0,1,27.127,1.236A25.093,25.093,0,0,1,981.2,779.091a26.148,26.148,0,0,1,23.4,5.929c9.175,1.436,15.863,11.4,13.472,20.07a18.516,18.516,0,0,1,6.454,16.988,18.932,18.932,0,0,1-11.641,14.146l-157.869-.1-13.458-60.231Z" transform="translate(-873.933 -727.338)" fill="#eaeaea"/>
            <g id="Groupe_5534" data-name="Groupe 5534" transform="translate(-34.095 30.175)">
              <path id="Tracé_4873" data-name="Tracé 4873" d="M856.606,841.124a16.122,16.122,0,0,1,29.946-2.361,9.539,9.539,0,0,1,8.139,14.672,13.133,13.133,0,0,1,9.253,19.158,14.565,14.565,0,0,1,21.347,13.329,15,15,0,0,1,26.208,1.214,24.164,24.164,0,0,1,39.643-10.069c8.863,1.428,15.316,11.386,13,20.059a18.474,18.474,0,0,1-5.037,31.138l-152.524.023-12.955-60.219Z" transform="translate(-833.624 -829.668)" fill="#d3d3d3"/>
            </g>
            <g id="Groupe_5535" data-name="Groupe 5535" transform="translate(-11.475 2.715)">
              <path id="Tracé_4874" data-name="Tracé 4874" d="M1059.51,703.095c-45.691,42.968-78.091,54.554-118.91,58.7l-2.712,43.389,42.847,14.644c37.423-1.085,73.357-55.261,95.553-101.738l-16.778-14.992" transform="translate(-937.888 -703.095)" fill="#eaeaea"/>
              <path id="Tracé_4875" data-name="Tracé 4875" d="M1413.217,705.669c-7.428,8.789-18.632,17.2-31.846,28.55l18.03-7.348a122.759,122.759,0,0,1-7.235,10.99c4.156-1.918,10.842-6.138,13.057-8.376,0,3.122-3.762,8.344-5.4,11.2,9.617-8.23,18.365-18.279,21.191-27.1l-7.8-7.908" transform="translate(-1285.159 -705.111)" fill="#131313"/>
              <path id="Tracé_4876" data-name="Tracé 4876" d="M1470.213,707.717c-4.394,5.825-10.971,11.439-18.743,19l10.521-4.992c-1.318,2.419-3.236,5.806-4.3,7.263a36.816,36.816,0,0,0,7.651-5.613c-.033,2.042-2.265,5.5-3.244,7.379,5.656-5.482,10.828-12.145,12.556-17.947l-4.435-5.092" transform="translate(-1340.05 -706.714)" fill="#fff" opacity="0.4"/>
            </g>
            <path id="Tracé_4877" data-name="Tracé 4877" d="M1198.877,829.324c.058,1.358,0,3.652-1.358,4.437-2.266,1.312-4.048-1.873-4.879-3.474-.992-1.911-.739-4.283,1.5-5.135C1197.108,824.027,1198.767,826.789,1198.877,829.324Z" transform="translate(-1148.415 -795.755)" fill="#eaeaea"/>
            <path id="Tracé_4878" data-name="Tracé 4878" d="M1694,1019.432c.058,1.358,0,3.651-1.358,4.437-2.266,1.312-4.047-1.873-4.879-3.473-.992-1.911-.739-4.283,1.505-5.135C1692.227,1014.135,1693.888,1016.9,1694,1019.432Z" transform="translate(-1536.12 -944.619)" fill="#eaeaea"/>
            <ellipse id="Ellipse_143" data-name="Ellipse 143" cx="1.898" cy="1.898" rx="1.898" ry="1.898" transform="translate(36.524 16.305)" fill="#eaeaea"/>
            <ellipse id="Ellipse_144" data-name="Ellipse 144" cx="2.89" cy="2.89" rx="2.89" ry="2.89" transform="translate(131.089 51.161) rotate(-26.428)" fill="#eaeaea"/>
          </g>
        </g>
        <g id="Groupe_5542" data-name="Groupe 5542" transform="translate(0 31.228)">
          <path id="Tracé_4880" data-name="Tracé 4880" d="M1141.758,787.239h-139.4a12.836,12.836,0,0,1-12.822-12.822V689.329H1154.58v85.088A12.837,12.837,0,0,1,1141.758,787.239ZM990.076,689.871v84.546a12.293,12.293,0,0,0,12.279,12.279h139.4a12.293,12.293,0,0,0,12.28-12.279V689.871Z" transform="translate(-989.534 -656.468)" fill="#a2a2a5"/>
          <g id="Groupe_5538" data-name="Groupe 5538">
            <path id="Tracé_4881" data-name="Tracé 4881" d="M1142.737,539.112h-139.4a12.55,12.55,0,0,0-12.551,12.551v20.31h164.5v-20.31A12.55,12.55,0,0,0,1142.737,539.112Z" transform="translate(-990.512 -538.841)" fill="#eaeaea"/>
            <path id="Tracé_4882" data-name="Tracé 4882" d="M1154.58,571.264H989.534V550.683a12.836,12.836,0,0,1,12.822-12.822h139.4a12.837,12.837,0,0,1,12.822,12.822Zm-164.5-.542h163.962V550.683a12.294,12.294,0,0,0-12.28-12.28h-139.4a12.293,12.293,0,0,0-12.279,12.28Z" transform="translate(-989.534 -537.861)" fill="#a2a2a5"/>
          </g>
          <g id="Groupe_5541" data-name="Groupe 5541" transform="translate(8.731 6.971)">
            <ellipse id="Ellipse_145" data-name="Ellipse 145" cx="6.881" cy="6.881" rx="6.881" ry="6.881" transform="matrix(0.199, -0.98, 0.98, 0.199, 0, 15.106)" fill="#eaeaea"/>
            <g id="Groupe_5539" data-name="Groupe 5539" transform="translate(18.648 0)">
              <circle id="Ellipse_146" data-name="Ellipse 146" cx="6.881" cy="6.881" r="6.881" transform="translate(0 9.731) rotate(-45)" fill="#fff"/>
              <path id="Tracé_4883" data-name="Tracé 4883" d="M1134.774,596.183a7.152,7.152,0,1,1,7.152-7.152A7.16,7.16,0,0,1,1134.774,596.183Zm0-13.762a6.61,6.61,0,1,0,6.61,6.61A6.617,6.617,0,0,0,1134.774,582.421Z" transform="translate(-1125.043 -579.3)" fill="#a2a2a5"/>
            </g>
            <g id="Groupe_5540" data-name="Groupe 5540" transform="translate(46.522 2.892)">
              <rect id="Rectangle_1868" data-name="Rectangle 1868" width="40.532" height="13.135" rx="6.568" transform="translate(0.271 0.271)" fill="#fff"/>
              <path id="Tracé_4884" data-name="Tracé 4884" d="M1278.455,597h-27.4a6.839,6.839,0,0,1,0-13.678h27.4a6.839,6.839,0,1,1,0,13.678Zm-27.4-13.135a6.3,6.3,0,0,0,0,12.593h27.4a6.3,6.3,0,1,0,0-12.593Z" transform="translate(-1244.219 -583.322)" fill="#a2a2a5"/>
            </g>
          </g>
        </g>
        <g id="Groupe_5546" data-name="Groupe 5546" transform="translate(108.262)">
          <g id="Groupe_5543" data-name="Groupe 5543" transform="translate(0.902 16.53)">
            <path id="Tracé_4885" data-name="Tracé 4885" d="M1530.455,470.111c-10.986,9.617-29.934,2.988-35.822,10.668l16.824,13.323Z" transform="translate(-1494.217 -470.111)" fill="#353535"/>
            <path id="Tracé_4886" data-name="Tracé 4886" d="M1493.132,519.283h0a6.5,6.5,0,0,0,1.188,6.564l11.922,13.655,3.714-6.9Z" transform="translate(-1492.716 -508.615)" fill="#aaa"/>
          </g>
          <g id="Groupe_5544" data-name="Groupe 5544" transform="translate(37.18 36.248)">
            <path id="Tracé_4887" data-name="Tracé 4887" d="M1705.957,561c-6.843,12.9,3.952,29.822-2.173,37.313l-16.824-13.323Z" transform="translate(-1681.098 -560.998)" fill="#353535"/>
            <path id="Tracé_4888" data-name="Tracé 4888" d="M1682.625,684.9h0a6.5,6.5,0,0,1-6.662.348l-16.025-8.475,5.863-5.2Z" transform="translate(-1659.938 -647.59)" fill="#aaa"/>
          </g>
          <path id="Tracé_4889" data-name="Tracé 4889" d="M1759.86,393.916l-14.979,5.5,13.06,10.342Z" transform="translate(-1689.273 -393.916)" fill="#353535"/>
          <path id="Tracé_4890" data-name="Tracé 4890" d="M1587.576,429.606c-2.093,23.7-19.606,45.819-40.876,58.1l-19.384-15.333c8.133-25.59,23.281-43.9,47.2-53.112Z" transform="translate(-1518.908 -413.765)" fill="#fff"/>
          <path id="Tracé_4891" data-name="Tracé 4891" d="M1496.969,664.079l-8.408,5.821,24.049,19.044,3.742-9.532Z" transform="translate(-1488.561 -605.468)" fill="#aaa"/>
          <g id="Groupe_5545" data-name="Groupe 5545" transform="translate(39.989 16.022)">
            <ellipse id="Ellipse_147" data-name="Ellipse 147" cx="8.996" cy="8.996" rx="8.996" ry="8.996" transform="translate(0 2.124) rotate(-6.78)" fill="#eaeaea"/>
            <path id="Tracé_4892" data-name="Tracé 4892" d="M1696.585,497.13l-.057-.539a5.9,5.9,0,0,0,1.507-.366l.2.506A6.412,6.412,0,0,1,1696.585,497.13Zm-1.693-.043a6.352,6.352,0,0,1-1.623-.486l.223-.494a5.828,5.828,0,0,0,1.485.445Zm4.823-1.173-.322-.436a5.882,5.882,0,0,0,1.114-1.079l.425.337A6.4,6.4,0,0,1,1699.714,495.913Zm-7.883-.208a6.4,6.4,0,0,1-1.156-1.239l.442-.314a5.87,5.87,0,0,0,1.058,1.134Zm9.763-1.991-.481-.251a5.85,5.85,0,0,0,.528-1.458l.529.115A6.389,6.389,0,0,1,1701.594,493.715Zm-11.708-.746a6.46,6.46,0,0,1-.369-1.653l.54-.048a5.893,5.893,0,0,0,.338,1.514Zm11.882-2.508a5.948,5.948,0,0,0-.282-1.526l.516-.168a6.454,6.454,0,0,1,.307,1.665Zm-11.642-.743-.534-.1a6.365,6.365,0,0,1,.517-1.613l.49.233A5.828,5.828,0,0,0,1690.126,489.718Zm10.69-2.181a5.86,5.86,0,0,0-1.015-1.173l.36-.406a6.409,6.409,0,0,1,1.108,1.281Zm-9.373-.6-.412-.352a6.419,6.419,0,0,1,1.259-1.132l.306.448A5.863,5.863,0,0,0,1691.442,486.941Zm7.074-1.444a5.839,5.839,0,0,0-1.467-.5l.1-.532a6.381,6.381,0,0,1,1.6.547Zm-4.535-.288-.177-.513a6.464,6.464,0,0,1,1.659-.338l.038.541A5.91,5.91,0,0,0,1693.981,485.209Z" transform="translate(-1685.909 -480.759)" fill="#a2a2a5"/>
          </g>
          <rect id="Rectangle_1869" data-name="Rectangle 1869" width="3.465" height="30.094" rx="1.733" transform="translate(22.765 57.6) rotate(38.375)" fill="#353535"/>
        </g>
      </g>
      <g id="Groupe_5566" data-name="Groupe 5566" transform="translate(54.573 228.84)">
        <g id="Groupe_5562" data-name="Groupe 5562" transform="translate(12.693)">
          <g id="Groupe_5550" data-name="Groupe 5550" transform="translate(78.557 60.615)">
            <path id="Tracé_4894" data-name="Tracé 4894" d="M622.416,992.909a41.683,41.683,0,0,0-15.324-22l-2.969-2.188,2.52,52.142,19.487-15.075Z" transform="translate(-604.123 -968.717)" fill="#fcfcfc"/>
            <path id="Tracé_4895" data-name="Tracé 4895" d="M689.683,1124.246l-4.329-8.478a8.6,8.6,0,0,0-5.367-4.38l-12.738-3.528-32.77-20.922-3.7-12.844-19.487,15.075.177,3.662a19.27,19.27,0,0,0,11.615,16.764l31.818,13.725,15.124.336c4.874,1.68,6.554,5.882,9.579,4.369,1.127-.563-3.277-7.814-3.277-7.814l7.31,8.066Z" transform="translate(-608.767 -1037.028)" fill="#fcfcfc"/>
            <rect id="Rectangle_1876" data-name="Rectangle 1876" width="6.617" height="1.008" transform="translate(21.043 54.627) rotate(-49.665)" fill="#eaeaea"/>
          </g>
          <g id="Groupe_5552" data-name="Groupe 5552" transform="translate(102.48 166.747)">
            <path id="Tracé_4896" data-name="Tracé 4896" d="M672.133,1272.646l23.841-2.1c15.519-1.37,29.019,11.162,29.775,27.642l5.387,117.418-32.887,1.025Z" transform="translate(-672.133 -1270.439)" fill="#232323"/>
            <g id="Groupe_5551" data-name="Groupe 5551" transform="translate(28.761 141.826)">
              <path id="Tracé_4897" data-name="Tracé 4897" d="M753.9,1676.83l1.008,32.433h48.734l-24.031-20-1.512-15.629Z" transform="translate(-753.898 -1673.637)" fill="#232323"/>
              <rect id="Rectangle_1877" data-name="Rectangle 1877" width="12.941" height="2.016" transform="matrix(0.792, -0.61, 0.61, 0.792, 14.845, 22.728)" fill="#fff"/>
            </g>
          </g>
          <g id="Groupe_5554" data-name="Groupe 5554" transform="translate(7.992 152.622)">
            <g id="Groupe_5553" data-name="Groupe 5553" transform="translate(112.158 155.95)">
              <path id="Tracé_4898" data-name="Tracé 4898" d="M722.366,1676.83l1.008,32.433h48.734l-24.031-20-1.513-15.629Z" transform="translate(-722.366 -1673.637)" fill="#eaeaea"/>
              <rect id="Rectangle_1878" data-name="Rectangle 1878" width="12.941" height="2.016" transform="matrix(0.792, -0.61, 0.61, 0.792, 14.845, 22.728)" fill="#fff"/>
            </g>
            <path id="Tracé_4899" data-name="Tracé 4899" d="M551.968,1392.621H511.636l-28.747-88.448-4.023-12.382-57.473-.252a15.906,15.906,0,0,1-9.831-4.124,23.4,23.4,0,0,1-7.814-21.164l5.041-35.966,85.383,11.1a38.344,38.344,0,0,1,32.6,30.208Z" transform="translate(-403.511 -1230.285)" fill="#353535"/>
            <path id="Tracé_4900" data-name="Tracé 4900" d="M629.587,1405.141l-7.824,12.382-4.023-12.382Z" transform="translate(-542.384 -1343.635)" fill="#232323"/>
          </g>
          <g id="Groupe_5555" data-name="Groupe 5555" transform="translate(0 57.59)">
            <path id="Tracé_4901" data-name="Tracé 4901" d="M465.428,1048.635q-.62,2.5-1.291,5l-3.025,12.352-39.828-1.654-28.676-1.19a12.318,12.318,0,0,1-11.555-14.822l13.37-64.339a24.424,24.424,0,0,1,21.618-20.5l32.719-3.368,10.587,3.025c10.335,5.545,10.345,15.6,10.839,22.183C472.355,1014.141,469.683,1031.6,465.428,1048.635Z" transform="translate(-380.791 -960.117)" fill="#fcfcfc"/>
            <path id="Tracé_4902" data-name="Tracé 4902" d="M468.457,1124.475c-.413,1.663,26.156,5.384,25.712,7.058l-3.025,12.352-39.828-1.654c-13.915-10.5-19.128-33.334-24.2-61.95Z" transform="translate(-410.822 -1038.013)" fill="#1b1b43" opacity="0.3"/>
            <path id="Tracé_4903" data-name="Tracé 4903" d="M521.584,1013.027a23.949,23.949,0,0,0,5.952,4.719,19.661,19.661,0,0,0,7.112,2.4,11.967,11.967,0,0,0,7.237-1.063,7.44,7.44,0,0,0,3.888-5.943l.393.026a8.136,8.136,0,0,1-1,3.837,7.643,7.643,0,0,1-2.846,2.846,12.437,12.437,0,0,1-7.8,1.287,19.4,19.4,0,0,1-7.411-2.655,20.927,20.927,0,0,1-5.827-5.2Z" transform="translate(-471.864 -994.416)" fill="#1b1b43"/>
            <path id="Tracé_4904" data-name="Tracé 4904" d="M632.033,1056.182l-.754-.053c.724-10.145-.01-22.612-2.181-37.057l.748-.111C632.026,1033.458,632.762,1045.982,632.033,1056.182Z" transform="translate(-541.755 -998.262)" fill="#1b1b43"/>
          </g>
          <g id="Groupe_5556" data-name="Groupe 5556" transform="translate(120.486 92.461)">
            <rect id="Rectangle_1879" data-name="Rectangle 1879" width="37.475" height="7.394" transform="translate(0 58.817)" fill="#aaa"/>
            <path id="Tracé_4905" data-name="Tracé 4905" d="M875.526,1125.462H800.24l34.618-66.212h75.286Z" transform="translate(-773.184 -1059.25)" fill="#fcfcfc"/>
          </g>
          <g id="Groupe_5559" data-name="Groupe 5559" transform="translate(16.707)">
            <path id="Tracé_4906" data-name="Tracé 4906" d="M469.595,801.048c-8.823-8.7-25.459-5.042-25.207,9.579-18.149,4.789-19.158,24.7-11.848,34.912l6.3.5,1.386-7.436,3.655,7.562,17.645,1.134Z" transform="translate(-428.289 -796.393)" fill="#232323"/>
            <path id="Tracé_4907" data-name="Tracé 4907" d="M540.237,902.07v27.779c0,.252-.01.494-.03.736a9.325,9.325,0,0,1-11.626,8.3,18.753,18.753,0,0,1-14.066-18.31l.141-18.5Z" transform="translate(-484.184 -864.898)" fill="#fcfcfc"/>
            <path id="Tracé_4908" data-name="Tracé 4908" d="M554.193,931.268v15.77c0,.252-.01.494-.03.736-7.431-1.22-16.022-9.821-18.119-19.188Z" transform="translate(-498.141 -882.087)" fill="#232323"/>
            <path id="Tracé_4909" data-name="Tracé 4909" d="M554.826,862.541a50.061,50.061,0,0,1-1.583,6.614c-2.218,7.048-6.2,12.9-13.33,11.878-16.758-2.4-26.084-19.662-26.084-19.662l11.464-13.108,7.693-10.345,23.06,9.962A86.724,86.724,0,0,1,554.826,862.541Z" transform="translate(-483.74 -823.311)" fill="#fcfcfc"/>
            <path id="Tracé_4910" data-name="Tracé 4910" d="M506.884,834.009c7.355-.235,13.043-3.982,15.461-14.621,0,0,17.141,14.788,25.544,6.89,7.036-6.614-4.9-21.831-24.658-23.644a27.994,27.994,0,0,0-20.013,6.106c-9.576,7.673-10.491,25.52-1.542,31.7Z" transform="translate(-471.838 -800.366)" fill="#232323"/>
            <path id="Tracé_4911" data-name="Tracé 4911" d="M503.037,816.709a7.857,7.857,0,0,1,.653-5.32,11.823,11.823,0,0,1,3.452-4.248,12.157,12.157,0,0,1,4.94-2.31,8.9,8.9,0,0,1,5.323.409,29.439,29.439,0,0,0-4.559,1.844,24.738,24.738,0,0,0-3.852,2.448,22.281,22.281,0,0,0-3.3,3.118A18.48,18.48,0,0,0,503.037,816.709Z" transform="translate(-476.603 -801.719)" fill="#fcfcfc"/>
            <g id="Groupe_5557" data-name="Groupe 5557" transform="translate(24.942 26.257)">
              <ellipse id="Ellipse_148" data-name="Ellipse 148" cx="5.735" cy="6.929" rx="5.735" ry="6.929" transform="translate(0 4.262) rotate(-21.816)" fill="#eaeaea"/>
              <path id="Tracé_4912" data-name="Tracé 4912" d="M517.9,893.8a8.215,8.215,0,0,0-.223-3.46,9.414,9.414,0,0,0-1.813-2.968l.248-.307a5.03,5.03,0,0,1,2.166,6.848Z" transform="translate(-510.002 -881.427)" fill="#1b1b43"/>
            </g>
            <g id="Groupe_5558" data-name="Groupe 5558" transform="translate(45.717 28.9)">
              <path id="Tracé_4913" data-name="Tracé 4913" d="M593.675,892.164a1.712,1.712,0,1,1-1.7-1.885A1.8,1.8,0,0,1,593.675,892.164Z" transform="translate(-579.01 -886.154)" fill="#1b1b43"/>
              <path id="Tracé_4914" data-name="Tracé 4914" d="M619.8,896.427a1.524,1.524,0,1,1-1.3-1.851A1.6,1.6,0,0,1,619.8,896.427Z" transform="translate(-596.193 -888.933)" fill="#1b1b43"/>
              <path id="Tracé_4915" data-name="Tracé 4915" d="M586.911,879.831c.068.881-1.34.964-3.416,1.026s-3.51.7-3.526.147,1.519-1.987,3.566-2.333C585.647,878.314,586.83,878.783,586.911,879.831Z" transform="translate(-572.332 -878.553)" fill="#1b1b43"/>
              <path id="Tracé_4916" data-name="Tracé 4916" d="M618.531,882.6c-.153.867.883,1.091,2.418,1.36s2.524,1.049,2.6.5-.9-2.125-2.378-2.673C619.645,881.219,618.712,881.567,618.531,882.6Z" transform="translate(-597.32 -880.473)" fill="#1b1b43"/>
              <path id="Tracé_4917" data-name="Tracé 4917" d="M610.905,904.311a14.727,14.727,0,0,0,1.279,1.326l.68.633a3.841,3.841,0,0,1,.716.8,1.448,1.448,0,0,1,.216.671,1.325,1.325,0,0,1-.168.714,2.484,2.484,0,0,1-.813.821,5.09,5.09,0,0,1-1.885.683l-.147-.366a13.936,13.936,0,0,0,1.5-1.027,1.937,1.937,0,0,0,.47-.565c.078-.168.056-.224-.038-.421-.224-.368-.8-.857-1.168-1.367a5.7,5.7,0,0,1-.99-1.718Z" transform="translate(-592.163 -895.25)" fill="#1b1b43"/>
              <path id="Tracé_4918" data-name="Tracé 4918" d="M586.665,921.954a12.644,12.644,0,0,0,3.394,2.953,7.11,7.11,0,0,0,4.286.744l.1.38a5.3,5.3,0,0,1-2.437.46,5.565,5.565,0,0,1-2.432-.7,7.793,7.793,0,0,1-3.248-3.624Z" transform="translate(-576.458 -906.687)" fill="#1b1b43"/>
              <ellipse id="Ellipse_149" data-name="Ellipse 149" cx="4.161" cy="4.161" rx="4.161" ry="4.161" transform="translate(0 5.875)" fill="#eaeaea"/>
              <path id="Tracé_4919" data-name="Tracé 4919" d="M625.549,907.918a50.063,50.063,0,0,1-1.583,6.614,4.159,4.159,0,0,1,1.583-6.614Z" transform="translate(-600.18 -897.589)" fill="#eaeaea"/>
            </g>
          </g>
          <g id="Groupe_5561" data-name="Groupe 5561" transform="translate(16.295 81.378)">
            <g id="Groupe_5560" data-name="Groupe 5560" transform="translate(0 7.049)">
              <path id="Tracé_4920" data-name="Tracé 4920" d="M451.148,1047.784l-24.031,11.427,7.537,17.866,25.2-11.62Z" transform="translate(-427.117 -1047.784)" fill="#fcfcfc"/>
              <path id="Tracé_4921" data-name="Tracé 4921" d="M746.5,1222.034c-.667-.334-1.083-.557-1.083-.557l.241-.474s.444.213,1.088.559Z" transform="translate(-633.456 -1160.073)" fill="#c5c5ff"/>
              <path id="Tracé_4922" data-name="Tracé 4922" d="M564.01,1144.8c-.776,1.533-6.725-1.18-9.5-2.541,2.147,1.19,5.848,3.529,4.2,4.81-1.321,1.018-4.245-1.15-13.824-5.122,1.452.686,10.012,4.759,7.854,6.3-2.349,1.674-12.432-2.017-12.432-2.017l-8.742,4.7H521.49l-36.279.232a26.449,26.449,0,0,1-6.725-.847,30.162,30.162,0,0,1-11.8-6.11,29.625,29.625,0,0,1-5.6-6.282,33.547,33.547,0,0,1-2.994-5.606l-9.569-22.667,25.2-11.626,13.148,26.69,43.357,9.418,12.1-3.025c2.6-.655,6.282.443,8.571,1.845C556.488,1136.37,564.736,1143.337,564.01,1144.8Z" transform="translate(-440.998 -1080.352)" fill="#fcfcfc"/>
            </g>
            <path id="Tracé_4923" data-name="Tracé 4923" d="M502.295,1215.577a10.983,10.983,0,0,1-.656,3.751,30.163,30.163,0,0,1-11.8-6.11,29.622,29.622,0,0,1-5.6-6.281,11.094,11.094,0,0,1,18.049,8.641Z" transform="translate(-464.151 -1142.316)" fill="#eaeaea"/>
            <path id="Tracé_4924" data-name="Tracé 4924" d="M680.626,1194.216a82.289,82.289,0,0,1,9.161-2.511,32.8,32.8,0,0,1,4.733-.675,14.278,14.278,0,0,1,2.433.064c.4.08.808.187,1.212.283.385.135.76.29,1.141.436a39.1,39.1,0,0,1,8,5.217c2.485,1.981,4.83,4.107,7.11,6.325l.1.1.022.129a1.911,1.911,0,0,1-.239,1.364,1.625,1.625,0,0,1-.548.483,1.563,1.563,0,0,1-.63.219,5.2,5.2,0,0,1-2.265-.222,22.473,22.473,0,0,1-3.914-1.643c-1.234-.659-2.45-1.347-3.63-2.086-1.2-.711-2.339-1.506-3.507-2.261l.533-.851a62.6,62.6,0,0,1,5.987,3.964,16.048,16.048,0,0,1,2.705,2.485,3.567,3.567,0,0,1,.526.888,1.647,1.647,0,0,1,.12.615,1.179,1.179,0,0,1-.259.688,1.845,1.845,0,0,1-1.023.572,5.931,5.931,0,0,1-.97.138l-.1.01-.108-.045-10.945-4.586.327-.769a38.111,38.111,0,0,1,5,2.7,6.813,6.813,0,0,1,2.176,2.026,1.182,1.182,0,0,1,.09.964,1.3,1.3,0,0,1-.65.669,3.627,3.627,0,0,1-1.506.338,21.245,21.245,0,0,1-5.633-.867c-1.823-.482-3.614-1.049-5.386-1.69l.133-.371c1.768.592,3.569,1.115,5.381,1.547a20.792,20.792,0,0,0,5.466.715c.858-.034,1.88-.411,1.463-.976a6.37,6.37,0,0,0-1.95-1.72,37.457,37.457,0,0,0-4.922-2.569l.328-.769,10.985,4.489-.206-.035a5.052,5.052,0,0,0,.789-.114,1,1,0,0,0,.515-.248c.154-.06-.053-.6-.4-1.008a15.253,15.253,0,0,0-2.543-2.3,61.887,61.887,0,0,0-5.9-3.867l.533-.851c1.159.742,2.285,1.544,3.465,2.247,1.163.736,2.355,1.415,3.558,2.065a21.6,21.6,0,0,0,3.721,1.585,4.394,4.394,0,0,0,1.823.214l.195-.035a1.1,1.1,0,0,0,.148-.075c.117-.034.152-.126.231-.184a1.015,1.015,0,0,0,.108-.636l.127.231c-2.231-2.2-4.578-4.31-7-6.3a38.415,38.415,0,0,0-7.754-5.2l-1.064-.423c-.364-.088-.724-.19-1.09-.27a13.684,13.684,0,0,0-2.293-.086,33.111,33.111,0,0,0-4.65.563,81.819,81.819,0,0,0-9.152,2.291Z" transform="translate(-591.454 -1133.578)" fill="#eaeaea"/>
            <path id="Tracé_4925" data-name="Tracé 4925" d="M448.4,1064.434l-.317-.687,24.864-11.471-10.356-24.234.7-.3,10.644,24.911Z" transform="translate(-440.705 -1027.744)" fill="#1b1b43"/>
          </g>
        </g>
        <g id="Groupe_5563" data-name="Groupe 5563" transform="translate(0 213.624)">
          <rect id="Rectangle_1880" data-name="Rectangle 1880" width="1.319" height="113.601" transform="translate(38.916 10.587)" fill="#fcfcfc"/>
          <rect id="Rectangle_1881" data-name="Rectangle 1881" width="79.151" height="15.629" rx="7.814" fill="#eaeaea"/>
          <path id="Rectangle_1882" data-name="Rectangle 1882" d="M13.041,0H40.4A13.041,13.041,0,0,1,53.44,13.041v0a0,0,0,0,1,0,0H0a0,0,0,0,1,0,0v0A13.041,13.041,0,0,1,13.041,0Z" transform="translate(12.856 118.542)" fill="#eaeaea"/>
        </g>
        <g id="Groupe_5565" data-name="Groupe 5565" transform="translate(73.522 158.672)">
          <g id="Groupe_5564" data-name="Groupe 5564" transform="translate(41.768 6.939)">
            <rect id="Rectangle_1883" data-name="Rectangle 1883" width="1.319" height="211.017" transform="translate(0.022 0.704) rotate(-32.247)" fill="#fcfcfc"/>
            <rect id="Rectangle_1884" data-name="Rectangle 1884" width="211.017" height="1.319" transform="translate(0 178.454) rotate(-57.738)" fill="#fcfcfc"/>
          </g>
          <rect id="Rectangle_1885" data-name="Rectangle 1885" width="197.29" height="14.878" fill="#eaeaea"/>
        </g>
      </g>
      <g id="Groupe_5568" data-name="Groupe 5568" transform="translate(353.997 42)">
        <path id="Tracé_4926" data-name="Tracé 4926" d="M511.218,394.069a27.694,27.694,0,1,1,27.693-27.694A27.725,27.725,0,0,1,511.218,394.069Zm0-54.8a27.1,27.1,0,1,0,27.1,27.1A27.134,27.134,0,0,0,511.218,339.273Z" transform="translate(-483.524 -325.392)" fill="#eaeaea"/>
        <g id="Groupe_5567" data-name="Groupe 5567" transform="translate(16.289)">
          <ellipse id="Ellipse_150" data-name="Ellipse 150" cx="30.132" cy="30.132" rx="30.132" ry="30.132" fill="#fcfcfc"/>
          <path id="Tracé_4927" data-name="Tracé 4927" d="M626.048,367.8l-16.7-13.1.547-.7,16.136,12.65,9-7.619.573.676Z" transform="translate(-595.905 -337.095)" fill="#1b1b43"/>
        </g>
      </g>
      <rect id="Rectangle_1886" data-name="Rectangle 1886" width="540.445" height="1.319" transform="translate(17.743 572.727)" fill="#a2a2a5"/>
    </g>
  </g>
</svg>
