<svg xmlns="http://www.w3.org/2000/svg" width="786" height="524.885" viewBox="0 0 786 524.885">
  <g id="login-visual-2" transform="translate(29 -217)">
    <path id="Tracé_1" data-name="Tracé 1" d="M145.987,741.885c-26.474,0-68.508-14.475-95.63-49.691-31.12-40.616-33.5-104.133-7.672-151.555,22.584-41.48,60.511-59.2,68.076-62.653,86.77-38.672,151.5,36.079,196.663,2.161,47.978-36.08,0-139.349,73.587-216.046a129.533,129.533,0,0,1,17.505-15.771c68.292-49.907,162.193-26.25,178.509-22.144,22.908,5.725,75.207,19.768,116.594,68.7,9.833,11.666,46.464,54.983,47.22,114.5.757,60.925-39.765,89.226-22.691,117.852,14.479,24.089,46.248,10.046,72.506,39.536,29.392,32.947,18.586,83.285,17.613,87.822-9.509,41.481-43.547,74.643-87.851,87.066Q433.2,741.993,145.987,741.885Z" transform="translate(-54 0)" fill="#a577ed"/>
    <path id="Tracé_2" data-name="Tracé 2" d="M292.664,684.014a7.216,7.216,0,1,0,7.216-7.213A7.214,7.214,0,0,0,292.664,684.014Zm2.4,0a4.811,4.811,0,1,1,4.811,4.809A4.81,4.81,0,0,1,295.069,684.014Z" transform="translate(-30.745 -52.815)" fill="#fff" fill-rule="evenodd"/>
    <path id="Tracé_3" data-name="Tracé 3" d="M619.531,720.186a7.217,7.217,0,1,0,7.217-7.213A7.215,7.215,0,0,0,619.531,720.186Zm2.4,0a4.811,4.811,0,0,1,4.812-4.809v.005a4.806,4.806,0,1,1-4.812,4.8Z" transform="translate(-68.291 -56.97)" fill="#fff" fill-rule="evenodd"/>
    <path id="Tracé_4" data-name="Tracé 4" d="M402.263,726.977a7.216,7.216,0,1,0,7.216-7.213A7.215,7.215,0,0,0,402.263,726.977Zm2.4,0a4.811,4.811,0,1,1,4.811,4.809A4.811,4.811,0,0,1,404.668,726.977Z" transform="translate(-43.334 -57.75)" fill="#fff" fill-rule="evenodd"/>
    <path id="Tracé_5" data-name="Tracé 5" d="M89.554,480.887a7.216,7.216,0,1,0,7.216-7.213A7.215,7.215,0,0,0,89.554,480.887Zm2.405,0a4.81,4.81,0,0,1,4.811-4.809v.005a4.806,4.806,0,1,1-4.811,4.8Z" transform="translate(318.585 -100.483)" fill="#fff" fill-rule="evenodd"/>
    <path id="Tracé_6" data-name="Tracé 6" d="M695.547,501.081a7.216,7.216,0,1,0,7.217-7.213A7.215,7.215,0,0,0,695.547,501.081Zm2.405,0a4.811,4.811,0,1,1,4.811,4.809A4.81,4.81,0,0,1,697.952,501.081Z" transform="translate(-77.023 -31.803)" fill="#fff" fill-rule="evenodd"/>
    <path id="Tracé_7" data-name="Tracé 7" d="M323.405,316.524a7.216,7.216,0,1,0,7.216-7.213A7.215,7.215,0,0,0,323.405,316.524Zm2.406,0a4.809,4.809,0,0,1,4.811-4.809v0a4.806,4.806,0,1,1-4.811,4.8Z" transform="translate(-34.276 -10.603)" fill="#fff" fill-rule="evenodd"/>
    <path id="Tracé_8" data-name="Tracé 8" d="M181.342,687.024a7.217,7.217,0,1,0,7.217-7.214A7.214,7.214,0,0,0,181.342,687.024Zm2.406,0a4.811,4.811,0,1,1,4.811,4.809A4.81,4.81,0,0,1,183.748,687.023Z" transform="translate(-17.958 -53.161)" fill="#fff" fill-rule="evenodd"/>
    <g id="Groupe_1" data-name="Groupe 1" transform="translate(118.74 558.56)" opacity="0.63">
      <path id="Tracé_9" data-name="Tracé 9" d="M544,602.885H362.7v47.738H544a23.869,23.869,0,1,0,0-47.738Z" transform="translate(-157.53 -602.885)" fill="#fff" opacity="0.7"/>
      <path id="Tracé_10" data-name="Tracé 10" d="M154.785,602.885a23.869,23.869,0,1,0,0,47.738H336.076V602.885Z" transform="translate(-130.905 -602.885)" fill="#fff"/>
    </g>
    <g id="Groupe_2" data-name="Groupe 2" transform="translate(565.329 325.614)" opacity="0.25">
      <path id="Tracé_11" data-name="Tracé 11" d="M771.969,361.175H670.334a2.133,2.133,0,0,0-2.122,2.123v87.435L695.126,423.8h76.842a2.123,2.123,0,0,0,2.117-2.119V363.3a2.127,2.127,0,0,0-2.117-2.123Z" transform="translate(-668.212 -361.175)" fill="#fff"/>
    </g>
    <rect id="Rectangle_1" data-name="Rectangle 1" width="82.635" height="5.186" rx="2.593" transform="translate(576.949 341.663)" fill="#17e59e"/>
    <rect id="Rectangle_2" data-name="Rectangle 2" width="73.157" height="5.186" rx="2.593" transform="translate(576.949 354.032)" fill="#17e59e"/>
    <rect id="Rectangle_3" data-name="Rectangle 3" width="58.347" height="5.186" rx="2.593" transform="translate(576.949 366.397)" fill="#17e59e"/>
    <g id="Groupe_3" data-name="Groupe 3" transform="translate(198.956 321.864)" opacity="0.25">
      <path id="Tracé_12" data-name="Tracé 12" d="M274.249,335.472h-51.64a1.082,1.082,0,0,0-1.077,1.078v44.428L235.2,367.3h39.044a1.078,1.078,0,0,0,1.077-1.079V336.55A1.078,1.078,0,0,0,274.249,335.472Z" transform="translate(-221.531 -335.472)" fill="#fff"/>
    </g>
    <rect id="Rectangle_4" data-name="Rectangle 4" width="41.989" height="2.634" rx="1.317" transform="translate(204.859 330.02)" fill="#fff"/>
    <rect id="Rectangle_5" data-name="Rectangle 5" width="37.172" height="2.634" rx="1.317" transform="translate(204.859 336.304)" fill="#fff"/>
    <rect id="Rectangle_6" data-name="Rectangle 6" width="29.648" height="2.634" rx="1.317" transform="translate(204.859 342.587)" fill="#fff"/>
    <g id="Groupe_4" data-name="Groupe 4" transform="translate(170.814 257.631)" opacity="0.25">
      <path id="Tracé_13" data-name="Tracé 13" d="M259.179,262.9h-68a1.444,1.444,0,0,0-1.444,1.445v58.474l18-18.018h51.438a1.444,1.444,0,0,0,1.444-1.421V264.325A1.444,1.444,0,0,0,259.179,262.9Z" transform="translate(-189.737 -262.904)" fill="#fff"/>
    </g>
    <rect id="Rectangle_7" data-name="Rectangle 7" width="55.287" height="3.472" rx="1.736" transform="translate(178.613 268.369)" fill="#17e59e"/>
    <rect id="Rectangle_8" data-name="Rectangle 8" width="48.946" height="3.472" rx="1.736" transform="translate(178.613 276.646)" fill="#17e59e"/>
    <rect id="Rectangle_9" data-name="Rectangle 9" width="39.039" height="3.472" rx="1.736" transform="translate(178.613 284.918)" fill="#17e59e"/>
    <g id="Groupe_5" data-name="Groupe 5" transform="translate(486.883 275.846)" opacity="0.25">
      <path id="Tracé_14" data-name="Tracé 14" d="M525.569,310.483H635.74a1.8,1.8,0,0,1,1.794,1.8v46.978l-22.782-22.784H525.569a1.8,1.8,0,0,1-1.79-1.8v-22.4A1.8,1.8,0,0,1,525.569,310.483Z" transform="translate(-574.952 -283.483)" fill="#fff"/>
    </g>
    <g id="Groupe_6" data-name="Groupe 6" transform="translate(336.931 245.324)" opacity="0.25">
      <rect id="Rectangle_13" data-name="Rectangle 13" width="78.699" height="133.255" rx="5.54" fill="#fff"/>
    </g>
    <path id="Tracé_15" data-name="Tracé 15" d="M413.17,365.408a11.51,11.51,0,1,0-17.956,9.539,6.734,6.734,0,0,1,12.894,0A11.512,11.512,0,0,0,413.17,365.408Z" transform="translate(-41.943 -15.724)" fill="#17e59e"/>
    <path id="Tracé_16" data-name="Tracé 16" d="M402.317,372.283a6.735,6.735,0,0,0-6.446,4.777,11.516,11.516,0,0,0,12.894,0A6.735,6.735,0,0,0,402.317,372.283Z" transform="translate(-42.6 -17.837)" fill="#fff"/>
    <path id="Tracé_17" data-name="Tracé 17" d="M402.583,369.629a4.4,4.4,0,1,0-4.4-4.4A4.4,4.4,0,0,0,402.583,369.629Z" transform="translate(-42.866 -16.521)" fill="#fff"/>
    <path id="Tracé_18" data-name="Tracé 18" d="M413.17,330.376a11.51,11.51,0,1,0-17.956,9.538,6.734,6.734,0,0,1,12.894,0A11.5,11.5,0,0,0,413.17,330.376Z" transform="translate(-41.943 -11.7)" fill="#ff9e01"/>
    <path id="Tracé_19" data-name="Tracé 19" d="M402.317,337.256a6.736,6.736,0,0,0-6.446,4.772,11.516,11.516,0,0,0,12.894,0A6.737,6.737,0,0,0,402.317,337.256Z" transform="translate(-42.6 -13.813)" fill="#fff"/>
    <path id="Tracé_20" data-name="Tracé 20" d="M402.583,334.6a4.4,4.4,0,1,0-4.4-4.4A4.4,4.4,0,0,0,402.583,334.6Z" transform="translate(-42.866 -12.497)" fill="#fff"/>
    <rect id="Rectangle_14" data-name="Rectangle 14" width="66.142" height="6.577" rx="3.289" transform="translate(343.21 252.725)" fill="#ff9e01"/>
    <rect id="Rectangle_15" data-name="Rectangle 15" width="27.324" height="4.391" rx="2.196" transform="translate(404.564 351.875) rotate(180)" fill="#4262ff"/>
    <path id="Tracé_21" data-name="Tracé 21" d="M413.17,295.484a11.51,11.51,0,1,0-17.956,9.539,6.734,6.734,0,0,1,12.894,0A11.5,11.5,0,0,0,413.17,295.484Z" transform="translate(-41.943 -7.692)" fill="#17e59e"/>
    <path id="Tracé_22" data-name="Tracé 22" d="M402.317,302.349a6.734,6.734,0,0,0-6.446,4.772,11.516,11.516,0,0,0,12.894,0A6.735,6.735,0,0,0,402.317,302.349Z" transform="translate(-42.6 -9.804)" fill="#fff"/>
    <path id="Tracé_23" data-name="Tracé 23" d="M402.583,299.7a4.4,4.4,0,1,0-4.4-4.4A4.4,4.4,0,0,0,402.583,299.7Z" transform="translate(-42.866 -8.489)" fill="#fff"/>
    <rect id="Rectangle_16" data-name="Rectangle 16" width="27.324" height="4.391" rx="2.196" transform="translate(404.564 289.988) rotate(180)" fill="#4262ff"/>
    <rect id="Rectangle_17" data-name="Rectangle 17" width="27.324" height="4.391" rx="2.196" transform="translate(404.564 319.89) rotate(180)" fill="#4262ff"/>
    <g id="Groupe_7" data-name="Groupe 7" transform="translate(76.797 328.253)" opacity="0.25">
      <path id="Tracé_24" data-name="Tracé 24" d="M73.209,342.69H174.844a2.128,2.128,0,0,1,2.122,2.123v87.431l-26.915-26.93H73.209a2.127,2.127,0,0,1-2.117-2.123V344.813A2.128,2.128,0,0,1,73.209,342.69Z" transform="translate(-71.092 -342.69)" fill="#fff"/>
    </g>
    <path id="Tracé_25" data-name="Tracé 25" d="M156.782,384.549a8.243,8.243,0,1,0-8.237-8.243A8.241,8.241,0,0,0,156.782,384.549Z" transform="translate(-3.191 -17.352)" fill="#4262ff"/>
    <path id="Tracé_26" data-name="Tracé 26" d="M129.826,384.549a8.243,8.243,0,1,0-8.237-8.243A8.24,8.24,0,0,0,129.826,384.549Z" transform="translate(-0.095 -17.352)" fill="#4262ff"/>
    <path id="Tracé_27" data-name="Tracé 27" d="M102.876,384.549a8.243,8.243,0,1,0-8.237-8.243A8.241,8.241,0,0,0,102.876,384.549Z" transform="translate(3.001 -17.352)" fill="#4262ff"/>
    <path id="Tracé_28" data-name="Tracé 28" d="M703.747,648.112s41.2,30.362,46.088,27.284,20.607-42.294,16.974-44.107-21.435,8.7-21.435,8.7L718.86,625.907Z" transform="translate(-77.964 -46.969)" fill="#21243d"/>
    <path id="Tracé_29" data-name="Tracé 29" d="M519.419,550.461l51.7-21.316a7.827,7.827,0,0,1,7.92,1.169c3.488,2.741,8.982,6.9,14.256,10.21,8.66,5.421,125.609,70.882,125.609,70.882l-27.568,41.885s-112.989-83.857-119.9-79.995c-8.179,4.565-79.545,22-79.545,22s-32.9,6.973-17.629-51.942" transform="translate(-51.141 -35.787)" fill="#ed7715"/>
    <path id="Tracé_30" data-name="Tracé 30" d="M453.938,613.891l58.448,32.055L471.692,767.455l41.156.077s36.878-138.924,34.569-144.138c-1.15-2.587-50.162-34.089-75.475-59.155-13.775-13.654-42.445-11.86-43.782-5.772-6.409,29,14.462,49.706,25.784,55.453" transform="translate(-46.171 -38.695)" fill="#ff9e01"/>
    <path id="Tracé_31" data-name="Tracé 31" d="M589.633,487.285a3.367,3.367,0,0,1-2.7-5.377l29.739-39.961a3.367,3.367,0,1,1,5.4,4.02l-29.739,39.962A3.369,3.369,0,0,1,589.633,487.285Z" transform="translate(-64.47 -25.683)" fill="#21243d"/>
    <path id="Tracé_32" data-name="Tracé 32" d="M525.01,404.061s-2.469-6.151-4.051-2.366-1.328,7.19.375,7.392,3.339-2.4,3.339-2.4Z" transform="translate(-56.847 -21.074)" fill="#ff9494"/>
    <path id="Tracé_33" data-name="Tracé 33" d="M538.138,425.832l-17.446,18.795-14.737,11.018-10.286-13.028,8.386-10.138,17.3-26.629Z" transform="translate(-54.063 -21.692)" fill="#ff9494"/>
    <path id="Tracé_34" data-name="Tracé 34" d="M558.292,394.608c.409,3.848-3.368,6.2-4.4,10.028-1.222,4.555-2.281,12.5-2.935,19.68-.245,2.7-1.136,9.931-3.31,12.5-1.491,1.78-3.7-4.237-4.734-2.516-3.252,5.421-11.479,11.288-13.1,10.759-3.07-1.01-5.081-7.483-6.062-10.1a36.622,36.622,0,0,1-2.17-16.16c.525-6.344.9-13.01,2.969-19.074a105.515,105.515,0,0,1,5.942-14.65c2.151-3.943,7.741,1.241,11.585-.245,6.323-2.433,11.706,1.342,14.718,6.589C558.167,393.887,558.254,394.359,558.292,394.608Z" transform="translate(-57.022 -19.133)" fill="#fdb4b1"/>
    <path id="Tracé_35" data-name="Tracé 35" d="M535.923,439.853a9.029,9.029,0,0,0,3.791.885.332.332,0,0,0,0-.659c-.038,0-3.647,0-5.345-2.362a4.744,4.744,0,0,1-.871-4.39.322.322,0,0,0-.173-.428.327.327,0,0,0-.434.173,5.346,5.346,0,0,0,.963,5.03A5.649,5.649,0,0,0,535.923,439.853Z" transform="translate(-58.31 -24.796)" fill="#94163d"/>
    <path id="Tracé_36" data-name="Tracé 36" d="M564.666,400.251a9.992,9.992,0,0,1-2.078,3.641c-1.54,1.674-3.642,1.193-5.139-.22-2.487-2.357-3.473-6.07-6.221-8.118a2.78,2.78,0,0,0-1.549-.664,4.217,4.217,0,0,0-2.146.88c-3.973,2.4-9.026,1.838-13.524.712a5.658,5.658,0,0,0-2.777-.24c-1.539.394-2.406,1.981-3.416,3.2s-2.983,2.146-4.109,1.02a3.418,3.418,0,0,1-.76-1.923l-.721-4.131c-.568-3.2-.881-7.114,1.7-9.085.626-.482,1.361-.784,1.991-1.251,2.1-1.568,2.565-4.593,4.427-6.449,2.117-2.112,5.683-2.377,8.506-2.261a3.365,3.365,0,0,1,2.161.654c.674.615.832,1.688,1.578,2.217a2.111,2.111,0,0,0,1.876.178c1.689-.563,2.935-2.126,4.436-3.016,3.156-1.871,4.941-.049,6.807,2.289a59.875,59.875,0,0,0,4.759,5.233c2.04,2.006,4.225,3.164,4.667,6.276C565.614,392.518,565.845,396.76,564.666,400.251Z" transform="translate(-57.069 -18.106)" fill="#21243d"/>
    <path id="Tracé_37" data-name="Tracé 37" d="M547.538,406.49l.087.034a.221.221,0,0,0,.274-.144.209.209,0,0,0,0-.173,7.457,7.457,0,0,1,1.477-.328,2.8,2.8,0,0,1,3.094,1.7.221.221,0,0,0,.172.165.221.221,0,0,0,.237-.324,3.282,3.282,0,0,0-3.57-1.977c-1.781.279-1.925.481-1.959.726A.333.333,0,0,0,547.538,406.49Z" transform="translate(-60 -21.641)" fill="#35393a"/>
    <path id="Tracé_38" data-name="Tracé 38" d="M549.937,410.523a1.111,1.111,0,0,0-.606-1.352,1.129,1.129,0,0,0-1.573,1.174c.024.807,1.1,1.6,1.539,1.443S550.38,410.989,549.937,410.523Z" transform="translate(-60.047 -22.062)" fill="#35393a"/>
    <path id="Tracé_39" data-name="Tracé 39" d="M592.91,495.24s13.616-6.733,21.968-13.986,7.578-12.067,5.124-11.471l-2.449.591s2.709-2.626.756-3.294a5.421,5.421,0,0,0-2.854-.419s2.17-2.688-.289-3.155l-2.459-.481s1.776-4.632-1.713-2.833-18.644,13.948-20.38,11.913-1.005-5.862,2.266-8.3,2.993-8.118-.962-5.728-7.289,5.237-8.319,9.5-.126,12-.126,12l-23.6,15.674,7.578,16.834Z" transform="translate(-61.438 -27.626)" fill="#fdb4b1"/>
    <path id="Tracé_40" data-name="Tracé 40" d="M502.906,454.5c6.428,3.819,6.307,16.487,6.639,23.013.851,16.982-3.965,33.392-7.862,49.782-3.594,15.14-5.581,22.205-5.6,22.277-1.9,6.027-51.75-5.035-65.164-1.991a2.175,2.175,0,0,1-2.613-2.443c2.406-16.569,10.908-71.526,20.381-85.57,11.2-16.592,42.229-21.459,42.229-21.459S493.812,449.1,502.906,454.5Z" transform="translate(-46.323 -25.398)" fill="#274dd8"/>
    <path id="Tracé_41" data-name="Tracé 41" d="M493.376,450.637S510.884,513.914,516.6,514.6s43.167-29.178,45.414-29.818,23.239,24.374,17.509,25.937-68.461,47.064-77.429,45.127-29.426-63.691-31.447-73.916S485.149,435.02,493.376,450.637Z" transform="translate(-51.17 -26.398)" fill="#4262ff"/>
    <path id="Tracé_42" data-name="Tracé 42" d="M262.955,394.222s.227-20.96,23.85-13.091c16.474,5.487,19.534,18.977,39,64.662s61.585,26.231,61.585,26.231,14.573,8.609,0,20.8c-16.229,13.581-4.2,20.805-18.082,23.4s-22.782-4.209-22.782-4.209l-53.959-44.983" transform="translate(-27.333 -18.65)" fill="#21243d"/>
    <path id="Tracé_43" data-name="Tracé 43" d="M290.612,416.937s2.262-6.253,3.965-2.5,1.573,7.138-.12,7.4-3.421-2.294-3.421-2.294Z" transform="translate(-30.51 -22.541)" fill="#ff9494"/>
    <path id="Tracé_44" data-name="Tracé 44" d="M268.815,429.413l17.966,18.29,14.809,10.769,8.79-12.461-8.719-9.86-18.408-25.836Z" transform="translate(-28.006 -22.205)" fill="#ff9494"/>
    <path id="Tracé_45" data-name="Tracé 45" d="M259.706,419.493c.861,3.573,3.271,7.988,3.425,13.769.058,2.178-.573,4.251.269,7.916.4,1.775,3.931-.028,4.812,1.251,2.738,4.03,10.171,7.81,11.744,7.17,2.978-1.206,5.293-6.732,6.414-9a29.229,29.229,0,0,0,3.113-13.5c-.087-5.131,0-10.537-1.583-15.246a62.339,62.339,0,0,0-4.691-11.254c-1.785-2.963-7.433,1.981-10.989,1.25-5.841-1.206-8.521,1.775-11.721,6.45C259.027,410.445,258.994,416.487,259.706,419.493Z" transform="translate(-26.908 -20.98)" fill="#fdb4b1"/>
    <path id="Tracé_46" data-name="Tracé 46" d="M276,443.052a8.941,8.941,0,0,1-3.757,1.01.327.327,0,1,1,0-.654c.034,0,3.642-.105,5.259-2.544a4.74,4.74,0,0,0,.722-4.415.329.329,0,0,1,.6-.279,5.342,5.342,0,0,1-.77,5.059A5.68,5.68,0,0,1,276,443.052Z" transform="translate(-28.362 -25.153)" fill="#94163d"/>
    <path id="Tracé_47" data-name="Tracé 47" d="M268.252,422.447l-.082.039a.221.221,0,0,1-.269-.308,7.784,7.784,0,0,0-1.487-.274,2.807,2.807,0,0,0-3.036,1.8.21.21,0,0,1-.108.127.216.216,0,0,1-.166.013.222.222,0,0,1-.14-.28,3.282,3.282,0,0,1,3.5-2.1c1.79.216,1.959.437,1.983.659A.331.331,0,0,1,268.252,422.447Z" transform="translate(-27.333 -23.483)" fill="#35393a"/>
    <path id="Tracé_48" data-name="Tracé 48" d="M266.4,426.557a1.115,1.115,0,0,1,.563-1.37,1.131,1.131,0,0,1,1.612,1.121c0,.808-1.044,1.63-1.487,1.5S265.976,427.039,266.4,426.557Z" transform="translate(-27.713 -23.899)" fill="#35393a"/>
    <g id="Groupe_8" data-name="Groupe 8" transform="translate(246.534 399.691)" opacity="0.42">
      <path id="Tracé_49" data-name="Tracé 49" d="M279.517,431.864a4.232,4.232,0,1,0-4.234-4.233A4.234,4.234,0,0,0,279.517,431.864Z" transform="translate(-275.283 -423.399)" fill="#fe5923"/>
    </g>
    <path id="Tracé_50" data-name="Tracé 50" d="M294.415,436.544c.6,1.356,1.323,2.069,2.04,2.069a.687.687,0,0,0,.135-.01c1.65-.231,2.074-4.132,1.592-7.7a17.8,17.8,0,0,0-1.3-4.968c-.664-1.447-1.414-2.16-2.175-2.058-1.65.23-2.049,4.131-1.592,7.694A17.822,17.822,0,0,0,294.415,436.544Zm.395-11.951h.039c.283,0,.813.443,1.4,1.645A17.25,17.25,0,0,1,297.494,431c.535,4.112-.2,6.772-.962,6.873-.308.038-.856-.371-1.444-1.646a17.281,17.281,0,0,1-1.241-4.761C293.314,427.353,294.049,424.694,294.81,424.594Z" transform="translate(-30.776 -23.763)" fill="#fce63d" fill-rule="evenodd"/>
    <path id="Tracé_51" data-name="Tracé 51" d="M296.878,457.478c-6.3,4.035-8.944,22.888-9.051,29.419-.283,17,15.628,30.593,20.078,46.839,4.1,15.01,6.456,13.615,6.481,13.688,2.4,6.844,44.09-24.182,45.587-15.294,0-.024-13.2-41.615-24.952-57.819a211.173,211.173,0,0,0-25.9-28.977S305.779,451.774,296.878,457.478Z" transform="translate(-30.189 -26.228)" fill="#17e59e"/>
    <path id="Tracé_52" data-name="Tracé 52" d="M198.933,463.89s-7.7-11.255-13.5-10.7a127.1,127.1,0,0,0-15.848,2.747c-4.489,1.01-13.231,4.55-3.7,4.766,4,.087,8,.1,12,.106a23.534,23.534,0,0,0,4.628,10.86c4.557,6.3,2.449,2.726,10.445,6.113s17.32,7.724,17.32,7.724l2.242-7.806Z" transform="translate(-15.692 -27.128)" fill="#ff9494"/>
    <path id="Tracé_53" data-name="Tracé 53" d="M285.752,464.727c-9.729,11.061-33.318,37.345-37.529,36.989-5.292-.447-33.679-28-35.57-29.015s-25.683,17.718-20.78,20.2,46.622,36.326,55.1,36.253,50.716-35.224,54.478-44.107-1.106-37.744-11.514-25.133c0,0-1.607,1.866-4.2,4.809" transform="translate(-19.092 -27.542)" fill="#18c482"/>
    <path id="Tracé_54" data-name="Tracé 54" d="M252.258,412.722a5.046,5.046,0,0,0,.784,2.439,2.849,2.849,0,0,0,2.8,1.322c1.8-.279,3.06-2.083,4.383-3.415a47.23,47.23,0,0,1,5.605-5.151c4.811-3.472,9.334-1.689,14.006,3.083,1.367,1.394,2.738,2.909,4.33,3.6a1.137,1.137,0,0,0,1.078.053c.534-.356.51-1.366.683-2.14.437-1.957,2.3-2.6,2.987-4.4a4.706,4.706,0,0,0-1.669-5.175,14.208,14.208,0,0,1-1.318-.62c-1.925-1.3-1.732-4.809-2.208-6.987a2.912,2.912,0,0,0-.323-.924,1.147,1.147,0,0,0-1.78-.134c-.52.443-.895,1.135-1.443,1.476-1.357.822-3.1-.644-4.624-.4a5.021,5.021,0,0,0-2.487,1.76c-.929.962-2.012.683-3.152-.11a31.962,31.962,0,0,0-2.641-1.958,3.9,3.9,0,0,0-2.487-.443c-3.2.553-5.981,3.718-8.064,6.026A16.431,16.431,0,0,0,252.258,412.722Z" transform="translate(-26.099 -20.322)" fill="#21243d"/>
    <path id="Tracé_55" data-name="Tracé 55" d="M260.226,407.531s0,5.059,3.85,6.055,5.995-2.433,8.713-.077,4.662,3.622,8.526,4.146,7.3-5.059,7.3-5.059l2.2-2.992V407.31l-19.669-7.074Z" transform="translate(-27.019 -21.047)" fill="#21243d"/>
    <path id="Tracé_56" data-name="Tracé 56" d="M180.553,479.76a3.365,3.365,0,0,1-1.9-.591l-32.717-22.455a3.368,3.368,0,0,1,3.816-5.551l32.716,22.455a3.366,3.366,0,0,1-1.924,6.142Z" transform="translate(-13.724 -26.829)" fill="#21243d"/>
    <path id="Tracé_57" data-name="Tracé 57" d="M115.244,677.36S88.9,697.079,84.7,694.674,60.539,667.318,63.253,665.62s17.97,6.541,17.97,6.541L101,659Z" transform="translate(-4.365 -50.771)" fill="#21243d"/>
    <path id="Tracé_58" data-name="Tracé 58" d="M125.127,606.607s-31.168,18.93-35.474,16.261-23.138-29.02-19.962-30.635,18.86,7.5,18.86,7.5l23.181-12.5Z" transform="translate(-5.092 -42.527)" fill="#21243d"/>
    <path id="Tracé_59" data-name="Tracé 59" d="M333.97,532.148s-29.571,23.21-37.091,18.733c-26.462-15.737-64.231-41.448-73.363-36.84-11.73,5.891-122.328,68.432-122.328,68.432l9.493,33.152s109.76-74.931,117.305-70.6,71.78,46.319,90.765,41.009C359.643,574.6,338.368,534.818,333.97,532.148Z" transform="translate(-8.751 -34.057)" fill="#fe5923"/>
    <path id="Tracé_60" data-name="Tracé 60" d="M330.339,537.633s-26.106,30.747-35.358,28.52c-32.529-7.83-79.752-22.123-88.46-15.135C195.334,560.007,91.611,651.5,91.611,651.5l18.577,29.429S209.892,577.667,219.121,579.75s89.169,24.754,108.312,14.3C368.719,571.54,335.757,538.99,330.339,537.633Z" transform="translate(-7.651 -36.83)" fill="#ed7715"/>
    <path id="Tracé_61" data-name="Tracé 61" d="M317.02,555.591s-2.247,7.743,1.828,9.792,44.317-19.1,44.409-21.642-2.728-7.113-2.728-7.113-27.666,15.794-32.751,16.833S317.02,555.591,317.02,555.591Z" transform="translate(-33.472 -36.714)" fill="#21243d"/>
    <path id="Tracé_62" data-name="Tracé 62" d="M322.574,566.371,319.65,567.9c-1.723.9-3.98-.75-5.013-3.669l-.323-.914c-1.039-2.919-.481-6.045,1.252-6.945l2.92-1.529c1.727-.9,3.984.746,5.019,3.665l.322.914C324.86,562.345,324.3,565.471,322.574,566.371Z" transform="translate(-33.172 -38.778)" fill="#fce63d"/>
    <path id="Tracé_63" data-name="Tracé 63" d="M346.949,511.123l-.293-.356a.756.756,0,0,1-.12-.221c-1.2-2.4-25.5-44.857-33.232-50.979a15.06,15.06,0,0,0-11.885-3.184,10.459,10.459,0,0,0-7.467,5.16,6.863,6.863,0,0,0,.135,6.3.722.722,0,0,1-1.294.64,8.265,8.265,0,0,1-.134-7.589,11.935,11.935,0,0,1,8.5-5.935,16.568,16.568,0,0,1,13.044,3.467c3.42,2.709,10.1,12.183,19.933,28.164,3.935,6.416,7.409,12.326,9.622,16.155,4.253,7.325,4.243,7.369,4.166,7.7l-.1.438Z" transform="translate(-30.646 -27.306)" fill="#fce63d"/>
    <path id="Tracé_64" data-name="Tracé 64" d="M329.2,526.559a.726.726,0,0,1-.553-.255c-.135-.159-13.588-16.125-20.733-27.414a.722.722,0,1,1,1.217-.769c7.1,11.206,20.487,27.091,20.622,27.25a.721.721,0,0,1-.553,1.188Z" transform="translate(-32.481 -32.248)" fill="#fce63d"/>
    <path id="Tracé_65" data-name="Tracé 65" d="M317.153,528.561a5.31,5.31,0,0,1,1.945-7.255l35.338-20.4a5.311,5.311,0,0,1,7.254,1.944l11.077,19.179a5.31,5.31,0,0,1-1.945,7.255l-35.338,20.4a5.311,5.311,0,0,1-7.254-1.944Z" transform="translate(-33.476 -32.53)" fill="#fce63d"/>
    <path id="Tracé_66" data-name="Tracé 66" d="M604.7,437.535a.963.963,0,0,1-.89-.605c-.116-.294-2.8-7.146-.087-11.362,1.236-1.923,3.338-2.967,6.253-3.106,10.5-.505,12.025-.866,15.194-5.91a7.661,7.661,0,0,1,5.772-3.7c4.078-.451,9.019,1.923,13.544,6.482a.962.962,0,0,1-1.366,1.356c-4.049-4.092-8.527-6.3-11.967-5.924a5.7,5.7,0,0,0-4.372,2.809c-3.742,5.968-6.339,6.314-16.729,6.808-2.289.111-3.848.836-4.733,2.226-2.179,3.366.231,9.55.255,9.617a.962.962,0,0,1-.539,1.245A.91.91,0,0,1,604.7,437.535Z" transform="translate(-66.336 -22.49)" fill="#fff"/>
    <path id="Tracé_67" data-name="Tracé 67" d="M595.7,422.411a.962.962,0,0,1-.962-.875c-.024-.235-.452-5.895,6.416-10.819s15.589-.264,15.954-.062a.962.962,0,1,1-.933,1.683c-.077-.043-7.985-4.3-13.9-.058s-5.628,9.035-5.622,9.083a.962.962,0,0,1-.871,1.048Z" transform="translate(-65.442 -21.993)" fill="#fff"/>
    <path id="Tracé_68" data-name="Tracé 68" d="M589.554,416.035a.959.959,0,0,1-.759-.366c-.111-.149-2.751-3.62-.395-9.616s9.841-6.612,10.159-6.631a.964.964,0,1,1,.135,1.923c-.105,0-6.585.539-8.5,5.42-1.958,4.967.1,7.693.12,7.693a.988.988,0,0,1-.756,1.577Z" transform="translate(-64.603 -20.954)" fill="#fff"/>
    <path id="Tracé_69" data-name="Tracé 69" d="M198.147,769.341a105.52,105.52,0,0,0,32.453,4.809,165.823,165.823,0,0,0,36.574-4.457l2.4-.548.133-.03c6.375-1.445,13.282-3.008,20.189-4.985,2.338,1,4.6,1.831,6.608,2.5,11.241,3.785,24.41,5.473,40.254,5.227,19.345-.3,40.33-4.318,64.163-12.29,29.893-10.025,60.079-24.041,92.277-42.794,23.39-13.645,46.087-29.321,68.035-44.482q6.455-4.468,12.91-8.9a.962.962,0,1,0-1.087-1.583q-6.465,4.444-12.915,8.9c-21.919,15.141-44.587,30.8-67.915,44.4-32.082,18.709-62.148,32.649-91.916,42.611-23.66,7.911-44.438,11.9-63.582,12.189-15.623.245-28.585-1.432-39.614-5.126-1.327-.442-2.771-.957-4.271-1.548,12.131-3.7,24.045-8.785,32.87-16.829,3.319-3.025,5.118-6.492,5.2-10.025.082-3.386-1.443-6.742-4.4-9.7-7.995-7.987-25.045-7.746-37.036-3.471-11.251,4.02-18.186,11.151-19.028,19.565-.924,9.281,7.883,15.868,16.7,20.085-6.176,1.692-12.313,3.082-18.018,4.371l-2.4.553c-26.382,5.982-48.623,5.9-68-.269a76.232,76.232,0,0,1-40.508-30.163c-15.348-22.735-21.294-55.47,0-77.343,19.008-19.536,48.243-24.177,63.97-25.205a126.324,126.324,0,0,1,13.218-.178.962.962,0,0,0,.073-1.924,129.252,129.252,0,0,0-13.415.182c-16.007,1.049-45.766,5.79-65.226,25.783-22.053,22.647-16,56.378-.226,79.76A78.175,78.175,0,0,0,198.147,769.341Zm92-44.3a49.174,49.174,0,0,1,16.32-2.823v0c7.849,0,14.876,2.015,18.682,5.838,2.587,2.577,3.915,5.448,3.848,8.3-.067,3-1.65,5.991-4.569,8.655-9.105,8.3-21.712,13.391-34.405,17.07-8.894-3.885-18.522-10.2-17.638-19.089C273.152,735.336,279.626,728.8,290.15,725.041Z" transform="translate(-13.494 -47.738)" fill="#fff" fill-rule="evenodd"/>
    <path id="check-solid_2_" data-name="check-solid (2)" d="M4.959,75.772.214,71.027a.73.73,0,0,1,0-1.032l1.032-1.032a.73.73,0,0,1,1.032,0l3.2,3.2,6.846-6.846a.73.73,0,0,1,1.032,0l1.032,1.032a.73.73,0,0,1,0,1.032l-8.395,8.4a.73.73,0,0,1-1.032,0Z" transform="translate(440.4 245.063)" fill="#17e59e"/>
    <g id="Groupe_272" data-name="Groupe 272" transform="translate(-549.391 -0.143)">
      <g id="Groupe_271" data-name="Groupe 271" transform="translate(665 236.306)">
        <g id="Groupe_261" data-name="Groupe 261" transform="translate(14.079 16.319)">
          <path id="Tracé_434" data-name="Tracé 434" d="M420.832,71.456a11.506,11.506,0,0,1,0,15.557,11.074,11.074,0,0,1-15.3,0,11.507,11.507,0,0,1,0-15.557,11.074,11.074,0,0,1,15.3,0Zm19.257-2.481-35.57,59.2h-1.934l35.57-59.2ZM406.7,85.92a9.238,9.238,0,0,0,12.95,0,10.119,10.119,0,0,0,0-13.37,9.238,9.238,0,0,0-12.95,0,10.119,10.119,0,0,0,0,13.37Zm30.525,24.3a11.507,11.507,0,0,1,0,15.557,11.074,11.074,0,0,1-15.3,0,11.507,11.507,0,0,1,0-15.557,11.074,11.074,0,0,1,15.3,0ZM423.1,124.685a9.238,9.238,0,0,0,12.95,0,10.119,10.119,0,0,0,0-13.37,9.238,9.238,0,0,0-12.95,0,10.119,10.119,0,0,0,0,13.37Z" transform="translate(-402.5 -68.387)" fill="#a577ed"/>
        </g>
        <g id="Groupe_262" data-name="Groupe 262" transform="translate(467.06 24.134)">
          <path id="Tracé_435" data-name="Tracé 435" d="M668.413,64.344a7.549,7.549,0,0,1,0,10.21,7.27,7.27,0,0,1-10.044,0,7.554,7.554,0,0,1,0-10.21,7.27,7.27,0,0,1,10.044,0Zm12.639-1.626-23.345,38.85h-1.268l23.343-38.85ZM659.141,73.836a6.063,6.063,0,0,0,8.5,0,6.637,6.637,0,0,0,0-8.774,6.063,6.063,0,0,0-8.5,0,6.642,6.642,0,0,0,0,8.774Zm20.034,15.949a7.554,7.554,0,0,1,0,10.21,7.266,7.266,0,0,1-10.044,0,7.549,7.549,0,0,1,0-10.21,7.27,7.27,0,0,1,10.044,0ZM669.9,99.277a6.063,6.063,0,0,0,8.5,0,6.642,6.642,0,0,0,0-8.774,6.063,6.063,0,0,0-8.5,0,6.637,6.637,0,0,0,0,8.774Z" transform="translate(-656.383 -62.331)" fill="#a577ed"/>
        </g>
        <g id="Groupe_263" data-name="Groupe 263" transform="translate(275.098 387.561)">
          <path id="Tracé_436" data-name="Tracé 436" d="M534.058,244.764a7.554,7.554,0,0,1,0,10.21,7.27,7.27,0,0,1-10.044,0,7.549,7.549,0,0,1,0-10.21,7.266,7.266,0,0,1,10.044,0Zm12.637-1.628L523.35,281.987h-1.266l23.342-38.851Zm-21.909,11.12a6.063,6.063,0,0,0,8.5,0,6.642,6.642,0,0,0,0-8.774,6.063,6.063,0,0,0-8.5,0,6.642,6.642,0,0,0,0,8.774ZM544.818,270.2a7.549,7.549,0,0,1,0,10.21,7.266,7.266,0,0,1-10.044,0,7.554,7.554,0,0,1,0-10.21,7.266,7.266,0,0,1,10.044,0Zm-9.272,9.492a6.063,6.063,0,0,0,8.5,0,6.637,6.637,0,0,0,0-8.774,6.063,6.063,0,0,0-8.5,0,6.642,6.642,0,0,0,0,8.774Z" transform="translate(-522.026 -242.749)" fill="#9550ef"/>
        </g>
        <g id="Groupe_264" data-name="Groupe 264" transform="translate(380.568 317.398)">
          <path id="Tracé_437" data-name="Tracé 437" d="M633.044,251.275h-13.52v13.575h-1.1V251.275H604.955v-.994h13.466V236.706h1.1v13.576h13.52Z" transform="translate(-604.955 -236.706)" fill="#9550ef"/>
        </g>
        <g id="Groupe_265" data-name="Groupe 265" transform="translate(77 181.046)">
          <path id="Tracé_438" data-name="Tracé 438" d="M406.758,188.038h-13.52v13.576h-1.1V188.038H378.669v-.994h13.466V173.469h1.1v13.576h13.52Z" transform="translate(-378.669 -173.469)" fill="#a577ed"/>
        </g>
        <g id="Groupe_266" data-name="Groupe 266" transform="translate(147.22 -2)">
          <path id="Tracé_439" data-name="Tracé 439" d="M506.214,47.981l-23.461,91.742h-1.682l23.293-91.742Z" transform="translate(-481.071 -47.981)" fill="#a577ed"/>
        </g>
        <g id="Groupe_267" data-name="Groupe 267" transform="translate(171.983 94.024)">
          <path id="Tracé_440" data-name="Tracé 440" d="M545.414,58.7v1.514h-40.7V58.7Zm0,14.884V75.1h-40.7V73.582Z" transform="translate(-504.714 -58.698)" fill="#a577ed"/>
        </g>
        <g id="Groupe_268" data-name="Groupe 268" transform="translate(104.669 413.952)">
          <path id="Tracé_441" data-name="Tracé 441" d="M681.7,260.225v1.236H648.421v-1.236Zm0,12.168v1.238H648.421v-1.238Z" transform="translate(-648.421 -260.225)" fill="#9550ef"/>
        </g>
        <g id="Groupe_269" data-name="Groupe 269" transform="translate(395.105 4.467)">
          <path id="Tracé_442" data-name="Tracé 442" d="M683.16,199.487h-20.6v20.686h-1.682V199.487h-20.52v-1.514h20.52V177.287h1.682v20.686h20.6Z" transform="translate(-640.356 -177.287)" fill="#9550ef"/>
        </g>
        <g id="Groupe_270" data-name="Groupe 270" transform="translate(99.722 45.915)">
          <path id="Tracé_443" data-name="Tracé 443" d="M468.573,75.282V76.8H437.964V75.282Z" transform="translate(-437.964 -75.282)" fill="#a577ed"/>
        </g>
      </g>
    </g>
    <rect id="Rectangle_312" data-name="Rectangle 312" width="82.989" height="2.634" rx="1.317" transform="translate(460.859 314.02)" fill="#fff"/>
  </g>
</svg>
