<svg xmlns="http://www.w3.org/2000/svg" width="826.193" height="615.613" viewBox="0 0 826.193 615.613">
  <g id="Security_On-rafiki_2_" data-name="Security On-rafiki (2)" transform="translate(0 -55)">
    <g id="freepik--background-complete--inject-2" transform="translate(0 55)">
      <rect id="Rectangle_667" data-name="Rectangle 667" width="826.193" height="0.413" transform="translate(0 540.991)" fill="#ebebeb"/>
      <path id="Tracé_2085" data-name="Tracé 2085" d="M366.688,522.295H47.629a9.435,9.435,0,0,1-9.419-9.435V64.353A9.435,9.435,0,0,1,47.629,55H366.688a9.435,9.435,0,0,1,9.435,9.435V512.86A9.435,9.435,0,0,1,366.688,522.295ZM47.629,55.33a9.022,9.022,0,0,0-9.006,9.022V512.86a9.022,9.022,0,0,0,9.005,9.022H366.688a9.039,9.039,0,0,0,9.022-9.022V64.353a9.039,9.039,0,0,0-9.022-9.022Z" transform="translate(24.928 -55)" fill="#ebebeb"/>
      <path id="Tracé_2086" data-name="Tracé 2086" d="M583.011,522.295H263.935a9.452,9.452,0,0,1-9.435-9.435V64.353A9.452,9.452,0,0,1,263.935,55H583.011a9.435,9.435,0,0,1,9.4,9.353V512.86A9.435,9.435,0,0,1,583.011,522.295ZM263.935,55.33a9.039,9.039,0,0,0-9.022,9.022V512.86a9.039,9.039,0,0,0,9.022,9.022H583.011a9.039,9.039,0,0,0,9.022-9.022V64.353a9.039,9.039,0,0,0-9.022-9.022Z" transform="translate(166.032 -55)" fill="#ebebeb"/>
      <rect id="Rectangle_668" data-name="Rectangle 668" width="52.166" height="0.413" transform="translate(691.243 556.722)" fill="#ebebeb"/>
      <rect id="Rectangle_669" data-name="Rectangle 669" width="55.206" height="0.413" transform="translate(498.905 552.244)" fill="#ebebeb"/>
      <rect id="Rectangle_670" data-name="Rectangle 670" width="103.159" height="0.413" transform="translate(655.32 572.073)" fill="#ebebeb"/>
      <rect id="Rectangle_671" data-name="Rectangle 671" width="31.775" height="0.413" transform="translate(86.684 569.297)" fill="#ebebeb"/>
      <rect id="Rectangle_672" data-name="Rectangle 672" width="50.051" height="0.413" transform="translate(133.182 569.297)" fill="#ebebeb"/>
      <rect id="Rectangle_673" data-name="Rectangle 673" width="90.154" height="0.413" transform="translate(313.26 562.324)" fill="#ebebeb"/>
      <rect id="Rectangle_674" data-name="Rectangle 674" width="287.119" height="71.978" transform="translate(619.05 253.873) rotate(90)" fill="#f0f0f0"/>
      <rect id="Rectangle_675" data-name="Rectangle 675" width="63.319" height="64.08" transform="translate(615.101 262.25) rotate(90)" fill="#f5f5f5"/>
      <path id="Tracé_2087" data-name="Tracé 2087" d="M372.651,213.21H344.28a6.61,6.61,0,0,0,6.609,6.61h15.235A6.61,6.61,0,0,0,372.651,213.21Z" transform="translate(224.604 48.214)" fill="#e6e6e6"/>
      <rect id="Rectangle_676" data-name="Rectangle 676" width="63.319" height="64.08" transform="translate(615.101 331.271) rotate(90)" fill="#f5f5f5"/>
      <rect id="Rectangle_677" data-name="Rectangle 677" width="63.319" height="64.08" transform="translate(615.101 400.274) rotate(90)" fill="#f5f5f5"/>
      <rect id="Rectangle_678" data-name="Rectangle 678" width="63.319" height="64.08" transform="translate(615.101 469.278) rotate(90)" fill="#f5f5f5"/>
      <path id="Tracé_2088" data-name="Tracé 2088" d="M372.651,255H344.28a6.61,6.61,0,0,0,6.609,6.61h15.235A6.61,6.61,0,0,0,372.651,255Z" transform="translate(224.604 75.477)" fill="#e6e6e6"/>
      <path id="Tracé_2089" data-name="Tracé 2089" d="M372.651,296.73H344.28a6.61,6.61,0,0,0,6.609,6.61h15.235A6.61,6.61,0,0,0,372.651,296.73Z" transform="translate(224.604 102.702)" fill="#e6e6e6"/>
      <path id="Tracé_2090" data-name="Tracé 2090" d="M372.651,338.49H344.28a6.61,6.61,0,0,0,6.609,6.61h15.235A6.61,6.61,0,0,0,372.651,338.49Z" transform="translate(224.604 129.945)" fill="#e6e6e6"/>
      <rect id="Rectangle_679" data-name="Rectangle 679" width="287.119" height="35.956" transform="translate(655.006 253.873) rotate(90)" fill="#f5f5f5"/>
      <rect id="Rectangle_680" data-name="Rectangle 680" width="287.119" height="71.978" transform="translate(697.522 253.889) rotate(90)" fill="#f0f0f0"/>
      <rect id="Rectangle_681" data-name="Rectangle 681" width="63.319" height="64.08" transform="translate(693.573 262.25) rotate(90)" fill="#f5f5f5"/>
      <path id="Tracé_2091" data-name="Tracé 2091" d="M420.141,213.21H391.77a6.61,6.61,0,0,0,6.61,6.61h15.252A6.61,6.61,0,0,0,420.141,213.21Z" transform="translate(255.586 48.214)" fill="#e6e6e6"/>
      <rect id="Rectangle_682" data-name="Rectangle 682" width="63.319" height="64.08" transform="translate(693.573 331.254) rotate(90)" fill="#f5f5f5"/>
      <rect id="Rectangle_683" data-name="Rectangle 683" width="63.319" height="64.08" transform="translate(693.589 400.274) rotate(90)" fill="#f5f5f5"/>
      <rect id="Rectangle_684" data-name="Rectangle 684" width="63.319" height="64.08" transform="translate(693.573 469.278) rotate(90)" fill="#f5f5f5"/>
      <path id="Tracé_2092" data-name="Tracé 2092" d="M420.141,255H391.77a6.61,6.61,0,0,0,6.61,6.61h15.252A6.61,6.61,0,0,0,420.141,255Z" transform="translate(255.586 75.477)" fill="#e6e6e6"/>
      <path id="Tracé_2093" data-name="Tracé 2093" d="M420.141,296.73H391.77a6.61,6.61,0,0,0,6.61,6.61h15.252A6.61,6.61,0,0,0,420.141,296.73Z" transform="translate(255.586 102.702)" fill="#e6e6e6"/>
      <path id="Tracé_2094" data-name="Tracé 2094" d="M420.141,338.49H391.77a6.61,6.61,0,0,0,6.61,6.61h15.252A6.61,6.61,0,0,0,420.141,338.49Z" transform="translate(255.586 129.945)" fill="#e6e6e6"/>
      <rect id="Rectangle_685" data-name="Rectangle 685" width="287.119" height="35.956" transform="translate(733.478 253.873) rotate(90)" fill="#f5f5f5"/>
      <rect id="Rectangle_686" data-name="Rectangle 686" width="21.018" height="57.338" transform="translate(667.465 196.535)" fill="#e0e0e0"/>
      <path id="Tracé_2095" data-name="Tracé 2095" d="M364,245.272h80.174L456.1,152.49H375.93Z" transform="translate(237.469 8.601)" fill="#e6e6e6"/>
      <path id="Tracé_2096" data-name="Tracé 2096" d="M358.46,245.272h87.279l11.947-92.782h-87.3Z" transform="translate(233.855 8.601)" fill="#f0f0f0"/>
      <path id="Tracé_2097" data-name="Tracé 2097" d="M436.122,235.084l10.047-78.174H373.513L363.45,235.084Z" transform="translate(237.11 11.485)" fill="#fff"/>
      <ellipse id="Ellipse_93" data-name="Ellipse 93" cx="21.233" cy="18.672" rx="21.233" ry="18.672" transform="matrix(0.729, -0.684, 0.684, 0.729, 613.653, 208.367)" fill="#e6e6e6"/>
      <rect id="Rectangle_687" data-name="Rectangle 687" width="224.229" height="473.888" transform="translate(522.32 540.992) rotate(180)" fill="#e6e6e6"/>
      <rect id="Rectangle_688" data-name="Rectangle 688" width="224.229" height="473.888" transform="translate(517.329 540.992) rotate(180)" fill="#f5f5f5"/>
      <rect id="Rectangle_689" data-name="Rectangle 689" width="453.795" height="206.334" transform="translate(508.39 77.15) rotate(90)" fill="#fff"/>
      <rect id="Rectangle_690" data-name="Rectangle 690" width="453.795" height="3.767" transform="translate(305.824 77.15) rotate(90)" fill="#e6e6e6"/>
      <rect id="Rectangle_691" data-name="Rectangle 691" width="216.826" height="13.483" transform="translate(513.644 224.328) rotate(180)" fill="#f5f5f5"/>
      <rect id="Rectangle_692" data-name="Rectangle 692" width="31.247" height="202.632" transform="translate(254.501 528.152) rotate(180)" fill="#f0f0f0"/>
      <rect id="Rectangle_693" data-name="Rectangle 693" width="154.118" height="12.839" transform="translate(248.502 540.992) rotate(180)" fill="#f0f0f0"/>
      <rect id="Rectangle_694" data-name="Rectangle 694" width="134.868" height="202.632" transform="translate(88.386 325.52)" fill="#f5f5f5"/>
      <rect id="Rectangle_695" data-name="Rectangle 695" width="110.297" height="66.459" transform="translate(100.663 350.455)" fill="#f0f0f0"/>
      <rect id="Rectangle_696" data-name="Rectangle 696" width="110.297" height="66.459" transform="translate(100.663 436.759)" fill="#f0f0f0"/>
      <rect id="Rectangle_697" data-name="Rectangle 697" width="30.867" height="9.121" rx="2.26" transform="translate(123.037 368.267) rotate(90)" fill="#f5f5f5"/>
      <rect id="Rectangle_698" data-name="Rectangle 698" width="30.867" height="9.121" rx="2.26" transform="translate(123.02 454.555) rotate(90)" fill="#f5f5f5"/>
      <path id="Tracé_2098" data-name="Tracé 2098" d="M157.913,190.9c-3.487,1.752-12.988-.132-9.832,6.3a54.528,54.528,0,0,0,6.494,9.419c3.536,4.362,2.875,9.1-1.305,10.823a5.156,5.156,0,0,0-2.313,1.652c-1.917,2.76,2.627,6.461,4.858,9.22s3.123,5.469,1.487,7.535-5.618,1.421-8.625,2.115c-7.254,1.652.2,11.567-.562,16.772-.529,3.5-3.387,4.495-7.254,4.957-3.156.4-7.37.677-7.551,3.916-.149,2.809,3.5,5.982,4.461,8.923a9.2,9.2,0,0,1-.711,7.766,8.477,8.477,0,0,1-5.684,3.718c-3.586.76-9.006,0-9.27,4.015-.116,1.8,1.14,3.4.264,5.073a5.767,5.767,0,0,1-4.2,2.479,30.8,30.8,0,0,1-10.344-.182c-4.214-.777-10.427-4.495-8.146-8.064a4.858,4.858,0,0,1,3.3-1.867c1.008-.215,3.949.1,4.329-.578s-.628-3.3-.677-4.263a20.225,20.225,0,0,1,1.223-7.733,23.679,23.679,0,0,1,5.436-8.609c1.008-1.008,2.594-1.752,2.793-3.222a7.105,7.105,0,0,0-1.652-4.528c-1.652-2.28-4.114-4.445-4.957-6.874-1.421-3.8,2.016-4.957,5.188-5.883,2.892-.777,6.61-1.785,5.7-5.288-.711-2.528-3.883-4.594-4.841-7.056-1.289-3.3,1.834-3.42,4.065-4.61,2.908-1.537,3.635-4.263,2.594-7.733-1.652-5.7-12.211-13.764-6.857-17.482,1.371-.942,2.627-1.256,3.453-2.677s.991-3.4,2.132-4.775c1.8-2.181,5.536-2.545,7.485-4.577,4-4.147-4.643-11.567,3.3-13.219a9.369,9.369,0,0,0,4.61-1.9c.727-.677,1.305-3.933,2.115-4.164,3.619-1.008,10.146,6.015,12.195,8.179C152.873,181.039,162.11,188.806,157.913,190.9Z" transform="translate(64.713 20.155)" fill="#e0e0e0"/>
      <path id="Tracé_2099" data-name="Tracé 2099" d="M108.8,296.279c2.148-3.982,11.567-7.948,5.3-12.558A52.25,52.25,0,0,0,103.33,278.1c-5.453-2.28-7.386-7.535-4.627-11.881a6.609,6.609,0,0,0,1.173-3.09c.231-4.015-5.767-4.957-9.2-6.411s-5.7-3.668-5.337-6.808c.38-3.453,4.181-4.957,6.461-7.518,5.519-6.2-6.411-11.8-8.477-17.532-1.4-3.916.578-6.61,3.734-9.6,2.561-2.379,6.13-5.288,4.544-8.708-1.355-2.974-6.279-3.949-8.692-6.378A11.666,11.666,0,0,1,79.37,191.8a10.79,10.79,0,0,1,3.024-7.337c2.759-3.007,7.964-5.569,6.031-9.914-.876-1.917-2.842-2.776-2.958-4.957a7.353,7.353,0,0,1,2.4-5.155,30.933,30.933,0,0,1,9.22-6.23c4.131-1.818,11.567-1.884,11.567,3.189a6.213,6.213,0,0,1-1.884,3.949c-.777.843-3.536,2.33-3.5,3.3s2.33,2.991,2.875,3.949a26.075,26.075,0,0,1,3.057,8.675,32.552,32.552,0,0,1-.182,12.195c-.347,1.652-1.355,3.4-.744,5.04a7.733,7.733,0,0,0,3.966,3.553c2.627,1.322,6,1.983,8.1,3.916,3.3,3.024.909,6.395-1.438,9.253-2.132,2.594-4.957,5.982-2.2,8.956,1.983,2.148,5.882,2.28,8.047,4.214,2.892,2.594.215,4.66-1.124,7.254-1.652,3.3-.925,6.61,1.851,9.518,4.594,4.775,18.176,6.61,15.4,13.649-.694,1.818-1.652,2.925-1.652,4.875s.942,4.114.677,6.229c-.43,3.3-3.52,6.048-4.164,9.336-1.305,6.725,10.261,8.906,4.247,15.6a11.435,11.435,0,0,0-3.04,4.825c-.281,1.124.942,4.825.347,5.568-2.644,3.3-12.162.149-15.119-.81C118.532,303.235,106.238,301.021,108.8,296.279Z" transform="translate(51.78 11.594)" fill="#f5f5f5"/>
      <path id="Tracé_2100" data-name="Tracé 2100" d="M82.62,235.89s1.14,26.62,44.714,26.62,44.73-26.62,44.73-26.62Z" transform="translate(53.9 63.01)" fill="#f0f0f0"/>
    </g>
    <g id="freepik--Shadow--inject-2" transform="translate(92.715 633.203)">
      <ellipse id="freepik--path--inject-2" cx="320.381" cy="18.705" rx="320.381" ry="18.705" fill="#061923"/>
    </g>
    <g id="freepik--Character--inject-2" transform="translate(434.386 148.075)">
      <path id="Tracé_2101" data-name="Tracé 2101" d="M319.979,420.236l-13.252-.2L303.67,389.27l13.269.2Z" transform="translate(-236.275 69.998)" fill="#ffb573"/>
      <path id="Tracé_2102" data-name="Tracé 2102" d="M364.14,420.168H350.887L340.56,389.45h13.252Z" transform="translate(-212.209 70.116)" fill="#ffb573"/>
      <path id="Tracé_2103" data-name="Tracé 2103" d="M355.436,407.11H371.6a1.173,1.173,0,0,1,1.14.909l2.611,11.8a1.917,1.917,0,0,1-1.933,2.346c-5.205-.083-9.006-.4-15.549-.4-4.032,0-16.193.43-21.762.43s-6.3-5.5-4.015-6.015c10.212-2.231,17.912-5.3,21.184-8.262A3.3,3.3,0,0,1,355.436,407.11Z" transform="translate(-218.526 81.637)" fill="#263238"/>
      <path id="Tracé_2104" data-name="Tracé 2104" d="M318.3,407l14.475.231a1.157,1.157,0,0,1,1.124.909l2.429,11.831a1.917,1.917,0,0,1-1.933,2.33c-5.238-.165-12.773-.595-19.349-.694-7.667-.116-14.31.2-23.315,0-5.436-.083-6.857-5.6-4.577-6.064,10.41-2.115,18.887-2.231,27.942-7.617A6.18,6.18,0,0,1,318.3,407Z" transform="translate(-247.733 81.565)" fill="#263238"/>
      <path id="Tracé_2105" data-name="Tracé 2105" d="M340.217,172.111a297.686,297.686,0,0,1-14,27.231c-2.561,4.412-5.238,8.791-8.146,13.087a144.333,144.333,0,0,1-9.386,12.707l-1.305,1.553-.661.777c-.231.264-.38.463-.843.942A15.978,15.978,0,0,1,298.841,233a13.218,13.218,0,0,1-5.2.545,13.879,13.879,0,0,1-4.478-1.157,19.069,19.069,0,0,1-5.5-3.784,35.23,35.23,0,0,1-5.783-7.6,77.485,77.485,0,0,1-3.751-7.37A146.721,146.721,0,0,1,265,183.959L274.518,181c2.032,4.329,4.131,8.807,6.329,13.07s4.445,8.526,6.874,12.442a62.313,62.313,0,0,0,3.718,5.536,21.958,21.958,0,0,0,3.635,3.9c.5.38.876.463.677.3a2.5,2.5,0,0,0-.892-.281,4.081,4.081,0,0,0-1.537.116c-.991.314-1.14.545-1.024.33l1.834-2.528a233.883,233.883,0,0,0,14.64-24.274c4.544-8.444,8.972-17.267,13.12-25.81Z" transform="translate(-261.503 -77.095)" fill="#ffb573"/>
      <path id="Tracé_2106" data-name="Tracé 2106" d="M332.414,167.9c3.569,12.162-21.6,45.325-21.6,45.325L285.42,196.9a161.618,161.618,0,0,1,17.6-29.743C313.411,153.822,328.481,154.549,332.414,167.9Z" transform="translate(-248.181 -81.196)" fill="#407bff"/>
      <path id="Tracé_2107" data-name="Tracé 2107" d="M332.414,167.9c3.569,12.162-21.6,45.325-21.6,45.325L285.42,196.9a161.618,161.618,0,0,1,17.6-29.743C313.411,153.822,328.481,154.549,332.414,167.9Z" transform="translate(-248.181 -81.196)" opacity="0.2"/>
      <path id="Tracé_2108" data-name="Tracé 2108" d="M311.164,172.539c-5.222,2.231-12.905,14.871-16.9,24.125l10.774,6.923a202.911,202.911,0,0,0,16.193-25.381C317.823,174.473,313.923,171.366,311.164,172.539Z" transform="translate(-242.414 -71.558)" opacity="0.2"/>
      <path id="Tracé_2109" data-name="Tracé 2109" d="M275.667,183.04l3.3-14.954-15.086-.116s-4.032,11.236,4.081,16.524Z" transform="translate(-262.884 -74.375)" fill="#ffb573"/>
      <path id="Tracé_2110" data-name="Tracé 2110" d="M276.828,159.56l-12.1,4.346-1.272,9.551,15.086.116Z" transform="translate(-262.508 -79.862)" fill="#ffb573"/>
      <path id="Tracé_2111" data-name="Tracé 2111" d="M303.68,389.27l1.57,15.863,13.252.215-1.553-15.863Z" transform="translate(-236.269 69.998)" opacity="0.2"/>
      <path id="Tracé_2112" data-name="Tracé 2112" d="M353.812,389.46H340.56l5.321,15.83h13.269Z" transform="translate(-212.209 70.122)" opacity="0.2"/>
      <path id="Tracé_2113" data-name="Tracé 2113" d="M383.612,163.3c-14.293,50.381-11.4,103.853-12.69,114.676-10.377-.744-49.456-3.668-70.755-5.255-9.286-75.5,9.286-114.279,9.286-114.279s4.561-.876,10.741-1.52c1.933-.2,4.032-.364,6.213-.479,1.206,0,2.429-.116,3.668-.132a264.806,264.806,0,0,1,30.074,2.231c1.884.231,3.8.529,5.668.826s3.4.611,4.957.925C378.044,161.73,383.612,163.3,383.612,163.3Z" transform="translate(-240.257 -81.982)" fill="#407bff"/>
      <path id="Tracé_2114" data-name="Tracé 2114" d="M383.612,163.3c-14.293,50.381-11.4,103.853-12.69,114.676-10.377-.744-49.456-3.668-70.755-5.255-9.286-75.5,9.286-114.279,9.286-114.279s4.561-.876,10.741-1.52c1.933-.2,4.032-.364,6.213-.479,1.206,0,2.429-.116,3.668-.132a264.806,264.806,0,0,1,30.074,2.231c1.884.231,3.8.529,5.668.826s3.4.611,4.957.925C378.044,161.73,383.612,163.3,383.612,163.3Z" transform="translate(-240.257 -81.982)" opacity="0.2"/>
      <path id="Tracé_2115" data-name="Tracé 2115" d="M340.672,173.62c-1.272,4.875.182,27.116,5.271,32.6.694-7.122,1.652-14.558,2.842-22.159Z" transform="translate(-212.419 -70.689)" opacity="0.2"/>
      <path id="Tracé_2116" data-name="Tracé 2116" d="M347.973,137c-2.611,9.534-5.833,27.132.463,34.089-5.651,4.841-12.971,10.36-24.488,9.914s-8.939-8.262-5.585-12.145c10.972-1.785,11.3-9.815,9.914-17.466Z" transform="translate(-228.545 -94.579)" fill="#ffb573"/>
      <path id="Tracé_2117" data-name="Tracé 2117" d="M344.233,156s-4.759,7.849-23.893,12.624c3.173,2.941,4.709,9.914,4.709,9.914s24.968-6.015,24.207-20.06A16.788,16.788,0,0,0,344.233,156Z" transform="translate(-225.4 -82.184)" fill="#263238"/>
      <path id="Tracé_2118" data-name="Tracé 2118" d="M317.783,176.868s2.512-6.048,6.808-8.113c-2-2.065-4.957-8.262-3.206-12.905a15.566,15.566,0,0,0-4.428.281S309.388,165.665,317.783,176.868Z" transform="translate(-229.65 -82.314)" fill="#263238"/>
      <path id="Tracé_2119" data-name="Tracé 2119" d="M320.857,169.682c-.215,1.289-.975,2.247-1.652,2.115s-1.091-1.272-.859-2.561.991-2.264,1.652-2.132S321.122,168.377,320.857,169.682Z" transform="translate(-226.743 -74.947)" fill="#263238"/>
      <path id="Tracé_2120" data-name="Tracé 2120" d="M320.178,174.14c-.116,1.322-.777,2.33-1.487,2.264s-1.19-1.173-1.074-2.479.777-2.33,1.487-2.264S320.294,172.834,320.178,174.14Z" transform="translate(-227.188 -71.969)" fill="#263238"/>
      <path id="Tracé_2121" data-name="Tracé 2121" d="M334.887,140.59,323.32,149.1a28.781,28.781,0,0,1,.529,5.4c4.18-.3,10.179-4.4,10.939-8.675A15.169,15.169,0,0,0,334.887,140.59Z" transform="translate(-223.456 -92.237)" opacity="0.2"/>
      <path id="Tracé_2122" data-name="Tracé 2122" d="M322.874,115.211c-10.311-.231-12.393,24.687-5.7,29.032S342.174,115.624,322.874,115.211Z" transform="translate(-229.983 -108.796)" fill="#263238"/>
      <path id="Tracé_2123" data-name="Tracé 2123" d="M351.66,136.4c-1.768,13.037-2.148,20.771-9.27,27-10.707,9.369-26.438,2.165-28.586-11.137-1.933-11.98,1.289-31.3,14.508-35.559a17.945,17.945,0,0,1,23.348,19.7Z" transform="translate(-230.001 -108.405)" fill="#ffb573"/>
      <path id="Tracé_2124" data-name="Tracé 2124" d="M338.332,148.156c-6.61,3.487-14.244-32.6,3.3-30.718C363.68,119.785,351.6,141.2,338.332,148.156Z" transform="translate(-218.54 -107.388)" fill="#263238"/>
      <path id="Tracé_2125" data-name="Tracé 2125" d="M317.57,121.3c0,8.08,26.223,16.111,35.212,13.351s11.253-9.914,6.428-14.871C351.047,111.232,317.57,105.466,317.57,121.3Z" transform="translate(-227.207 -111.328)" fill="#263238"/>
      <path id="Tracé_2126" data-name="Tracé 2126" d="M318.913,118a15.45,15.45,0,0,0,3.784,7.138c-2.346-.132-4.676-3.453-5.42-5.387S318.913,118,318.913,118Z" transform="translate(-227.492 -106.977)" fill="#263238"/>
      <path id="Tracé_2127" data-name="Tracé 2127" d="M344.612,140.9a12.476,12.476,0,0,1-8.179,4.957c-4.346.628-5.949-3.4-4.263-7.2,1.52-3.42,5.6-7.865,9.733-6.742S346.991,137.611,344.612,140.9Z" transform="translate(-218.111 -98.016)" fill="#ffb573"/>
      <path id="Tracé_2128" data-name="Tracé 2128" d="M310.9,508.043l22.456.347s-7.5-88.717-5.469-129.993c.611-12.558,3.14-30.123,6.444-48.944,4.2-23.728,6.213-33.18,11.567-63.154,3.867-21.382,7.3-36.039,7.3-36.039l-46.515-3.47s-19.663,106.876-19.2,147.409C287.946,416.22,310.9,508.043,310.9,508.043Z" transform="translate(-246.841 -36.002)" fill="#263238"/>
      <path id="Tracé_2129" data-name="Tracé 2129" d="M320.184,246c-8.361,20.82-8.526,69.6-4.676,83.33.661-4.065,1.371-8.262,2.115-12.459,4.2-23.728,6.213-33.18,11.567-63.154.1-.595.215-1.173.314-1.752A32.219,32.219,0,0,0,320.184,246Z" transform="translate(-230.135 -23.469)" opacity="0.2"/>
      <path id="Tracé_2130" data-name="Tracé 2130" d="M314.33,227.89s4.1,111.85,7.221,150.582c3.4,42.433,35.2,129.151,35.2,129.151h24.29S364.827,428.308,359.853,387c-5.668-46.928.1-155.754.1-155.754Z" transform="translate(-229.321 -35.284)" fill="#263238"/>
      <path id="Tracé_2131" data-name="Tracé 2131" d="M339.581,401.095h28.6v-8.543l-31.974-.562Z" transform="translate(-215.047 71.773)" fill="#407bff"/>
      <path id="Tracé_2132" data-name="Tracé 2132" d="M301.134,400.874l26.752.413.132-8.642-29.908-.925Z" transform="translate(-239.903 71.597)" fill="#407bff"/>
      <path id="Tracé_2133" data-name="Tracé 2133" d="M325.322,130.387c-.083,1.074-.711,1.9-1.4,1.834s-1.206-.958-1.124-2.016.711-1.884,1.4-1.834S325.4,129.412,325.322,130.387Z" transform="translate(-223.805 -100.21)" fill="#263238"/>
      <path id="Tracé_2134" data-name="Tracé 2134" d="M318,129.853c0,1.074-.711,1.884-1.4,1.834s-1.19-.958-1.124-2.016.711-1.9,1.421-1.851S318.116,128.779,318,129.853Z" transform="translate(-228.579 -100.569)" fill="#263238"/>
      <path id="Tracé_2135" data-name="Tracé 2135" d="M321.6,129.54a38.515,38.515,0,0,1-5.783,8.758,6.147,6.147,0,0,0,4.957,1.322Z" transform="translate(-228.349 -99.446)" fill="#ed893e"/>
      <path id="Tracé_2136" data-name="Tracé 2136" d="M322.107,138.981a8.725,8.725,0,0,0,6.279-3.04.314.314,0,0,0,0-.446.33.33,0,0,0-.446,0,8.46,8.46,0,0,1-7.138,2.793.315.315,0,0,0-.05.628,9.91,9.91,0,0,0,1.355.066Z" transform="translate(-225.316 -95.618)" fill="#263238"/>
      <path id="Tracé_2137" data-name="Tracé 2137" d="M328.766,128.953a.529.529,0,0,0,.3-.1.611.611,0,0,0,.182-.859,6.23,6.23,0,0,0-4.957-2.974.628.628,0,0,0,0,1.256h0a4.957,4.957,0,0,1,3.85,2.4A.628.628,0,0,0,328.766,128.953Z" transform="translate(-223.234 -102.395)" fill="#263238"/>
      <path id="Tracé_2138" data-name="Tracé 2138" d="M314.322,127.948a.661.661,0,0,0,.512-.314,4.957,4.957,0,0,1,3.751-2.578.629.629,0,0,0-.066-1.256,6.312,6.312,0,0,0-4.775,3.189.628.628,0,0,0,.231.859.694.694,0,0,0,.347.1Z" transform="translate(-229.759 -103.191)" fill="#263238"/>
      <path id="Tracé_2139" data-name="Tracé 2139" d="M344.349,409.851a15.979,15.979,0,0,0,3.47-.479.331.331,0,0,0,.248-.264.347.347,0,0,0-.149-.314c-.479-.3-4.759-2.925-6.229-2.181a1.025,1.025,0,0,0-.545.892,1.933,1.933,0,0,0,.661,1.652,4.032,4.032,0,0,0,2.545.694Zm2.561-.925c-2.247.446-3.982.364-4.709-.248a1.256,1.256,0,0,1-.43-1.124.413.413,0,0,1,.2-.38c.76-.4,3.206.744,4.941,1.818Z" transform="translate(-211.834 81.226)" fill="#407bff"/>
      <path id="Tracé_2140" data-name="Tracé 2140" d="M346.688,410.579a.313.313,0,0,0,.165,0A.33.33,0,0,0,347,410.3c0-.165-.331-4-1.867-5.255a1.652,1.652,0,0,0-1.338-.4h0a1.008,1.008,0,0,0-1.008.81c-.281,1.487,2.38,4.4,3.751,5.139Zm-2.677-5.337a1.025,1.025,0,0,1,.711.281,7.42,7.42,0,0,1,1.57,4.148c-1.355-1.041-3.057-3.3-2.892-4.1,0-.083,0-.281.463-.331Z" transform="translate(-210.769 80.018)" fill="#407bff"/>
      <path id="Tracé_2141" data-name="Tracé 2141" d="M307.937,409.24a.33.33,0,0,0,.215-.264.314.314,0,0,0-.165-.314c-.595-.33-5.883-3.106-7.5-2.247a1.025,1.025,0,0,0-.529.843h0a1.752,1.752,0,0,0,.562,1.537c1.421,1.305,5.238.843,7.386.446Zm-7.039-2.313c.991-.331,3.867.81,5.965,1.851-2.941.446-5.122.281-5.932-.446a1.19,1.19,0,0,1-.364-1.024.364.364,0,0,1,.215-.331Z" transform="translate(-238.709 81.076)" fill="#407bff"/>
      <path id="Tracé_2142" data-name="Tracé 2142" d="M306.606,410.424h.083a.281.281,0,0,0,.132-.281c0-.149-.314-3.734-1.983-5.139a2.231,2.231,0,0,0-1.652-.562h0c-.876,0-1.124.5-1.19.859-.264,1.487,2.859,4.412,4.445,5.155A.379.379,0,0,0,306.606,410.424Zm-3.767-5.354h.33a1.652,1.652,0,0,1,1.272.43,7.353,7.353,0,0,1,1.652,4.114c-1.652-1.008-3.734-3.3-3.586-4.2C302.558,405.368,302.575,405.153,302.839,405.07ZM303.136,404.707Z" transform="translate(-237.378 79.893)" fill="#407bff"/>
      <path id="Tracé_2143" data-name="Tracé 2143" d="M358.844,165.54c4.627,9.286,8.774,18.573,12.591,28.091,1.933,4.759,3.718,9.6,5.469,14.475.859,2.462,1.652,4.957,2.479,7.4l.595,1.867.644,2.148c.463,1.471.727,2.941,1.074,4.4a81.1,81.1,0,0,1-1.52,33.428,126.553,126.553,0,0,1-4.643,15.268c-.942,2.479-1.95,4.957-3.024,7.32s-2.165,4.742-3.5,7.221l-9.138-3.966c1.272-4.511,2.561-9.386,3.47-14.128s1.752-9.534,2.28-14.26a97.5,97.5,0,0,0,.562-13.979,54.925,54.925,0,0,0-1.818-12.938c-.314-.975-.562-2-.942-2.925-.2-.479-.314-.876-.562-1.454l-.694-1.652c-.925-2.264-1.933-4.528-2.892-6.791-1.933-4.561-4.032-9.072-6.048-13.616L340.75,174.3Z" transform="translate(-212.085 -75.96)" fill="#ffb573"/>
      <path id="Tracé_2144" data-name="Tracé 2144" d="M357.521,161c12.1,3.8,23.993,44.829,23.993,44.829l-27.991,12.244s-9.055-19.829-14.277-35.361C333.577,165.775,342.847,156.406,357.521,161Z" transform="translate(-214.166 -79.682)" fill="#407bff"/>
      <path id="Tracé_2145" data-name="Tracé 2145" d="M357.521,161c12.1,3.8,23.993,44.829,23.993,44.829l-27.991,12.244s-9.055-19.829-14.277-35.361C333.577,165.775,342.847,156.406,357.521,161Z" transform="translate(-214.166 -79.682)" opacity="0.2"/>
      <path id="Tracé_2146" data-name="Tracé 2146" d="M355.347,235.39l-6.527,11.782,15.384,4s4.643-11.418-.843-15.053Z" transform="translate(-206.82 -30.391)" fill="#ffb573"/>
      <path id="Tracé_2147" data-name="Tracé 2147" d="M348.13,255.888l14.128,1.173,2.4-10.542-15.384-4Z" transform="translate(-207.27 -25.739)" fill="#ffb573"/>
    </g>
    <g id="freepik--Shield--inject-2" transform="translate(135.215 87.37)">
      <path id="Tracé_2148" data-name="Tracé 2148" d="M434.782,427.3H85.17L109.824,77.7H459.436Z" transform="translate(-79.651 -72.561)" fill="#407bff" opacity="0.19"/>
      <path id="Tracé_2149" data-name="Tracé 2149" d="M152.692,427.3H102.41L227.677,77.7H277.96Z" transform="translate(-68.404 -72.561)" fill="#fff" opacity="0.2"/>
      <path id="Tracé_2150" data-name="Tracé 2150" d="M250.538,427.3H139.63L264.9,77.7H375.806Z" transform="translate(-44.122 -72.561)" fill="#fff" opacity="0.2"/>
      <path id="Tracé_2151" data-name="Tracé 2151" d="M104.695,139.43,94.45,138.7,98.978,74.59h64.129V84.868H108.545Z" transform="translate(-73.597 -74.59)" fill="#407bff"/>
      <path id="Tracé_2152" data-name="Tracé 2152" d="M146.686,317.973H81.83l4.577-64.823,10.245.727-3.8,53.818h53.835Z" transform="translate(-81.83 41.9)" fill="#407bff"/>
      <path id="Tracé_2153" data-name="Tracé 2153" d="M336.029,139.43,325.8,138.7l3.784-53.835H275.75V74.59h64.856Z" transform="translate(44.681 -74.59)" fill="#407bff"/>
      <path id="Tracé_2154" data-name="Tracé 2154" d="M324.959,317.973H260.83V307.7h54.562l3.85-54.545,10.245.727Z" transform="translate(34.947 41.9)" fill="#407bff"/>
      <g id="Groupe_1155" data-name="Groupe 1155" transform="translate(90.733 66.207)" opacity="0.3">
        <path id="Tracé_2155" data-name="Tracé 2155" d="M231.769,351.63a2.065,2.065,0,0,1-.876-.215c-.1,0-2.528-1.388-6.61-3.9-1.652-1.041-3.734-2.313-6-3.751-7.188-4.676-14.111-9.6-20.605-14.64-1.652-1.223-3.14-2.479-4.742-3.767-5.982-4.957-11.567-9.815-16.425-14.64-1.256-1.256-2.5-2.512-3.734-3.8a166.611,166.611,0,0,1-12.69-14.69c-.958-1.239-1.884-2.512-2.793-3.8a113.662,113.662,0,0,1-8.972-14.756c-.628-1.239-1.256-2.545-1.834-3.85a79.927,79.927,0,0,1-5.056-14.871c-.3-1.173-.562-2.446-.793-3.867-.182-.925-.33-1.9-.446-2.859-.512-3.784-.942-7.634-1.355-11.8-.132-1.239-.248-2.5-.364-3.734-.43-4.957-.793-9.8-1.058-14.624v-.4c0-1.091-.132-2.181-.182-3.3-.231-4.759-.4-9.666-.5-14.591V181.434c0-1.256,0-2.512.083-3.751.116-5.387.3-10.294.512-14.591v-.281c0-1.19.1-2.346.165-3.487.3-5.321.644-10.36,1.008-14.591.116-1.438.215-2.66.33-3.751.38-4.164.661-6.494.661-6.494a1.8,1.8,0,0,1,1.652-1.652c.3,0,30.784-2.363,63.253-8.08,6.61-1.157,12.988-2.412,19.035-3.718,8.906-1.95,17.053-4.065,24.241-6.3a1.818,1.818,0,0,1,1.107,0c6.857,2.247,14.706,4.362,23.332,6.3,5.866,1.322,12.079,2.561,18.507,3.718,31.66,5.717,61.816,8.064,62.113,8.08a1.8,1.8,0,0,1,1.652,1.851s0,2.313-.248,6.494c0,1.107-.116,2.363-.2,3.751-.248,4.247-.611,9.286-1.058,14.591-.1,1.058-.2,2.115-.3,3.222v.545c-.38,4.313-.909,9.22-1.537,14.574-.149,1.272-.3,2.512-.463,3.767-.562,4.495-1.239,9.4-2.032,14.574L348,199.941c-.793,4.957-1.652,9.914-2.545,14.607-.2,1.058-.413,2.132-.628,3.206l-.116.562c-.942,4.792-1.983,9.716-3.106,14.591l-.892,3.767c-1.008,4.164-1.983,8.014-3.007,11.782-.281.975-.562,1.933-.859,2.892-.446,1.4-.876,2.66-1.338,3.85a93.7,93.7,0,0,1-7.138,14.871c-.744,1.272-1.537,2.561-2.363,3.817a139.218,139.218,0,0,1-11.021,14.723c-1.091,1.272-2.181,2.545-3.3,3.784a205.421,205.421,0,0,1-14.706,14.673q-2.132,1.917-4.263,3.767c-5.6,4.825-11.8,9.733-18.457,14.624-1.785,1.289-3.536,2.545-5.271,3.767-7.2,5.04-14.871,9.914-22.638,14.624-2.479,1.438-4.676,2.71-6.61,3.751-4.428,2.5-7.039,3.834-7.138,3.883a1.834,1.834,0,0,1-.826.149ZM142.92,136.374c-.116,1.091-.281,2.743-.479,4.957-.116,1.091-.215,2.3-.314,3.619-.364,4.3-.711,9.3-1.008,14.607,0,1.124-.116,2.264-.182,3.453v.281c-.231,4.263-.4,9.138-.512,14.491,0,1.223,0,2.462-.083,3.718v18.242c.1,4.875.264,9.749.5,14.458,0,1.091.1,2.165.165,3.3v.5c.264,4.775.611,9.65,1.041,14.475.116,1.239.231,2.479.364,3.718.4,4.114.843,7.948,1.338,11.682.116.909.248,1.818.413,2.71.231,1.355.479,2.528.76,3.652a76.818,76.818,0,0,0,4.842,14.211c.562,1.239,1.14,2.479,1.752,3.668a111.087,111.087,0,0,0,8.692,14.31c.892,1.239,1.785,2.479,2.726,3.685A167.513,167.513,0,0,0,175.34,304.5c1.223,1.256,2.446,2.5,3.685,3.718,4.825,4.742,10.261,9.584,16.16,14.409,1.652,1.272,3.14,2.512,4.693,3.734,6.395,4.957,13.219,9.832,20.324,14.442,2.231,1.421,4.23,2.677,5.932,3.7,2.627,1.652,4.577,2.743,5.618,3.3,1.107-.578,3.3-1.652,6.147-3.3,1.867-1.041,4.032-2.3,6.477-3.734,7.733-4.61,15.268-9.468,22.39-14.458,1.652-1.206,3.453-2.446,5.222-3.734,6.61-4.825,12.707-9.666,18.176-14.425,1.4-1.223,2.809-2.462,4.2-3.734a202.138,202.138,0,0,0,14.475-14.409c1.107-1.223,2.181-2.446,3.3-3.685a133.842,133.842,0,0,0,10.74-14.343,40.506,40.506,0,0,0,2.28-3.685,90.381,90.381,0,0,0,6.99-14.277c.446-1.14.859-2.33,1.272-3.668.3-.909.562-1.834.81-2.743,1.024-3.734,2-7.551,2.991-11.682.314-1.239.595-2.479.892-3.718,1.107-4.841,2.148-9.716,3.073-14.475l.116-.578c.215-1.058.413-2.115.611-3.173.892-4.693,1.752-9.567,2.528-14.491l.578-3.718c.777-5.139,1.454-10.013,2.016-14.491.165-1.239.3-2.462.446-3.685.628-5.354,1.157-10.228,1.537-14.524v-.545c.1-1.091.2-2.165.281-3.206h0c.446-5.255.81-10.261,1.041-14.475.083-1.388.149-2.627.215-3.734.083-2.016.149-3.6.182-4.676-6.874-.595-33.246-3.024-60.742-7.981-6.477-1.173-12.74-2.429-18.655-3.751-8.51-1.917-16.276-4-23.133-6.213-7.155,2.214-15.218,4.3-24.009,6.213-6.081,1.322-12.525,2.578-19.168,3.751C176.5,133.4,149.48,135.829,142.92,136.374Z" transform="translate(-136.74 -114.658)" fill="#407bff"/>
        <ellipse id="Ellipse_94" data-name="Ellipse 94" cx="22.456" cy="20.936" rx="22.456" ry="20.936" transform="matrix(0.719, -0.695, 0.695, 0.719, 75.315, 79.939)" fill="#407bff"/>
        <path id="Tracé_2156" data-name="Tracé 2156" d="M213.872,167.29H203.281L188.31,237.12h30.685Z" transform="translate(-103.096 -80.321)" fill="#407bff"/>
        <g id="Groupe_1154" data-name="Groupe 1154" transform="translate(1.785 8.183)" opacity="0.2">
          <path id="Tracé_2157" data-name="Tracé 2157" d="M263.457,123.361H177.88c6.345-1.124,12.773-2.363,19.1-3.751H244.9C251.031,121,257.277,122.237,263.457,123.361Z" transform="translate(-111.685 -119.61)" fill="#407bff"/>
          <path id="Tracé_2158" data-name="Tracé 2158" d="M350.736,134.421H138.9c.1-1.388.2-2.627.314-3.751h211.72C350.885,131.794,350.819,133.033,350.736,134.421Z" transform="translate(-137.115 -112.395)" fill="#407bff"/>
          <path id="Tracé_2159" data-name="Tracé 2159" d="M350.148,141.73c-.1,1.223-.215,2.479-.331,3.767H138.18c0-1.289.116-2.545.182-3.767Z" transform="translate(-137.585 -105.179)" fill="#407bff"/>
          <path id="Tracé_2160" data-name="Tracé 2160" d="M348.516,152.8c-.149,1.239-.3,2.5-.463,3.751H137.82c0-1.256,0-2.512.083-3.751Z" transform="translate(-137.82 -97.957)" fill="#407bff"/>
          <path id="Tracé_2161" data-name="Tracé 2161" d="M346.031,163.87c-.2,1.239-.38,2.479-.578,3.734H137.83V163.87Z" transform="translate(-137.813 -90.735)" fill="#407bff"/>
          <path id="Tracé_2162" data-name="Tracé 2162" d="M342.811,174.93l-.744,3.751H138.328c0-1.256-.149-2.512-.2-3.751Z" transform="translate(-137.618 -83.52)" fill="#407bff"/>
          <path id="Tracé_2163" data-name="Tracé 2163" d="M338.412,186l-.892,3.734H139.234c-.132-1.239-.248-2.5-.364-3.734Z" transform="translate(-137.135 -76.298)" fill="#407bff"/>
          <path id="Tracé_2164" data-name="Tracé 2164" d="M332.832,197.06c-.4,1.256-.826,2.512-1.305,3.751H140.957c-.314-1.239-.562-2.5-.777-3.751Z" transform="translate(-136.28 -69.083)" fill="#407bff"/>
          <path id="Tracé_2165" data-name="Tracé 2165" d="M322.257,208.12c-.727,1.256-1.52,2.528-2.313,3.751H145.435c-.628-1.223-1.223-2.5-1.785-3.751Z" transform="translate(-134.017 -61.867)" fill="#407bff"/>
          <path id="Tracé_2166" data-name="Tracé 2166" d="M304.859,219.19c-1.074,1.256-2.148,2.512-3.3,3.734H152.839c-.958-1.223-1.867-2.479-2.759-3.734Z" transform="translate(-129.822 -54.645)" fill="#407bff"/>
          <path id="Tracé_2167" data-name="Tracé 2167" d="M280.939,230.25c-1.4,1.272-2.809,2.528-4.23,3.751H163.041c-1.239-1.223-2.479-2.479-3.7-3.751Z" transform="translate(-123.781 -47.43)" fill="#407bff"/>
          <path id="Tracé_2168" data-name="Tracé 2168" d="M250.474,241.31c-1.785,1.289-3.52,2.545-5.255,3.751H176.166c-1.553-1.206-3.123-2.462-4.726-3.751Z" transform="translate(-115.887 -40.215)" fill="#407bff"/>
          <path id="Tracé_2169" data-name="Tracé 2169" d="M212.771,252.38c-2.462,1.438-4.643,2.693-6.51,3.734h-13.6c-1.652-1.041-3.734-2.3-5.982-3.734Z" transform="translate(-105.944 -32.993)" fill="#407bff"/>
        </g>
      </g>
    </g>
  </g>
</svg>
