<svg xmlns="http://www.w3.org/2000/svg" width="239.696" height="147.544" viewBox="0 0 239.696 147.544">
  <g id="undraw_filing_system_re_56h6" transform="translate(0 0)">
    <path id="Path_133" data-name="Path 133" d="M170.59,602.435a39.882,39.882,0,0,0,1.863,11.024c.025.083.053.164.08.247h6.952c-.007-.074-.015-.157-.022-.247-.464-5.329,2.185-37.378,5.38-42.925C184.565,570.985,170.051,585.5,170.59,602.435Z" transform="translate(-158.849 -466.414)" fill="#f1f1f1"/>
    <path id="Path_134" data-name="Path 134" d="M156.534,671.107c.058.083.119.166.181.247h5.216l-.138-.247c-.862-1.555-3.412-6.2-5.779-11.024-2.543-5.18-4.878-10.556-4.681-12.5C151.27,648.02,149.51,661.4,156.534,671.107Z" transform="translate(-144.271 -524.062)" fill="#f1f1f1"/>
    <path id="Tracé_5358" data-name="Tracé 5358" d="M774.472,262.595a3.631,3.631,0,0,0,5.3,1.714l10.066,8.075.623-6.677-9.655-6.644a3.651,3.651,0,0,0-6.333,3.532Z" transform="translate(-610.489 -232.236)" fill="#9f616a"/>
    <path id="Tracé_5359" data-name="Tracé 5359" d="M689.377,122.558l-3.757-2.655-4.261,4.924,4.957,2.938Z" transform="translate(-509.804 -89.714)" fill="#6c63ff"/>
    <path id="Tracé_5360" data-name="Tracé 5360" d="M814.691,268.045l12.661,4.872,12.188-7.981a6.2,6.2,0,0,1,8.005,9.331l-.109.121-18.746,10.051-20.477-9.354Z" transform="translate(-635.942 -237.002)" fill="#3f3d56"/>
    <path id="Tracé_5361" data-name="Tracé 5361" d="M303.694,305.411H171.76L176.544,212H197.19l19.038,13.344h92.249Z" transform="translate(-128.514 -158.622)" fill="#e5e5e5"/>
    <path id="Tracé_5362" data-name="Tracé 5362" d="M462.878,277.987l-76.256-31.4a1.089,1.089,0,0,1-.592-1.42l34.553-83.9a1.089,1.089,0,0,1,1.42-.592l76.256,31.4a1.089,1.089,0,0,1,.592,1.42l-34.553,83.9A1.089,1.089,0,0,1,462.878,277.987Z" transform="translate(-319.995 -159.684)" fill="#fff"/>
    <path id="Tracé_5363" data-name="Tracé 5363" d="M462.878,277.987l-76.256-31.4a1.089,1.089,0,0,1-.592-1.42l34.553-83.9a1.089,1.089,0,0,1,1.42-.592l76.256,31.4a1.089,1.089,0,0,1,.592,1.42l-34.553,83.9A1.089,1.089,0,0,1,462.878,277.987Zm-41.04-116.916a.654.654,0,0,0-.852.355l-34.553,83.9a.654.654,0,0,0,.355.852l76.256,31.4a.654.654,0,0,0,.852-.355l34.553-83.9a.653.653,0,0,0-.355-.852Z" transform="translate(-319.995 -159.684)" fill="#3f3d56"/>
    <path id="Tracé_5364" data-name="Tracé 5364" d="M555.825,240.294,536.912,232.5a1.089,1.089,0,0,1-.592-1.42l7.789-18.913a1.089,1.089,0,0,1,1.42-.592l18.913,7.789a1.089,1.089,0,0,1,.592,1.42L557.246,239.7a1.089,1.089,0,0,1-1.42.592Zm-10.461-28.312a.654.654,0,0,0-.852.355l-7.789,18.913a.654.654,0,0,0,.355.852l18.913,7.789a.654.654,0,0,0,.852-.355l7.789-18.913a.654.654,0,0,0-.355-.852Z" transform="translate(-432.444 -197.776)" fill="#f2f2f2"/>
    <path id="Tracé_5365" data-name="Tracé 5365" d="M530.665,241.221l-18.913-7.789a.98.98,0,0,1-.533-1.278l7.789-18.913a.98.98,0,0,1,1.278-.533L539.2,220.5a.98.98,0,0,1,.533,1.278l-7.789,18.913A.98.98,0,0,1,530.665,241.221Z" transform="translate(-413.67 -198.627)" fill="#6c63ff"/>
    <path id="Tracé_5366" data-name="Tracé 5366" d="M555.766,350.755l-59.154-24.361a.979.979,0,0,1,.746-1.811l59.154,24.361a.979.979,0,1,1-.746,1.811Z" transform="translate(-402.342 -282.333)" fill="#ccc"/>
    <path id="Tracé_5367" data-name="Tracé 5367" d="M531.279,369.644,486.41,351.166a.979.979,0,1,1,.746-1.811l44.868,18.478a.979.979,0,0,1-.746,1.811Z" transform="translate(-394.708 -300.868)" fill="#ccc"/>
    <path id="Tracé_5368" data-name="Tracé 5368" d="M690.542,299.71l-26.156-10.772a.979.979,0,1,1,.746-1.811L691.288,297.9a.979.979,0,1,1-.746,1.811Z" transform="translate(-527.872 -254.308)" fill="#ccc"/>
    <path id="Tracé_5369" data-name="Tracé 5369" d="M673.812,321.794l-19.629-8.084a.979.979,0,1,1,.746-1.811l19.629,8.084a.979.979,0,0,1-.746,1.811Z" transform="translate(-520.239 -272.843)" fill="#ccc"/>
    <path id="Tracé_5370" data-name="Tracé 5370" d="M535.362,400.3l-59.154-24.361a.979.979,0,0,1,.746-1.811l59.154,24.361a.979.979,0,0,1-.746,1.811Z" transform="translate(-387.075 -319.404)" fill="#ccc"/>
    <path id="Tracé_5371" data-name="Tracé 5371" d="M510.875,419.19l-44.868-18.478a.979.979,0,1,1,.746-1.811l44.868,18.478a.979.979,0,0,1-.746,1.811Z" transform="translate(-379.442 -337.939)" fill="#ccc"/>
    <path id="Tracé_5372" data-name="Tracé 5372" d="M514.958,449.845,455.8,425.484a.979.979,0,1,1,.746-1.811L515.7,448.034a.979.979,0,1,1-.746,1.811Z" transform="translate(-371.808 -356.474)" fill="#ccc"/>
    <path id="Tracé_5373" data-name="Tracé 5373" d="M504.756,474.618,445.6,450.257a.979.979,0,1,1,.746-1.811L505.5,472.807a.979.979,0,1,1-.746,1.811Z" transform="translate(-364.175 -375.01)" fill="#ccc"/>
    <path id="Tracé_5374" data-name="Tracé 5374" d="M566.557,534.494a21.327,21.327,0,0,0,3.549-.108,7.671,7.671,0,0,0,3.1-.852,2.942,2.942,0,0,0,1.466-2.225,2.07,2.07,0,0,0-1.253-2.1,2.47,2.47,0,0,0-2.505.351,3.263,3.263,0,0,0-1.12,2.606,6,6,0,0,0,3.414,4.844c1.994.944,4.718.142,5.229-2.183.106-.484-.552-.652-.828-.341a2.2,2.2,0,0,0,3.065,3.134l-.741-.305a5.285,5.285,0,0,0,3.635,3.839,4.9,4.9,0,0,0,1.353.206,5.772,5.772,0,0,1,1.662.455l3.838,1.25c.565.184.923-.673.354-.859l-3.476-1.133c-.579-.189-1.157-.383-1.738-.566a10.282,10.282,0,0,0-1.3-.137,4.353,4.353,0,0,1-3.4-3.184.47.47,0,0,0-.741-.305,1.271,1.271,0,0,1-1.768-1.827l-.828-.341c-.329,1.5-2.159,2.063-3.478,1.629a5.269,5.269,0,0,1-3.182-3.375,2.722,2.722,0,0,1,.2-2.166,1.622,1.622,0,0,1,1.7-.833,1.164,1.164,0,0,1,.995,1.277,2.082,2.082,0,0,1-1.159,1.577,7.523,7.523,0,0,1-2.746.658,19.849,19.849,0,0,1-3.166.09C566.077,533.542,565.958,534.463,566.557,534.494Z" transform="translate(-454.834 -435.349)" fill="#6c63ff"/>
    <path id="Tracé_5375" data-name="Tracé 5375" d="M303.694,250.344v73.772H171.76V237h20.646l19.037,13.344Z" transform="translate(-128.514 -177.328)" fill="#fff"/>
    <rect id="Rectangle_2415" data-name="Rectangle 2415" width="53.881" height="4.28" transform="translate(51.303 132.941)" fill="#6c63ff"/>
    <rect id="Rectangle_2416" data-name="Rectangle 2416" width="26.941" height="4.28" transform="translate(51.303 124.632)" fill="#6c63ff"/>
    <path id="Tracé_5376" data-name="Tracé 5376" d="M427.2,480.62H294.76V393h20.977l19.038,13.344H427.2Zm-131.934-.5h131.43V406.848H334.617L315.578,393.5H295.264Z" transform="translate(-251.766 -333.58)" fill="#3f3d56"/>
    <path id="Tracé_5377" data-name="Tracé 5377" d="M871.277,497.465l-4.464,1.6-8.278-16.46,6.589-2.355Z" transform="translate(-642.371 -359.329)" fill="#9f616a"/>
    <path id="Tracé_5378" data-name="Tracé 5378" d="M985.414,709.159l-.065-.182a5.957,5.957,0,0,1,3.6-7.605l8.792-3.142,2.067,5.785Z" transform="translate(-768.218 -561.958)" fill="#2f2e41"/>
    <path id="Tracé_5379" data-name="Tracé 5379" d="M773.058,511.832h-4.741l-2.255-18.286h7Z" transform="translate(-573.182 -369.28)" fill="#9f616a"/>
    <path id="Tracé_5380" data-name="Tracé 5380" d="M877.224,723.167H861.938v-.193a5.95,5.95,0,0,1,5.95-5.95h9.337Z" transform="translate(-676.139 -576.02)" fill="#2f2e41"/>
    <path id="Tracé_5381" data-name="Tracé 5381" d="M929.733,247.079l-2.062-4.074s-7.681,1.924-8.379,6.376Z" transform="translate(-719.052 -221.351)" fill="#6c63ff"/>
    <path id="Tracé_5382" data-name="Tracé 5382" d="M782.922,284.9l-5.607,31.289L792.2,342.517,783.309,346l-15.081-25.522-1.933-6.961-1.16,36.349-8.021-.243-3.678-33.941,5.9-31.553Z" transform="translate(-563.734 -212.589)" fill="#2f2e41"/>
    <path id="Tracé_5383" data-name="Tracé 5383" d="M911.8,284.406l-.194-18.348a20.961,20.961,0,0,0-5.827-14.038,3.35,3.35,0,0,0-1.78-2.187,5.3,5.3,0,0,0-3.881.2l-6.259,2.346-.029.086c-.066.2-6.382,20.92-7.968,26.121-.226.746-.356,1.173-.356,1.173s.025,1.2.069,3.073c.14,6.431.471,20.756.6,21.357,0,0,11.561,1.753,16.139,1.753a51.587,51.587,0,0,0,13.584-1.6l.189-.039Z" transform="translate(-693.776 -226.23)" fill="#3f3d56"/>
    <circle id="Ellipse_161" data-name="Ellipse 161" cx="8.462" cy="8.462" r="8.462" transform="translate(190.732 8.543) rotate(-28.663)" fill="#9f616a"/>
    <path id="Tracé_5384" data-name="Tracé 5384" d="M896.929,366.871l-11.35,2.307c-.044-1.87-.069-3.073-.069-3.073s.13-.427.356-1.173Z" transform="translate(-693.776 -312.578)" opacity="0.2"/>
    <path id="Tracé_5385" data-name="Tracé 5385" d="M793.528,343.894a3.631,3.631,0,0,0,5.493-.914l12.652,2.542-2.517-6.216-11.628-1.461a3.651,3.651,0,0,0-4,6.049Z" transform="translate(-623.986 -292.02)" fill="#9f616a"/>
    <path id="Tracé_5386" data-name="Tracé 5386" d="M714.828,184.45l-4.557-.63-1.52,6.332,5.753.329Z" transform="translate(-530.3 -137.538)" fill="#6c63ff"/>
    <path id="Tracé_5387" data-name="Tracé 5387" d="M843.226,286.933l13.484-1.5,7.154-12.692a6.2,6.2,0,0,1,11.4,4.6l-.041.158L863.2,295.053l-22.485,1.109Z" transform="translate(-660.257 -241.241)" fill="#3f3d56"/>
    <path id="Tracé_5388" data-name="Tracé 5388" d="M906.531,176.257l-7.023.252c-.428.015-1.59-4.6-1.742-5.563a2.616,2.616,0,0,0-2.729-2.116c-.526.05-1.852-.933-3.22-2.1a5.159,5.159,0,0,1,.391-8.221q.117-.076.23-.14A12.5,12.5,0,0,1,898.405,157a11.16,11.16,0,0,1,5.44,1.1c2.953,1.587,4.525,5.054,4.663,8.4s-.936,6.624-2.154,9.747" transform="translate(-697.108 -157)" fill="#2f2e41"/>
    <path id="Tracé_5389" data-name="Tracé 5389" d="M363.445,741.5H124.252a.252.252,0,1,1,0-.5H363.445a.252.252,0,1,1,0,.5Z" transform="translate(-124 -593.96)" fill="#cbcbcb"/>
  </g>
</svg>
