<svg xmlns="http://www.w3.org/2000/svg" xmlns:xlink="http://www.w3.org/1999/xlink" width="248.711" height="253.876" viewBox="0 0 248.711 253.876"><defs><style>.a,.b,.i{fill:#fff;}.a,.e,.f,.g,.h,.n,.s,.u{stroke:#263238;}.a,.e,.f,.g,.h,.n,.r,.s,.u,.v{stroke-linecap:round;stroke-linejoin:round;}.b{opacity:0.7;}.c{fill:#d5d5d5;}.d,.s{fill:#263238;}.e,.f,.h,.r{fill:none;}.f{stroke-width:0.998px;}.g{fill:#757575;}.h{stroke-dasharray:2.984 2.984;}.j{clip-path:url(#a);}.k,.l,.n,.u,.v{fill:#131313;}.k{opacity:0.4;}.m,.q{opacity:0.2;}.o{fill:#171717;}.p{fill:#212121;}.r{stroke:#fff;}.t{clip-path:url(#b);}.u{stroke-width:1.002px;}.v{stroke:#e9e9e9;}</style><clipPath id="a"><path class="a" d="M174.3,411.911s-6.814,4.636-9.559,4.327a1.278,1.278,0,0,1-.808-.344,21.031,21.031,0,0,1-3.227-5.089s.854-1.181,3.484,1.954l1.668-1.53-3.439-3.473s1.943-1.542,5.244.424A17.566,17.566,0,0,1,167.023,397L159,389.262l7.118-6.2.573-.481s.447.441,1.146,1.146,1.668,1.553,2.716,2.476c2.51,2.206,5.548,4.585,6.877,4.585C179.827,390.707,174.3,411.911,174.3,411.911Z" transform="translate(-159 -382.58)"/></clipPath><clipPath id="b"><path class="a" d="M367.269,286.318s-1.719,12.792-10.482,17.795c-8.665,1.238-18.385-5.949-21.663-14.574-2.59-6.814-.327-14.545.911-17.852C346.276,265.836,367.269,286.318,367.269,286.318Z" transform="translate(-333.933 -270.636)"/></clipPath></defs><g transform="translate(-43.591 -29.116)"><g transform="translate(43.591 29.116)"><path class="b" d="M63.825,108.189S47.846,149.452,70.3,191s68.7,63.5,105.72,82.269,75.455,9.628,93.719-21.113-6.786-52.685-6.82-96.522,6.562-55.442-17.193-92.476S163.739,17.925,119.7,45.394,63.825,108.189,63.825,108.189Z" transform="translate(-49.876 -29.116)"/><path class="c" d="M53.717,121.738c21.675-21.669,40.031-3.49,47.768-32.587,17.468-65.729,89.92-65.1,99.445-18.334,17.164,84.246,91.925,30.747,91.37,91.083-.573,64.422-47.969,114.62-132.96,119.612C83.192,286.011,17.8,157.642,53.717,121.738Z" transform="translate(-43.591 -32.71)"/><path class="b" d="M53.717,121.738c21.675-21.669,40.031-3.49,47.768-32.587,17.468-65.729,89.92-65.1,99.445-18.334,17.164,84.246,91.925,30.747,91.37,91.083-.573,64.422-47.969,114.62-132.96,119.612C83.192,286.011,17.8,157.642,53.717,121.738Z" transform="translate(-43.591 -32.71)"/></g><g transform="translate(95.651 64.535)"><path class="d" d="M155.084,118.075a1.731,1.731,0,1,1,3.433-.4l.441,3.731a1.734,1.734,0,1,1-3.439.4Zm1.576,3.679c.063.5.3.688.671.648s.573-.281.5-.785l-.453-3.891c-.063-.5-.315-.688-.671-.642s-.573.275-.5.779Zm4.413-6.138,1.055-.126-3.146,11.875-1.055.126Zm.12,5.955a1.734,1.734,0,1,1,3.439-.407l.436,3.731a1.734,1.734,0,1,1-3.439.4Zm1.582,3.674c.057.5.292.693.665.648s.573-.281.5-.785l-.458-3.891c-.057-.5-.309-.682-.665-.642s-.573.281-.5.779Z" transform="translate(-143.238 -101.408)"/><path class="e" d="M165.131,124.671l-13.273,1.553a1.146,1.146,0,0,1-1.272-1l-1.593-13.686a1.719,1.719,0,0,1,.487-1.4l5.536-5.45a1.679,1.679,0,0,1,2.057-.241l6.642,4.012a1.679,1.679,0,0,1,.8,1.244l1.6,13.686A1.146,1.146,0,0,1,165.131,124.671Z" transform="translate(-140.642 -96.589)"/><path class="e" d="M161.893,107.141a.854.854,0,1,1-.94-.745.854.854,0,0,1,.94.745Z" transform="translate(-145.427 -97.523)"/><path class="e" d="M161.69,91s2.59,9.972,0,9.685" transform="translate(-146.067 -90.953)"/><path class="e" d="M160.54,98.85c.5-2.774,3.043-7.45,3.043-7.45" transform="translate(-145.576 -91.124)"/><path class="e" d="M161.2,107.473a.734.734,0,0,1-.659-.533" transform="translate(-145.576 -97.758)"/><path class="e" d="M181.86,97.43a16.8,16.8,0,0,1,5.158,7.135" transform="translate(-154.678 -93.698)"/><path class="e" d="M135.05,103.5a16.809,16.809,0,0,1,25.262-9.972" transform="translate(-134.695 -90.918)"/><path class="e" d="M140.018,134.726a16.723,16.723,0,0,1-5.588-10.236" transform="translate(-134.43 -105.25)"/><path class="e" d="M155.887,147.48a16.769,16.769,0,0,1-8.6-2.78" transform="translate(-139.92 -113.878)"/><path class="e" d="M181.88,116a16.809,16.809,0,0,1-14.19,19.067" transform="translate(-148.629 -101.626)"/></g><g transform="translate(58.602 118.141)"><path class="f" d="M.006,0H21.5V12.912a.95.95,0,0,1-.95.95H.95a.95.95,0,0,1-.95-.95V0Z" transform="matrix(0.982, 0.19, -0.19, 0.982, 11.128, 16.688)"/><path class="e" d="M0,0H22.62V3.439a.951.951,0,0,1-.951.951H.928A.951.951,0,0,1,0,3.456V.017Z" transform="translate(32.968 21.068) rotate(-169.09)"/><rect class="e" width="3.078" height="18.293" transform="translate(21.211 14.315) rotate(10.91)"/><path class="e" d="M109.43,207.788s5.244-3.828,7.668-2.671,1.226,4.384,0,4.149" transform="translate(-86.709 -193.183)"/><path class="e" d="M113.05,209.586s4.264-2.12,4.883-1.146-1.221,1.874-2.636,1.6" transform="translate(-88.254 -194.585)"/><path class="e" d="M109.68,205.527s2.212-4.012,1.926-5.307h1.473s.481,1.524-1.238,4.132" transform="translate(-86.816 -191.185)"/><path class="e" d="M103.153,205.971s-3.439-5.5-6.126-5.324-2.762,3.611-1.542,3.846" transform="translate(-80.432 -191.366)"/><path class="e" d="M102.526,207.023s-3.169-3.559-4.1-2.894.441,2.189,1.857,2.459" transform="translate(-81.879 -192.818)"/><path class="e" d="M108.05,204.792s-.573-4.556.189-5.639l-1.375-.573s-1.009,1.238-.378,4.3" transform="translate(-85.364 -190.485)"/><path class="e" d="M136.66,198.7a21.44,21.44,0,0,1,4.419,10.316" transform="translate(-98.333 -190.536)"/><path class="e" d="M74,196.058a21.463,21.463,0,0,1,34.277-5.278" transform="translate(-71.584 -184.455)"/><path class="e" d="M73.92,233.328A21.4,21.4,0,0,1,69.851,219" transform="translate(-69.784 -199.202)"/><path class="e" d="M90.163,253.681a21.365,21.365,0,0,1-9.943-5.891" transform="translate(-74.239 -211.493)"/><path class="e" d="M127.436,224.8a21.463,21.463,0,0,1-23.056,19.738" transform="translate(-84.553 -201.678)"/></g><g transform="translate(153.947 45.715)"><path class="e" d="M291.39,122.576l-1.8-.917a5.685,5.685,0,0,0,.264-2.459c.573.275,1.181.573,1.719.82C291.544,120.759,291.5,121.63,291.39,122.576Z" transform="translate(-258.963 -84.172)"/><path class="e" d="M293.892,121.811a6.488,6.488,0,0,0,1.811.607,16.333,16.333,0,0,1-1.473,10.367c-.464.905-5.341-1.593-4.883-2.5a21.5,21.5,0,0,0,1.926-7.1c.109-.946.172-1.817.2-2.556C292.494,121.111,293.388,121.553,293.892,121.811Z" transform="translate(-258.847 -84.783)"/><path class="e" d="M297.439,99.774a6.384,6.384,0,0,1-4.012,11.972,6.487,6.487,0,0,1-1.811-.607c-.5-.258-1.4-.7-2.418-1.181-.573-.269-1.146-.544-1.719-.82-1.41-.648-2.774-1.244-3.479-1.473l6.167-12.035C291.45,96.57,295.995,99.034,297.439,99.774Z" transform="translate(-256.577 -74.11)"/><path class="e" d="M276.348,84.307a30.7,30.7,0,0,0,5.977,5.685l-6.167,12.035a30.827,30.827,0,0,0-8.109-1.5l-2.39-.126,9.17-17.955Z" transform="translate(-248.748 -68.484)"/><path class="e" d="M260.752,98.732l10.751-21a.682.682,0,0,1,.911-.292l.791.407a.682.682,0,0,1,.3.911l-.785,1.53-9.17,17.955-.779,1.53a.676.676,0,0,1-.911.292l-.8-.407a.671.671,0,0,1-.31-.923Z" transform="translate(-246.619 -66.312)"/><line class="g" x1="4.144" y1="2.12" transform="translate(10.31 17.205)"/><line class="g" x1="2.613" y1="4.573" transform="translate(16.694 8.104)"/><line class="g" x1="5.232" y2="0.556" transform="translate(6.671 27.148)"/><path class="e" d="M307.763,65.922A27.618,27.618,0,0,0,294.88,59.2" transform="translate(-261.222 -58.558)"/><path class="e" d="M303.36,118.522a27.727,27.727,0,0,0,10.224-43.6" transform="translate(-264.842 -65.269)"/><path class="e" d="M253.05,143.19a27.606,27.606,0,0,0,18.041,6.671" transform="translate(-243.365 -94.413)"/><path class="e" d="M237,115.34a27.612,27.612,0,0,0,6.6,13.4" transform="translate(-236.513 -82.524)"/><path class="e" d="M263.877,58.08A27.727,27.727,0,0,0,236.15,85.807" transform="translate(-236.15 -58.08)"/></g><g transform="translate(116.998 113.346)"><path class="e" d="M187.251,180.823a4.845,4.845,0,0,0-5.972-.441,4.834,4.834,0,0,0-4.218-4.252c-3.358-.447-6.109,2.825-5.209,7.387a19.551,19.551,0,0,0,3.874,7.708c.132.172.258.321.361.441h.573a19.688,19.688,0,0,0,8.367-2.075C189.056,187.3,189.772,183.081,187.251,180.823Z" transform="translate(-171.679 -176.089)"/><path class="e" d="M175.777,207s-.155.281-.367.774" transform="translate(-173.272 -189.285)"/><path class="h" d="M173.917,211.14c-.917,3-1.547,8.132,3.335,11.244,12.07,7.7,16.133-10.459,6.877-8.826-6.356,1.146.367,17.944,10.316,14.557" transform="translate(-172.363 -191.052)"/><path class="e" d="M211.66,239.928c.252-.115.51-.241.768-.378" transform="translate(-188.747 -203.18)"/></g><g transform="translate(80.757 97.373)"><path class="i" d="M174.3,411.911s-6.814,4.636-9.559,4.327a1.278,1.278,0,0,1-.808-.344,21.031,21.031,0,0,1-3.227-5.089s.854-1.181,3.484,1.954l1.668-1.53-3.439-3.473s1.943-1.542,5.244.424A17.566,17.566,0,0,1,167.023,397L159,389.262l7.118-6.2.573-.481s.447.441,1.146,1.146,1.668,1.553,2.716,2.476c2.51,2.206,5.548,4.585,6.877,4.585C179.827,390.707,174.3,411.911,174.3,411.911Z" transform="translate(-130.025 -248.267)"/><g class="j" transform="translate(28.975 134.313)"><path class="k" d="M169.029,409.232s-3.886,4.012-4.293,7.364a1.278,1.278,0,0,1-.808-.344,21.032,21.032,0,0,1-3.227-5.089s.854-1.181,3.484,1.954l1.668-1.53-3.439-3.473s1.943-1.542,5.244.424a17.566,17.566,0,0,1-.636-11.176L159,389.621l7.118-6.2,1.719.648c.7.665,1.668,1.553,2.717,2.476-1.507,2.206-4.734,6.774-4.734,6.774l2.791,3.782S166.892,406.636,169.029,409.232Z" transform="translate(-159 -382.939)"/></g><path class="e" d="M174.3,411.911s-6.814,4.636-9.559,4.327a1.278,1.278,0,0,1-.808-.344,21.031,21.031,0,0,1-3.227-5.089s.854-1.181,3.484,1.954l1.668-1.53-3.439-3.473s1.943-1.542,5.244.424A17.566,17.566,0,0,1,167.023,397L159,389.262l7.118-6.2.573-.481s.447.441,1.146,1.146,1.668,1.553,2.716,2.476c2.51,2.206,5.548,4.585,6.877,4.585C179.827,390.707,174.3,411.911,174.3,411.911Z" transform="translate(-130.025 -248.267)"/><path class="e" d="M171,430.3a8.482,8.482,0,0,1,1.794-3.043" transform="translate(-135.147 -267.34)"/><path class="l" d="M271.41,310.6a19.422,19.422,0,0,1-3.857,4.161h0c-12.528,10.373-41.412,15.474-41.412,15.474s-.969,1.45-2.459,3.513c-2.671,3.708-7.043,9.4-10.608,12.259h0c-1.507,1.209-2.866,1.908-3.9,1.719l5.422,20.018,2.424,8.688s-24.907,10.889-67.506-1.559c0,0-.487-5.559-.126-6.745a.582.582,0,0,1,.057-.178,7.875,7.875,0,0,1,1.673-2.1s-.241-3.576-.361-7.215a48.715,48.715,0,0,1,.086-6.963c.3-1.834,1.645-6.27,2.321-8.448l.4-1.267-2.12-19.852-.607-5.731-.034-.3v-.143l-.332-3.066L139.5,316.217s.573,1.284,1.364,3.083a90.628,90.628,0,0,1,4.012,10.316,3.541,3.541,0,0,0,.138.481c1.014,2.894,4.877,5.525,4.877,5.525l-10.379,12.127-3.066-2.143a9.751,9.751,0,0,1-1.238.779,11.33,11.33,0,0,1-10.889.246,16.2,16.2,0,0,1-5.124-4.539c-8.138-10.568-11.68-19.216-10.528-29.343S155.4,271.371,164.44,271.7l13.451,2.969a3.147,3.147,0,0,1,1.685-.831c2.447.126,2.51,2.969,2.51,2.969l30.145,4.894a22.583,22.583,0,0,1,3.668-1.542,2.367,2.367,0,0,1,1.908,1.209s7.806-4.677,10.316-3.588C236.388,281.343,277.513,301.327,271.41,310.6Z" transform="translate(-108.449 -200.93)"/><path class="m" d="M197.2,424.9a22.534,22.534,0,0,1-13.05,7.078c-1.587.252-2.98.5-4.2.757a7.875,7.875,0,0,1,1.673-2.1s-.241-3.576-.361-7.215C184.8,425.753,190.965,428.446,197.2,424.9Z" transform="translate(-138.968 -265.701)"/><path class="m" d="M185.155,380.829l.4-1.267-2.12-19.852c3.169,4.545,14.471,20.024,22.259,21.7C213.833,383.15,192.061,386.239,185.155,380.829Z" transform="translate(-140.454 -238.503)"/><path class="m" d="M277.252,423.148c-8.511-.969-20.54-3.112-21.743-7.565-1.874-6.957,7.244-11.13,20.236-14.173-1.507,1.209-2.866,1.908-3.9,1.719Z" transform="translate(-171.119 -256.305)"/><path class="m" d="M350.585,334.884c-12.528,10.373-41.412,15.474-41.412,15.474s-.969,1.45-2.459,3.513a48.175,48.175,0,0,1-1.84-32.008s2.224,12.035,11.462,14.9c0,0-7.072-5.267-4.585-17.944,0,0,2.413,14.9,18.11,19.038C337.478,339.9,344.934,337.681,350.585,334.884Z" transform="translate(-191.487 -221.047)"/><path class="m" d="M164.7,326.162l-.344-3.209L153.394,326.3s.573,1.284,1.364,3.083c-4.189-.43-12.138,3.439-13.525-.779-1.673-5.112,8.6-3.353,8.6-3.353l9.708-5.645a17.322,17.322,0,0,1,2.837-13.754l.888,5.479c.424-10.413,4.5-16.11,4.5-16.11C164.392,303.455,164.483,323.749,164.7,326.162Z" transform="translate(-122.361 -210.973)"/><path class="m" d="M161.7,380.935l-10.379,12.127-3.066-2.143a9.744,9.744,0,0,1-1.238.779,11.33,11.33,0,0,1-10.889.246c3.364-4.654,10.316-11.5,18.574-14.144a82.8,82.8,0,0,0-5.467,9.422l2.132,2.1S156.687,383.256,161.7,380.935Z" transform="translate(-120.261 -246.226)"/><path class="m" d="M223.506,290.07c0,1.072-.676,13.181,8.15,16.408s16.654-2.229,16.654-2.229-13.531,13.055-21.778,6.075S223.506,290.07,223.506,290.07Z" transform="translate(-156.866 -208.774)"/><path class="e" d="M149.486,374.862s-.476-5.559-.12-6.74a7.185,7.185,0,0,1,1.719-2.292s-.751-11.267-.269-14.173c.413-2.493,2.717-9.743,2.717-9.743l-3.106-29.079-10.958,3.353s4.665,10.316,5.387,13.376,5.02,6,5.02,6L139.5,347.686l-3.066-2.138s-9.055,7.084-17.233-3.507-11.691-19.216-10.545-29.371,46.736-41.372,55.78-41.051l13.451,2.974a3.128,3.128,0,0,1,1.679-.831c2.447.126,2.51,2.969,2.51,2.969l30.145,4.894a22.67,22.67,0,0,1,3.674-1.542,2.367,2.367,0,0,1,1.9,1.209s7.806-4.671,10.316-3.588c8.253,3.565,49.373,23.549,43.275,32.822-8.66,13.181-45.275,19.663-45.275,19.663s-12.178,18.339-16.975,17.491l7.846,28.707" transform="translate(-108.441 -200.896)"/><path class="n" d="M320.594,298.543c13.835,9.135,24.987,7.45,33.716-4.31,0,0,7.267-9.37,6.751-19.485S358.132,231.68,326.64,240.1c-5.187,1.387-17.285,17.588-18.3,22.041-.47,2.035-5.324,12.39-10.041,23.113" transform="translate(-189.492 -186.862)"/><path class="o" d="M247.345,173.067s8.814-1.335,14.935,4.144c7.743,6.929,16.437,25.612,4.058,56.571,0,0-18.288-12.138-49.5-4.012,0,0,2.688-7.261-2.029-30.122C212.678,189.3,218.042,165.473,247.345,173.067Z" transform="translate(-153.672 -158.199)"/><path class="a" d="M241.78,279.905c13.044,2.115,26.9-12.327,26.9-12.327s-7.089-.871-7.725-4.2c-2.035-10.5,6.149-23.5,6.149-23.5s-31.67.877-26.133,8.023a17.919,17.919,0,0,1,2.5,4.292c1.92,4.717.573,8.276-.43,9.17a1.385,1.385,0,0,1-.235.155c-1.914.871-9.783-.43-9.783-.43S229.876,277.974,241.78,279.905Z" transform="translate(-161.466 -187.348)"/><path class="e" d="M273.692,295.19a35.637,35.637,0,0,1-14.826,1.691l-3.966,1.943" transform="translate(-170.964 -210.96)"/><path class="e" d="M241.447,294.669l-.287-2.6s-6.5-2.034-8.511-5.9" transform="translate(-161.466 -207.109)"/><path class="d" d="M250.79,269.407c9.7,2.533,14.253-9.9,14.253-9.9s-7.76-2.292-13.823.757C253.14,264.977,251.81,268.536,250.79,269.407Z" transform="translate(-169.21 -195.372)"/><path class="a" d="M268.336,207.711c2.355-13.244-.264-29.136-20.425-27.818-14.4.94-14.282,16.729-13.33,21.445,1.6,7.926-.693,11.044,1.777,17.7,1.777,4.785,5.9,10.138,10.751,12.144,2.986,1.232,15.073-7.25,15.967-11.13" transform="translate(-162.135 -161.707)"/><path class="e" d="M246.6,221.68a10.86,10.86,0,0,1-3.439,7.886c-2.04,1.759,2.636,3.559,2.636,3.559" transform="translate(-165.735 -179.579)"/><path class="e" d="M238.16,212.026s-4.447-2.166-7.45,1.41" transform="translate(-160.637 -175.18)"/><path class="e" d="M256.73,211.557a15.033,15.033,0,0,1,9.508.378" transform="translate(-171.745 -175.003)"/><path class="d" d="M264.776,221.068c.138,1.278,1,2.235,1.92,2.132s1.559-1.215,1.421-2.493-1-2.229-1.92-2.132S264.639,219.79,264.776,221.068Z" transform="translate(-175.172 -178.25)"/><path class="e" d="M248.53,246.293a25.016,25.016,0,0,0,9.943-3.633s.418,5.559-4.235,6.711c-3.57.888-4.952-3.186-4.952-3.186" transform="translate(-168.245 -188.535)"/><path class="p" d="M248.78,182.154s-1.272,15.7,12.58,21.4l6.493-15.09-9.823-10.889L243.238,173.3c-22.1,1.381-31.618,15.113-19.348,51.705C223.89,225.022,220.457,181.444,248.78,182.154Z" transform="translate(-155.417 -158.925)"/><path class="a" d="M288,224.034c-.195-1.765,4.27-6.258,5.777-3.376,2.573,4.917.7,9.17-1.96,10.889-1.192.751-2.705,2.161-3.765.831" transform="translate(-185.09 -178.741)"/><path class="d" d="M241.235,222.137c.143,1.278,1,2.235,1.926,2.132s1.559-1.215,1.421-2.493-1-2.235-1.926-2.132S241.092,220.831,241.235,222.137Z" transform="translate(-165.122 -178.706)"/><g class="q" transform="translate(66.17 16.523)"><path class="r" d="M224.244,219.46c-.166,1.06-.281,2.138-.344,3.209" transform="translate(-223.9 -195.154)"/><path class="r" d="M249.42,183.764c-11.2-.292-21.606,6.843-24.07,18.047" transform="translate(-224.519 -179.911)"/><path class="r" d="M247.322,177.7s-16.15-3.8-22.2,6.912" transform="translate(-224.421 -177.048)"/><path class="r" d="M286.72,210.75a17.313,17.313,0,0,0,3.479,3.668" transform="translate(-250.718 -191.435)"/><path class="r" d="M275.54,181.84a43.626,43.626,0,0,0,5.124,14.591" transform="translate(-245.945 -179.094)"/><path class="r" d="M303.1,266.6c-.287,1.284-.625,2.556-1,3.817" transform="translate(-257.284 -215.278)"/><path class="r" d="M302.22,229.36c2.619,5.817,2.441,13.055,1.364,19.176" transform="translate(-257.335 -199.38)"/><path class="r" d="M295.476,247a15.64,15.64,0,0,1-4.556,11.966" transform="translate(-252.511 -206.91)"/><path class="r" d="M285.88,185.11c2.745,3.714,4.785,7.7,7.966,11.09,3.353,3.57,6.705,7.662,7.336,12.694" transform="translate(-250.359 -180.49)"/><path class="r" d="M279.12,178.37a12.036,12.036,0,0,1,2.155,1.805" transform="translate(-247.473 -177.612)"/></g><path class="s" d="M357.761,301.971c-.321.069-.642.126-.974.172-8.665,1.238-18.385-5.949-21.663-14.574-2.59-6.814-.327-14.545.911-17.852.39-1.037.671-1.639.671-1.639,5.227-7.45,35.613,7.135,35.968,15.181S366.638,300.023,357.761,301.971Z" transform="translate(-204.703 -198.508)"/><path class="i" d="M367.269,286.318s-1.719,12.792-10.482,17.795c-8.665,1.238-18.385-5.949-21.663-14.574-2.59-6.814-.327-14.545.911-17.852C346.276,265.836,367.269,286.318,367.269,286.318Z" transform="translate(-204.703 -200.478)"/><g class="t" transform="translate(129.23 70.158)"><path class="k" d="M367.269,286.318s-1.719,12.792-10.482,17.795c-8.665,1.238-18.385-5.949-21.663-14.574-2.59-6.814-.327-14.545.911-17.852C346.276,265.836,367.269,286.318,367.269,286.318Z" transform="translate(-333.933 -270.636)"/></g><path class="e" d="M367.269,286.318s-1.719,12.792-10.482,17.795c-8.665,1.238-18.385-5.949-21.663-14.574-2.59-6.814-.327-14.545.911-17.852C346.276,265.836,367.269,286.318,367.269,286.318Z" transform="translate(-204.703 -200.478)"/><path class="e" d="M329.57,309.379s9.869,14.167,21.394,15.348,18.912-8.528,19.365-15.846" transform="translate(-202.841 -216.804)"/><path class="a" d="M319.89,186.581c.865-2.424,7.089-1.61,9.066,5.955s9.743,25.956,9.743,25.956,30.947-45.51,36.472-47.264,3.353,6.132-4.058,17.073c0,0,6.94-1.221,8.763,0s.934,8.6,1.9,11.153c1.628,4.315-1.989,5.227-1.989,5.227a7.719,7.719,0,0,1,4.831,1.84c1.989,1.863.991,9.559,1.559,11.737s-3.227,4.012-3.227,4.012,9.118,4.969,7.061,6.218c-3.473,2.1-5.45-.052-5.45-.052s-14.012,17.594-24.58,21.514-31.137-11.657-33.349-20.139.43-7.96-1.249-22.076S319.89,186.581,319.89,186.581Z" transform="translate(-198.708 -157.936)"/><rect class="a" width="47.522" height="81.776" rx="4.72" transform="translate(122.935 11.987) rotate(-14.61)"/><path class="n" d="M356.91,163.86a.66.66,0,1,1-1.278.332.653.653,0,0,1,.47-.808A.665.665,0,0,1,356.91,163.86Z" transform="translate(-213.956 -154.683)"/><path class="n" d="M371.925,160.18a.413.413,0,1,1-.5-.3A.413.413,0,0,1,371.925,160.18Z" transform="translate(-220.575 -153.193)"/><rect class="u" width="5.448" height="0.471" rx="0.235" transform="translate(144.246 9.335) rotate(-14.452)"/><path class="n" d="M369.928,153.248l19.1,73.288a1.6,1.6,0,0,1-1.146,1.954l-40.226,10.482a1.6,1.6,0,0,1-1.954-1.146l-19.1-73.288a1.6,1.6,0,0,1,1.146-1.954l8.258-2.155a1.341,1.341,0,0,1,1.438.527l.6.854a1.341,1.341,0,0,0,1.439.527l18.127-4.722a1.347,1.347,0,0,0,1-1.146l.109-1.037a1.335,1.335,0,0,1,1-1.146l8.258-2.155A1.6,1.6,0,0,1,369.928,153.248Z" transform="translate(-201.551 -149.865)"/><g transform="translate(2.204 7.945)"><circle class="a" cx="16.992" cy="16.992" r="16.992" transform="matrix(0.398, -0.917, 0.917, 0.398, 131.837, 46.56)"/><path class="v" d="M365.162,215.588a1.5,1.5,0,0,0,1.822.848l5.588-1.61a2.042,2.042,0,0,0,.069.355,2.315,2.315,0,1,0,4.447-1.289,2.426,2.426,0,0,0-.132-.338l5.582-1.61a1.507,1.507,0,0,0,1.095-1.719,1.456,1.456,0,0,0-1.845-1.146l-.47-.287a4.688,4.688,0,0,1-2.1-2.722l-1.06-3.674a6.516,6.516,0,0,0-7.2-4.642,1.771,1.771,0,1,0-1.719.5,6.516,6.516,0,0,0-3.645,7.806l1.072,3.714a4.671,4.671,0,0,1-.573,3.874h0a1.461,1.461,0,0,0-.934,1.943Zm5.508-19.291a1.026,1.026,0,1,1-.492-.619,1.032,1.032,0,0,1,.492.619Z" transform="translate(-217.99 -168.088)"/><line class="v" x1="2.464" y2="0.716" transform="translate(155.487 45.557)"/><line class="v" x1="11.296" y2="3.267" transform="translate(150.301 41.614)"/></g><path class="e" d="M310.488,347.2a68.793,68.793,0,0,1-3.439-35.825" transform="translate(-192.803 -217.871)"/><path class="e" d="M272.516,404.41s-14.064,4.3-15.474,7.536,6.3.51,6.3.51" transform="translate(-171.805 -257.586)"/><path class="e" d="M283.157,288.57s-12.952,12.837-21.617,16.259" transform="translate(-173.799 -208.134)"/><path class="e" d="M225,282.55s-2.361,17.331,6.447,20.6" transform="translate(-158.075 -205.564)"/><path class="e" d="M181.71,321.454s-.069-22.718,4.442-29.744" transform="translate(-139.719 -209.474)"/><path class="e" d="M178.561,303.22s-1.267,14.11,1.582,18.712" transform="translate(-138.255 -214.388)"/><path class="e" d="M153.481,348.5s-9.852-3.393-11.892.814,5.874.476,5.874.476" transform="translate(-122.449 -233.165)"/><path class="e" d="M165.353,375.16s-9.674,5.45-10.173,8.568" transform="translate(-128.394 -245.099)"/><path class="e" d="M200.5,348.86s18.517,27.985,28.735,25.417" transform="translate(-147.741 -233.871)"/><path class="e" d="M210.19,417.35s-14.517,10.642-16.62,9.743" transform="translate(-144.782 -263.11)"/><path class="m" d="M400,336.992c.98-.8,1.628-1.335,1.84-1.5C401.622,335.679,400.991,336.229,400,336.992Z" transform="translate(-232.907 -228.164)"/></g></g></svg>